<svg xmlns="http://www.w3.org/2000/svg" xmlns:xlink="http://www.w3.org/1999/xlink" version="1.1" x="0" y="0" height="230" width="800" viewBox="0 0 800 230" preserveAspectRatio="none"  >
<g label="Query sequence" class="clusterblast-cluster"  >
<text x="5" y="20" class="clusterblast-acc"  >
Query sequence</text>
<line x1="10" y1="35" x2="778.0" y2="35" style="stroke-width:1; stroke:grey; "  />
<polygon points="275,35 279,30 279,40 275,35 " style="fill:#d81515; stroke-width:1; stroke:black; " description="&lt;b&gt;ctg47_1&lt;/b&gt;&lt;br&gt;ctg47 1&lt;br&gt;Location: 2 - 221" locus_tag="ctg47_1" class="clusterblast-orf" id="dummy-1_q0_0_all"  />
<polygon points="279,35 284,30 306,30 306,40 284,40 279,35 " style="fill:#4dd815; stroke-width:1; stroke:black; " description="&lt;b&gt;ctg47_2&lt;/b&gt;&lt;br&gt;ctg47 2&lt;br&gt;Location: 225 - 1602" locus_tag="ctg47_2" class="clusterblast-orf" id="dummy-1_q1_0_all"  />
<polygon points="309,35 314,30 322,30 322,40 314,40 309,35 " style="fill:#1585d8; stroke-width:1; stroke:black; " description="&lt;b&gt;ctg47_3&lt;/b&gt;&lt;br&gt;ctg47 3&lt;br&gt;Location: 1731 - 2382" locus_tag="ctg47_3" class="clusterblast-orf" id="dummy-1_q2_0_all"  />
<polygon points="325,35 330,30 331,30 331,40 330,40 325,35 " style="fill:#1585d8; stroke-width:1; stroke:black; " description="&lt;b&gt;ctg47_4&lt;/b&gt;&lt;br&gt;ctg47 4&lt;br&gt;Location: 2539 - 2863" locus_tag="ctg47_4" class="clusterblast-orf" id="dummy-1_q3_0_all"  />
<polygon points="332,35 335,30 335,40 332,35 " style="fill:#1585d8; stroke-width:1; stroke:black; " description="&lt;b&gt;ctg47_5&lt;/b&gt;&lt;br&gt;ctg47 5&lt;br&gt;Location: 2914 - 3043" locus_tag="ctg47_5" class="clusterblast-orf" id="dummy-1_q4_0_all"  />
<polygon points="336,40 342,40 347,35 342,30 336,30 336,40 " style="fill:#a115d8; stroke-width:1; stroke:black; " description="&lt;b&gt;ctg47_6&lt;/b&gt;&lt;br&gt;ctg47 6&lt;br&gt;Location: 3134 - 3683" locus_tag="ctg47_6" class="clusterblast-orf" id="dummy-1_q5_0_all"  />
<polygon points="348,35 353,30 360,30 360,40 353,40 348,35 " style="fill:#d86915; stroke-width:1; stroke:black; " description="&lt;b&gt;ctg47_7&lt;/b&gt;&lt;br&gt;ctg47 7&lt;br&gt;Location: 3744 - 4341" locus_tag="ctg47_7" class="clusterblast-orf" id="dummy-1_q6_0_all"  />
<polygon points="360,35 365,30 384,30 384,40 365,40 360,35 " style="fill:#15d831; stroke-width:1; stroke:black; " description="&lt;b&gt;ctg47_8&lt;/b&gt;&lt;br&gt;ctg47 8&lt;br&gt;Location: 4351 - 5578" locus_tag="ctg47_8" class="clusterblast-orf" id="dummy-1_q7_0_all"  />
<polygon points="385,35 388,30 388,40 385,35 " style="fill:#1531d8; stroke-width:1; stroke:black; " description="&lt;b&gt;ctg47_9&lt;/b&gt;&lt;br&gt;ctg47 9&lt;br&gt;Location: 5607 - 5778" locus_tag="ctg47_9" class="clusterblast-orf" id="dummy-1_q8_0_all"  />
<polygon points="389,35 394,30 398,30 398,40 394,40 389,35 " style="fill:#d815bc; stroke-width:1; stroke:black; " description="&lt;b&gt;ctg47_10&lt;/b&gt;&lt;br&gt;ctg47 10&lt;br&gt;Location: 5795 - 6290" locus_tag="ctg47_10" class="clusterblast-orf" id="dummy-1_q9_0_all"  />
<polygon points="400,35 405,30 417,30 417,40 405,40 400,35 " style="fill:#d8bc15; stroke-width:1; stroke:black; " description="&lt;b&gt;ctg47_11&lt;/b&gt;&lt;br&gt;ctg47 11&lt;br&gt;Location: 6369 - 7209" locus_tag="ctg47_11" class="clusterblast-orf" id="dummy-1_q10_0_all"  />
<polygon points="419,40 438,40 443,35 438,30 419,30 419,40 " style="fill:#15d885; stroke-width:1; stroke:black; " description="&lt;b&gt;ctg47_12&lt;/b&gt;&lt;br&gt;ctg47 12&lt;br&gt;Location: 7311 - 8535" locus_tag="ctg47_12" class="clusterblast-orf" id="dummy-1_q11_0_all"  />
<polygon points="443,40 463,40 468,35 463,30 443,30 443,40 " style="fill:#4d15d8; stroke-width:1; stroke:black; " description="&lt;b&gt;ctg47_13&lt;/b&gt;&lt;br&gt;ctg47 13&lt;br&gt;Location: 8536 - 9820" locus_tag="ctg47_13" class="clusterblast-orf" id="dummy-1_q12_0_all"  />
<polygon points="470,40 474,40 479,35 474,30 470,30 470,40 " style="fill:#d81569; stroke-width:1; stroke:black; " description="&lt;b&gt;ctg47_14&lt;/b&gt;&lt;br&gt;ctg47 14&lt;br&gt;Location: 9911 - 10361" locus_tag="ctg47_14" class="clusterblast-orf" id="dummy-1_q13_0_all"  />
<polygon points="478,40 486,40 491,35 486,30 478,30 478,40 " style="fill:#a1d815; stroke-width:1; stroke:black; " description="&lt;b&gt;ctg47_15&lt;/b&gt;&lt;br&gt;ctg47 15&lt;br&gt;Location: 10353 - 11010" locus_tag="ctg47_15" class="clusterblast-orf" id="dummy-1_q14_0_all"  />
<polygon points="493,40 500,40 505,35 500,30 493,30 493,40 " style="fill:#15d8d8; stroke-width:1; stroke:black; " description="&lt;b&gt;ctg47_16&lt;/b&gt;&lt;br&gt;ctg47 16&lt;br&gt;Location: 11096 - 11687" locus_tag="ctg47_16" class="clusterblast-orf" id="dummy-1_q15_0_all"  />
</g>
<g label="NZ_CP026082" description="NZ_CP026082 (1381178-1422456): Streptococcus agalactiae strain YZ1605 chromos... (33% of genes show similarity), T3PKS" class="clusterblast-cluster"  >
<text x="5" y="70" class="clusterblast-acc"  >
<a xlink:href="https://antismash-db.secondarymetabolites.org/area.html?record=NZ_CP026082&amp;start=1381178&amp;end=1422456" target="_blank">NZ_CP026082 (1381178-1422456)</a>: Streptococcus agalactiae strain YZ1605 chromos... (33% of genes show similarity), T3PKS</text>
<line x1="10" y1="85" x2="778.0" y2="85" style="stroke-width:1; stroke:grey; "  />
</g>
<g id="a1_000"  >
<polygon points="0,85 4,80 4,90 0,85 " style="fill:white; stroke-width:1; stroke:black; " description="&lt;b&gt;C2E46_RS07000&lt;/b&gt;&lt;br&gt;hypothetical protein&lt;br&gt;Location: 1381922 - 1382164" locus_tag="C2E46_RS07000" class="clusterblast-orf" id="dummy-1_h1_2_0"  />
</g>
<g id="a1_001"  >
<polygon points="5,85 10,80 40,80 40,90 10,90 5,85 " style="fill:white; stroke-width:1; stroke:black; " description="&lt;b&gt;C2E46_RS07005&lt;/b&gt;&lt;br&gt;type IV secretory system conjugative DNA transfer family protein&lt;br&gt;Location: 1382182 - 1383999" locus_tag="C2E46_RS07005" class="clusterblast-orf" id="dummy-1_h1_2_1"  />
</g>
<g id="a1_002"  >
<polygon points="40,85 45,80 50,80 50,90 45,90 40,85 " style="fill:white; stroke-width:1; stroke:black; " description="&lt;b&gt;C2E46_RS07010&lt;/b&gt;&lt;br&gt;hypothetical protein&lt;br&gt;Location: 1383999 - 1384487" locus_tag="C2E46_RS07010" class="clusterblast-orf" id="dummy-1_h1_2_2"  />
</g>
<g id="a1_003"  >
<polygon points="51,85 56,80 63,80 63,90 56,90 51,85 " style="fill:white; stroke-width:1; stroke:black; " description="&lt;b&gt;C2E46_RS07015&lt;/b&gt;&lt;br&gt;CPBP family intramembrane metalloprotease&lt;br&gt;Location: 1384564 - 1385148" locus_tag="C2E46_RS07015" class="clusterblast-orf" id="dummy-1_h1_2_3"  />
</g>
<g id="a1_004"  >
<polygon points="63,85 68,80 68,80 68,90 68,90 63,85 " style="fill:white; stroke-width:1; stroke:black; " description="&lt;b&gt;C2E46_RS07020&lt;/b&gt;&lt;br&gt;hypothetical protein&lt;br&gt;Location: 1385151 - 1385384" locus_tag="C2E46_RS07020" class="clusterblast-orf" id="dummy-1_h1_2_4"  />
</g>
<g id="a1_005"  >
<polygon points="68,85 73,80 75,80 75,90 73,90 68,85 " style="fill:white; stroke-width:1; stroke:black; " description="&lt;b&gt;C2E46_RS07025&lt;/b&gt;&lt;br&gt;hypothetical protein&lt;br&gt;Location: 1385393 - 1385776" locus_tag="C2E46_RS07025" class="clusterblast-orf" id="dummy-1_h1_2_5"  />
</g>
<g id="a1_006"  >
<polygon points="76,85 81,80 81,80 81,90 81,90 76,85 " style="fill:white; stroke-width:1; stroke:black; " description="&lt;b&gt;C2E46_RS07030&lt;/b&gt;&lt;br&gt;hypothetical protein&lt;br&gt;Location: 1385787 - 1386089" locus_tag="C2E46_RS07030" class="clusterblast-orf" id="dummy-1_h1_2_6"  />
</g>
<g id="a1_007"  >
<polygon points="83,90 91,90 96,85 91,80 83,80 83,90 " style="fill:white; stroke-width:1; stroke:black; " description="&lt;b&gt;C2E46_RS07035&lt;/b&gt;&lt;br&gt;IS3 family transposase&lt;br&gt;Location: 1386159 - 1386806" locus_tag="C2E46_RS07035" class="clusterblast-orf" id="dummy-1_h1_2_7"  />
</g>
<g id="a1_008"  >
<polygon points="98,85 103,80 125,80 125,90 103,90 98,85 " style="fill:white; stroke-width:1; stroke:black; " description="&lt;b&gt;C2E46_RS07040&lt;/b&gt;&lt;br&gt;DNA (cytosine-5-)-methyltransferase&lt;br&gt;Location: 1386941 - 1388296" locus_tag="C2E46_RS07040" class="clusterblast-orf" id="dummy-1_h1_2_8"  />
</g>
<g id="a1_009"  >
<polygon points="128,85 133,80 144,80 144,90 133,90 128,85 " style="fill:white; stroke-width:1; stroke:black; " description="&lt;b&gt;C2E46_RS07045&lt;/b&gt;&lt;br&gt;replication initiator protein A&lt;br&gt;Location: 1388445 - 1389263" locus_tag="C2E46_RS07045" class="clusterblast-orf" id="dummy-1_h1_2_9"  />
</g>
<g id="a1_0010"  >
<polygon points="144,85 147,80 147,90 144,85 " style="fill:white; stroke-width:1; stroke:black; " description="&lt;b&gt;C2E46_RS11510&lt;/b&gt;&lt;br&gt;hypothetical protein&lt;br&gt;Location: 1389260 - 1389433" locus_tag="C2E46_RS11510" class="clusterblast-orf" id="dummy-1_h1_2_10"  />
</g>
<g id="a1_0011"  >
<polygon points="151,85 156,80 158,80 158,90 156,90 151,85 " style="fill:white; stroke-width:1; stroke:black; " description="&lt;b&gt;C2E46_RS07050&lt;/b&gt;&lt;br&gt;50S ribosomal protein L7/L12&lt;br&gt;Location: 1389632 - 1389997" locus_tag="C2E46_RS07050" class="clusterblast-orf" id="dummy-1_h1_2_11"  />
</g>
<g id="a1_0012"  >
<polygon points="160,85 165,80 169,80 169,90 165,90 160,85 " style="fill:white; stroke-width:1; stroke:black; " description="&lt;b&gt;C2E46_RS07055&lt;/b&gt;&lt;br&gt;50S ribosomal protein L10&lt;br&gt;Location: 1390061 - 1390561" locus_tag="C2E46_RS07055" class="clusterblast-orf" id="dummy-1_h1_2_12"  />
</g>
<g id="a1_0013"  >
<polygon points="178,90 214,90 219,85 214,80 178,80 178,90 " style="fill:white; stroke-width:1; stroke:black; " description="&lt;b&gt;C2E46_RS07060&lt;/b&gt;&lt;br&gt;ATP-dependent Clp protease ATP-binding subunit&lt;br&gt;Location: 1390994 - 1393102" locus_tag="C2E46_RS07060" class="clusterblast-orf" id="dummy-1_h1_2_13"  />
</g>
<g id="a1_0014"  >
<polygon points="221,85 226,80 240,80 240,90 226,90 221,85 " style="fill:#d81515; stroke-width:1; stroke:black; " description="&lt;b&gt;C2E46_RS07065&lt;/b&gt;&lt;br&gt;homocysteine S-methyltransferase&lt;br&gt;Location: 1393196 - 1394140&lt;br&gt;&lt;br&gt;&lt;b&gt;BlastP hit with ctg47_1&lt;/b&gt;&lt;br&gt;Percentage identity: 99&lt;br&gt;Percentage coverage: 100&lt;br&gt;BLAST bit score: 146&lt;br&gt;E-value: 1.1e-33" locus_tag="C2E46_RS07065" class="clusterblast-orf" id="dummy-1_h1_2_14"  />
</g>
<g id="a1_0015"  >
<polygon points="240,85 245,80 267,80 267,90 245,90 240,85 " style="fill:#4dd815; stroke-width:1; stroke:black; " description="&lt;b&gt;C2E46_RS07070&lt;/b&gt;&lt;br&gt;amino acid permease&lt;br&gt;Location: 1394145 - 1395521&lt;br&gt;&lt;br&gt;&lt;b&gt;BlastP hit with ctg47_2&lt;/b&gt;&lt;br&gt;Percentage identity: 99&lt;br&gt;Percentage coverage: 100&lt;br&gt;BLAST bit score: 857&lt;br&gt;E-value: 6e-247" locus_tag="C2E46_RS07070" class="clusterblast-orf" id="dummy-1_h1_2_15"  />
</g>
<g id="a1_0016"  >
<polygon points="270,85 275,80 295,80 295,90 275,90 270,85 " style="fill:#1585d8; stroke-width:1; stroke:black; " description="&lt;b&gt;C2E46_RS11520&lt;/b&gt;&lt;br&gt;HXXEE domain-containing protein&lt;br&gt;Location: 1395651 - 1396964&lt;br&gt;&lt;br&gt;&lt;b&gt;BlastP hit with ctg47_3&lt;/b&gt;&lt;br&gt;Percentage identity: 95&lt;br&gt;Percentage coverage: 100&lt;br&gt;BLAST bit score: 426&lt;br&gt;E-value: 2.1e-117&lt;br&gt;&lt;br&gt;&lt;b&gt;BlastP hit with ctg47_4&lt;/b&gt;&lt;br&gt;Percentage identity: 98&lt;br&gt;Percentage coverage: 99&lt;br&gt;BLAST bit score: 217&lt;br&gt;E-value: 9.6e-55&lt;br&gt;&lt;br&gt;&lt;b&gt;BlastP hit with ctg47_5&lt;/b&gt;&lt;br&gt;Percentage identity: 91&lt;br&gt;Percentage coverage: 100&lt;br&gt;BLAST bit score: 79&lt;br&gt;E-value: 9.4e-14" locus_tag="C2E46_RS11520" class="clusterblast-orf" id="dummy-1_h1_2_16"  />
</g>
<g id="a1_0017"  >
<polygon points="297,90 303,90 308,85 303,80 297,80 297,90 " style="fill:#a115d8; stroke-width:1; stroke:black; " description="&lt;b&gt;C2E46_RS07085&lt;/b&gt;&lt;br&gt;TetR/AcrR family transcriptional regulator&lt;br&gt;Location: 1397056 - 1397604&lt;br&gt;&lt;br&gt;&lt;b&gt;BlastP hit with ctg47_6&lt;/b&gt;&lt;br&gt;Percentage identity: 96&lt;br&gt;Percentage coverage: 100&lt;br&gt;BLAST bit score: 349&lt;br&gt;E-value: 1.6e-94" locus_tag="C2E46_RS07085" class="clusterblast-orf" id="dummy-1_h1_2_17"  />
</g>
<g id="a1_0018"  >
<polygon points="309,85 314,80 321,80 321,90 314,90 309,85 " style="fill:#d86915; stroke-width:1; stroke:black; " description="&lt;b&gt;C2E46_RS07090&lt;/b&gt;&lt;br&gt;YihA family ribosome biogenesis GTP-binding protein&lt;br&gt;Location: 1397666 - 1398262&lt;br&gt;&lt;br&gt;&lt;b&gt;BlastP hit with ctg47_7&lt;/b&gt;&lt;br&gt;Percentage identity: 100&lt;br&gt;Percentage coverage: 100&lt;br&gt;BLAST bit score: 396&lt;br&gt;E-value: 1.2e-108" locus_tag="C2E46_RS07090" class="clusterblast-orf" id="dummy-1_h1_2_18"  />
</g>
<g id="a1_0019"  >
<polygon points="321,85 326,80 345,80 345,90 326,90 321,85 " style="fill:#15d831; stroke-width:1; stroke:black; " description="&lt;b&gt;C2E46_RS07095&lt;/b&gt;&lt;br&gt;ATP-dependent Clp protease ATP-binding subunit ClpX&lt;br&gt;Location: 1398273 - 1399499&lt;br&gt;&lt;br&gt;&lt;b&gt;BlastP hit with ctg47_8&lt;/b&gt;&lt;br&gt;Percentage identity: 100&lt;br&gt;Percentage coverage: 100&lt;br&gt;BLAST bit score: 785&lt;br&gt;E-value: 3.4e-225" locus_tag="C2E46_RS07095" class="clusterblast-orf" id="dummy-1_h1_2_19"  />
</g>
<g id="a1_0020"  >
<polygon points="346,85 349,80 349,90 346,85 " style="fill:#1531d8; stroke-width:1; stroke:black; " description="&lt;b&gt;C2E46_RS11525&lt;/b&gt;&lt;br&gt;hypothetical protein&lt;br&gt;Location: 1399529 - 1399699&lt;br&gt;&lt;br&gt;&lt;b&gt;BlastP hit with ctg47_9&lt;/b&gt;&lt;br&gt;Percentage identity: 100&lt;br&gt;Percentage coverage: 100&lt;br&gt;BLAST bit score: 90&lt;br&gt;E-value: 5.4e-17" locus_tag="C2E46_RS11525" class="clusterblast-orf" id="dummy-1_h1_2_20"  />
</g>
<g id="a1_0021"  >
<polygon points="349,85 354,80 359,80 359,90 354,90 349,85 " style="fill:#d815bc; stroke-width:1; stroke:black; " description="&lt;b&gt;C2E46_RS07100&lt;/b&gt;&lt;br&gt;dihydrofolate reductase&lt;br&gt;Location: 1399717 - 1400211&lt;br&gt;&lt;br&gt;&lt;b&gt;BlastP hit with ctg47_10&lt;/b&gt;&lt;br&gt;Percentage identity: 100&lt;br&gt;Percentage coverage: 100&lt;br&gt;BLAST bit score: 343&lt;br&gt;E-value: 1.4e-92" locus_tag="C2E46_RS07100" class="clusterblast-orf" id="dummy-1_h1_2_21"  />
</g>
<g id="a1_0022"  >
<polygon points="361,85 366,80 377,80 377,90 366,90 361,85 " style="fill:#d8bc15; stroke-width:1; stroke:black; " description="&lt;b&gt;C2E46_RS07105&lt;/b&gt;&lt;br&gt;thymidylate synthase&lt;br&gt;Location: 1400291 - 1401130&lt;br&gt;&lt;br&gt;&lt;b&gt;BlastP hit with ctg47_11&lt;/b&gt;&lt;br&gt;Percentage identity: 100&lt;br&gt;Percentage coverage: 100&lt;br&gt;BLAST bit score: 578&lt;br&gt;E-value: 3.3e-163" locus_tag="C2E46_RS07105" class="clusterblast-orf" id="dummy-1_h1_2_22"  />
</g>
<g id="a1_0023"  >
<polygon points="378,90 398,90 403,85 398,80 378,80 378,90 " style="fill:#15d885; stroke-width:1; stroke:black; " description="&lt;b&gt;C2E46_RS07110&lt;/b&gt;&lt;br&gt;hydroxymethylglutaryl-CoA synthase&lt;br&gt;Location: 1401179 - 1402456&lt;br&gt;&lt;br&gt;&lt;b&gt;BlastP hit with ctg47_12&lt;/b&gt;&lt;br&gt;Percentage identity: 100&lt;br&gt;Percentage coverage: 100&lt;br&gt;BLAST bit score: 802&lt;br&gt;E-value: 2.6e-230" locus_tag="C2E46_RS07110" class="clusterblast-orf" id="dummy-1_h1_2_23"  />
</g>
<g id="a1_0024"  >
<polygon points="403,90 424,90 429,85 424,80 403,80 403,90 " style="fill:#4d15d8; stroke-width:1; stroke:black; " description="&lt;b&gt;C2E46_RS07115&lt;/b&gt;&lt;br&gt;hydroxymethylglutaryl-CoA reductase, degradative&lt;br&gt;Location: 1402458 - 1403741&lt;br&gt;&lt;br&gt;&lt;b&gt;BlastP hit with ctg47_13&lt;/b&gt;&lt;br&gt;Percentage identity: 100&lt;br&gt;Percentage coverage: 100&lt;br&gt;BLAST bit score: 806&lt;br&gt;E-value: 1.1e-231" locus_tag="C2E46_RS07115" class="clusterblast-orf" id="dummy-1_h1_2_24"  />
</g>
<g id="a1_0025"  >
<polygon points="430,90 434,90 439,85 434,80 430,80 430,90 " style="fill:#d81569; stroke-width:1; stroke:black; " description="&lt;b&gt;C2E46_RS07120&lt;/b&gt;&lt;br&gt;DUF1836 domain-containing protein&lt;br&gt;Location: 1403833 - 1404281&lt;br&gt;&lt;br&gt;&lt;b&gt;BlastP hit with ctg47_14&lt;/b&gt;&lt;br&gt;Percentage identity: 100&lt;br&gt;Percentage coverage: 41&lt;br&gt;BLAST bit score: 128&lt;br&gt;E-value: 8.1e-28" locus_tag="C2E46_RS07120" class="clusterblast-orf" id="dummy-1_h1_2_25"  />
</g>
<g id="a1_0026"  >
<polygon points="439,90 447,90 452,85 447,80 439,80 439,90 " style="fill:#a1d815; stroke-width:1; stroke:black; " description="&lt;b&gt;C2E46_RS07125&lt;/b&gt;&lt;br&gt;hemolysin III family protein&lt;br&gt;Location: 1404274 - 1404930&lt;br&gt;&lt;br&gt;&lt;b&gt;BlastP hit with ctg47_15&lt;/b&gt;&lt;br&gt;Percentage identity: 100&lt;br&gt;Percentage coverage: 100&lt;br&gt;BLAST bit score: 416&lt;br&gt;E-value: 2.2e-114" locus_tag="C2E46_RS07125" class="clusterblast-orf" id="dummy-1_h1_2_26"  />
</g>
<g id="a1_0027"  >
<polygon points="454,90 467,90 472,85 467,80 454,80 454,90 " style="fill:#15d8d8; stroke-width:1; stroke:black; " description="&lt;b&gt;C2E46_RS07130&lt;/b&gt;&lt;br&gt;diacylglycerol kinase family lipid kinase&lt;br&gt;Location: 1405017 - 1405931&lt;br&gt;&lt;br&gt;&lt;b&gt;BlastP hit with ctg47_16&lt;/b&gt;&lt;br&gt;Percentage identity: 99&lt;br&gt;Percentage coverage: 100&lt;br&gt;BLAST bit score: 381&lt;br&gt;E-value: 7.1e-104" locus_tag="C2E46_RS07130" class="clusterblast-orf" id="dummy-1_h1_2_27"  />
</g>
<g id="a1_0028"  >
<polygon points="474,90 485,90 490,85 485,80 474,80 474,90 " style="fill:white; stroke-width:1; stroke:black; " description="&lt;b&gt;C2E46_RS07135&lt;/b&gt;&lt;br&gt;glutathione S-transferase C-terminal domain-containing protein&lt;br&gt;Location: 1406032 - 1406886" locus_tag="C2E46_RS07135" class="clusterblast-orf" id="dummy-1_h1_2_28"  />
</g>
<g id="a1_0029"  >
<polygon points="491,85 496,80 496,80 496,90 496,90 491,85 " style="fill:white; stroke-width:1; stroke:black; " description="&lt;b&gt;C2E46_RS07140&lt;/b&gt;&lt;br&gt;DUF4649 family protein&lt;br&gt;Location: 1406932 - 1407150" locus_tag="C2E46_RS07140" class="clusterblast-orf" id="dummy-1_h1_2_29"  />
</g>
<g id="a1_0030"  >
<polygon points="497,85 502,80 517,80 517,90 502,90 497,85 " style="fill:white; stroke-width:1; stroke:black; " description="&lt;b&gt;C2E46_RS07145&lt;/b&gt;&lt;br&gt;type 2 isopentenyl-diphosphate Delta-isomerase&lt;br&gt;Location: 1407218 - 1408213" locus_tag="C2E46_RS07145" class="clusterblast-orf" id="dummy-1_h1_2_30"  />
</g>
<g id="a1_0031"  >
<polygon points="516,85 521,80 536,80 536,90 521,90 516,85 " style="fill:white; stroke-width:1; stroke:black; " description="&lt;b&gt;C2E46_RS07150&lt;/b&gt;&lt;br&gt;phosphomevalonate kinase&lt;br&gt;Location: 1408210 - 1409202" locus_tag="C2E46_RS07150" class="clusterblast-orf" id="dummy-1_h1_2_31"  />
</g>
<g id="a1_0032"  >
<polygon points="536,85 541,80 554,80 554,90 541,90 536,85 " style="fill:white; stroke-width:1; stroke:black; " description="&lt;b&gt;C2E46_RS07155&lt;/b&gt;&lt;br&gt;diphosphomevalonate decarboxylase&lt;br&gt;Location: 1409195 - 1410139" locus_tag="C2E46_RS07155" class="clusterblast-orf" id="dummy-1_h1_2_32"  />
</g>
<g id="a1_0033"  >
<polygon points="554,85 559,80 571,80 571,90 559,90 554,85 " style="fill:white; stroke-width:1; stroke:black; " description="&lt;b&gt;C2E46_RS07160&lt;/b&gt;&lt;br&gt;mevalonate kinase&lt;br&gt;Location: 1410121 - 1410999" locus_tag="C2E46_RS07160" class="clusterblast-orf" id="dummy-1_h1_2_33"  />
</g>
<g id="a1_0034"  >
<polygon points="574,85 579,80 598,80 598,90 579,90 574,85 " style="fill:white; stroke-width:1; stroke:black; " description="&lt;b&gt;C2E46_RS07165&lt;/b&gt;&lt;br&gt;HAMP domain-containing histidine kinase&lt;br&gt;Location: 1411115 - 1412344" locus_tag="C2E46_RS07165" class="clusterblast-orf" id="dummy-1_h1_2_34"  />
</g>
<g id="a1_0035"  >
<polygon points="598,85 603,80 611,80 611,90 603,90 598,85 " style="fill:white; stroke-width:1; stroke:black; " description="&lt;b&gt;C2E46_RS07170&lt;/b&gt;&lt;br&gt;response regulator transcription factor&lt;br&gt;Location: 1412337 - 1413029" locus_tag="C2E46_RS07170" class="clusterblast-orf" id="dummy-1_h1_2_35"  />
</g>
<g id="a1_0036"  >
<polygon points="611,85 616,80 624,80 624,90 616,90 611,85 " style="fill:white; stroke-width:1; stroke:black; " description="&lt;b&gt;C2E46_RS07175&lt;/b&gt;&lt;br&gt;GTP pyrophosphokinase family protein&lt;br&gt;Location: 1413031 - 1413657" locus_tag="C2E46_RS07175" class="clusterblast-orf" id="dummy-1_h1_2_36"  />
</g>
<g id="a1_0037"  >
<polygon points="627,85 631,80 631,90 627,85 " style="fill:white; stroke-width:1; stroke:black; " description="&lt;b&gt;C2E46_RS07180&lt;/b&gt;&lt;br&gt;hypothetical protein&lt;br&gt;Location: 1413806 - 1414012" locus_tag="C2E46_RS07180" class="clusterblast-orf" id="dummy-1_h1_2_37"  />
</g>
<g id="a1_0038"  >
<polygon points="643,85 648,80 701,80 701,90 648,90 643,85 " style="fill:white; stroke-width:1; stroke:black; " description="&lt;b&gt;C2E46_RS07185&lt;/b&gt;&lt;br&gt;MucBP domain-containing protein&lt;br&gt;Location: 1414662 - 1417601" locus_tag="C2E46_RS07185" class="clusterblast-orf" id="dummy-1_h1_2_38"  />
</g>
<g id="a1_0039"  >
<polygon points="716,85 721,80 725,80 725,90 721,90 716,85 " style="fill:white; stroke-width:1; stroke:black; " description="&lt;b&gt;C2E46_RS07190&lt;/b&gt;&lt;br&gt;MarR family transcriptional regulator&lt;br&gt;Location: 1418355 - 1418795" locus_tag="C2E46_RS07190" class="clusterblast-orf" id="dummy-1_h1_2_39"  />
</g>
<g id="a1_0040"  >
<polygon points="730,90 766,90 771,85 766,80 730,80 730,90 " style="fill:white; stroke-width:1; stroke:black; " description="&lt;b&gt;C2E46_RS07195&lt;/b&gt;&lt;br&gt;bifunctional metallophosphatase/5'-nucleotidase&lt;br&gt;Location: 1419064 - 1421136" locus_tag="C2E46_RS07195" class="clusterblast-orf" id="dummy-1_h1_2_40"  />
</g>
<g id="a1_0041"  >
<polygon points="771,85 776,80 780,80 780,90 776,90 771,85 " style="fill:white; stroke-width:1; stroke:black; " description="&lt;b&gt;C2E46_RS07200&lt;/b&gt;&lt;br&gt;peptide deformylase&lt;br&gt;Location: 1421173 - 1421583" locus_tag="C2E46_RS07200" class="clusterblast-orf" id="dummy-1_h1_2_41"  />
</g>
</svg>
