<svg xmlns="http://www.w3.org/2000/svg" xmlns:xlink="http://www.w3.org/1999/xlink" version="1.1" x="0" y="0" height="230" width="800" viewBox="0 0 800 230" preserveAspectRatio="none"  >
<g label="Query sequence" class="clusterblast-cluster"  >
<text x="5" y="20" class="clusterblast-acc"  >
Query sequence</text>
<line x1="10" y1="35" x2="778.0" y2="35" style="stroke-width:1; stroke:grey; "  />
<polygon points="0,40 22,40 27,35 22,30 0,30 0,40 " style="fill:#d81515; stroke-width:1; stroke:black; " description="&lt;b&gt;ctg2_8&lt;/b&gt;&lt;br&gt;ctg2 8&lt;br&gt;Location: 6052 - 7498" locus_tag="ctg2_8" class="clusterblast-orf" id="dummy-1_q0_0_all"  />
<polygon points="28,35 33,30 41,30 41,40 33,40 28,35 " style="fill:#63d815; stroke-width:1; stroke:black; " description="&lt;b&gt;ctg2_9&lt;/b&gt;&lt;br&gt;ctg2 9&lt;br&gt;Location: 7554 - 8226" locus_tag="ctg2_9" class="clusterblast-orf" id="dummy-1_q1_0_all"  />
<polygon points="43,35 48,30 49,30 49,40 48,40 43,35 " style="fill:#15b1d8; stroke-width:1; stroke:black; " description="&lt;b&gt;ctg2_10&lt;/b&gt;&lt;br&gt;ctg2 10&lt;br&gt;Location: 8322 - 8643" locus_tag="ctg2_10" class="clusterblast-orf" id="dummy-1_q2_0_all"  />
<polygon points="54,35 59,30 59,30 59,40 59,40 54,35 " style="fill:#15b1d8; stroke-width:1; stroke:black; " description="&lt;b&gt;ctg2_11&lt;/b&gt;&lt;br&gt;ctg2 11&lt;br&gt;Location: 8880 - 9147" locus_tag="ctg2_11" class="clusterblast-orf" id="dummy-1_q3_0_all"  />
<polygon points="60,35 65,30 69,30 69,40 65,40 60,35 " style="fill:#15b1d8; stroke-width:1; stroke:black; " description="&lt;b&gt;ctg2_12&lt;/b&gt;&lt;br&gt;ctg2 12&lt;br&gt;Location: 9231 - 9675" locus_tag="ctg2_12" class="clusterblast-orf" id="dummy-1_q4_0_all"  />
<polygon points="69,35 74,30 94,30 94,40 74,40 69,35 " style="fill:#8a15d8; stroke-width:1; stroke:black; " description="&lt;b&gt;ctg2_13&lt;/b&gt;&lt;br&gt;ctg2 13&lt;br&gt;Location: 9684 - 11004" locus_tag="ctg2_13" class="clusterblast-orf" id="dummy-1_q5_0_all"  />
<polygon points="95,35 100,30 115,30 115,40 100,40 95,35 " style="fill:#d83c15; stroke-width:1; stroke:black; " description="&lt;b&gt;ctg2_14&lt;/b&gt;&lt;br&gt;ctg2 14&lt;br&gt;Location: 11037 - 12099" locus_tag="ctg2_14" class="clusterblast-orf" id="dummy-1_q6_0_all"  />
<polygon points="116,35 121,30 135,30 135,40 121,40 116,35 " style="fill:#d83c15; stroke-width:1; stroke:black; " description="&lt;b&gt;ctg2_15&lt;/b&gt;&lt;br&gt;ctg2 15&lt;br&gt;Location: 12133 - 13153" locus_tag="ctg2_15" class="clusterblast-orf" id="dummy-1_q7_0_all"  />
<polygon points="136,35 141,30 155,30 155,40 141,40 136,35 " style="fill:#d83c15; stroke-width:1; stroke:black; " description="&lt;b&gt;ctg2_16&lt;/b&gt;&lt;br&gt;ctg2 16&lt;br&gt;Location: 13187 - 14219" locus_tag="ctg2_16" class="clusterblast-orf" id="dummy-1_q8_0_all"  />
<polygon points="158,35 163,30 174,30 174,40 163,40 158,35 " style="fill:#3cd815; stroke-width:1; stroke:black; " description="&lt;b&gt;ctg2_17&lt;/b&gt;&lt;br&gt;ctg2 17&lt;br&gt;Location: 14357 - 15176" locus_tag="ctg2_17" class="clusterblast-orf" id="dummy-1_q9_0_all"  />
<polygon points="174,35 179,30 195,30 195,40 179,40 174,35 " style="fill:#3cd815; stroke-width:1; stroke:black; " description="&lt;b&gt;ctg2_18&lt;/b&gt;&lt;br&gt;ctg2 18&lt;br&gt;Location: 15196 - 16282" locus_tag="ctg2_18" class="clusterblast-orf" id="dummy-1_q10_0_all"  />
<polygon points="198,35 203,30 260,30 260,40 203,40 198,35 " style="fill:#158ad8; stroke-width:1; stroke:black; " description="&lt;b&gt;ctg2_19&lt;/b&gt;&lt;br&gt;ctg2 19&lt;br&gt;Location: 16465 - 19711" locus_tag="ctg2_19" class="clusterblast-orf" id="dummy-1_q11_0_all"  />
<polygon points="261,35 266,30 312,30 312,40 266,40 261,35 " style="fill:#158ad8; stroke-width:1; stroke:black; " description="&lt;b&gt;ctg2_20&lt;/b&gt;&lt;br&gt;ctg2 20&lt;br&gt;Location: 19756 - 22414" locus_tag="ctg2_20" class="clusterblast-orf" id="dummy-1_q12_0_all"  />
<polygon points="313,35 318,30 323,30 323,40 318,40 313,35 " style="fill:#158ad8; stroke-width:1; stroke:black; " description="&lt;b&gt;ctg2_21&lt;/b&gt;&lt;br&gt;ctg2 21&lt;br&gt;Location: 22465 - 22981" locus_tag="ctg2_21" class="clusterblast-orf" id="dummy-1_q13_0_all"  />
<polygon points="323,35 328,30 330,30 330,40 328,40 323,35 " style="fill:#b115d8; stroke-width:1; stroke:black; " description="&lt;b&gt;ctg2_22&lt;/b&gt;&lt;br&gt;ctg2 22&lt;br&gt;Location: 23014 - 23356" locus_tag="ctg2_22" class="clusterblast-orf" id="dummy-1_q14_0_all"  />
<polygon points="336,35 341,30 347,30 347,40 341,40 336,35 " style="fill:#d86315; stroke-width:1; stroke:black; " description="&lt;b&gt;ctg2_23&lt;/b&gt;&lt;br&gt;ctg2 23&lt;br&gt;Location: 23699 - 24275" locus_tag="ctg2_23" class="clusterblast-orf" id="dummy-1_q15_0_all"  />
<polygon points="347,35 352,30 370,30 370,40 352,40 347,35 " style="fill:#15d815; stroke-width:1; stroke:black; " description="&lt;b&gt;ctg2_24&lt;/b&gt;&lt;br&gt;ctg2 24&lt;br&gt;Location: 24243 - 25455" locus_tag="ctg2_24" class="clusterblast-orf" id="dummy-1_q16_0_all"  />
<polygon points="370,35 375,30 412,30 412,40 375,40 370,35 " style="fill:#1563d8; stroke-width:1; stroke:black; " description="&lt;b&gt;ctg2_25&lt;/b&gt;&lt;br&gt;ctg2 25&lt;br&gt;Location: 25459 - 27655" locus_tag="ctg2_25" class="clusterblast-orf" id="dummy-1_q17_0_all"  />
<polygon points="412,35 417,30 430,30 430,40 417,40 412,35 " style="fill:#d815d8; stroke-width:1; stroke:black; " description="&lt;b&gt;ctg2_26&lt;/b&gt;&lt;br&gt;ctg2 26&lt;br&gt;Location: 27651 - 28605" locus_tag="ctg2_26" class="clusterblast-orf" id="dummy-1_q18_0_all"  />
<polygon points="430,35 435,30 468,30 468,40 435,40 430,35 " style="fill:#d88a15; stroke-width:1; stroke:black; " description="&lt;b&gt;ctg2_27&lt;/b&gt;&lt;br&gt;ctg2 27&lt;br&gt;Location: 28601 - 30605" locus_tag="ctg2_27" class="clusterblast-orf" id="dummy-1_q19_0_all"  />
<polygon points="468,35 473,30 485,30 485,40 473,40 468,35 " style="fill:#15d83c; stroke-width:1; stroke:black; " description="&lt;b&gt;ctg2_28&lt;/b&gt;&lt;br&gt;ctg2 28&lt;br&gt;Location: 30601 - 31480" locus_tag="ctg2_28" class="clusterblast-orf" id="dummy-1_q20_0_all"  />
<polygon points="484,35 489,30 502,30 502,40 489,40 484,35 " style="fill:#153cd8; stroke-width:1; stroke:black; " description="&lt;b&gt;ctg2_29&lt;/b&gt;&lt;br&gt;ctg2 29&lt;br&gt;Location: 31472 - 32402" locus_tag="ctg2_29" class="clusterblast-orf" id="dummy-1_q21_0_all"  />
<polygon points="502,35 507,30 511,30 511,40 507,40 502,35 " style="fill:#d815b1; stroke-width:1; stroke:black; " description="&lt;b&gt;ctg2_30&lt;/b&gt;&lt;br&gt;ctg2 30&lt;br&gt;Location: 32391 - 32868" locus_tag="ctg2_30" class="clusterblast-orf" id="dummy-1_q22_0_all"  />
<polygon points="511,35 516,30 517,30 517,40 516,40 511,35 " style="fill:#d8b115; stroke-width:1; stroke:black; " description="&lt;b&gt;ctg2_31&lt;/b&gt;&lt;br&gt;ctg2 31&lt;br&gt;Location: 32851 - 33157" locus_tag="ctg2_31" class="clusterblast-orf" id="dummy-1_q23_0_all"  />
<polygon points="516,35 521,30 530,30 530,40 521,40 516,35 " style="fill:#15d863; stroke-width:1; stroke:black; " description="&lt;b&gt;ctg2_32&lt;/b&gt;&lt;br&gt;ctg2 32&lt;br&gt;Location: 33149 - 33872" locus_tag="ctg2_32" class="clusterblast-orf" id="dummy-1_q24_0_all"  />
<polygon points="530,35 535,30 546,30 546,40 535,40 530,35 " style="fill:#1515d8; stroke-width:1; stroke:black; " description="&lt;b&gt;ctg2_33&lt;/b&gt;&lt;br&gt;ctg2 33&lt;br&gt;Location: 33868 - 34717" locus_tag="ctg2_33" class="clusterblast-orf" id="dummy-1_q25_0_all"  />
<polygon points="546,35 551,30 552,30 552,40 551,40 546,35 " style="fill:#d8158a; stroke-width:1; stroke:black; " description="&lt;b&gt;ctg2_34&lt;/b&gt;&lt;br&gt;ctg2 34&lt;br&gt;Location: 34716 - 35022" locus_tag="ctg2_34" class="clusterblast-orf" id="dummy-1_q26_0_all"  />
<polygon points="564,35 569,30 579,30 579,40 569,40 564,35 " style="fill:#d8d815; stroke-width:1; stroke:black; " description="&lt;b&gt;ctg2_35&lt;/b&gt;&lt;br&gt;ctg2 35&lt;br&gt;Location: 35646 - 36432" locus_tag="ctg2_35" class="clusterblast-orf" id="dummy-1_q27_0_all"  />
<polygon points="579,35 584,30 595,30 595,40 584,40 579,35 " style="fill:#15d88a; stroke-width:1; stroke:black; " description="&lt;b&gt;ctg2_36&lt;/b&gt;&lt;br&gt;ctg2 36&lt;br&gt;Location: 36433 - 37252" locus_tag="ctg2_36" class="clusterblast-orf" id="dummy-1_q28_0_all"  />
<polygon points="595,35 600,30 614,30 614,40 600,40 595,35 " style="fill:#3c15d8; stroke-width:1; stroke:black; " description="&lt;b&gt;ctg2_37&lt;/b&gt;&lt;br&gt;ctg2 37&lt;br&gt;Location: 37254 - 38247" locus_tag="ctg2_37" class="clusterblast-orf" id="dummy-1_q29_0_all"  />
<polygon points="617,35 622,30 639,30 639,40 622,40 617,35 " style="fill:#d81563; stroke-width:1; stroke:black; " description="&lt;b&gt;ctg2_38&lt;/b&gt;&lt;br&gt;ctg2 38&lt;br&gt;Location: 38446 - 39598" locus_tag="ctg2_38" class="clusterblast-orf" id="dummy-1_q30_0_all"  />
<polygon points="641,35 646,30 646,30 646,40 646,40 641,35 " style="fill:#b1d815; stroke-width:1; stroke:black; " description="&lt;b&gt;ctg2_39&lt;/b&gt;&lt;br&gt;ctg2 39&lt;br&gt;Location: 39658 - 39928" locus_tag="ctg2_39" class="clusterblast-orf" id="dummy-1_q31_0_all"  />
<polygon points="671,35 675,30 675,40 671,35 " style="fill:#15d8b1; stroke-width:1; stroke:black; " description="&lt;b&gt;ctg2_40&lt;/b&gt;&lt;br&gt;ctg2 40&lt;br&gt;Location: 41272 - 41449" locus_tag="ctg2_40" class="clusterblast-orf" id="dummy-1_q32_0_all"  />
<polygon points="689,35 692,30 692,40 689,35 " style="fill:#6315d8; stroke-width:1; stroke:black; " description="&lt;b&gt;ctg2_41&lt;/b&gt;&lt;br&gt;ctg2 41&lt;br&gt;Location: 42174 - 42333" locus_tag="ctg2_41" class="clusterblast-orf" id="dummy-1_q33_0_all"  />
<polygon points="696,35 701,30 708,30 708,40 701,40 696,35 " style="fill:#d8153c; stroke-width:1; stroke:black; " description="&lt;b&gt;ctg2_42&lt;/b&gt;&lt;br&gt;ctg2 42&lt;br&gt;Location: 42546 - 43185" locus_tag="ctg2_42" class="clusterblast-orf" id="dummy-1_q34_0_all"  />
<polygon points="712,35 717,30 723,30 723,40 717,40 712,35 " style="fill:#8ad815; stroke-width:1; stroke:black; " description="&lt;b&gt;ctg2_43&lt;/b&gt;&lt;br&gt;ctg2 43&lt;br&gt;Location: 43400 - 43970" locus_tag="ctg2_43" class="clusterblast-orf" id="dummy-1_q35_0_all"  />
<polygon points="728,35 733,30 780,30 780,40 733,40 728,35 " style="fill:#15d8d8; stroke-width:1; stroke:black; " description="&lt;b&gt;ctg2_44&lt;/b&gt;&lt;br&gt;ctg2 44&lt;br&gt;Location: 44244 - 46956" locus_tag="ctg2_44" class="clusterblast-orf" id="dummy-1_q36_0_all"  />
</g>
<g label="NZ_CP020432" description="NZ_CP020432 (856214-898410): Streptococcus sp. 'group B' strain FDAARGOS 229 ... (85% of genes show similarity), arylpolyene" class="clusterblast-cluster"  >
<text x="5" y="70" class="clusterblast-acc"  >
<a xlink:href="https://antismash-db.secondarymetabolites.org/area.html?record=NZ_CP020432&amp;start=856214&amp;end=898410" target="_blank">NZ_CP020432 (856214-898410)</a>: Streptococcus sp. 'group B' strain FDAARGOS 229 ... (85% of genes show similarity), arylpolyene</text>
<line x1="10" y1="85" x2="778.0" y2="85" style="stroke-width:1; stroke:grey; "  />
</g>
<g id="a1_000"  >
<polygon points="0,90 22,90 27,85 22,80 0,80 0,90 " style="fill:#d81515; stroke-width:1; stroke:black; " description="&lt;b&gt;A6J68_RS05030&lt;/b&gt;&lt;br&gt;SidA/IucD/PvdA family monooxygenase&lt;br&gt;Location: 897842 - 896424&lt;br&gt;&lt;br&gt;&lt;b&gt;BlastP hit with ctg2_8&lt;/b&gt;&lt;br&gt;Percentage identity: 100&lt;br&gt;Percentage coverage: 98&lt;br&gt;BLAST bit score: 954&lt;br&gt;E-value: 4.9e-276" locus_tag="A6J68_RS05030" class="clusterblast-orf" id="dummy-1_h1_2_0"  />
</g>
<g id="a1_001"  >
<polygon points="28,85 33,80 41,80 41,90 33,90 28,85 " style="fill:#63d815; stroke-width:1; stroke:black; " description="&lt;b&gt;A6J68_RS05025&lt;/b&gt;&lt;br&gt;ABC transporter ATP-binding protein&lt;br&gt;Location: 896367 - 895696&lt;br&gt;&lt;br&gt;&lt;b&gt;BlastP hit with ctg2_9&lt;/b&gt;&lt;br&gt;Percentage identity: 100&lt;br&gt;Percentage coverage: 100&lt;br&gt;BLAST bit score: 431&lt;br&gt;E-value: 5.2e-119" locus_tag="A6J68_RS05025" class="clusterblast-orf" id="dummy-1_h1_2_1"  />
</g>
<g id="a1_002"  >
<polygon points="42,85 47,80 49,80 49,90 47,90 42,85 " style="fill:#15b1d8; stroke-width:1; stroke:black; " description="&lt;b&gt;A6J68_RS05020&lt;/b&gt;&lt;br&gt;hypothetical protein&lt;br&gt;Location: 895599 - 895279&lt;br&gt;&lt;br&gt;&lt;b&gt;BlastP hit with ctg2_10&lt;/b&gt;&lt;br&gt;Percentage identity: 100&lt;br&gt;Percentage coverage: 100&lt;br&gt;BLAST bit score: 196&lt;br&gt;E-value: 1.7e-48" locus_tag="A6J68_RS05020" class="clusterblast-orf" id="dummy-1_h1_2_2"  />
</g>
<g id="a1_003"  >
<polygon points="49,85 54,80 68,80 68,90 54,90 49,85 " style="fill:#15b1d8; stroke-width:1; stroke:black; " description="&lt;b&gt;A6J68_RS05015&lt;/b&gt;&lt;br&gt;ABC transporter permease&lt;br&gt;Location: 895270 - 894247&lt;br&gt;&lt;br&gt;&lt;b&gt;BlastP hit with ctg2_11&lt;/b&gt;&lt;br&gt;Percentage identity: 100&lt;br&gt;Percentage coverage: 100&lt;br&gt;BLAST bit score: 176&lt;br&gt;E-value: 1.5e-42&lt;br&gt;&lt;br&gt;&lt;b&gt;BlastP hit with ctg2_12&lt;/b&gt;&lt;br&gt;Percentage identity: 100&lt;br&gt;Percentage coverage: 100&lt;br&gt;BLAST bit score: 287&lt;br&gt;E-value: 7.9e-76" locus_tag="A6J68_RS05015" class="clusterblast-orf" id="dummy-1_h1_2_3"  />
</g>
<g id="a1_004"  >
<polygon points="68,85 73,80 92,80 92,90 73,90 68,85 " style="fill:#8a15d8; stroke-width:1; stroke:black; " description="&lt;b&gt;A6J68_RS05010&lt;/b&gt;&lt;br&gt;ABC transporter permease&lt;br&gt;Location: 894237 - 893008&lt;br&gt;&lt;br&gt;&lt;b&gt;BlastP hit with ctg2_13&lt;/b&gt;&lt;br&gt;Percentage identity: 100&lt;br&gt;Percentage coverage: 93&lt;br&gt;BLAST bit score: 753&lt;br&gt;E-value: 1.5e-215" locus_tag="A6J68_RS05010" class="clusterblast-orf" id="dummy-1_h1_2_4"  />
</g>
<g id="a1_005"  >
<polygon points="94,85 99,80 114,80 114,90 99,90 94,85 " style="fill:#d83c15; stroke-width:1; stroke:black; " description="&lt;b&gt;A6J68_RS05005&lt;/b&gt;&lt;br&gt;alpha/beta hydrolase&lt;br&gt;Location: 892884 - 891823&lt;br&gt;&lt;br&gt;&lt;b&gt;BlastP hit with ctg2_14&lt;/b&gt;&lt;br&gt;Percentage identity: 100&lt;br&gt;Percentage coverage: 100&lt;br&gt;BLAST bit score: 685&lt;br&gt;E-value: 4.1e-195&lt;br&gt;&lt;br&gt;&lt;b&gt;BlastP hit with ctg2_15&lt;/b&gt;&lt;br&gt;Percentage identity: 45&lt;br&gt;Percentage coverage: 105&lt;br&gt;BLAST bit score: 292&lt;br&gt;E-value: 5.7e-77&lt;br&gt;&lt;br&gt;&lt;b&gt;BlastP hit with ctg2_16&lt;/b&gt;&lt;br&gt;Percentage identity: 40&lt;br&gt;Percentage coverage: 103&lt;br&gt;BLAST bit score: 261&lt;br&gt;E-value: 1.4e-67" locus_tag="A6J68_RS05005" class="clusterblast-orf" id="dummy-1_h1_2_5"  />
</g>
<g id="a1_006"  >
<polygon points="115,85 120,80 134,80 134,90 120,90 115,85 " style="fill:#d83c15; stroke-width:1; stroke:black; " description="&lt;b&gt;A6J68_RS05000&lt;/b&gt;&lt;br&gt;alpha/beta fold hydrolase&lt;br&gt;Location: 891788 - 890789&lt;br&gt;&lt;br&gt;&lt;b&gt;BlastP hit with ctg2_14&lt;/b&gt;&lt;br&gt;Percentage identity: 50&lt;br&gt;Percentage coverage: 47&lt;br&gt;BLAST bit score: 153&lt;br&gt;E-value: 4.3e-35&lt;br&gt;&lt;br&gt;&lt;b&gt;BlastP hit with ctg2_15&lt;/b&gt;&lt;br&gt;Percentage identity: 100&lt;br&gt;Percentage coverage: 44&lt;br&gt;BLAST bit score: 295&lt;br&gt;E-value: 6.7e-78&lt;br&gt;&lt;br&gt;&lt;b&gt;BlastP hit with ctg2_16&lt;/b&gt;&lt;br&gt;Percentage identity: 68&lt;br&gt;Percentage coverage: 45&lt;br&gt;BLAST bit score: 200&lt;br&gt;E-value: 2.3e-49" locus_tag="A6J68_RS05000" class="clusterblast-orf" id="dummy-1_h1_2_6"  />
</g>
<g id="a1_007"  >
<polygon points="135,85 140,80 154,80 154,90 140,90 135,85 " style="fill:#d83c15; stroke-width:1; stroke:black; " description="&lt;b&gt;A6J68_RS04995&lt;/b&gt;&lt;br&gt;alpha/beta hydrolase&lt;br&gt;Location: 890754 - 889723&lt;br&gt;&lt;br&gt;&lt;b&gt;BlastP hit with ctg2_14&lt;/b&gt;&lt;br&gt;Percentage identity: 40&lt;br&gt;Percentage coverage: 101&lt;br&gt;BLAST bit score: 267&lt;br&gt;E-value: 1.6e-69&lt;br&gt;&lt;br&gt;&lt;b&gt;BlastP hit with ctg2_15&lt;/b&gt;&lt;br&gt;Percentage identity: 67&lt;br&gt;Percentage coverage: 101&lt;br&gt;BLAST bit score: 448&lt;br&gt;E-value: 6.2e-124&lt;br&gt;&lt;br&gt;&lt;b&gt;BlastP hit with ctg2_16&lt;/b&gt;&lt;br&gt;Percentage identity: 100&lt;br&gt;Percentage coverage: 100&lt;br&gt;BLAST bit score: 682&lt;br&gt;E-value: 2.6e-194" locus_tag="A6J68_RS04995" class="clusterblast-orf" id="dummy-1_h1_2_7"  />
</g>
<g id="a1_008"  >
<polygon points="155,85 159,80 159,90 155,85 " style="fill:white; stroke-width:1; stroke:black; " description="&lt;b&gt;A6J68_RS04990&lt;/b&gt;&lt;br&gt;hypothetical protein&lt;br&gt;Location: 889691 - 889509" locus_tag="A6J68_RS04990" class="clusterblast-orf" id="dummy-1_h1_2_8"  />
</g>
<g id="a1_009"  >
<polygon points="157,85 162,80 173,80 173,90 162,90 157,85 " style="fill:#3cd815; stroke-width:1; stroke:black; " description="&lt;b&gt;A6J68_RS04985&lt;/b&gt;&lt;br&gt;M13 family metallopeptidase&lt;br&gt;Location: 889584 - 888766&lt;br&gt;&lt;br&gt;&lt;b&gt;BlastP hit with ctg2_17&lt;/b&gt;&lt;br&gt;Percentage identity: 100&lt;br&gt;Percentage coverage: 100&lt;br&gt;BLAST bit score: 553&lt;br&gt;E-value: 1.1e-155" locus_tag="A6J68_RS04985" class="clusterblast-orf" id="dummy-1_h1_2_9"  />
</g>
<g id="a1_0010"  >
<polygon points="173,85 178,80 194,80 194,90 178,90 173,85 " style="fill:#3cd815; stroke-width:1; stroke:black; " description="&lt;b&gt;A6J68_RS04980&lt;/b&gt;&lt;br&gt;peptidase M13&lt;br&gt;Location: 888745 - 887660&lt;br&gt;&lt;br&gt;&lt;b&gt;BlastP hit with ctg2_18&lt;/b&gt;&lt;br&gt;Percentage identity: 100&lt;br&gt;Percentage coverage: 100&lt;br&gt;BLAST bit score: 682&lt;br&gt;E-value: 2.7e-194" locus_tag="A6J68_RS04980" class="clusterblast-orf" id="dummy-1_h1_2_10"  />
</g>
<g id="a1_0011"  >
<polygon points="197,85 202,80 259,80 259,90 202,90 197,85 " style="fill:#158ad8; stroke-width:1; stroke:black; " description="&lt;b&gt;A6J68_RS04975&lt;/b&gt;&lt;br&gt;hypothetical protein&lt;br&gt;Location: 887476 - 884215&lt;br&gt;&lt;br&gt;&lt;b&gt;BlastP hit with ctg2_19&lt;/b&gt;&lt;br&gt;Percentage identity: 99&lt;br&gt;Percentage coverage: 12&lt;br&gt;BLAST bit score: 259&lt;br&gt;E-value: 2.2e-66" locus_tag="A6J68_RS04975" class="clusterblast-orf" id="dummy-1_h1_2_11"  />
</g>
<g id="a1_0012"  >
<polygon points="261,85 266,80 312,80 312,90 266,90 261,85 " style="fill:#158ad8; stroke-width:1; stroke:black; " description="&lt;b&gt;A6J68_RS04970&lt;/b&gt;&lt;br&gt;S8 family serine peptidase&lt;br&gt;Location: 884112 - 881455&lt;br&gt;&lt;br&gt;&lt;b&gt;BlastP hit with ctg2_20&lt;/b&gt;&lt;br&gt;Percentage identity: 100&lt;br&gt;Percentage coverage: 100&lt;br&gt;BLAST bit score: 1718&lt;br&gt;E-value: 0.0" locus_tag="A6J68_RS04970" class="clusterblast-orf" id="dummy-1_h1_2_12"  />
</g>
<g id="a1_0013"  >
<polygon points="313,85 318,80 323,80 323,90 318,90 313,85 " style="fill:#158ad8; stroke-width:1; stroke:black; " description="&lt;b&gt;A6J68_RS04965&lt;/b&gt;&lt;br&gt;hypothetical protein&lt;br&gt;Location: 881403 - 880888&lt;br&gt;&lt;br&gt;&lt;b&gt;BlastP hit with ctg2_21&lt;/b&gt;&lt;br&gt;Percentage identity: 100&lt;br&gt;Percentage coverage: 100&lt;br&gt;BLAST bit score: 315&lt;br&gt;E-value: 3.2e-84" locus_tag="A6J68_RS04965" class="clusterblast-orf" id="dummy-1_h1_2_13"  />
</g>
<g id="a1_0014"  >
<polygon points="324,85 329,80 330,80 330,90 329,90 324,85 " style="fill:#b115d8; stroke-width:1; stroke:black; " description="&lt;b&gt;A6J68_RS04960&lt;/b&gt;&lt;br&gt;hypothetical protein&lt;br&gt;Location: 880854 - 880513&lt;br&gt;&lt;br&gt;&lt;b&gt;BlastP hit with ctg2_22&lt;/b&gt;&lt;br&gt;Percentage identity: 100&lt;br&gt;Percentage coverage: 100&lt;br&gt;BLAST bit score: 236&lt;br&gt;E-value: 1.6e-60" locus_tag="A6J68_RS04960" class="clusterblast-orf" id="dummy-1_h1_2_14"  />
</g>
<g id="a1_0015"  >
<polygon points="337,85 342,80 348,80 348,90 342,90 337,85 " style="fill:#d86315; stroke-width:1; stroke:black; " description="&lt;b&gt;A6J68_RS04955&lt;/b&gt;&lt;br&gt;hypothetical protein&lt;br&gt;Location: 880170 - 879595&lt;br&gt;&lt;br&gt;&lt;b&gt;BlastP hit with ctg2_23&lt;/b&gt;&lt;br&gt;Percentage identity: 100&lt;br&gt;Percentage coverage: 100&lt;br&gt;BLAST bit score: 385&lt;br&gt;E-value: 3.6e-105" locus_tag="A6J68_RS04955" class="clusterblast-orf" id="dummy-1_h1_2_15"  />
</g>
<g id="a1_0016"  >
<polygon points="347,85 352,80 370,80 370,90 352,90 347,85 " style="fill:#15d815; stroke-width:1; stroke:black; " description="&lt;b&gt;A6J68_RS04950&lt;/b&gt;&lt;br&gt;hypothetical protein&lt;br&gt;Location: 879626 - 878415&lt;br&gt;&lt;br&gt;&lt;b&gt;BlastP hit with ctg2_24&lt;/b&gt;&lt;br&gt;Percentage identity: 100&lt;br&gt;Percentage coverage: 100&lt;br&gt;BLAST bit score: 811&lt;br&gt;E-value: 3.3e-233" locus_tag="A6J68_RS04950" class="clusterblast-orf" id="dummy-1_h1_2_16"  />
</g>
<g id="a1_0017"  >
<polygon points="370,85 375,80 412,80 412,90 375,90 370,85 " style="fill:#1563d8; stroke-width:1; stroke:black; " description="&lt;b&gt;A6J68_RS04945&lt;/b&gt;&lt;br&gt;hypothetical protein&lt;br&gt;Location: 878410 - 876215&lt;br&gt;&lt;br&gt;&lt;b&gt;BlastP hit with ctg2_25&lt;/b&gt;&lt;br&gt;Percentage identity: 100&lt;br&gt;Percentage coverage: 100&lt;br&gt;BLAST bit score: 1437&lt;br&gt;E-value: 0.0" locus_tag="A6J68_RS04945" class="clusterblast-orf" id="dummy-1_h1_2_17"  />
</g>
<g id="a1_0018"  >
<polygon points="412,85 417,80 430,80 430,90 417,90 412,85 " style="fill:#d815d8; stroke-width:1; stroke:black; " description="&lt;b&gt;A6J68_RS04940&lt;/b&gt;&lt;br&gt;aminomethyl transferase family protein&lt;br&gt;Location: 876218 - 875265&lt;br&gt;&lt;br&gt;&lt;b&gt;BlastP hit with ctg2_26&lt;/b&gt;&lt;br&gt;Percentage identity: 100&lt;br&gt;Percentage coverage: 100&lt;br&gt;BLAST bit score: 646&lt;br&gt;E-value: 1.9e-183" locus_tag="A6J68_RS04940" class="clusterblast-orf" id="dummy-1_h1_2_18"  />
</g>
<g id="a1_0019"  >
<polygon points="430,85 435,80 468,80 468,90 435,90 430,85 " style="fill:#d88a15; stroke-width:1; stroke:black; " description="&lt;b&gt;A6J68_RS04935&lt;/b&gt;&lt;br&gt;hypothetical protein&lt;br&gt;Location: 875268 - 873265&lt;br&gt;&lt;br&gt;&lt;b&gt;BlastP hit with ctg2_27&lt;/b&gt;&lt;br&gt;Percentage identity: 100&lt;br&gt;Percentage coverage: 100&lt;br&gt;BLAST bit score: 1342&lt;br&gt;E-value: 0.0" locus_tag="A6J68_RS04935" class="clusterblast-orf" id="dummy-1_h1_2_19"  />
</g>
<g id="a1_0020"  >
<polygon points="468,85 473,80 485,80 485,90 473,90 468,85 " style="fill:#15d83c; stroke-width:1; stroke:black; " description="&lt;b&gt;A6J68_RS04930&lt;/b&gt;&lt;br&gt;ABC transporter permease&lt;br&gt;Location: 873268 - 872390&lt;br&gt;&lt;br&gt;&lt;b&gt;BlastP hit with ctg2_28&lt;/b&gt;&lt;br&gt;Percentage identity: 100&lt;br&gt;Percentage coverage: 100&lt;br&gt;BLAST bit score: 529&lt;br&gt;E-value: 2.4e-148" locus_tag="A6J68_RS04930" class="clusterblast-orf" id="dummy-1_h1_2_20"  />
</g>
<g id="a1_0021"  >
<polygon points="485,85 490,80 503,80 503,90 490,90 485,85 " style="fill:#153cd8; stroke-width:1; stroke:black; " description="&lt;b&gt;A6J68_RS04925&lt;/b&gt;&lt;br&gt;ABC transporter ATP-binding protein&lt;br&gt;Location: 872397 - 871468&lt;br&gt;&lt;br&gt;&lt;b&gt;BlastP hit with ctg2_29&lt;/b&gt;&lt;br&gt;Percentage identity: 100&lt;br&gt;Percentage coverage: 100&lt;br&gt;BLAST bit score: 606&lt;br&gt;E-value: 2.1e-171" locus_tag="A6J68_RS04925" class="clusterblast-orf" id="dummy-1_h1_2_21"  />
</g>
<g id="a1_0022"  >
<polygon points="502,85 507,80 511,80 511,90 507,90 502,85 " style="fill:#d815b1; stroke-width:1; stroke:black; " description="&lt;b&gt;A6J68_RS04920&lt;/b&gt;&lt;br&gt;beta-hydroxyacyl-ACP dehydratase&lt;br&gt;Location: 871478 - 871002&lt;br&gt;&lt;br&gt;&lt;b&gt;BlastP hit with ctg2_30&lt;/b&gt;&lt;br&gt;Percentage identity: 100&lt;br&gt;Percentage coverage: 100&lt;br&gt;BLAST bit score: 310&lt;br&gt;E-value: 1.2e-82" locus_tag="A6J68_RS04920" class="clusterblast-orf" id="dummy-1_h1_2_22"  />
</g>
<g id="a1_0023"  >
<polygon points="511,85 516,80 517,80 517,90 516,90 511,85 " style="fill:#d8b115; stroke-width:1; stroke:black; " description="&lt;b&gt;A6J68_RS04915&lt;/b&gt;&lt;br&gt;acyl carrier protein&lt;br&gt;Location: 871018 - 870713&lt;br&gt;&lt;br&gt;&lt;b&gt;BlastP hit with ctg2_31&lt;/b&gt;&lt;br&gt;Percentage identity: 100&lt;br&gt;Percentage coverage: 100&lt;br&gt;BLAST bit score: 194&lt;br&gt;E-value: 6.3e-48" locus_tag="A6J68_RS04915" class="clusterblast-orf" id="dummy-1_h1_2_23"  />
</g>
<g id="a1_0024"  >
<polygon points="517,85 522,80 531,80 531,90 522,90 517,85 " style="fill:#15d863; stroke-width:1; stroke:black; " description="&lt;b&gt;A6J68_RS04910&lt;/b&gt;&lt;br&gt;SDR family oxidoreductase&lt;br&gt;Location: 870720 - 869998&lt;br&gt;&lt;br&gt;&lt;b&gt;BlastP hit with ctg2_32&lt;/b&gt;&lt;br&gt;Percentage identity: 100&lt;br&gt;Percentage coverage: 100&lt;br&gt;BLAST bit score: 467&lt;br&gt;E-value: 7e-130" locus_tag="A6J68_RS04910" class="clusterblast-orf" id="dummy-1_h1_2_24"  />
</g>
<g id="a1_0025"  >
<polygon points="531,85 536,80 547,80 547,90 536,90 531,85 " style="fill:#1515d8; stroke-width:1; stroke:black; " description="&lt;b&gt;A6J68_RS04905&lt;/b&gt;&lt;br&gt;hypothetical protein&lt;br&gt;Location: 870001 - 869153&lt;br&gt;&lt;br&gt;&lt;b&gt;BlastP hit with ctg2_33&lt;/b&gt;&lt;br&gt;Percentage identity: 100&lt;br&gt;Percentage coverage: 100&lt;br&gt;BLAST bit score: 564&lt;br&gt;E-value: 8.4e-159" locus_tag="A6J68_RS04905" class="clusterblast-orf" id="dummy-1_h1_2_25"  />
</g>
<g id="a1_0026"  >
<polygon points="547,85 552,80 553,80 553,90 552,90 547,85 " style="fill:#d8158a; stroke-width:1; stroke:black; " description="&lt;b&gt;A6J68_RS04900&lt;/b&gt;&lt;br&gt;hypothetical protein&lt;br&gt;Location: 869153 - 868848&lt;br&gt;&lt;br&gt;&lt;b&gt;BlastP hit with ctg2_34&lt;/b&gt;&lt;br&gt;Percentage identity: 100&lt;br&gt;Percentage coverage: 100&lt;br&gt;BLAST bit score: 206&lt;br&gt;E-value: 1.2e-51" locus_tag="A6J68_RS04900" class="clusterblast-orf" id="dummy-1_h1_2_26"  />
</g>
<g id="a1_0027"  >
<polygon points="560,85 562,80 562,90 560,85 " style="fill:white; stroke-width:1; stroke:black; " description="&lt;b&gt;A6J68_RS04895&lt;/b&gt;&lt;br&gt;sensor histidine kinase&lt;br&gt;Location: 868439 - 868347" locus_tag="A6J68_RS04895" class="clusterblast-orf" id="dummy-1_h1_2_27"  />
</g>
<g id="a1_0028"  >
<polygon points="564,85 569,80 579,80 579,90 569,90 564,85 " style="fill:#d8d815; stroke-width:1; stroke:black; " description="&lt;b&gt;A6J68_RS04890&lt;/b&gt;&lt;br&gt;multidrug ABC transporter permease&lt;br&gt;Location: 868223 - 867438&lt;br&gt;&lt;br&gt;&lt;b&gt;BlastP hit with ctg2_35&lt;/b&gt;&lt;br&gt;Percentage identity: 100&lt;br&gt;Percentage coverage: 100&lt;br&gt;BLAST bit score: 509&lt;br&gt;E-value: 2.3e-142" locus_tag="A6J68_RS04890" class="clusterblast-orf" id="dummy-1_h1_2_28"  />
</g>
<g id="a1_0029"  >
<polygon points="579,85 584,80 595,80 595,90 584,90 579,85 " style="fill:#15d88a; stroke-width:1; stroke:black; " description="&lt;b&gt;A6J68_RS04885&lt;/b&gt;&lt;br&gt;antibiotic ABC transporter permease&lt;br&gt;Location: 867436 - 866618&lt;br&gt;&lt;br&gt;&lt;b&gt;BlastP hit with ctg2_36&lt;/b&gt;&lt;br&gt;Percentage identity: 100&lt;br&gt;Percentage coverage: 100&lt;br&gt;BLAST bit score: 502&lt;br&gt;E-value: 2.2e-140" locus_tag="A6J68_RS04885" class="clusterblast-orf" id="dummy-1_h1_2_29"  />
</g>
<g id="a1_0030"  >
<polygon points="595,85 600,80 614,80 614,90 600,90 595,85 " style="fill:#3c15d8; stroke-width:1; stroke:black; " description="&lt;b&gt;A6J68_RS04880&lt;/b&gt;&lt;br&gt;ATP-binding cassette domain-containing protein&lt;br&gt;Location: 866615 - 865623&lt;br&gt;&lt;br&gt;&lt;b&gt;BlastP hit with ctg2_37&lt;/b&gt;&lt;br&gt;Percentage identity: 99&lt;br&gt;Percentage coverage: 32&lt;br&gt;BLAST bit score: 215&lt;br&gt;E-value: 6.6e-54" locus_tag="A6J68_RS04880" class="clusterblast-orf" id="dummy-1_h1_2_30"  />
</g>
<g id="a1_0031"  >
<polygon points="618,85 623,80 640,80 640,90 623,90 618,85 " style="fill:#d81563; stroke-width:1; stroke:black; " description="&lt;b&gt;A6J68_RS04875&lt;/b&gt;&lt;br&gt;serine hydrolase&lt;br&gt;Location: 865423 - 864272&lt;br&gt;&lt;br&gt;&lt;b&gt;BlastP hit with ctg2_38&lt;/b&gt;&lt;br&gt;Percentage identity: 100&lt;br&gt;Percentage coverage: 100&lt;br&gt;BLAST bit score: 753&lt;br&gt;E-value: 1e-215" locus_tag="A6J68_RS04875" class="clusterblast-orf" id="dummy-1_h1_2_31"  />
</g>
<g id="a1_0032"  >
<polygon points="641,85 646,80 646,80 646,90 646,90 641,85 " style="fill:#b1d815; stroke-width:1; stroke:black; " description="&lt;b&gt;A6J68_RS04870&lt;/b&gt;&lt;br&gt;hypothetical protein&lt;br&gt;Location: 864211 - 863942&lt;br&gt;&lt;br&gt;&lt;b&gt;BlastP hit with ctg2_39&lt;/b&gt;&lt;br&gt;Percentage identity: 100&lt;br&gt;Percentage coverage: 100&lt;br&gt;BLAST bit score: 175&lt;br&gt;E-value: 2.7e-42" locus_tag="A6J68_RS04870" class="clusterblast-orf" id="dummy-1_h1_2_32"  />
</g>
<g id="a1_0033"  >
<polygon points="647,90 649,85 647,80 647,90 " style="fill:white; stroke-width:1; stroke:black; " description="&lt;b&gt;A6J68_RS04865&lt;/b&gt;&lt;br&gt;hypothetical protein&lt;br&gt;Location: 863911 - 863801" locus_tag="A6J68_RS04865" class="clusterblast-orf" id="dummy-1_h1_2_33"  />
</g>
<g id="a1_0034"  >
<polygon points="656,85 659,80 659,90 656,85 " style="fill:white; stroke-width:1; stroke:black; " description="&lt;b&gt;A6J68_RS04860&lt;/b&gt;&lt;br&gt;hypothetical protein&lt;br&gt;Location: 863429 - 863256" locus_tag="A6J68_RS04860" class="clusterblast-orf" id="dummy-1_h1_2_34"  />
</g>
<g id="a1_0035"  >
<polygon points="667,85 669,80 669,90 667,85 " style="fill:white; stroke-width:1; stroke:black; " description="&lt;b&gt;A6J68_RS04855&lt;/b&gt;&lt;br&gt;hypothetical protein&lt;br&gt;Location: 862823 - 862719" locus_tag="A6J68_RS04855" class="clusterblast-orf" id="dummy-1_h1_2_35"  />
</g>
<g id="a1_0036"  >
<polygon points="672,85 676,80 676,90 672,85 " style="fill:#15d8b1; stroke-width:1; stroke:black; " description="&lt;b&gt;A6J68_RS11420&lt;/b&gt;&lt;br&gt;hypothetical protein&lt;br&gt;Location: 862597 - 862367&lt;br&gt;&lt;br&gt;&lt;b&gt;BlastP hit with ctg2_40&lt;/b&gt;&lt;br&gt;Percentage identity: 100&lt;br&gt;Percentage coverage: 100&lt;br&gt;BLAST bit score: 116&lt;br&gt;E-value: 9.5e-25" locus_tag="A6J68_RS11420" class="clusterblast-orf" id="dummy-1_h1_2_36"  />
</g>
<g id="a1_0037"  >
<polygon points="689,85 692,80 692,90 689,85 " style="fill:#6315d8; stroke-width:1; stroke:black; " description="&lt;b&gt;A6J68_RS04850&lt;/b&gt;&lt;br&gt;hypothetical protein&lt;br&gt;Location: 861695 - 861537&lt;br&gt;&lt;br&gt;&lt;b&gt;BlastP hit with ctg2_41&lt;/b&gt;&lt;br&gt;Percentage identity: 100&lt;br&gt;Percentage coverage: 100&lt;br&gt;BLAST bit score: 118&lt;br&gt;E-value: 2.9e-25" locus_tag="A6J68_RS04850" class="clusterblast-orf" id="dummy-1_h1_2_37"  />
</g>
<g id="a1_0038"  >
<polygon points="693,85 697,80 697,90 693,85 " style="fill:white; stroke-width:1; stroke:black; " description="&lt;b&gt;A6J68_RS04845&lt;/b&gt;&lt;br&gt;hypothetical protein&lt;br&gt;Location: 861498 - 861290" locus_tag="A6J68_RS04845" class="clusterblast-orf" id="dummy-1_h1_2_38"  />
</g>
<g id="a1_0039"  >
<polygon points="696,85 701,80 708,80 708,90 701,90 696,85 " style="fill:#d8153c; stroke-width:1; stroke:black; " description="&lt;b&gt;A6J68_RS04840&lt;/b&gt;&lt;br&gt;fibronectin-binding protein&lt;br&gt;Location: 861323 - 860718&lt;br&gt;&lt;br&gt;&lt;b&gt;BlastP hit with ctg2_42&lt;/b&gt;&lt;br&gt;Percentage identity: 99&lt;br&gt;Percentage coverage: 95&lt;br&gt;BLAST bit score: 395&lt;br&gt;E-value: 3e-108" locus_tag="A6J68_RS04840" class="clusterblast-orf" id="dummy-1_h1_2_39"  />
</g>
<g id="a1_0040"  >
<polygon points="712,85 717,80 723,80 723,90 717,90 712,85 " style="fill:#8ad815; stroke-width:1; stroke:black; " description="&lt;b&gt;A6J68_RS04835&lt;/b&gt;&lt;br&gt;class C sortase&lt;br&gt;Location: 860469 - 859900&lt;br&gt;&lt;br&gt;&lt;b&gt;BlastP hit with ctg2_43&lt;/b&gt;&lt;br&gt;Percentage identity: 100&lt;br&gt;Percentage coverage: 100&lt;br&gt;BLAST bit score: 363&lt;br&gt;E-value: 1.9e-98" locus_tag="A6J68_RS04835" class="clusterblast-orf" id="dummy-1_h1_2_40"  />
</g>
<g id="a1_0041"  >
<polygon points="728,85 733,80 779,80 779,90 733,90 728,85 " style="fill:#15d8d8; stroke-width:1; stroke:black; " description="&lt;b&gt;A6J68_RS04830&lt;/b&gt;&lt;br&gt;VWA domain-containing protein&lt;br&gt;Location: 859625 - 856953&lt;br&gt;&lt;br&gt;&lt;b&gt;BlastP hit with ctg2_44&lt;/b&gt;&lt;br&gt;Percentage identity: 100&lt;br&gt;Percentage coverage: 99&lt;br&gt;BLAST bit score: 1770&lt;br&gt;E-value: 0.0" locus_tag="A6J68_RS04830" class="clusterblast-orf" id="dummy-1_h1_2_41"  />
</g>
</svg>
