<svg xmlns="http://www.w3.org/2000/svg" xmlns:xlink="http://www.w3.org/1999/xlink" version="1.1" x="0" y="0" height="230" width="800" viewBox="0 0 800 230" preserveAspectRatio="none"  >
<g label="Query sequence" class="clusterblast-cluster"  >
<text x="5" y="20" class="clusterblast-acc"  >
Query sequence</text>
<line x1="10" y1="35" x2="778.0" y2="35" style="stroke-width:1; stroke:grey; "  />
<polygon points="278,35 282,30 282,40 278,35 " style="fill:#d81515; stroke-width:1; stroke:black; " description="&lt;b&gt;ctg47_1&lt;/b&gt;&lt;br&gt;ctg47 1&lt;br&gt;Location: 2 - 221" locus_tag="ctg47_1" class="clusterblast-orf" id="dummy-1_q0_0_all"  />
<polygon points="282,35 287,30 308,30 308,40 287,40 282,35 " style="fill:#4dd815; stroke-width:1; stroke:black; " description="&lt;b&gt;ctg47_2&lt;/b&gt;&lt;br&gt;ctg47 2&lt;br&gt;Location: 225 - 1602" locus_tag="ctg47_2" class="clusterblast-orf" id="dummy-1_q1_0_all"  />
<polygon points="311,35 316,30 323,30 323,40 316,40 311,35 " style="fill:#1585d8; stroke-width:1; stroke:black; " description="&lt;b&gt;ctg47_3&lt;/b&gt;&lt;br&gt;ctg47 3&lt;br&gt;Location: 1731 - 2382" locus_tag="ctg47_3" class="clusterblast-orf" id="dummy-1_q2_0_all"  />
<polygon points="326,35 331,30 333,30 333,40 331,40 326,35 " style="fill:#1585d8; stroke-width:1; stroke:black; " description="&lt;b&gt;ctg47_4&lt;/b&gt;&lt;br&gt;ctg47 4&lt;br&gt;Location: 2539 - 2863" locus_tag="ctg47_4" class="clusterblast-orf" id="dummy-1_q3_0_all"  />
<polygon points="333,35 336,30 336,40 333,35 " style="fill:#1585d8; stroke-width:1; stroke:black; " description="&lt;b&gt;ctg47_5&lt;/b&gt;&lt;br&gt;ctg47 5&lt;br&gt;Location: 2914 - 3043" locus_tag="ctg47_5" class="clusterblast-orf" id="dummy-1_q4_0_all"  />
<polygon points="338,40 343,40 348,35 343,30 338,30 338,40 " style="fill:#a115d8; stroke-width:1; stroke:black; " description="&lt;b&gt;ctg47_6&lt;/b&gt;&lt;br&gt;ctg47 6&lt;br&gt;Location: 3134 - 3683" locus_tag="ctg47_6" class="clusterblast-orf" id="dummy-1_q5_0_all"  />
<polygon points="349,35 354,30 361,30 361,40 354,40 349,35 " style="fill:#d86915; stroke-width:1; stroke:black; " description="&lt;b&gt;ctg47_7&lt;/b&gt;&lt;br&gt;ctg47 7&lt;br&gt;Location: 3744 - 4341" locus_tag="ctg47_7" class="clusterblast-orf" id="dummy-1_q6_0_all"  />
<polygon points="361,35 366,30 385,30 385,40 366,40 361,35 " style="fill:#15d831; stroke-width:1; stroke:black; " description="&lt;b&gt;ctg47_8&lt;/b&gt;&lt;br&gt;ctg47 8&lt;br&gt;Location: 4351 - 5578" locus_tag="ctg47_8" class="clusterblast-orf" id="dummy-1_q7_0_all"  />
<polygon points="385,35 388,30 388,40 385,35 " style="fill:#1531d8; stroke-width:1; stroke:black; " description="&lt;b&gt;ctg47_9&lt;/b&gt;&lt;br&gt;ctg47 9&lt;br&gt;Location: 5607 - 5778" locus_tag="ctg47_9" class="clusterblast-orf" id="dummy-1_q8_0_all"  />
<polygon points="389,35 394,30 398,30 398,40 394,40 389,35 " style="fill:#d815bc; stroke-width:1; stroke:black; " description="&lt;b&gt;ctg47_10&lt;/b&gt;&lt;br&gt;ctg47 10&lt;br&gt;Location: 5795 - 6290" locus_tag="ctg47_10" class="clusterblast-orf" id="dummy-1_q9_0_all"  />
<polygon points="400,35 405,30 416,30 416,40 405,40 400,35 " style="fill:#d8bc15; stroke-width:1; stroke:black; " description="&lt;b&gt;ctg47_11&lt;/b&gt;&lt;br&gt;ctg47 11&lt;br&gt;Location: 6369 - 7209" locus_tag="ctg47_11" class="clusterblast-orf" id="dummy-1_q10_0_all"  />
<polygon points="418,40 436,40 441,35 436,30 418,30 418,40 " style="fill:#15d885; stroke-width:1; stroke:black; " description="&lt;b&gt;ctg47_12&lt;/b&gt;&lt;br&gt;ctg47 12&lt;br&gt;Location: 7311 - 8535" locus_tag="ctg47_12" class="clusterblast-orf" id="dummy-1_q11_0_all"  />
<polygon points="441,40 461,40 466,35 461,30 441,30 441,40 " style="fill:#4d15d8; stroke-width:1; stroke:black; " description="&lt;b&gt;ctg47_13&lt;/b&gt;&lt;br&gt;ctg47 13&lt;br&gt;Location: 8536 - 9820" locus_tag="ctg47_13" class="clusterblast-orf" id="dummy-1_q12_0_all"  />
<polygon points="468,40 471,40 476,35 471,30 468,30 468,40 " style="fill:#d81569; stroke-width:1; stroke:black; " description="&lt;b&gt;ctg47_14&lt;/b&gt;&lt;br&gt;ctg47 14&lt;br&gt;Location: 9911 - 10361" locus_tag="ctg47_14" class="clusterblast-orf" id="dummy-1_q13_0_all"  />
<polygon points="476,40 484,40 489,35 484,30 476,30 476,40 " style="fill:#a1d815; stroke-width:1; stroke:black; " description="&lt;b&gt;ctg47_15&lt;/b&gt;&lt;br&gt;ctg47 15&lt;br&gt;Location: 10353 - 11010" locus_tag="ctg47_15" class="clusterblast-orf" id="dummy-1_q14_0_all"  />
<polygon points="490,40 497,40 502,35 497,30 490,30 490,40 " style="fill:#15d8d8; stroke-width:1; stroke:black; " description="&lt;b&gt;ctg47_16&lt;/b&gt;&lt;br&gt;ctg47 16&lt;br&gt;Location: 11096 - 11687" locus_tag="ctg47_16" class="clusterblast-orf" id="dummy-1_q15_0_all"  />
</g>
<g label="NZ_CP007631" description="NZ_CP007631 (1385006-1426179): Streptococcus agalactiae strain NGBS061, compl... (31% of genes show similarity), T3PKS" class="clusterblast-cluster"  >
<text x="5" y="70" class="clusterblast-acc"  >
<a xlink:href="https://antismash-db.secondarymetabolites.org/area.html?record=NZ_CP007631&amp;start=1385006&amp;end=1426179" target="_blank">NZ_CP007631 (1385006-1426179)</a>: Streptococcus agalactiae strain NGBS061, compl... (31% of genes show similarity), T3PKS</text>
<line x1="10" y1="85" x2="778.0" y2="85" style="stroke-width:1; stroke:grey; "  />
</g>
<g id="a1_000"  >
<polygon points="0,85 5,80 6,80 6,90 5,90 0,85 " style="fill:white; stroke-width:1; stroke:black; " description="&lt;b&gt;EN71_RS07035&lt;/b&gt;&lt;br&gt;PrgI family protein&lt;br&gt;Location: 1385070 - 1385423" locus_tag="EN71_RS07035" class="clusterblast-orf" id="dummy-1_h1_9_0"  />
</g>
<g id="a1_001"  >
<polygon points="7,85 12,80 24,80 24,90 12,90 7,85 " style="fill:white; stroke-width:1; stroke:black; " description="&lt;b&gt;EN71_RS07040&lt;/b&gt;&lt;br&gt;hypothetical protein&lt;br&gt;Location: 1385485 - 1386339" locus_tag="EN71_RS07040" class="clusterblast-orf" id="dummy-1_h1_9_1"  />
</g>
<g id="a1_002"  >
<polygon points="24,85 29,80 29,80 29,90 29,90 24,85 " style="fill:white; stroke-width:1; stroke:black; " description="&lt;b&gt;EN71_RS07045&lt;/b&gt;&lt;br&gt;hypothetical protein&lt;br&gt;Location: 1386358 - 1386600" locus_tag="EN71_RS07045" class="clusterblast-orf" id="dummy-1_h1_9_2"  />
</g>
<g id="a1_003"  >
<polygon points="29,85 34,80 64,80 64,90 34,90 29,85 " style="fill:white; stroke-width:1; stroke:black; " description="&lt;b&gt;EN71_RS07050&lt;/b&gt;&lt;br&gt;TraM recognition domain-containing protein&lt;br&gt;Location: 1386618 - 1388435" locus_tag="EN71_RS07050" class="clusterblast-orf" id="dummy-1_h1_9_3"  />
</g>
<g id="a1_004"  >
<polygon points="64,85 69,80 73,80 73,90 69,90 64,85 " style="fill:white; stroke-width:1; stroke:black; " description="&lt;b&gt;EN71_RS07055&lt;/b&gt;&lt;br&gt;hypothetical protein&lt;br&gt;Location: 1388435 - 1388923" locus_tag="EN71_RS07055" class="clusterblast-orf" id="dummy-1_h1_9_4"  />
</g>
<g id="a1_005"  >
<polygon points="75,85 80,80 86,80 86,90 80,90 75,85 " style="fill:white; stroke-width:1; stroke:black; " description="&lt;b&gt;EN71_RS07060&lt;/b&gt;&lt;br&gt;CPBP family intramembrane metalloprotease&lt;br&gt;Location: 1389000 - 1389584" locus_tag="EN71_RS07060" class="clusterblast-orf" id="dummy-1_h1_9_5"  />
</g>
<g id="a1_006"  >
<polygon points="86,85 91,80 91,80 91,90 91,90 86,85 " style="fill:white; stroke-width:1; stroke:black; " description="&lt;b&gt;EN71_RS07065&lt;/b&gt;&lt;br&gt;hypothetical protein&lt;br&gt;Location: 1389587 - 1389820" locus_tag="EN71_RS07065" class="clusterblast-orf" id="dummy-1_h1_9_6"  />
</g>
<g id="a1_007"  >
<polygon points="91,85 96,80 98,80 98,90 96,90 91,85 " style="fill:white; stroke-width:1; stroke:black; " description="&lt;b&gt;EN71_RS07070&lt;/b&gt;&lt;br&gt;hypothetical protein&lt;br&gt;Location: 1389829 - 1390212" locus_tag="EN71_RS07070" class="clusterblast-orf" id="dummy-1_h1_9_7"  />
</g>
<g id="a1_008"  >
<polygon points="98,85 103,80 107,80 107,90 103,90 98,85 " style="fill:white; stroke-width:1; stroke:black; " description="&lt;b&gt;EN71_RS07075&lt;/b&gt;&lt;br&gt;hypothetical protein&lt;br&gt;Location: 1390223 - 1390651" locus_tag="EN71_RS07075" class="clusterblast-orf" id="dummy-1_h1_9_8"  />
</g>
<g id="a1_009"  >
<polygon points="106,85 111,80 132,80 132,90 111,90 106,85 " style="fill:white; stroke-width:1; stroke:black; " description="&lt;b&gt;EN71_RS07080&lt;/b&gt;&lt;br&gt;DNA (cytosine-5-)-methyltransferase&lt;br&gt;Location: 1390635 - 1391990" locus_tag="EN71_RS07080" class="clusterblast-orf" id="dummy-1_h1_9_9"  />
</g>
<g id="a1_0010"  >
<polygon points="133,85 135,80 135,90 133,85 " style="fill:white; stroke-width:1; stroke:black; " description="&lt;b&gt;EN71_RS11580&lt;/b&gt;&lt;br&gt;hypothetical protein&lt;br&gt;Location: 1392042 - 1392137" locus_tag="EN71_RS11580" class="clusterblast-orf" id="dummy-1_h1_9_10"  />
</g>
<g id="a1_0011"  >
<polygon points="135,85 140,80 151,80 151,90 140,90 135,85 " style="fill:white; stroke-width:1; stroke:black; " description="&lt;b&gt;EN71_RS07085&lt;/b&gt;&lt;br&gt;replication initiator protein A&lt;br&gt;Location: 1392139 - 1392957" locus_tag="EN71_RS07085" class="clusterblast-orf" id="dummy-1_h1_9_11"  />
</g>
<g id="a1_0012"  >
<polygon points="151,85 154,80 154,90 151,85 " style="fill:white; stroke-width:1; stroke:black; " description="&lt;b&gt;EN71_RS11585&lt;/b&gt;&lt;br&gt;hypothetical protein&lt;br&gt;Location: 1392954 - 1393127" locus_tag="EN71_RS11585" class="clusterblast-orf" id="dummy-1_h1_9_12"  />
</g>
<g id="a1_0013"  >
<polygon points="158,85 163,80 165,80 165,90 163,90 158,85 " style="fill:white; stroke-width:1; stroke:black; " description="&lt;b&gt;EN71_RS07090&lt;/b&gt;&lt;br&gt;50S ribosomal protein L7/L12&lt;br&gt;Location: 1393342 - 1393707" locus_tag="EN71_RS07090" class="clusterblast-orf" id="dummy-1_h1_9_13"  />
</g>
<g id="a1_0014"  >
<polygon points="166,85 171,80 176,80 176,90 171,90 166,85 " style="fill:white; stroke-width:1; stroke:black; " description="&lt;b&gt;EN71_RS07095&lt;/b&gt;&lt;br&gt;50S ribosomal protein L10&lt;br&gt;Location: 1393771 - 1394271" locus_tag="EN71_RS07095" class="clusterblast-orf" id="dummy-1_h1_9_14"  />
</g>
<g id="a1_0015"  >
<polygon points="185,90 220,90 225,85 220,80 185,80 185,90 " style="fill:white; stroke-width:1; stroke:black; " description="&lt;b&gt;EN71_RS07100&lt;/b&gt;&lt;br&gt;ATP-dependent Clp protease ATP-binding subunit&lt;br&gt;Location: 1394719 - 1396827" locus_tag="EN71_RS07100" class="clusterblast-orf" id="dummy-1_h1_9_15"  />
</g>
<g id="a1_0016"  >
<polygon points="225,85 226,80 226,90 225,85 " style="fill:white; stroke-width:1; stroke:black; " description="&lt;b&gt;EN71_RS11950&lt;/b&gt;&lt;br&gt;hypothetical protein&lt;br&gt;Location: 1396811 - 1396888" locus_tag="EN71_RS11950" class="clusterblast-orf" id="dummy-1_h1_9_16"  />
</g>
<g id="a1_0017"  >
<polygon points="227,85 232,80 245,80 245,90 232,90 227,85 " style="fill:#d81515; stroke-width:1; stroke:black; " description="&lt;b&gt;EN71_RS07105&lt;/b&gt;&lt;br&gt;homocysteine S-methyltransferase&lt;br&gt;Location: 1396921 - 1397865&lt;br&gt;&lt;br&gt;&lt;b&gt;BlastP hit with ctg47_1&lt;/b&gt;&lt;br&gt;Percentage identity: 97&lt;br&gt;Percentage coverage: 100&lt;br&gt;BLAST bit score: 143&lt;br&gt;E-value: 7e-33" locus_tag="EN71_RS07105" class="clusterblast-orf" id="dummy-1_h1_9_17"  />
</g>
<g id="a1_0018"  >
<polygon points="245,85 250,80 271,80 271,90 250,90 245,85 " style="fill:#4dd815; stroke-width:1; stroke:black; " description="&lt;b&gt;EN71_RS07110&lt;/b&gt;&lt;br&gt;amino acid permease&lt;br&gt;Location: 1397870 - 1399246&lt;br&gt;&lt;br&gt;&lt;b&gt;BlastP hit with ctg47_2&lt;/b&gt;&lt;br&gt;Percentage identity: 98&lt;br&gt;Percentage coverage: 100&lt;br&gt;BLAST bit score: 846&lt;br&gt;E-value: 1.4e-243" locus_tag="EN71_RS07110" class="clusterblast-orf" id="dummy-1_h1_9_18"  />
</g>
<g id="a1_0019"  >
<polygon points="274,85 279,80 286,80 286,90 279,90 274,85 " style="fill:#1585d8; stroke-width:1; stroke:black; " description="&lt;b&gt;EN71_RS07115&lt;/b&gt;&lt;br&gt;HXXEE domain-containing protein&lt;br&gt;Location: 1399376 - 1400026&lt;br&gt;&lt;br&gt;&lt;b&gt;BlastP hit with ctg47_3&lt;/b&gt;&lt;br&gt;Percentage identity: 98&lt;br&gt;Percentage coverage: 100&lt;br&gt;BLAST bit score: 435&lt;br&gt;E-value: 2.6e-120" locus_tag="EN71_RS07115" class="clusterblast-orf" id="dummy-1_h1_9_19"  />
</g>
<g id="a1_0020"  >
<polygon points="287,85 292,80 299,80 299,90 292,90 287,85 " style="fill:#1585d8; stroke-width:1; stroke:black; " description="&lt;b&gt;EN71_RS11590&lt;/b&gt;&lt;br&gt;HXXEE domain-containing protein&lt;br&gt;Location: 1400038 - 1400687&lt;br&gt;&lt;br&gt;&lt;b&gt;BlastP hit with ctg47_5&lt;/b&gt;&lt;br&gt;Percentage identity: 98&lt;br&gt;Percentage coverage: 100&lt;br&gt;BLAST bit score: 84&lt;br&gt;E-value: 2.9e-15" locus_tag="EN71_RS11590" class="clusterblast-orf" id="dummy-1_h1_9_20"  />
</g>
<g id="a1_0021"  >
<polygon points="299,85 301,80 301,90 299,85 " style="fill:white; stroke-width:1; stroke:black; " description="&lt;b&gt;EN71_RS11595&lt;/b&gt;&lt;br&gt;hypothetical protein&lt;br&gt;Location: 1400684 - 1400776" locus_tag="EN71_RS11595" class="clusterblast-orf" id="dummy-1_h1_9_21"  />
</g>
<g id="a1_0022"  >
<polygon points="301,90 308,90 313,85 308,80 301,80 301,90 " style="fill:#a115d8; stroke-width:1; stroke:black; " description="&lt;b&gt;EN71_RS07125&lt;/b&gt;&lt;br&gt;TetR/AcrR family transcriptional regulator&lt;br&gt;Location: 1400779 - 1401408&lt;br&gt;&lt;br&gt;&lt;b&gt;BlastP hit with ctg47_6&lt;/b&gt;&lt;br&gt;Percentage identity: 99&lt;br&gt;Percentage coverage: 100&lt;br&gt;BLAST bit score: 358&lt;br&gt;E-value: 3.5e-97" locus_tag="EN71_RS07125" class="clusterblast-orf" id="dummy-1_h1_9_22"  />
</g>
<g id="a1_0023"  >
<polygon points="312,85 317,80 324,80 324,90 317,90 312,85 " style="fill:#d86915; stroke-width:1; stroke:black; " description="&lt;b&gt;EN71_RS07130&lt;/b&gt;&lt;br&gt;YihA family ribosome biogenesis GTP-binding protein&lt;br&gt;Location: 1401389 - 1401985&lt;br&gt;&lt;br&gt;&lt;b&gt;BlastP hit with ctg47_7&lt;/b&gt;&lt;br&gt;Percentage identity: 100&lt;br&gt;Percentage coverage: 100&lt;br&gt;BLAST bit score: 399&lt;br&gt;E-value: 1.5e-109" locus_tag="EN71_RS07130" class="clusterblast-orf" id="dummy-1_h1_9_23"  />
</g>
<g id="a1_0024"  >
<polygon points="324,85 329,80 348,80 348,90 329,90 324,85 " style="fill:#15d831; stroke-width:1; stroke:black; " description="&lt;b&gt;EN71_RS07135&lt;/b&gt;&lt;br&gt;ATP-dependent Clp protease ATP-binding subunit ClpX&lt;br&gt;Location: 1401996 - 1403222&lt;br&gt;&lt;br&gt;&lt;b&gt;BlastP hit with ctg47_8&lt;/b&gt;&lt;br&gt;Percentage identity: 100&lt;br&gt;Percentage coverage: 100&lt;br&gt;BLAST bit score: 784&lt;br&gt;E-value: 4.4e-225" locus_tag="EN71_RS07135" class="clusterblast-orf" id="dummy-1_h1_9_24"  />
</g>
<g id="a1_0025"  >
<polygon points="348,85 351,80 351,90 348,85 " style="fill:#1531d8; stroke-width:1; stroke:black; " description="&lt;b&gt;EN71_RS07140&lt;/b&gt;&lt;br&gt;hypothetical protein&lt;br&gt;Location: 1403252 - 1403422&lt;br&gt;&lt;br&gt;&lt;b&gt;BlastP hit with ctg47_9&lt;/b&gt;&lt;br&gt;Percentage identity: 100&lt;br&gt;Percentage coverage: 100&lt;br&gt;BLAST bit score: 90&lt;br&gt;E-value: 5.4e-17" locus_tag="EN71_RS07140" class="clusterblast-orf" id="dummy-1_h1_9_25"  />
</g>
<g id="a1_0026"  >
<polygon points="352,85 357,80 361,80 361,90 357,90 352,85 " style="fill:#d815bc; stroke-width:1; stroke:black; " description="&lt;b&gt;EN71_RS07145&lt;/b&gt;&lt;br&gt;dihydrofolate reductase&lt;br&gt;Location: 1403440 - 1403934&lt;br&gt;&lt;br&gt;&lt;b&gt;BlastP hit with ctg47_10&lt;/b&gt;&lt;br&gt;Percentage identity: 100&lt;br&gt;Percentage coverage: 100&lt;br&gt;BLAST bit score: 343&lt;br&gt;E-value: 1.4e-92" locus_tag="EN71_RS07145" class="clusterblast-orf" id="dummy-1_h1_9_26"  />
</g>
<g id="a1_0027"  >
<polygon points="363,85 368,80 379,80 379,90 368,90 363,85 " style="fill:#d8bc15; stroke-width:1; stroke:black; " description="&lt;b&gt;EN71_RS07150&lt;/b&gt;&lt;br&gt;thymidylate synthase&lt;br&gt;Location: 1404014 - 1404853&lt;br&gt;&lt;br&gt;&lt;b&gt;BlastP hit with ctg47_11&lt;/b&gt;&lt;br&gt;Percentage identity: 100&lt;br&gt;Percentage coverage: 100&lt;br&gt;BLAST bit score: 577&lt;br&gt;E-value: 9.5e-163" locus_tag="EN71_RS07150" class="clusterblast-orf" id="dummy-1_h1_9_27"  />
</g>
<g id="a1_0028"  >
<polygon points="382,90 399,90 404,85 399,80 382,80 382,90 " style="fill:#15d885; stroke-width:1; stroke:black; " description="&lt;b&gt;EN71_RS07155&lt;/b&gt;&lt;br&gt;hydroxymethylglutaryl-CoA synthase&lt;br&gt;Location: 1405007 - 1406179&lt;br&gt;&lt;br&gt;&lt;b&gt;BlastP hit with ctg47_12&lt;/b&gt;&lt;br&gt;Percentage identity: 100&lt;br&gt;Percentage coverage: 96&lt;br&gt;BLAST bit score: 767&lt;br&gt;E-value: 5.5e-220" locus_tag="EN71_RS07155" class="clusterblast-orf" id="dummy-1_h1_9_28"  />
</g>
<g id="a1_0029"  >
<polygon points="404,90 424,90 429,85 424,80 404,80 404,90 " style="fill:#4d15d8; stroke-width:1; stroke:black; " description="&lt;b&gt;EN71_RS07160&lt;/b&gt;&lt;br&gt;hydroxymethylglutaryl-CoA reductase, degradative&lt;br&gt;Location: 1406181 - 1407464&lt;br&gt;&lt;br&gt;&lt;b&gt;BlastP hit with ctg47_13&lt;/b&gt;&lt;br&gt;Percentage identity: 99&lt;br&gt;Percentage coverage: 100&lt;br&gt;BLAST bit score: 796&lt;br&gt;E-value: 1.2e-228" locus_tag="EN71_RS07160" class="clusterblast-orf" id="dummy-1_h1_9_29"  />
</g>
<g id="a1_0030"  >
<polygon points="431,90 434,90 439,85 434,80 431,80 431,90 " style="fill:#d81569; stroke-width:1; stroke:black; " description="&lt;b&gt;EN71_RS07165&lt;/b&gt;&lt;br&gt;DUF1836 domain-containing protein&lt;br&gt;Location: 1407556 - 1408005&lt;br&gt;&lt;br&gt;&lt;b&gt;BlastP hit with ctg47_14&lt;/b&gt;&lt;br&gt;Percentage identity: 99&lt;br&gt;Percentage coverage: 100&lt;br&gt;BLAST bit score: 298&lt;br&gt;E-value: 3.5e-79" locus_tag="EN71_RS07165" class="clusterblast-orf" id="dummy-1_h1_9_30"  />
</g>
<g id="a1_0031"  >
<polygon points="439,90 447,90 452,85 447,80 439,80 439,90 " style="fill:#a1d815; stroke-width:1; stroke:black; " description="&lt;b&gt;EN71_RS07170&lt;/b&gt;&lt;br&gt;hemolysin III family protein&lt;br&gt;Location: 1408010 - 1408654&lt;br&gt;&lt;br&gt;&lt;b&gt;BlastP hit with ctg47_15&lt;/b&gt;&lt;br&gt;Percentage identity: 100&lt;br&gt;Percentage coverage: 98&lt;br&gt;BLAST bit score: 406&lt;br&gt;E-value: 1.3e-111" locus_tag="EN71_RS07170" class="clusterblast-orf" id="dummy-1_h1_9_31"  />
</g>
<g id="a1_0032"  >
<polygon points="453,90 466,90 471,85 466,80 453,80 453,90 " style="fill:#15d8d8; stroke-width:1; stroke:black; " description="&lt;b&gt;EN71_RS07175&lt;/b&gt;&lt;br&gt;diacylglycerol kinase family lipid kinase&lt;br&gt;Location: 1408741 - 1409655&lt;br&gt;&lt;br&gt;&lt;b&gt;BlastP hit with ctg47_16&lt;/b&gt;&lt;br&gt;Percentage identity: 100&lt;br&gt;Percentage coverage: 100&lt;br&gt;BLAST bit score: 382&lt;br&gt;E-value: 3.2e-104" locus_tag="EN71_RS07175" class="clusterblast-orf" id="dummy-1_h1_9_32"  />
</g>
<g id="a1_0033"  >
<polygon points="473,90 484,90 489,85 484,80 473,80 473,90 " style="fill:white; stroke-width:1; stroke:black; " description="&lt;b&gt;EN71_RS07180&lt;/b&gt;&lt;br&gt;glutathione S-transferase family protein&lt;br&gt;Location: 1409756 - 1410610" locus_tag="EN71_RS07180" class="clusterblast-orf" id="dummy-1_h1_9_33"  />
</g>
<g id="a1_0034"  >
<polygon points="490,85 494,80 494,90 490,85 " style="fill:white; stroke-width:1; stroke:black; " description="&lt;b&gt;EN71_RS07185&lt;/b&gt;&lt;br&gt;DUF4649 family protein&lt;br&gt;Location: 1410656 - 1410874" locus_tag="EN71_RS07185" class="clusterblast-orf" id="dummy-1_h1_9_34"  />
</g>
<g id="a1_0035"  >
<polygon points="496,85 501,80 515,80 515,90 501,90 496,85 " style="fill:white; stroke-width:1; stroke:black; " description="&lt;b&gt;EN71_RS07190&lt;/b&gt;&lt;br&gt;type 2 isopentenyl-diphosphate Delta-isomerase&lt;br&gt;Location: 1410942 - 1411937" locus_tag="EN71_RS07190" class="clusterblast-orf" id="dummy-1_h1_9_35"  />
</g>
<g id="a1_0036"  >
<polygon points="515,85 520,80 534,80 534,90 520,90 515,85 " style="fill:white; stroke-width:1; stroke:black; " description="&lt;b&gt;EN71_RS07195&lt;/b&gt;&lt;br&gt;phosphomevalonate kinase&lt;br&gt;Location: 1411934 - 1412926" locus_tag="EN71_RS07195" class="clusterblast-orf" id="dummy-1_h1_9_36"  />
</g>
<g id="a1_0037"  >
<polygon points="534,85 539,80 552,80 552,90 539,90 534,85 " style="fill:white; stroke-width:1; stroke:black; " description="&lt;b&gt;EN71_RS07200&lt;/b&gt;&lt;br&gt;diphosphomevalonate decarboxylase&lt;br&gt;Location: 1412919 - 1413863" locus_tag="EN71_RS07200" class="clusterblast-orf" id="dummy-1_h1_9_37"  />
</g>
<g id="a1_0038"  >
<polygon points="551,85 556,80 568,80 568,90 556,90 551,85 " style="fill:white; stroke-width:1; stroke:black; " description="&lt;b&gt;EN71_RS07205&lt;/b&gt;&lt;br&gt;mevalonate kinase&lt;br&gt;Location: 1413845 - 1414723" locus_tag="EN71_RS07205" class="clusterblast-orf" id="dummy-1_h1_9_38"  />
</g>
<g id="a1_0039"  >
<polygon points="570,85 575,80 594,80 594,90 575,90 570,85 " style="fill:white; stroke-width:1; stroke:black; " description="&lt;b&gt;EN71_RS07210&lt;/b&gt;&lt;br&gt;HAMP domain-containing histidine kinase&lt;br&gt;Location: 1414839 - 1416068" locus_tag="EN71_RS07210" class="clusterblast-orf" id="dummy-1_h1_9_39"  />
</g>
<g id="a1_0040"  >
<polygon points="594,85 599,80 607,80 607,90 599,90 594,85 " style="fill:white; stroke-width:1; stroke:black; " description="&lt;b&gt;EN71_RS07215&lt;/b&gt;&lt;br&gt;response regulator transcription factor&lt;br&gt;Location: 1416068 - 1416754" locus_tag="EN71_RS07215" class="clusterblast-orf" id="dummy-1_h1_9_40"  />
</g>
<g id="a1_0041"  >
<polygon points="607,85 612,80 619,80 619,90 612,90 607,85 " style="fill:white; stroke-width:1; stroke:black; " description="&lt;b&gt;EN71_RS07220&lt;/b&gt;&lt;br&gt;GTP pyrophosphokinase&lt;br&gt;Location: 1416756 - 1417382" locus_tag="EN71_RS07220" class="clusterblast-orf" id="dummy-1_h1_9_41"  />
</g>
<g id="a1_0042"  >
<polygon points="621,85 626,80 655,80 655,90 626,90 621,85 " style="fill:white; stroke-width:1; stroke:black; " description="&lt;b&gt;EN71_RS07225&lt;/b&gt;&lt;br&gt;ABC transporter ATP-binding protein&lt;br&gt;Location: 1417490 - 1419244" locus_tag="EN71_RS07225" class="clusterblast-orf" id="dummy-1_h1_9_42"  />
</g>
<g id="a1_0043"  >
<polygon points="655,85 660,80 689,80 689,90 660,90 655,85 " style="fill:white; stroke-width:1; stroke:black; " description="&lt;b&gt;EN71_RS07230&lt;/b&gt;&lt;br&gt;ABC transporter ATP-binding protein&lt;br&gt;Location: 1419234 - 1421051" locus_tag="EN71_RS07230" class="clusterblast-orf" id="dummy-1_h1_9_43"  />
</g>
<g id="a1_0044"  >
<polygon points="690,85 695,80 699,80 699,90 695,90 690,85 " style="fill:white; stroke-width:1; stroke:black; " description="&lt;b&gt;EN71_RS07235&lt;/b&gt;&lt;br&gt;MarR family transcriptional regulator&lt;br&gt;Location: 1421098 - 1421538" locus_tag="EN71_RS07235" class="clusterblast-orf" id="dummy-1_h1_9_44"  />
</g>
<g id="a1_0045"  >
<polygon points="704,90 739,90 744,85 739,80 704,80 704,90 " style="fill:white; stroke-width:1; stroke:black; " description="&lt;b&gt;EN71_RS07240&lt;/b&gt;&lt;br&gt;bifunctional metallophosphatase/5'-nucleotidase&lt;br&gt;Location: 1421807 - 1423879" locus_tag="EN71_RS07240" class="clusterblast-orf" id="dummy-1_h1_9_45"  />
</g>
<g id="a1_0046"  >
<polygon points="744,85 749,80 752,80 752,90 749,90 744,85 " style="fill:white; stroke-width:1; stroke:black; " description="&lt;b&gt;EN71_RS07245&lt;/b&gt;&lt;br&gt;peptide deformylase&lt;br&gt;Location: 1423916 - 1424326" locus_tag="EN71_RS07245" class="clusterblast-orf" id="dummy-1_h1_9_46"  />
</g>
<g id="a1_0047"  >
<polygon points="754,85 759,80 780,80 780,90 759,90 754,85 " style="fill:white; stroke-width:1; stroke:black; " description="&lt;b&gt;EN71_RS07250&lt;/b&gt;&lt;br&gt;NADP-specific glutamate dehydrogenase&lt;br&gt;Location: 1424396 - 1425745" locus_tag="EN71_RS07250" class="clusterblast-orf" id="dummy-1_h1_9_47"  />
</g>
</svg>
