<svg xmlns="http://www.w3.org/2000/svg" xmlns:xlink="http://www.w3.org/1999/xlink" version="1.1" x="0" y="0" height="230" width="800" viewBox="0 0 800 230" preserveAspectRatio="none"  >
<g label="Query sequence" class="clusterblast-cluster"  >
<text x="5" y="20" class="clusterblast-acc"  >
Query sequence</text>
<line x1="10" y1="35" x2="778.0" y2="35" style="stroke-width:1; stroke:grey; "  />
<polygon points="0,40 15,40 20,35 15,30 0,30 0,40 " style="fill:#d81515; stroke-width:1; stroke:black; " description="&lt;b&gt;ctg3_27&lt;/b&gt;&lt;br&gt;ctg3 27&lt;br&gt;Location: 27476 - 28535" locus_tag="ctg3_27" class="clusterblast-orf" id="dummy-1_q0_0_all"  />
<polygon points="21,40 32,40 37,35 32,30 21,30 21,40 " style="fill:#63d815; stroke-width:1; stroke:black; " description="&lt;b&gt;ctg3_28&lt;/b&gt;&lt;br&gt;ctg3 28&lt;br&gt;Location: 28598 - 29438" locus_tag="ctg3_28" class="clusterblast-orf" id="dummy-1_q1_0_all"  />
<polygon points="40,35 45,30 45,30 45,40 45,40 40,35 " style="fill:#15b1d8; stroke-width:1; stroke:black; " description="&lt;b&gt;ctg3_29&lt;/b&gt;&lt;br&gt;ctg3 29&lt;br&gt;Location: 29585 - 29864" locus_tag="ctg3_29" class="clusterblast-orf" id="dummy-1_q2_0_all"  />
<polygon points="47,35 52,30 52,30 52,40 52,40 47,35 " style="fill:#8a15d8; stroke-width:1; stroke:black; " description="&lt;b&gt;ctg3_30&lt;/b&gt;&lt;br&gt;ctg3 30&lt;br&gt;Location: 29958 - 30246" locus_tag="ctg3_30" class="clusterblast-orf" id="dummy-1_q3_0_all"  />
<polygon points="59,40 63,40 68,35 63,30 59,30 59,40 " style="fill:#d83c15; stroke-width:1; stroke:black; " description="&lt;b&gt;ctg3_31&lt;/b&gt;&lt;br&gt;ctg3 31&lt;br&gt;Location: 30616 - 31054" locus_tag="ctg3_31" class="clusterblast-orf" id="dummy-1_q4_0_all"  />
<polygon points="68,40 82,40 87,35 82,30 68,30 68,40 " style="fill:#3cd815; stroke-width:1; stroke:black; " description="&lt;b&gt;ctg3_32&lt;/b&gt;&lt;br&gt;ctg3 32&lt;br&gt;Location: 31058 - 32072" locus_tag="ctg3_32" class="clusterblast-orf" id="dummy-1_q5_0_all"  />
<polygon points="87,35 92,30 92,30 92,40 92,40 87,35 " style="fill:white; stroke-width:1; stroke:black; " description="&lt;b&gt;ctg3_33&lt;/b&gt;&lt;br&gt;ctg3 33&lt;br&gt;Location: 32093 - 32336" locus_tag="ctg3_33" class="clusterblast-orf" id="dummy-1_q6_0_all"  />
<polygon points="112,40 208,40 213,35 208,30 112,30 112,40 " style="fill:#158ad8; stroke-width:1; stroke:black; " description="&lt;b&gt;ctg3_34&lt;/b&gt;&lt;br&gt;ctg3 34&lt;br&gt;Location: 33418 - 38701" locus_tag="ctg3_34" class="clusterblast-orf" id="dummy-1_q7_0_all"  />
<polygon points="218,40 246,40 251,35 246,30 218,30 218,40 " style="fill:#b115d8; stroke-width:1; stroke:black; " description="&lt;b&gt;ctg3_35&lt;/b&gt;&lt;br&gt;ctg3 35&lt;br&gt;Location: 38962 - 40705" locus_tag="ctg3_35" class="clusterblast-orf" id="dummy-1_q8_0_all"  />
<polygon points="254,40 271,40 276,35 271,30 254,30 254,40 " style="fill:#d86315; stroke-width:1; stroke:black; " description="&lt;b&gt;ctg3_36&lt;/b&gt;&lt;br&gt;ctg3 36&lt;br&gt;Location: 40903 - 42064" locus_tag="ctg3_36" class="clusterblast-orf" id="dummy-1_q9_0_all"  />
<polygon points="277,40 302,40 307,35 302,30 277,30 277,40 " style="fill:#15d815; stroke-width:1; stroke:black; " description="&lt;b&gt;ctg3_37&lt;/b&gt;&lt;br&gt;ctg3 37&lt;br&gt;Location: 42073 - 43654" locus_tag="ctg3_37" class="clusterblast-orf" id="dummy-1_q10_0_all"  />
<polygon points="312,40 323,40 328,35 323,30 312,30 312,40 " style="fill:#1563d8; stroke-width:1; stroke:black; " description="&lt;b&gt;ctg3_38&lt;/b&gt;&lt;br&gt;ctg3 38&lt;br&gt;Location: 43941 - 44757" locus_tag="ctg3_38" class="clusterblast-orf" id="dummy-1_q11_0_all"  />
<polygon points="329,40 339,40 344,35 339,30 329,30 329,40 " style="fill:#d815d8; stroke-width:1; stroke:black; " description="&lt;b&gt;ctg3_39&lt;/b&gt;&lt;br&gt;ctg3 39&lt;br&gt;Location: 44843 - 45605" locus_tag="ctg3_39" class="clusterblast-orf" id="dummy-1_q12_0_all"  />
<polygon points="350,35 355,30 359,30 359,40 355,40 350,35 " style="fill:#d88a15; stroke-width:1; stroke:black; " description="&lt;b&gt;ctg3_40&lt;/b&gt;&lt;br&gt;ctg3 40&lt;br&gt;Location: 45922 - 46396" locus_tag="ctg3_40" class="clusterblast-orf" id="dummy-1_q13_0_all"  />
<polygon points="359,35 364,30 368,30 368,40 364,40 359,35 " style="fill:#15d83c; stroke-width:1; stroke:black; " description="&lt;b&gt;ctg3_41&lt;/b&gt;&lt;br&gt;ctg3 41&lt;br&gt;Location: 46392 - 46905" locus_tag="ctg3_41" class="clusterblast-orf" id="dummy-1_q14_0_all"  />
<polygon points="375,35 380,30 402,30 402,40 380,40 375,35 " style="fill:#153cd8; stroke-width:1; stroke:black; " description="&lt;b&gt;ctg3_42&lt;/b&gt;&lt;br&gt;ctg3 42&lt;br&gt;Location: 47230 - 48667" locus_tag="ctg3_42" class="clusterblast-orf" id="dummy-1_q15_0_all"  />
<polygon points="404,35 409,30 431,30 431,40 409,40 404,35 " style="fill:#d815b1; stroke-width:1; stroke:black; " description="&lt;b&gt;ctg3_43&lt;/b&gt;&lt;br&gt;ctg3 43&lt;br&gt;Location: 48807 - 50214" locus_tag="ctg3_43" class="clusterblast-orf" id="dummy-1_q16_0_all"  />
<polygon points="436,35 441,30 458,30 458,40 441,40 436,35 " style="fill:#d8b115; stroke-width:1; stroke:black; " description="&lt;b&gt;ctg3_44&lt;/b&gt;&lt;br&gt;ctg3 44&lt;br&gt;Location: 50447 - 51650" locus_tag="ctg3_44" class="clusterblast-orf" id="dummy-1_q17_0_all"  />
<polygon points="460,40 463,40 468,35 463,30 460,30 460,40 " style="fill:white; stroke-width:1; stroke:black; " description="&lt;b&gt;ctg3_45&lt;/b&gt;&lt;br&gt;ctg3 45&lt;br&gt;Location: 51745 - 52177" locus_tag="ctg3_45" class="clusterblast-orf" id="dummy-1_q18_0_all"  />
<polygon points="465,35 470,30 476,30 476,40 470,40 465,35 " style="fill:#15d863; stroke-width:1; stroke:black; " description="&lt;b&gt;ctg3_46&lt;/b&gt;&lt;br&gt;ctg3 46&lt;br&gt;Location: 52020 - 52602" locus_tag="ctg3_46" class="clusterblast-orf" id="dummy-1_q19_0_all"  />
<polygon points="482,40 534,40 539,35 534,30 482,30 482,40 " style="fill:#1515d8; stroke-width:1; stroke:black; " description="&lt;b&gt;ctg3_47&lt;/b&gt;&lt;br&gt;ctg3 47&lt;br&gt;Location: 52909 - 55891" locus_tag="ctg3_47" class="clusterblast-orf" id="dummy-1_q20_0_all"  />
<polygon points="547,40 550,40 555,35 550,30 547,30 547,40 " style="fill:#d8158a; stroke-width:1; stroke:black; " description="&lt;b&gt;ctg3_48&lt;/b&gt;&lt;br&gt;ctg3 48&lt;br&gt;Location: 56306 - 56741" locus_tag="ctg3_48" class="clusterblast-orf" id="dummy-1_q21_0_all"  />
<polygon points="555,40 573,40 578,35 573,30 555,30 555,40 " style="fill:#d8d815; stroke-width:1; stroke:black; " description="&lt;b&gt;ctg3_49&lt;/b&gt;&lt;br&gt;ctg3 49&lt;br&gt;Location: 56762 - 57974" locus_tag="ctg3_49" class="clusterblast-orf" id="dummy-1_q22_0_all"  />
<polygon points="578,40 588,40 593,35 588,30 578,30 578,40 " style="fill:#15d88a; stroke-width:1; stroke:black; " description="&lt;b&gt;ctg3_50&lt;/b&gt;&lt;br&gt;ctg3 50&lt;br&gt;Location: 57963 - 58755" locus_tag="ctg3_50" class="clusterblast-orf" id="dummy-1_q23_0_all"  />
<polygon points="602,40 609,40 614,35 609,30 602,30 602,40 " style="fill:#3c15d8; stroke-width:1; stroke:black; " description="&lt;b&gt;ctg3_51&lt;/b&gt;&lt;br&gt;ctg3 51&lt;br&gt;Location: 59217 - 59844" locus_tag="ctg3_51" class="clusterblast-orf" id="dummy-1_q24_0_all"  />
<polygon points="625,40 655,40 660,35 655,30 625,30 625,40 " style="fill:#d81563; stroke-width:1; stroke:black; " description="&lt;b&gt;ctg3_52&lt;/b&gt;&lt;br&gt;ctg3 52&lt;br&gt;Location: 60451 - 62272" locus_tag="ctg3_52" class="clusterblast-orf" id="dummy-1_q25_0_all"  />
<polygon points="662,40 670,40 675,35 670,30 662,30 662,40 " style="fill:#b1d815; stroke-width:1; stroke:black; " description="&lt;b&gt;ctg3_53&lt;/b&gt;&lt;br&gt;ctg3 53&lt;br&gt;Location: 62392 - 63067" locus_tag="ctg3_53" class="clusterblast-orf" id="dummy-1_q26_0_all"  />
<polygon points="678,40 681,40 686,35 681,30 678,30 678,40 " style="fill:#15d8b1; stroke-width:1; stroke:black; " description="&lt;b&gt;ctg3_54&lt;/b&gt;&lt;br&gt;ctg3 54&lt;br&gt;Location: 63208 - 63643" locus_tag="ctg3_54" class="clusterblast-orf" id="dummy-1_q27_0_all"  />
<polygon points="686,40 686,40 691,35 686,30 686,30 686,40 " style="fill:#6315d8; stroke-width:1; stroke:black; " description="&lt;b&gt;ctg3_55&lt;/b&gt;&lt;br&gt;ctg3 55&lt;br&gt;Location: 63642 - 63921" locus_tag="ctg3_55" class="clusterblast-orf" id="dummy-1_q28_0_all"  />
<polygon points="692,40 738,40 743,35 738,30 692,30 692,40 " style="fill:#d8153c; stroke-width:1; stroke:black; " description="&lt;b&gt;ctg3_56&lt;/b&gt;&lt;br&gt;ctg3 56&lt;br&gt;Location: 63973 - 66655" locus_tag="ctg3_56" class="clusterblast-orf" id="dummy-1_q29_0_all"  />
<polygon points="744,40 750,40 755,35 750,30 744,30 744,40 " style="fill:#8ad815; stroke-width:1; stroke:black; " description="&lt;b&gt;ctg3_57&lt;/b&gt;&lt;br&gt;ctg3 57&lt;br&gt;Location: 66718 - 67261" locus_tag="ctg3_57" class="clusterblast-orf" id="dummy-1_q30_0_all"  />
<polygon points="754,40 771,40 776,35 771,30 754,30 754,40 " style="fill:#15d8d8; stroke-width:1; stroke:black; " description="&lt;b&gt;ctg3_58&lt;/b&gt;&lt;br&gt;ctg3 58&lt;br&gt;Location: 67253 - 68411" locus_tag="ctg3_58" class="clusterblast-orf" id="dummy-1_q31_0_all"  />
<polygon points="775,35 780,30 780,30 780,40 780,40 775,35 " style="fill:white; stroke-width:1; stroke:black; " description="&lt;b&gt;ctg3_59&lt;/b&gt;&lt;br&gt;ctg3 59&lt;br&gt;Location: 68334 - 68583" locus_tag="ctg3_59" class="clusterblast-orf" id="dummy-1_q32_0_all"  />
</g>
<g label="NZ_JABUHI010000001" description="NZ_JABUHI010000001 (1262793-1304101): Gardnerella vaginalis strain UMB0540 ER... (82% of genes show similarity), T3PKS" class="clusterblast-cluster"  >
<text x="5" y="70" class="clusterblast-acc"  >
<a xlink:href="https://antismash-db.secondarymetabolites.org/area?record=NZ_JABUHI010000001&amp;start=1262793&amp;end=1304101" target="_blank">NZ_JABUHI010000001 (1262793-1304101)</a>: Gardnerella vaginalis strain UMB0540 ER... (82% of genes show similarity), T3PKS</text>
<line x1="10" y1="85" x2="778.0" y2="85" style="stroke-width:1; stroke:grey; "  />
</g>
<g id="a1_000"  >
<polygon points="4,90 14,90 19,85 14,80 4,80 4,90 " style="fill:white; stroke-width:1; stroke:black; " description="&lt;b&gt;HRR13_RS05150&lt;/b&gt;&lt;br&gt;Fe-S cluster assembly ATPase SufC&lt;br&gt;Location: 1303804 - 1303028" locus_tag="HRR13_RS05150" class="clusterblast-orf" id="dummy-1_h1_9_0"  />
</g>
<g id="a1_001"  >
<polygon points="21,90 52,90 57,85 52,80 21,80 21,90 " style="fill:white; stroke-width:1; stroke:black; " description="&lt;b&gt;HRR13_RS05145&lt;/b&gt;&lt;br&gt;translational GTPase TypA&lt;br&gt;Location: 1302945 - 1301023" locus_tag="HRR13_RS05145" class="clusterblast-orf" id="dummy-1_h1_9_1"  />
</g>
<g id="a1_002"  >
<polygon points="57,90 61,90 66,85 61,80 57,80 57,90 " style="fill:white; stroke-width:1; stroke:black; " description="&lt;b&gt;HRR13_RS05140&lt;/b&gt;&lt;br&gt;hypothetical protein&lt;br&gt;Location: 1301013 - 1300579" locus_tag="HRR13_RS05140" class="clusterblast-orf" id="dummy-1_h1_9_2"  />
</g>
<g id="a1_003"  >
<polygon points="68,90 83,90 88,85 83,80 68,80 68,90 " style="fill:white; stroke-width:1; stroke:black; " description="&lt;b&gt;HRR13_RS05135&lt;/b&gt;&lt;br&gt;chorismate mutase&lt;br&gt;Location: 1300450 - 1299422" locus_tag="HRR13_RS05135" class="clusterblast-orf" id="dummy-1_h1_9_3"  />
</g>
<g id="a1_004"  >
<polygon points="87,90 103,90 108,85 103,80 87,80 87,90 " style="fill:white; stroke-width:1; stroke:black; " description="&lt;b&gt;HRR13_RS05130&lt;/b&gt;&lt;br&gt;prephenate dehydrogenase/arogenate dehydrogenase family protein&lt;br&gt;Location: 1299428 - 1298361" locus_tag="HRR13_RS05130" class="clusterblast-orf" id="dummy-1_h1_9_4"  />
</g>
<g id="a1_005"  >
<polygon points="108,90 123,90 128,85 123,80 108,80 108,90 " style="fill:#d81515; stroke-width:1; stroke:black; " description="&lt;b&gt;HRR13_RS05125&lt;/b&gt;&lt;br&gt;tyrosine recombinase XerD&lt;br&gt;Location: 1298336 - 1297314&lt;br&gt;&lt;br&gt;&lt;b&gt;BlastP hit with ctg3_27&lt;/b&gt;&lt;br&gt;Percentage identity: 92&lt;br&gt;Percentage coverage: 97&lt;br&gt;BLAST bit score: 565&lt;br&gt;E-value: 4.7e-203" locus_tag="HRR13_RS05125" class="clusterblast-orf" id="dummy-1_h1_9_5"  />
</g>
<g id="a1_006"  >
<polygon points="129,90 139,90 144,85 139,80 129,80 129,90 " style="fill:#63d815; stroke-width:1; stroke:black; " description="&lt;b&gt;HRR13_RS05120&lt;/b&gt;&lt;br&gt;AAA family ATPase&lt;br&gt;Location: 1297260 - 1296421&lt;br&gt;&lt;br&gt;&lt;b&gt;BlastP hit with ctg3_28&lt;/b&gt;&lt;br&gt;Percentage identity: 100&lt;br&gt;Percentage coverage: 100&lt;br&gt;BLAST bit score: 533&lt;br&gt;E-value: 1.19e-192" locus_tag="HRR13_RS05120" class="clusterblast-orf" id="dummy-1_h1_9_6"  />
</g>
<g id="a1_007"  >
<polygon points="150,85 155,80 156,80 156,90 155,90 150,85 " style="fill:#15b1d8; stroke-width:1; stroke:black; " description="&lt;b&gt;HRR13_RS05115&lt;/b&gt;&lt;br&gt;hypothetical protein&lt;br&gt;Location: 1296119 - 1295802&lt;br&gt;&lt;br&gt;&lt;b&gt;BlastP hit with ctg3_29&lt;/b&gt;&lt;br&gt;Percentage identity: 82&lt;br&gt;Percentage coverage: 100&lt;br&gt;BLAST bit score: 150&lt;br&gt;E-value: 6.82e-47" locus_tag="HRR13_RS05115" class="clusterblast-orf" id="dummy-1_h1_9_7"  />
</g>
<g id="a1_008"  >
<polygon points="170,90 264,90 269,85 264,80 170,80 170,90 " style="fill:#158ad8; stroke-width:1; stroke:black; " description="&lt;b&gt;HRR13_RS05110&lt;/b&gt;&lt;br&gt;hypothetical protein&lt;br&gt;Location: 1295065 - 1289867&lt;br&gt;&lt;br&gt;&lt;b&gt;BlastP hit with ctg3_34&lt;/b&gt;&lt;br&gt;Percentage identity: 34&lt;br&gt;Percentage coverage: 102&lt;br&gt;BLAST bit score: 748&lt;br&gt;E-value: 1.4e-236" locus_tag="HRR13_RS05110" class="clusterblast-orf" id="dummy-1_h1_9_8"  />
</g>
<g id="a1_009"  >
<polygon points="275,90 301,90 306,85 301,80 275,80 275,90 " style="fill:#b115d8; stroke-width:1; stroke:black; " description="&lt;b&gt;HRR13_RS05105&lt;/b&gt;&lt;br&gt;LPXTG cell wall anchor domain-containing protein&lt;br&gt;Location: 1289524 - 1287917&lt;br&gt;&lt;br&gt;&lt;b&gt;BlastP hit with ctg3_35&lt;/b&gt;&lt;br&gt;Percentage identity: 59&lt;br&gt;Percentage coverage: 98&lt;br&gt;BLAST bit score: 550&lt;br&gt;E-value: 4.32e-190" locus_tag="HRR13_RS05105" class="clusterblast-orf" id="dummy-1_h1_9_9"  />
</g>
<g id="a1_0010"  >
<polygon points="311,90 327,90 332,85 327,80 311,80 311,90 " style="fill:#d86315; stroke-width:1; stroke:black; " description="&lt;b&gt;HRR13_RS05100&lt;/b&gt;&lt;br&gt;class C sortase&lt;br&gt;Location: 1287643 - 1286513&lt;br&gt;&lt;br&gt;&lt;b&gt;BlastP hit with ctg3_36&lt;/b&gt;&lt;br&gt;Percentage identity: 88&lt;br&gt;Percentage coverage: 99&lt;br&gt;BLAST bit score: 659&lt;br&gt;E-value: 4.68e-239" locus_tag="HRR13_RS05100" class="clusterblast-orf" id="dummy-1_h1_9_10"  />
</g>
<g id="a1_0011"  >
<polygon points="338,90 347,90 352,85 347,80 338,80 338,90 " style="fill:#1563d8; stroke-width:1; stroke:black; " description="&lt;b&gt;HRR13_RS05095&lt;/b&gt;&lt;br&gt;(p)ppGpp synthetase&lt;br&gt;Location: 1286245 - 1285469&lt;br&gt;&lt;br&gt;&lt;b&gt;BlastP hit with ctg3_38&lt;/b&gt;&lt;br&gt;Percentage identity: 95&lt;br&gt;Percentage coverage: 96&lt;br&gt;BLAST bit score: 476&lt;br&gt;E-value: 2.05e-170" locus_tag="HRR13_RS05095" class="clusterblast-orf" id="dummy-1_h1_9_11"  />
</g>
<g id="a1_0012"  >
<polygon points="357,90 366,90 371,85 366,80 357,80 357,90 " style="fill:#d815d8; stroke-width:1; stroke:black; " description="&lt;b&gt;HRR13_RS05090&lt;/b&gt;&lt;br&gt;Bax inhibitor-1/YccA family protein&lt;br&gt;Location: 1285240 - 1284479&lt;br&gt;&lt;br&gt;&lt;b&gt;BlastP hit with ctg3_39&lt;/b&gt;&lt;br&gt;Percentage identity: 98&lt;br&gt;Percentage coverage: 100&lt;br&gt;BLAST bit score: 441&lt;br&gt;E-value: 4.32e-157" locus_tag="HRR13_RS05090" class="clusterblast-orf" id="dummy-1_h1_9_12"  />
</g>
<g id="a1_0013"  >
<polygon points="378,85 383,80 403,80 403,90 383,90 378,85 " style="fill:#153cd8; stroke-width:1; stroke:black; " description="&lt;b&gt;HRR13_RS05080&lt;/b&gt;&lt;br&gt;hydroxymethylglutaryl-CoA synthase&lt;br&gt;Location: 1284101 - 1282794&lt;br&gt;&lt;br&gt;&lt;b&gt;BlastP hit with ctg3_42&lt;/b&gt;&lt;br&gt;Percentage identity: 83&lt;br&gt;Percentage coverage: 100&lt;br&gt;BLAST bit score: 747&lt;br&gt;E-value: 4.28e-271" locus_tag="HRR13_RS05080" class="clusterblast-orf" id="dummy-1_h1_9_13"  />
</g>
<g id="a1_0014"  >
<polygon points="407,85 412,80 432,80 432,90 412,90 407,85 " style="fill:#d815b1; stroke-width:1; stroke:black; " description="&lt;b&gt;HRR13_RS05075&lt;/b&gt;&lt;br&gt;hydroxymethylglutaryl-CoA reductase, degradative&lt;br&gt;Location: 1282572 - 1281247&lt;br&gt;&lt;br&gt;&lt;b&gt;BlastP hit with ctg3_43&lt;/b&gt;&lt;br&gt;Percentage identity: 88&lt;br&gt;Percentage coverage: 100&lt;br&gt;BLAST bit score: 731&lt;br&gt;E-value: 8.99e-265" locus_tag="HRR13_RS05075" class="clusterblast-orf" id="dummy-1_h1_9_14"  />
</g>
<g id="a1_0015"  >
<polygon points="436,85 441,80 460,80 460,90 441,90 436,85 " style="fill:#d8b115; stroke-width:1; stroke:black; " description="&lt;b&gt;HRR13_RS05070&lt;/b&gt;&lt;br&gt;acetyl-CoA C-acyltransferase&lt;br&gt;Location: 1281031 - 1279799&lt;br&gt;&lt;br&gt;&lt;b&gt;BlastP hit with ctg3_44&lt;/b&gt;&lt;br&gt;Percentage identity: 93&lt;br&gt;Percentage coverage: 101&lt;br&gt;BLAST bit score: 723&lt;br&gt;E-value: 2.13e-263" locus_tag="HRR13_RS05070" class="clusterblast-orf" id="dummy-1_h1_9_15"  />
</g>
<g id="a1_0016"  >
<polygon points="464,85 469,80 476,80 476,90 469,90 464,85 " style="fill:#15d863; stroke-width:1; stroke:black; " description="&lt;b&gt;HRR13_RS05065&lt;/b&gt;&lt;br&gt;xanthine phosphoribosyltransferase&lt;br&gt;Location: 1279576 - 1278968&lt;br&gt;&lt;br&gt;&lt;b&gt;BlastP hit with ctg3_46&lt;/b&gt;&lt;br&gt;Percentage identity: 97&lt;br&gt;Percentage coverage: 100&lt;br&gt;BLAST bit score: 375&lt;br&gt;E-value: 1.01e-132" locus_tag="HRR13_RS05065" class="clusterblast-orf" id="dummy-1_h1_9_16"  />
</g>
<g id="a1_0017"  >
<polygon points="481,90 530,90 535,85 530,80 481,80 481,90 " style="fill:#1515d8; stroke-width:1; stroke:black; " description="&lt;b&gt;HRR13_RS05060&lt;/b&gt;&lt;br&gt;UvrD-helicase domain-containing protein&lt;br&gt;Location: 1278703 - 1275848&lt;br&gt;&lt;br&gt;&lt;b&gt;BlastP hit with ctg3_47&lt;/b&gt;&lt;br&gt;Percentage identity: 89&lt;br&gt;Percentage coverage: 100&lt;br&gt;BLAST bit score: 1567&lt;br&gt;E-value: 0.0" locus_tag="HRR13_RS05060" class="clusterblast-orf" id="dummy-1_h1_9_17"  />
</g>
<g id="a1_0018"  >
<polygon points="542,90 545,90 550,85 545,80 542,80 542,90 " style="fill:#d8158a; stroke-width:1; stroke:black; " description="&lt;b&gt;HRR13_RS05055&lt;/b&gt;&lt;br&gt;DUF4418 family protein&lt;br&gt;Location: 1275469 - 1275044&lt;br&gt;&lt;br&gt;&lt;b&gt;BlastP hit with ctg3_48&lt;/b&gt;&lt;br&gt;Percentage identity: 94&lt;br&gt;Percentage coverage: 100&lt;br&gt;BLAST bit score: 248&lt;br&gt;E-value: 3.42e-84" locus_tag="HRR13_RS05055" class="clusterblast-orf" id="dummy-1_h1_9_18"  />
</g>
<g id="a1_0019"  >
<polygon points="550,90 568,90 573,85 568,80 550,80 550,90 " style="fill:#d8d815; stroke-width:1; stroke:black; " description="&lt;b&gt;HRR13_RS05050&lt;/b&gt;&lt;br&gt;FtsX-like permease family protein&lt;br&gt;Location: 1275022 - 1273811&lt;br&gt;&lt;br&gt;&lt;b&gt;BlastP hit with ctg3_49&lt;/b&gt;&lt;br&gt;Percentage identity: 93&lt;br&gt;Percentage coverage: 100&lt;br&gt;BLAST bit score: 711&lt;br&gt;E-value: 9.74e-259" locus_tag="HRR13_RS05050" class="clusterblast-orf" id="dummy-1_h1_9_19"  />
</g>
<g id="a1_0020"  >
<polygon points="573,90 583,90 588,85 583,80 573,80 573,90 " style="fill:#15d88a; stroke-width:1; stroke:black; " description="&lt;b&gt;HRR13_RS05045&lt;/b&gt;&lt;br&gt;ABC transporter ATP-binding protein&lt;br&gt;Location: 1273821 - 1273024&lt;br&gt;&lt;br&gt;&lt;b&gt;BlastP hit with ctg3_50&lt;/b&gt;&lt;br&gt;Percentage identity: 85&lt;br&gt;Percentage coverage: 100&lt;br&gt;BLAST bit score: 424&lt;br&gt;E-value: 7.11e-150" locus_tag="HRR13_RS05045" class="clusterblast-orf" id="dummy-1_h1_9_20"  />
</g>
<g id="a1_0021"  >
<polygon points="592,90 599,90 604,85 599,80 592,80 592,90 " style="fill:#3c15d8; stroke-width:1; stroke:black; " description="&lt;b&gt;HRR13_RS05040&lt;/b&gt;&lt;br&gt;30S ribosomal protein S4&lt;br&gt;Location: 1272809 - 1272183&lt;br&gt;&lt;br&gt;&lt;b&gt;BlastP hit with ctg3_51&lt;/b&gt;&lt;br&gt;Percentage identity: 100&lt;br&gt;Percentage coverage: 100&lt;br&gt;BLAST bit score: 399&lt;br&gt;E-value: 8.13e-142" locus_tag="HRR13_RS05040" class="clusterblast-orf" id="dummy-1_h1_9_21"  />
</g>
<g id="a1_0022"  >
<polygon points="618,90 650,90 655,85 650,80 618,80 618,90 " style="fill:#d81563; stroke-width:1; stroke:black; " description="&lt;b&gt;HRR13_RS05035&lt;/b&gt;&lt;br&gt;galactose-1-phosphate uridylyltransferase&lt;br&gt;Location: 1271485 - 1269506&lt;br&gt;&lt;br&gt;&lt;b&gt;BlastP hit with ctg3_52&lt;/b&gt;&lt;br&gt;Percentage identity: 84&lt;br&gt;Percentage coverage: 104&lt;br&gt;BLAST bit score: 1020&lt;br&gt;E-value: 0.0" locus_tag="HRR13_RS05035" class="clusterblast-orf" id="dummy-1_h1_9_22"  />
</g>
<g id="a1_0023"  >
<polygon points="658,90 665,90 670,85 665,80 658,80 658,90 " style="fill:#b1d815; stroke-width:1; stroke:black; " description="&lt;b&gt;HRR13_RS05030&lt;/b&gt;&lt;br&gt;histidine phosphatase family protein&lt;br&gt;Location: 1269376 - 1268702&lt;br&gt;&lt;br&gt;&lt;b&gt;BlastP hit with ctg3_53&lt;/b&gt;&lt;br&gt;Percentage identity: 92&lt;br&gt;Percentage coverage: 100&lt;br&gt;BLAST bit score: 437&lt;br&gt;E-value: 1.57e-156" locus_tag="HRR13_RS05030" class="clusterblast-orf" id="dummy-1_h1_9_23"  />
</g>
<g id="a1_0024"  >
<polygon points="673,90 677,90 682,85 677,80 673,80 673,90 " style="fill:#15d8b1; stroke-width:1; stroke:black; " description="&lt;b&gt;HRR13_RS05025&lt;/b&gt;&lt;br&gt;DUF948 domain-containing protein&lt;br&gt;Location: 1268540 - 1268106&lt;br&gt;&lt;br&gt;&lt;b&gt;BlastP hit with ctg3_54&lt;/b&gt;&lt;br&gt;Percentage identity: 92&lt;br&gt;Percentage coverage: 100&lt;br&gt;BLAST bit score: 242&lt;br&gt;E-value: 7.32e-82" locus_tag="HRR13_RS05025" class="clusterblast-orf" id="dummy-1_h1_9_24"  />
</g>
<g id="a1_0025"  >
<polygon points="682,90 686,85 682,80 682,90 " style="fill:#6315d8; stroke-width:1; stroke:black; " description="&lt;b&gt;HRR13_RS05020&lt;/b&gt;&lt;br&gt;hypothetical protein&lt;br&gt;Location: 1268106 - 1267867&lt;br&gt;&lt;br&gt;&lt;b&gt;BlastP hit with ctg3_55&lt;/b&gt;&lt;br&gt;Percentage identity: 77&lt;br&gt;Percentage coverage: 85&lt;br&gt;BLAST bit score: 129&lt;br&gt;E-value: 7.65e-39" locus_tag="HRR13_RS05020" class="clusterblast-orf" id="dummy-1_h1_9_25"  />
</g>
<g id="a1_0026"  >
<polygon points="690,90 736,90 741,85 736,80 690,80 690,90 " style="fill:#d8153c; stroke-width:1; stroke:black; " description="&lt;b&gt;HRR13_RS05015&lt;/b&gt;&lt;br&gt;alanine--tRNA ligase&lt;br&gt;Location: 1267679 - 1264995&lt;br&gt;&lt;br&gt;&lt;b&gt;BlastP hit with ctg3_56&lt;/b&gt;&lt;br&gt;Percentage identity: 97&lt;br&gt;Percentage coverage: 100&lt;br&gt;BLAST bit score: 1691&lt;br&gt;E-value: 0.0" locus_tag="HRR13_RS05015" class="clusterblast-orf" id="dummy-1_h1_9_26"  />
</g>
<g id="a1_0027"  >
<polygon points="742,90 746,90 751,85 746,80 742,80 742,90 " style="fill:#8ad815; stroke-width:1; stroke:black; " description="&lt;b&gt;HRR13_RS05010&lt;/b&gt;&lt;br&gt;Holliday junction resolvase RuvX&lt;br&gt;Location: 1264936 - 1264466&lt;br&gt;&lt;br&gt;&lt;b&gt;BlastP hit with ctg3_57&lt;/b&gt;&lt;br&gt;Percentage identity: 86&lt;br&gt;Percentage coverage: 86&lt;br&gt;BLAST bit score: 286&lt;br&gt;E-value: 1.38e-98" locus_tag="HRR13_RS05010" class="clusterblast-orf" id="dummy-1_h1_9_27"  />
</g>
<g id="a1_0028"  >
<polygon points="753,90 770,90 775,85 770,80 753,80 753,90 " style="fill:#15d8d8; stroke-width:1; stroke:black; " description="&lt;b&gt;HRR13_RS05005&lt;/b&gt;&lt;br&gt;endolytic transglycosylase MltG&lt;br&gt;Location: 1264367 - 1263210&lt;br&gt;&lt;br&gt;&lt;b&gt;BlastP hit with ctg3_58&lt;/b&gt;&lt;br&gt;Percentage identity: 87&lt;br&gt;Percentage coverage: 100&lt;br&gt;BLAST bit score: 652&lt;br&gt;E-value: 7e-236" locus_tag="HRR13_RS05005" class="clusterblast-orf" id="dummy-1_h1_9_28"  />
</g>
</svg>
