<svg xmlns="http://www.w3.org/2000/svg" xmlns:xlink="http://www.w3.org/1999/xlink" version="1.1" x="0" y="0" height="230" width="800" viewBox="0 0 800 230" preserveAspectRatio="none"  >
<g label="Query sequence" class="clusterblast-cluster"  >
<text x="5" y="20" class="clusterblast-acc"  >
Query sequence</text>
<line x1="10" y1="35" x2="778.0" y2="35" style="stroke-width:1; stroke:grey; "  />
<polygon points="0,40 15,40 20,35 15,30 0,30 0,40 " style="fill:#d81515; stroke-width:1; stroke:black; " description="&lt;b&gt;ctg3_27&lt;/b&gt;&lt;br&gt;ctg3 27&lt;br&gt;Location: 27476 - 28535" locus_tag="ctg3_27" class="clusterblast-orf" id="dummy-1_q0_0_all"  />
<polygon points="21,40 32,40 37,35 32,30 21,30 21,40 " style="fill:#63d815; stroke-width:1; stroke:black; " description="&lt;b&gt;ctg3_28&lt;/b&gt;&lt;br&gt;ctg3 28&lt;br&gt;Location: 28598 - 29438" locus_tag="ctg3_28" class="clusterblast-orf" id="dummy-1_q1_0_all"  />
<polygon points="40,35 45,30 45,30 45,40 45,40 40,35 " style="fill:#15b1d8; stroke-width:1; stroke:black; " description="&lt;b&gt;ctg3_29&lt;/b&gt;&lt;br&gt;ctg3 29&lt;br&gt;Location: 29585 - 29864" locus_tag="ctg3_29" class="clusterblast-orf" id="dummy-1_q2_0_all"  />
<polygon points="47,35 52,30 52,30 52,40 52,40 47,35 " style="fill:#8a15d8; stroke-width:1; stroke:black; " description="&lt;b&gt;ctg3_30&lt;/b&gt;&lt;br&gt;ctg3 30&lt;br&gt;Location: 29958 - 30246" locus_tag="ctg3_30" class="clusterblast-orf" id="dummy-1_q3_0_all"  />
<polygon points="59,40 63,40 68,35 63,30 59,30 59,40 " style="fill:#d83c15; stroke-width:1; stroke:black; " description="&lt;b&gt;ctg3_31&lt;/b&gt;&lt;br&gt;ctg3 31&lt;br&gt;Location: 30616 - 31054" locus_tag="ctg3_31" class="clusterblast-orf" id="dummy-1_q4_0_all"  />
<polygon points="68,40 82,40 87,35 82,30 68,30 68,40 " style="fill:#3cd815; stroke-width:1; stroke:black; " description="&lt;b&gt;ctg3_32&lt;/b&gt;&lt;br&gt;ctg3 32&lt;br&gt;Location: 31058 - 32072" locus_tag="ctg3_32" class="clusterblast-orf" id="dummy-1_q5_0_all"  />
<polygon points="87,35 92,30 92,30 92,40 92,40 87,35 " style="fill:white; stroke-width:1; stroke:black; " description="&lt;b&gt;ctg3_33&lt;/b&gt;&lt;br&gt;ctg3 33&lt;br&gt;Location: 32093 - 32336" locus_tag="ctg3_33" class="clusterblast-orf" id="dummy-1_q6_0_all"  />
<polygon points="112,40 208,40 213,35 208,30 112,30 112,40 " style="fill:#158ad8; stroke-width:1; stroke:black; " description="&lt;b&gt;ctg3_34&lt;/b&gt;&lt;br&gt;ctg3 34&lt;br&gt;Location: 33418 - 38701" locus_tag="ctg3_34" class="clusterblast-orf" id="dummy-1_q7_0_all"  />
<polygon points="218,40 246,40 251,35 246,30 218,30 218,40 " style="fill:#b115d8; stroke-width:1; stroke:black; " description="&lt;b&gt;ctg3_35&lt;/b&gt;&lt;br&gt;ctg3 35&lt;br&gt;Location: 38962 - 40705" locus_tag="ctg3_35" class="clusterblast-orf" id="dummy-1_q8_0_all"  />
<polygon points="254,40 271,40 276,35 271,30 254,30 254,40 " style="fill:#d86315; stroke-width:1; stroke:black; " description="&lt;b&gt;ctg3_36&lt;/b&gt;&lt;br&gt;ctg3 36&lt;br&gt;Location: 40903 - 42064" locus_tag="ctg3_36" class="clusterblast-orf" id="dummy-1_q9_0_all"  />
<polygon points="277,40 302,40 307,35 302,30 277,30 277,40 " style="fill:#15d815; stroke-width:1; stroke:black; " description="&lt;b&gt;ctg3_37&lt;/b&gt;&lt;br&gt;ctg3 37&lt;br&gt;Location: 42073 - 43654" locus_tag="ctg3_37" class="clusterblast-orf" id="dummy-1_q10_0_all"  />
<polygon points="312,40 323,40 328,35 323,30 312,30 312,40 " style="fill:#1563d8; stroke-width:1; stroke:black; " description="&lt;b&gt;ctg3_38&lt;/b&gt;&lt;br&gt;ctg3 38&lt;br&gt;Location: 43941 - 44757" locus_tag="ctg3_38" class="clusterblast-orf" id="dummy-1_q11_0_all"  />
<polygon points="329,40 339,40 344,35 339,30 329,30 329,40 " style="fill:#d815d8; stroke-width:1; stroke:black; " description="&lt;b&gt;ctg3_39&lt;/b&gt;&lt;br&gt;ctg3 39&lt;br&gt;Location: 44843 - 45605" locus_tag="ctg3_39" class="clusterblast-orf" id="dummy-1_q12_0_all"  />
<polygon points="350,35 355,30 359,30 359,40 355,40 350,35 " style="fill:#d88a15; stroke-width:1; stroke:black; " description="&lt;b&gt;ctg3_40&lt;/b&gt;&lt;br&gt;ctg3 40&lt;br&gt;Location: 45922 - 46396" locus_tag="ctg3_40" class="clusterblast-orf" id="dummy-1_q13_0_all"  />
<polygon points="359,35 364,30 368,30 368,40 364,40 359,35 " style="fill:#15d83c; stroke-width:1; stroke:black; " description="&lt;b&gt;ctg3_41&lt;/b&gt;&lt;br&gt;ctg3 41&lt;br&gt;Location: 46392 - 46905" locus_tag="ctg3_41" class="clusterblast-orf" id="dummy-1_q14_0_all"  />
<polygon points="375,35 380,30 402,30 402,40 380,40 375,35 " style="fill:#153cd8; stroke-width:1; stroke:black; " description="&lt;b&gt;ctg3_42&lt;/b&gt;&lt;br&gt;ctg3 42&lt;br&gt;Location: 47230 - 48667" locus_tag="ctg3_42" class="clusterblast-orf" id="dummy-1_q15_0_all"  />
<polygon points="404,35 409,30 431,30 431,40 409,40 404,35 " style="fill:#d815b1; stroke-width:1; stroke:black; " description="&lt;b&gt;ctg3_43&lt;/b&gt;&lt;br&gt;ctg3 43&lt;br&gt;Location: 48807 - 50214" locus_tag="ctg3_43" class="clusterblast-orf" id="dummy-1_q16_0_all"  />
<polygon points="436,35 441,30 458,30 458,40 441,40 436,35 " style="fill:#d8b115; stroke-width:1; stroke:black; " description="&lt;b&gt;ctg3_44&lt;/b&gt;&lt;br&gt;ctg3 44&lt;br&gt;Location: 50447 - 51650" locus_tag="ctg3_44" class="clusterblast-orf" id="dummy-1_q17_0_all"  />
<polygon points="460,40 463,40 468,35 463,30 460,30 460,40 " style="fill:white; stroke-width:1; stroke:black; " description="&lt;b&gt;ctg3_45&lt;/b&gt;&lt;br&gt;ctg3 45&lt;br&gt;Location: 51745 - 52177" locus_tag="ctg3_45" class="clusterblast-orf" id="dummy-1_q18_0_all"  />
<polygon points="465,35 470,30 476,30 476,40 470,40 465,35 " style="fill:#15d863; stroke-width:1; stroke:black; " description="&lt;b&gt;ctg3_46&lt;/b&gt;&lt;br&gt;ctg3 46&lt;br&gt;Location: 52020 - 52602" locus_tag="ctg3_46" class="clusterblast-orf" id="dummy-1_q19_0_all"  />
<polygon points="482,40 534,40 539,35 534,30 482,30 482,40 " style="fill:#1515d8; stroke-width:1; stroke:black; " description="&lt;b&gt;ctg3_47&lt;/b&gt;&lt;br&gt;ctg3 47&lt;br&gt;Location: 52909 - 55891" locus_tag="ctg3_47" class="clusterblast-orf" id="dummy-1_q20_0_all"  />
<polygon points="547,40 550,40 555,35 550,30 547,30 547,40 " style="fill:#d8158a; stroke-width:1; stroke:black; " description="&lt;b&gt;ctg3_48&lt;/b&gt;&lt;br&gt;ctg3 48&lt;br&gt;Location: 56306 - 56741" locus_tag="ctg3_48" class="clusterblast-orf" id="dummy-1_q21_0_all"  />
<polygon points="555,40 573,40 578,35 573,30 555,30 555,40 " style="fill:#d8d815; stroke-width:1; stroke:black; " description="&lt;b&gt;ctg3_49&lt;/b&gt;&lt;br&gt;ctg3 49&lt;br&gt;Location: 56762 - 57974" locus_tag="ctg3_49" class="clusterblast-orf" id="dummy-1_q22_0_all"  />
<polygon points="578,40 588,40 593,35 588,30 578,30 578,40 " style="fill:#15d88a; stroke-width:1; stroke:black; " description="&lt;b&gt;ctg3_50&lt;/b&gt;&lt;br&gt;ctg3 50&lt;br&gt;Location: 57963 - 58755" locus_tag="ctg3_50" class="clusterblast-orf" id="dummy-1_q23_0_all"  />
<polygon points="602,40 609,40 614,35 609,30 602,30 602,40 " style="fill:#3c15d8; stroke-width:1; stroke:black; " description="&lt;b&gt;ctg3_51&lt;/b&gt;&lt;br&gt;ctg3 51&lt;br&gt;Location: 59217 - 59844" locus_tag="ctg3_51" class="clusterblast-orf" id="dummy-1_q24_0_all"  />
<polygon points="625,40 655,40 660,35 655,30 625,30 625,40 " style="fill:#d81563; stroke-width:1; stroke:black; " description="&lt;b&gt;ctg3_52&lt;/b&gt;&lt;br&gt;ctg3 52&lt;br&gt;Location: 60451 - 62272" locus_tag="ctg3_52" class="clusterblast-orf" id="dummy-1_q25_0_all"  />
<polygon points="662,40 670,40 675,35 670,30 662,30 662,40 " style="fill:#b1d815; stroke-width:1; stroke:black; " description="&lt;b&gt;ctg3_53&lt;/b&gt;&lt;br&gt;ctg3 53&lt;br&gt;Location: 62392 - 63067" locus_tag="ctg3_53" class="clusterblast-orf" id="dummy-1_q26_0_all"  />
<polygon points="678,40 681,40 686,35 681,30 678,30 678,40 " style="fill:#15d8b1; stroke-width:1; stroke:black; " description="&lt;b&gt;ctg3_54&lt;/b&gt;&lt;br&gt;ctg3 54&lt;br&gt;Location: 63208 - 63643" locus_tag="ctg3_54" class="clusterblast-orf" id="dummy-1_q27_0_all"  />
<polygon points="686,40 686,40 691,35 686,30 686,30 686,40 " style="fill:#6315d8; stroke-width:1; stroke:black; " description="&lt;b&gt;ctg3_55&lt;/b&gt;&lt;br&gt;ctg3 55&lt;br&gt;Location: 63642 - 63921" locus_tag="ctg3_55" class="clusterblast-orf" id="dummy-1_q28_0_all"  />
<polygon points="692,40 738,40 743,35 738,30 692,30 692,40 " style="fill:#d8153c; stroke-width:1; stroke:black; " description="&lt;b&gt;ctg3_56&lt;/b&gt;&lt;br&gt;ctg3 56&lt;br&gt;Location: 63973 - 66655" locus_tag="ctg3_56" class="clusterblast-orf" id="dummy-1_q29_0_all"  />
<polygon points="744,40 750,40 755,35 750,30 744,30 744,40 " style="fill:#8ad815; stroke-width:1; stroke:black; " description="&lt;b&gt;ctg3_57&lt;/b&gt;&lt;br&gt;ctg3 57&lt;br&gt;Location: 66718 - 67261" locus_tag="ctg3_57" class="clusterblast-orf" id="dummy-1_q30_0_all"  />
<polygon points="754,40 771,40 776,35 771,30 754,30 754,40 " style="fill:#15d8d8; stroke-width:1; stroke:black; " description="&lt;b&gt;ctg3_58&lt;/b&gt;&lt;br&gt;ctg3 58&lt;br&gt;Location: 67253 - 68411" locus_tag="ctg3_58" class="clusterblast-orf" id="dummy-1_q31_0_all"  />
<polygon points="775,35 780,30 780,30 780,40 780,40 775,35 " style="fill:white; stroke-width:1; stroke:black; " description="&lt;b&gt;ctg3_59&lt;/b&gt;&lt;br&gt;ctg3 59&lt;br&gt;Location: 68334 - 68583" locus_tag="ctg3_59" class="clusterblast-orf" id="dummy-1_q32_0_all"  />
</g>
<g label="NC_014644" description="NC_014644 (1308636-1349944): Gardnerella vaginalis ATCC 14019, complete sequence (82% of genes show similarity), T3PKS" class="clusterblast-cluster"  >
<text x="5" y="70" class="clusterblast-acc"  >
<a xlink:href="https://antismash-db.secondarymetabolites.org/area?record=NC_014644&amp;start=1308636&amp;end=1349944" target="_blank">NC_014644 (1308636-1349944)</a>: Gardnerella vaginalis ATCC 14019, complete sequence (82% of genes show similarity), T3PKS</text>
<line x1="10" y1="85" x2="778.0" y2="85" style="stroke-width:1; stroke:grey; "  />
</g>
<g id="a1_000"  >
<polygon points="6,90 16,90 21,85 16,80 6,80 6,90 " style="fill:white; stroke-width:1; stroke:black; " description="&lt;b&gt;HMPREF0421_RS05420&lt;/b&gt;&lt;br&gt;Fe-S cluster assembly ATPase SufC&lt;br&gt;Location: 1349539 - 1348763" locus_tag="HMPREF0421_RS05420" class="clusterblast-orf" id="dummy-1_h1_8_0"  />
</g>
<g id="a1_001"  >
<polygon points="23,90 54,90 59,85 54,80 23,80 23,90 " style="fill:white; stroke-width:1; stroke:black; " description="&lt;b&gt;HMPREF0421_RS05415&lt;/b&gt;&lt;br&gt;translational GTPase TypA&lt;br&gt;Location: 1348680 - 1346758" locus_tag="HMPREF0421_RS05415" class="clusterblast-orf" id="dummy-1_h1_8_1"  />
</g>
<g id="a1_002"  >
<polygon points="59,90 62,90 67,85 62,80 59,80 59,90 " style="fill:white; stroke-width:1; stroke:black; " description="&lt;b&gt;HMPREF0421_RS05410&lt;/b&gt;&lt;br&gt;hypothetical protein&lt;br&gt;Location: 1346748 - 1346314" locus_tag="HMPREF0421_RS05410" class="clusterblast-orf" id="dummy-1_h1_8_2"  />
</g>
<g id="a1_003"  >
<polygon points="70,90 84,90 89,85 84,80 70,80 70,90 " style="fill:white; stroke-width:1; stroke:black; " description="&lt;b&gt;HMPREF0421_RS05405&lt;/b&gt;&lt;br&gt;hypothetical protein&lt;br&gt;Location: 1346185 - 1345157" locus_tag="HMPREF0421_RS05405" class="clusterblast-orf" id="dummy-1_h1_8_3"  />
</g>
<g id="a1_004"  >
<polygon points="89,90 105,90 110,85 105,80 89,80 89,90 " style="fill:white; stroke-width:1; stroke:black; " description="&lt;b&gt;HMPREF0421_RS05400&lt;/b&gt;&lt;br&gt;prephenate dehydrogenase/arogenate dehydrogenase family protein&lt;br&gt;Location: 1345163 - 1344096" locus_tag="HMPREF0421_RS05400" class="clusterblast-orf" id="dummy-1_h1_8_4"  />
</g>
<g id="a1_005"  >
<polygon points="110,90 124,90 129,85 124,80 110,80 110,90 " style="fill:#d81515; stroke-width:1; stroke:black; " description="&lt;b&gt;HMPREF0421_RS05395&lt;/b&gt;&lt;br&gt;tyrosine recombinase XerD&lt;br&gt;Location: 1344071 - 1343064&lt;br&gt;&lt;br&gt;&lt;b&gt;BlastP hit with ctg3_27&lt;/b&gt;&lt;br&gt;Percentage identity: 91&lt;br&gt;Percentage coverage: 97&lt;br&gt;BLAST bit score: 578&lt;br&gt;E-value: 5.23e-208" locus_tag="HMPREF0421_RS05395" class="clusterblast-orf" id="dummy-1_h1_8_5"  />
</g>
<g id="a1_006"  >
<polygon points="130,90 141,90 146,85 141,80 130,80 130,90 " style="fill:#63d815; stroke-width:1; stroke:black; " description="&lt;b&gt;HMPREF0421_RS05390&lt;/b&gt;&lt;br&gt;AAA family ATPase&lt;br&gt;Location: 1343010 - 1342171&lt;br&gt;&lt;br&gt;&lt;b&gt;BlastP hit with ctg3_28&lt;/b&gt;&lt;br&gt;Percentage identity: 100&lt;br&gt;Percentage coverage: 100&lt;br&gt;BLAST bit score: 537&lt;br&gt;E-value: 3.57e-194" locus_tag="HMPREF0421_RS05390" class="clusterblast-orf" id="dummy-1_h1_8_6"  />
</g>
<g id="a1_007"  >
<polygon points="151,85 156,80 156,80 156,90 156,90 151,85 " style="fill:#15b1d8; stroke-width:1; stroke:black; " description="&lt;b&gt;HMPREF0421_RS05385&lt;/b&gt;&lt;br&gt;hypothetical protein&lt;br&gt;Location: 1341931 - 1341650&lt;br&gt;&lt;br&gt;&lt;b&gt;BlastP hit with ctg3_29&lt;/b&gt;&lt;br&gt;Percentage identity: 82&lt;br&gt;Percentage coverage: 100&lt;br&gt;BLAST bit score: 151&lt;br&gt;E-value: 1.65e-47" locus_tag="HMPREF0421_RS05385" class="clusterblast-orf" id="dummy-1_h1_8_7"  />
</g>
<g id="a1_008"  >
<polygon points="171,90 263,90 268,85 263,80 171,80 171,90 " style="fill:#158ad8; stroke-width:1; stroke:black; " description="&lt;b&gt;HMPREF0421_RS05380&lt;/b&gt;&lt;br&gt;Rib/alpha-like domain-containing protein&lt;br&gt;Location: 1340878 - 1335725&lt;br&gt;&lt;br&gt;&lt;b&gt;BlastP hit with ctg3_34&lt;/b&gt;&lt;br&gt;Percentage identity: 37&lt;br&gt;Percentage coverage: 101&lt;br&gt;BLAST bit score: 880&lt;br&gt;E-value: 8.1e-287" locus_tag="HMPREF0421_RS05380" class="clusterblast-orf" id="dummy-1_h1_8_8"  />
</g>
<g id="a1_009"  >
<polygon points="274,90 301,90 306,85 301,80 274,80 274,90 " style="fill:#b115d8; stroke-width:1; stroke:black; " description="&lt;b&gt;HMPREF0421_RS05375&lt;/b&gt;&lt;br&gt;SpaH/EbpB family LPXTG-anchored major pilin&lt;br&gt;Location: 1335430 - 1333760&lt;br&gt;&lt;br&gt;&lt;b&gt;BlastP hit with ctg3_35&lt;/b&gt;&lt;br&gt;Percentage identity: 57&lt;br&gt;Percentage coverage: 101&lt;br&gt;BLAST bit score: 551&lt;br&gt;E-value: 2.2e-190" locus_tag="HMPREF0421_RS05375" class="clusterblast-orf" id="dummy-1_h1_8_9"  />
</g>
<g id="a1_0010"  >
<polygon points="311,90 327,90 332,85 327,80 311,80 311,90 " style="fill:#d86315; stroke-width:1; stroke:black; " description="&lt;b&gt;HMPREF0421_RS05370&lt;/b&gt;&lt;br&gt;class C sortase&lt;br&gt;Location: 1333486 - 1332356&lt;br&gt;&lt;br&gt;&lt;b&gt;BlastP hit with ctg3_36&lt;/b&gt;&lt;br&gt;Percentage identity: 88&lt;br&gt;Percentage coverage: 99&lt;br&gt;BLAST bit score: 663&lt;br&gt;E-value: 1.99e-240" locus_tag="HMPREF0421_RS05370" class="clusterblast-orf" id="dummy-1_h1_8_10"  />
</g>
<g id="a1_0011"  >
<polygon points="337,90 347,90 352,85 347,80 337,80 337,90 " style="fill:#1563d8; stroke-width:1; stroke:black; " description="&lt;b&gt;HMPREF0421_RS05365&lt;/b&gt;&lt;br&gt;(p)ppGpp synthetase&lt;br&gt;Location: 1332118 - 1331312&lt;br&gt;&lt;br&gt;&lt;b&gt;BlastP hit with ctg3_38&lt;/b&gt;&lt;br&gt;Percentage identity: 95&lt;br&gt;Percentage coverage: 100&lt;br&gt;BLAST bit score: 497&lt;br&gt;E-value: 1.23e-178" locus_tag="HMPREF0421_RS05365" class="clusterblast-orf" id="dummy-1_h1_8_11"  />
</g>
<g id="a1_0012"  >
<polygon points="356,90 366,90 371,85 366,80 356,80 356,90 " style="fill:#d815d8; stroke-width:1; stroke:black; " description="&lt;b&gt;HMPREF0421_RS05360&lt;/b&gt;&lt;br&gt;Bax inhibitor-1/YccA family protein&lt;br&gt;Location: 1331083 - 1330322&lt;br&gt;&lt;br&gt;&lt;b&gt;BlastP hit with ctg3_39&lt;/b&gt;&lt;br&gt;Percentage identity: 98&lt;br&gt;Percentage coverage: 100&lt;br&gt;BLAST bit score: 441&lt;br&gt;E-value: 4.32e-157" locus_tag="HMPREF0421_RS05360" class="clusterblast-orf" id="dummy-1_h1_8_12"  />
</g>
<g id="a1_0013"  >
<polygon points="378,85 383,80 403,80 403,90 383,90 378,85 " style="fill:#153cd8; stroke-width:1; stroke:black; " description="&lt;b&gt;HMPREF0421_RS05350&lt;/b&gt;&lt;br&gt;hydroxymethylglutaryl-CoA synthase&lt;br&gt;Location: 1329944 - 1328637&lt;br&gt;&lt;br&gt;&lt;b&gt;BlastP hit with ctg3_42&lt;/b&gt;&lt;br&gt;Percentage identity: 83&lt;br&gt;Percentage coverage: 100&lt;br&gt;BLAST bit score: 751&lt;br&gt;E-value: 6.38e-273" locus_tag="HMPREF0421_RS05350" class="clusterblast-orf" id="dummy-1_h1_8_13"  />
</g>
<g id="a1_0014"  >
<polygon points="406,85 411,80 431,80 431,90 411,90 406,85 " style="fill:#d815b1; stroke-width:1; stroke:black; " description="&lt;b&gt;HMPREF0421_RS05345&lt;/b&gt;&lt;br&gt;hydroxymethylglutaryl-CoA reductase, degradative&lt;br&gt;Location: 1328494 - 1327169&lt;br&gt;&lt;br&gt;&lt;b&gt;BlastP hit with ctg3_43&lt;/b&gt;&lt;br&gt;Percentage identity: 88&lt;br&gt;Percentage coverage: 100&lt;br&gt;BLAST bit score: 734&lt;br&gt;E-value: 2.7e-266" locus_tag="HMPREF0421_RS05345" class="clusterblast-orf" id="dummy-1_h1_8_14"  />
</g>
<g id="a1_0015"  >
<polygon points="434,85 439,80 458,80 458,90 439,90 434,85 " style="fill:#d8b115; stroke-width:1; stroke:black; " description="&lt;b&gt;HMPREF0421_RS05340&lt;/b&gt;&lt;br&gt;acetyl-CoA C-acyltransferase&lt;br&gt;Location: 1326978 - 1325728&lt;br&gt;&lt;br&gt;&lt;b&gt;BlastP hit with ctg3_44&lt;/b&gt;&lt;br&gt;Percentage identity: 92&lt;br&gt;Percentage coverage: 103&lt;br&gt;BLAST bit score: 719&lt;br&gt;E-value: 1.26e-261" locus_tag="HMPREF0421_RS05340" class="clusterblast-orf" id="dummy-1_h1_8_15"  />
</g>
<g id="a1_0016"  >
<polygon points="462,85 467,80 473,80 473,90 467,90 462,85 " style="fill:#15d863; stroke-width:1; stroke:black; " description="&lt;b&gt;HMPREF0421_RS05335&lt;/b&gt;&lt;br&gt;xanthine phosphoribosyltransferase&lt;br&gt;Location: 1325505 - 1324924&lt;br&gt;&lt;br&gt;&lt;b&gt;BlastP hit with ctg3_46&lt;/b&gt;&lt;br&gt;Percentage identity: 97&lt;br&gt;Percentage coverage: 100&lt;br&gt;BLAST bit score: 375&lt;br&gt;E-value: 1.04e-132" locus_tag="HMPREF0421_RS05335" class="clusterblast-orf" id="dummy-1_h1_8_16"  />
</g>
<g id="a1_0017"  >
<polygon points="482,90 531,90 536,85 531,80 482,80 482,90 " style="fill:#1515d8; stroke-width:1; stroke:black; " description="&lt;b&gt;HMPREF0421_RS05330&lt;/b&gt;&lt;br&gt;UvrD-helicase domain-containing protein&lt;br&gt;Location: 1324474 - 1321604&lt;br&gt;&lt;br&gt;&lt;b&gt;BlastP hit with ctg3_47&lt;/b&gt;&lt;br&gt;Percentage identity: 89&lt;br&gt;Percentage coverage: 100&lt;br&gt;BLAST bit score: 1566&lt;br&gt;E-value: 0.0" locus_tag="HMPREF0421_RS05330" class="clusterblast-orf" id="dummy-1_h1_8_17"  />
</g>
<g id="a1_0018"  >
<polygon points="543,90 546,90 551,85 546,80 543,80 543,90 " style="fill:#d8158a; stroke-width:1; stroke:black; " description="&lt;b&gt;HMPREF0421_RS05325&lt;/b&gt;&lt;br&gt;DUF4418 family protein&lt;br&gt;Location: 1321229 - 1320804&lt;br&gt;&lt;br&gt;&lt;b&gt;BlastP hit with ctg3_48&lt;/b&gt;&lt;br&gt;Percentage identity: 94&lt;br&gt;Percentage coverage: 100&lt;br&gt;BLAST bit score: 248&lt;br&gt;E-value: 3.42e-84" locus_tag="HMPREF0421_RS05325" class="clusterblast-orf" id="dummy-1_h1_8_18"  />
</g>
<g id="a1_0019"  >
<polygon points="552,90 570,90 575,85 570,80 552,80 552,90 " style="fill:#d8d815; stroke-width:1; stroke:black; " description="&lt;b&gt;HMPREF0421_RS05320&lt;/b&gt;&lt;br&gt;FtsX-like permease family protein&lt;br&gt;Location: 1320782 - 1319571&lt;br&gt;&lt;br&gt;&lt;b&gt;BlastP hit with ctg3_49&lt;/b&gt;&lt;br&gt;Percentage identity: 93&lt;br&gt;Percentage coverage: 100&lt;br&gt;BLAST bit score: 710&lt;br&gt;E-value: 1.96e-258" locus_tag="HMPREF0421_RS05320" class="clusterblast-orf" id="dummy-1_h1_8_19"  />
</g>
<g id="a1_0020"  >
<polygon points="575,90 585,90 590,85 585,80 575,80 575,90 " style="fill:#15d88a; stroke-width:1; stroke:black; " description="&lt;b&gt;HMPREF0421_RS05315&lt;/b&gt;&lt;br&gt;ABC transporter ATP-binding protein&lt;br&gt;Location: 1319569 - 1318784&lt;br&gt;&lt;br&gt;&lt;b&gt;BlastP hit with ctg3_50&lt;/b&gt;&lt;br&gt;Percentage identity: 84&lt;br&gt;Percentage coverage: 98&lt;br&gt;BLAST bit score: 412&lt;br&gt;E-value: 3.24e-145" locus_tag="HMPREF0421_RS05315" class="clusterblast-orf" id="dummy-1_h1_8_20"  />
</g>
<g id="a1_0021"  >
<polygon points="594,90 601,90 606,85 601,80 594,80 594,90 " style="fill:#3c15d8; stroke-width:1; stroke:black; " description="&lt;b&gt;HMPREF0421_RS05310&lt;/b&gt;&lt;br&gt;30S ribosomal protein S4&lt;br&gt;Location: 1318569 - 1317943&lt;br&gt;&lt;br&gt;&lt;b&gt;BlastP hit with ctg3_51&lt;/b&gt;&lt;br&gt;Percentage identity: 100&lt;br&gt;Percentage coverage: 100&lt;br&gt;BLAST bit score: 399&lt;br&gt;E-value: 8.13e-142" locus_tag="HMPREF0421_RS05310" class="clusterblast-orf" id="dummy-1_h1_8_21"  />
</g>
<g id="a1_0022"  >
<polygon points="616,90 648,90 653,85 648,80 616,80 616,90 " style="fill:#d81563; stroke-width:1; stroke:black; " description="&lt;b&gt;HMPREF0421_RS05305&lt;/b&gt;&lt;br&gt;galactose-1-phosphate uridylyltransferase&lt;br&gt;Location: 1317419 - 1315440&lt;br&gt;&lt;br&gt;&lt;b&gt;BlastP hit with ctg3_52&lt;/b&gt;&lt;br&gt;Percentage identity: 84&lt;br&gt;Percentage coverage: 104&lt;br&gt;BLAST bit score: 1021&lt;br&gt;E-value: 0.0" locus_tag="HMPREF0421_RS05305" class="clusterblast-orf" id="dummy-1_h1_8_22"  />
</g>
<g id="a1_0023"  >
<polygon points="656,90 664,90 669,85 664,80 656,80 656,90 " style="fill:#b1d815; stroke-width:1; stroke:black; " description="&lt;b&gt;HMPREF0421_RS05300&lt;/b&gt;&lt;br&gt;histidine phosphatase family protein&lt;br&gt;Location: 1315310 - 1314636&lt;br&gt;&lt;br&gt;&lt;b&gt;BlastP hit with ctg3_53&lt;/b&gt;&lt;br&gt;Percentage identity: 92&lt;br&gt;Percentage coverage: 100&lt;br&gt;BLAST bit score: 437&lt;br&gt;E-value: 1.57e-156" locus_tag="HMPREF0421_RS05300" class="clusterblast-orf" id="dummy-1_h1_8_23"  />
</g>
<g id="a1_0024"  >
<polygon points="672,90 675,90 680,85 675,80 672,80 672,90 " style="fill:#15d8b1; stroke-width:1; stroke:black; " description="&lt;b&gt;HMPREF0421_RS05295&lt;/b&gt;&lt;br&gt;DUF948 domain-containing protein&lt;br&gt;Location: 1314474 - 1314040&lt;br&gt;&lt;br&gt;&lt;b&gt;BlastP hit with ctg3_54&lt;/b&gt;&lt;br&gt;Percentage identity: 92&lt;br&gt;Percentage coverage: 100&lt;br&gt;BLAST bit score: 242&lt;br&gt;E-value: 7.32e-82" locus_tag="HMPREF0421_RS05295" class="clusterblast-orf" id="dummy-1_h1_8_24"  />
</g>
<g id="a1_0025"  >
<polygon points="680,90 684,85 680,80 680,90 " style="fill:#6315d8; stroke-width:1; stroke:black; " description="&lt;b&gt;HMPREF0421_RS05290&lt;/b&gt;&lt;br&gt;hypothetical protein&lt;br&gt;Location: 1314040 - 1313801&lt;br&gt;&lt;br&gt;&lt;b&gt;BlastP hit with ctg3_55&lt;/b&gt;&lt;br&gt;Percentage identity: 78&lt;br&gt;Percentage coverage: 85&lt;br&gt;BLAST bit score: 130&lt;br&gt;E-value: 1.88e-39" locus_tag="HMPREF0421_RS05290" class="clusterblast-orf" id="dummy-1_h1_8_25"  />
</g>
<g id="a1_0026"  >
<polygon points="688,90 734,90 739,85 734,80 688,80 688,90 " style="fill:#d8153c; stroke-width:1; stroke:black; " description="&lt;b&gt;HMPREF0421_RS05285&lt;/b&gt;&lt;br&gt;alanine--tRNA ligase&lt;br&gt;Location: 1313613 - 1310929&lt;br&gt;&lt;br&gt;&lt;b&gt;BlastP hit with ctg3_56&lt;/b&gt;&lt;br&gt;Percentage identity: 97&lt;br&gt;Percentage coverage: 100&lt;br&gt;BLAST bit score: 1691&lt;br&gt;E-value: 0.0" locus_tag="HMPREF0421_RS05285" class="clusterblast-orf" id="dummy-1_h1_8_26"  />
</g>
<g id="a1_0027"  >
<polygon points="740,90 744,90 749,85 744,80 740,80 740,90 " style="fill:#8ad815; stroke-width:1; stroke:black; " description="&lt;b&gt;HMPREF0421_RS05280&lt;/b&gt;&lt;br&gt;Holliday junction resolvase RuvX&lt;br&gt;Location: 1310871 - 1310401&lt;br&gt;&lt;br&gt;&lt;b&gt;BlastP hit with ctg3_57&lt;/b&gt;&lt;br&gt;Percentage identity: 86&lt;br&gt;Percentage coverage: 86&lt;br&gt;BLAST bit score: 286&lt;br&gt;E-value: 1.38e-98" locus_tag="HMPREF0421_RS05280" class="clusterblast-orf" id="dummy-1_h1_8_27"  />
</g>
<g id="a1_0028"  >
<polygon points="751,90 768,90 773,85 768,80 751,80 751,90 " style="fill:#15d8d8; stroke-width:1; stroke:black; " description="&lt;b&gt;HMPREF0421_RS05275&lt;/b&gt;&lt;br&gt;endolytic transglycosylase MltG&lt;br&gt;Location: 1310302 - 1309145&lt;br&gt;&lt;br&gt;&lt;b&gt;BlastP hit with ctg3_58&lt;/b&gt;&lt;br&gt;Percentage identity: 86&lt;br&gt;Percentage coverage: 100&lt;br&gt;BLAST bit score: 648&lt;br&gt;E-value: 2.33e-234" locus_tag="HMPREF0421_RS05275" class="clusterblast-orf" id="dummy-1_h1_8_28"  />
</g>
</svg>
