<svg xmlns="http://www.w3.org/2000/svg" xmlns:xlink="http://www.w3.org/1999/xlink" version="1.1" x="0" y="0" height="230" width="800" viewBox="0 0 800 230" preserveAspectRatio="none"  >
<g label="Query sequence" class="clusterblast-cluster"  >
<text x="5" y="20" class="clusterblast-acc"  >
Query sequence</text>
<line x1="10" y1="35" x2="778.0" y2="35" style="stroke-width:1; stroke:grey; "  />
<polygon points="0,40 15,40 20,35 15,30 0,30 0,40 " style="fill:#d81515; stroke-width:1; stroke:black; " description="&lt;b&gt;ctg3_27&lt;/b&gt;&lt;br&gt;ctg3 27&lt;br&gt;Location: 27476 - 28535" locus_tag="ctg3_27" class="clusterblast-orf" id="dummy-1_q0_0_all"  />
<polygon points="21,40 32,40 37,35 32,30 21,30 21,40 " style="fill:#63d815; stroke-width:1; stroke:black; " description="&lt;b&gt;ctg3_28&lt;/b&gt;&lt;br&gt;ctg3 28&lt;br&gt;Location: 28598 - 29438" locus_tag="ctg3_28" class="clusterblast-orf" id="dummy-1_q1_0_all"  />
<polygon points="40,35 45,30 45,30 45,40 45,40 40,35 " style="fill:#15b1d8; stroke-width:1; stroke:black; " description="&lt;b&gt;ctg3_29&lt;/b&gt;&lt;br&gt;ctg3 29&lt;br&gt;Location: 29585 - 29864" locus_tag="ctg3_29" class="clusterblast-orf" id="dummy-1_q2_0_all"  />
<polygon points="47,35 52,30 52,30 52,40 52,40 47,35 " style="fill:#8a15d8; stroke-width:1; stroke:black; " description="&lt;b&gt;ctg3_30&lt;/b&gt;&lt;br&gt;ctg3 30&lt;br&gt;Location: 29958 - 30246" locus_tag="ctg3_30" class="clusterblast-orf" id="dummy-1_q3_0_all"  />
<polygon points="59,40 63,40 68,35 63,30 59,30 59,40 " style="fill:#d83c15; stroke-width:1; stroke:black; " description="&lt;b&gt;ctg3_31&lt;/b&gt;&lt;br&gt;ctg3 31&lt;br&gt;Location: 30616 - 31054" locus_tag="ctg3_31" class="clusterblast-orf" id="dummy-1_q4_0_all"  />
<polygon points="68,40 82,40 87,35 82,30 68,30 68,40 " style="fill:#3cd815; stroke-width:1; stroke:black; " description="&lt;b&gt;ctg3_32&lt;/b&gt;&lt;br&gt;ctg3 32&lt;br&gt;Location: 31058 - 32072" locus_tag="ctg3_32" class="clusterblast-orf" id="dummy-1_q5_0_all"  />
<polygon points="87,35 92,30 92,30 92,40 92,40 87,35 " style="fill:white; stroke-width:1; stroke:black; " description="&lt;b&gt;ctg3_33&lt;/b&gt;&lt;br&gt;ctg3 33&lt;br&gt;Location: 32093 - 32336" locus_tag="ctg3_33" class="clusterblast-orf" id="dummy-1_q6_0_all"  />
<polygon points="112,40 208,40 213,35 208,30 112,30 112,40 " style="fill:#158ad8; stroke-width:1; stroke:black; " description="&lt;b&gt;ctg3_34&lt;/b&gt;&lt;br&gt;ctg3 34&lt;br&gt;Location: 33418 - 38701" locus_tag="ctg3_34" class="clusterblast-orf" id="dummy-1_q7_0_all"  />
<polygon points="218,40 246,40 251,35 246,30 218,30 218,40 " style="fill:#b115d8; stroke-width:1; stroke:black; " description="&lt;b&gt;ctg3_35&lt;/b&gt;&lt;br&gt;ctg3 35&lt;br&gt;Location: 38962 - 40705" locus_tag="ctg3_35" class="clusterblast-orf" id="dummy-1_q8_0_all"  />
<polygon points="254,40 271,40 276,35 271,30 254,30 254,40 " style="fill:#d86315; stroke-width:1; stroke:black; " description="&lt;b&gt;ctg3_36&lt;/b&gt;&lt;br&gt;ctg3 36&lt;br&gt;Location: 40903 - 42064" locus_tag="ctg3_36" class="clusterblast-orf" id="dummy-1_q9_0_all"  />
<polygon points="277,40 302,40 307,35 302,30 277,30 277,40 " style="fill:#15d815; stroke-width:1; stroke:black; " description="&lt;b&gt;ctg3_37&lt;/b&gt;&lt;br&gt;ctg3 37&lt;br&gt;Location: 42073 - 43654" locus_tag="ctg3_37" class="clusterblast-orf" id="dummy-1_q10_0_all"  />
<polygon points="312,40 323,40 328,35 323,30 312,30 312,40 " style="fill:#1563d8; stroke-width:1; stroke:black; " description="&lt;b&gt;ctg3_38&lt;/b&gt;&lt;br&gt;ctg3 38&lt;br&gt;Location: 43941 - 44757" locus_tag="ctg3_38" class="clusterblast-orf" id="dummy-1_q11_0_all"  />
<polygon points="329,40 339,40 344,35 339,30 329,30 329,40 " style="fill:#d815d8; stroke-width:1; stroke:black; " description="&lt;b&gt;ctg3_39&lt;/b&gt;&lt;br&gt;ctg3 39&lt;br&gt;Location: 44843 - 45605" locus_tag="ctg3_39" class="clusterblast-orf" id="dummy-1_q12_0_all"  />
<polygon points="350,35 355,30 359,30 359,40 355,40 350,35 " style="fill:#d88a15; stroke-width:1; stroke:black; " description="&lt;b&gt;ctg3_40&lt;/b&gt;&lt;br&gt;ctg3 40&lt;br&gt;Location: 45922 - 46396" locus_tag="ctg3_40" class="clusterblast-orf" id="dummy-1_q13_0_all"  />
<polygon points="359,35 364,30 368,30 368,40 364,40 359,35 " style="fill:#15d83c; stroke-width:1; stroke:black; " description="&lt;b&gt;ctg3_41&lt;/b&gt;&lt;br&gt;ctg3 41&lt;br&gt;Location: 46392 - 46905" locus_tag="ctg3_41" class="clusterblast-orf" id="dummy-1_q14_0_all"  />
<polygon points="375,35 380,30 402,30 402,40 380,40 375,35 " style="fill:#153cd8; stroke-width:1; stroke:black; " description="&lt;b&gt;ctg3_42&lt;/b&gt;&lt;br&gt;ctg3 42&lt;br&gt;Location: 47230 - 48667" locus_tag="ctg3_42" class="clusterblast-orf" id="dummy-1_q15_0_all"  />
<polygon points="404,35 409,30 431,30 431,40 409,40 404,35 " style="fill:#d815b1; stroke-width:1; stroke:black; " description="&lt;b&gt;ctg3_43&lt;/b&gt;&lt;br&gt;ctg3 43&lt;br&gt;Location: 48807 - 50214" locus_tag="ctg3_43" class="clusterblast-orf" id="dummy-1_q16_0_all"  />
<polygon points="436,35 441,30 458,30 458,40 441,40 436,35 " style="fill:#d8b115; stroke-width:1; stroke:black; " description="&lt;b&gt;ctg3_44&lt;/b&gt;&lt;br&gt;ctg3 44&lt;br&gt;Location: 50447 - 51650" locus_tag="ctg3_44" class="clusterblast-orf" id="dummy-1_q17_0_all"  />
<polygon points="460,40 463,40 468,35 463,30 460,30 460,40 " style="fill:white; stroke-width:1; stroke:black; " description="&lt;b&gt;ctg3_45&lt;/b&gt;&lt;br&gt;ctg3 45&lt;br&gt;Location: 51745 - 52177" locus_tag="ctg3_45" class="clusterblast-orf" id="dummy-1_q18_0_all"  />
<polygon points="465,35 470,30 476,30 476,40 470,40 465,35 " style="fill:#15d863; stroke-width:1; stroke:black; " description="&lt;b&gt;ctg3_46&lt;/b&gt;&lt;br&gt;ctg3 46&lt;br&gt;Location: 52020 - 52602" locus_tag="ctg3_46" class="clusterblast-orf" id="dummy-1_q19_0_all"  />
<polygon points="482,40 534,40 539,35 534,30 482,30 482,40 " style="fill:#1515d8; stroke-width:1; stroke:black; " description="&lt;b&gt;ctg3_47&lt;/b&gt;&lt;br&gt;ctg3 47&lt;br&gt;Location: 52909 - 55891" locus_tag="ctg3_47" class="clusterblast-orf" id="dummy-1_q20_0_all"  />
<polygon points="547,40 550,40 555,35 550,30 547,30 547,40 " style="fill:#d8158a; stroke-width:1; stroke:black; " description="&lt;b&gt;ctg3_48&lt;/b&gt;&lt;br&gt;ctg3 48&lt;br&gt;Location: 56306 - 56741" locus_tag="ctg3_48" class="clusterblast-orf" id="dummy-1_q21_0_all"  />
<polygon points="555,40 573,40 578,35 573,30 555,30 555,40 " style="fill:#d8d815; stroke-width:1; stroke:black; " description="&lt;b&gt;ctg3_49&lt;/b&gt;&lt;br&gt;ctg3 49&lt;br&gt;Location: 56762 - 57974" locus_tag="ctg3_49" class="clusterblast-orf" id="dummy-1_q22_0_all"  />
<polygon points="578,40 588,40 593,35 588,30 578,30 578,40 " style="fill:#15d88a; stroke-width:1; stroke:black; " description="&lt;b&gt;ctg3_50&lt;/b&gt;&lt;br&gt;ctg3 50&lt;br&gt;Location: 57963 - 58755" locus_tag="ctg3_50" class="clusterblast-orf" id="dummy-1_q23_0_all"  />
<polygon points="602,40 609,40 614,35 609,30 602,30 602,40 " style="fill:#3c15d8; stroke-width:1; stroke:black; " description="&lt;b&gt;ctg3_51&lt;/b&gt;&lt;br&gt;ctg3 51&lt;br&gt;Location: 59217 - 59844" locus_tag="ctg3_51" class="clusterblast-orf" id="dummy-1_q24_0_all"  />
<polygon points="625,40 655,40 660,35 655,30 625,30 625,40 " style="fill:#d81563; stroke-width:1; stroke:black; " description="&lt;b&gt;ctg3_52&lt;/b&gt;&lt;br&gt;ctg3 52&lt;br&gt;Location: 60451 - 62272" locus_tag="ctg3_52" class="clusterblast-orf" id="dummy-1_q25_0_all"  />
<polygon points="662,40 670,40 675,35 670,30 662,30 662,40 " style="fill:#b1d815; stroke-width:1; stroke:black; " description="&lt;b&gt;ctg3_53&lt;/b&gt;&lt;br&gt;ctg3 53&lt;br&gt;Location: 62392 - 63067" locus_tag="ctg3_53" class="clusterblast-orf" id="dummy-1_q26_0_all"  />
<polygon points="678,40 681,40 686,35 681,30 678,30 678,40 " style="fill:#15d8b1; stroke-width:1; stroke:black; " description="&lt;b&gt;ctg3_54&lt;/b&gt;&lt;br&gt;ctg3 54&lt;br&gt;Location: 63208 - 63643" locus_tag="ctg3_54" class="clusterblast-orf" id="dummy-1_q27_0_all"  />
<polygon points="686,40 686,40 691,35 686,30 686,30 686,40 " style="fill:#6315d8; stroke-width:1; stroke:black; " description="&lt;b&gt;ctg3_55&lt;/b&gt;&lt;br&gt;ctg3 55&lt;br&gt;Location: 63642 - 63921" locus_tag="ctg3_55" class="clusterblast-orf" id="dummy-1_q28_0_all"  />
<polygon points="692,40 738,40 743,35 738,30 692,30 692,40 " style="fill:#d8153c; stroke-width:1; stroke:black; " description="&lt;b&gt;ctg3_56&lt;/b&gt;&lt;br&gt;ctg3 56&lt;br&gt;Location: 63973 - 66655" locus_tag="ctg3_56" class="clusterblast-orf" id="dummy-1_q29_0_all"  />
<polygon points="744,40 750,40 755,35 750,30 744,30 744,40 " style="fill:#8ad815; stroke-width:1; stroke:black; " description="&lt;b&gt;ctg3_57&lt;/b&gt;&lt;br&gt;ctg3 57&lt;br&gt;Location: 66718 - 67261" locus_tag="ctg3_57" class="clusterblast-orf" id="dummy-1_q30_0_all"  />
<polygon points="754,40 771,40 776,35 771,30 754,30 754,40 " style="fill:#15d8d8; stroke-width:1; stroke:black; " description="&lt;b&gt;ctg3_58&lt;/b&gt;&lt;br&gt;ctg3 58&lt;br&gt;Location: 67253 - 68411" locus_tag="ctg3_58" class="clusterblast-orf" id="dummy-1_q31_0_all"  />
<polygon points="775,35 780,30 780,30 780,40 780,40 775,35 " style="fill:white; stroke-width:1; stroke:black; " description="&lt;b&gt;ctg3_59&lt;/b&gt;&lt;br&gt;ctg3 59&lt;br&gt;Location: 68334 - 68583" locus_tag="ctg3_59" class="clusterblast-orf" id="dummy-1_q32_0_all"  />
</g>
<g label="NZ_CP083173" description="NZ_CP083173 (904989-946297): Gardnerella vaginalis strain JNFY11 chromosome, ... (89% of genes show similarity), T3PKS" class="clusterblast-cluster"  >
<text x="5" y="70" class="clusterblast-acc"  >
<a xlink:href="https://antismash-db.secondarymetabolites.org/area?record=NZ_CP083173&amp;start=904989&amp;end=946297" target="_blank">NZ_CP083173 (904989-946297)</a>: Gardnerella vaginalis strain JNFY11 chromosome, ... (89% of genes show similarity), T3PKS</text>
<line x1="10" y1="85" x2="778.0" y2="85" style="stroke-width:1; stroke:grey; "  />
</g>
<g id="a1_000"  >
<polygon points="8,90 11,90 16,85 11,80 8,80 8,90 " style="fill:white; stroke-width:1; stroke:black; " description="&lt;b&gt;K9E40_RS03775&lt;/b&gt;&lt;br&gt;hypothetical protein&lt;br&gt;Location: 945719 - 945285" locus_tag="K9E40_RS03775" class="clusterblast-orf" id="dummy-1_h1_4_0"  />
</g>
<g id="a1_001"  >
<polygon points="18,90 33,90 38,85 33,80 18,80 18,90 " style="fill:white; stroke-width:1; stroke:black; " description="&lt;b&gt;K9E40_RS03770&lt;/b&gt;&lt;br&gt;chorismate mutase&lt;br&gt;Location: 945156 - 944128" locus_tag="K9E40_RS03770" class="clusterblast-orf" id="dummy-1_h1_4_1"  />
</g>
<g id="a1_002"  >
<polygon points="38,90 53,90 58,85 53,80 38,80 38,90 " style="fill:white; stroke-width:1; stroke:black; " description="&lt;b&gt;K9E40_RS03765&lt;/b&gt;&lt;br&gt;prephenate dehydrogenase/arogenate dehydrogenase family protein&lt;br&gt;Location: 944134 - 943067" locus_tag="K9E40_RS03765" class="clusterblast-orf" id="dummy-1_h1_4_2"  />
</g>
<g id="a1_003"  >
<polygon points="58,90 73,90 78,85 73,80 58,80 58,90 " style="fill:#d81515; stroke-width:1; stroke:black; " description="&lt;b&gt;K9E40_RS03760&lt;/b&gt;&lt;br&gt;tyrosine recombinase XerD&lt;br&gt;Location: 943042 - 942020&lt;br&gt;&lt;br&gt;&lt;b&gt;BlastP hit with ctg3_27&lt;/b&gt;&lt;br&gt;Percentage identity: 92&lt;br&gt;Percentage coverage: 97&lt;br&gt;BLAST bit score: 568&lt;br&gt;E-value: 5.73e-204" locus_tag="K9E40_RS03760" class="clusterblast-orf" id="dummy-1_h1_4_3"  />
</g>
<g id="a1_004"  >
<polygon points="79,90 90,90 95,85 90,80 79,80 79,90 " style="fill:#63d815; stroke-width:1; stroke:black; " description="&lt;b&gt;K9E40_RS03755&lt;/b&gt;&lt;br&gt;AAA family ATPase&lt;br&gt;Location: 941966 - 941127&lt;br&gt;&lt;br&gt;&lt;b&gt;BlastP hit with ctg3_28&lt;/b&gt;&lt;br&gt;Percentage identity: 100&lt;br&gt;Percentage coverage: 100&lt;br&gt;BLAST bit score: 537&lt;br&gt;E-value: 3.57e-194" locus_tag="K9E40_RS03755" class="clusterblast-orf" id="dummy-1_h1_4_4"  />
</g>
<g id="a1_005"  >
<polygon points="99,85 104,80 105,80 105,90 104,90 99,85 " style="fill:#15b1d8; stroke-width:1; stroke:black; " description="&lt;b&gt;K9E40_RS03750&lt;/b&gt;&lt;br&gt;hypothetical protein&lt;br&gt;Location: 940887 - 940606&lt;br&gt;&lt;br&gt;&lt;b&gt;BlastP hit with ctg3_29&lt;/b&gt;&lt;br&gt;Percentage identity: 82&lt;br&gt;Percentage coverage: 100&lt;br&gt;BLAST bit score: 151&lt;br&gt;E-value: 1.65e-47" locus_tag="K9E40_RS03750" class="clusterblast-orf" id="dummy-1_h1_4_5"  />
</g>
<g id="a1_006"  >
<polygon points="119,90 232,90 237,85 232,80 119,80 119,90 " style="fill:#158ad8; stroke-width:1; stroke:black; " description="&lt;b&gt;K9E40_RS03745&lt;/b&gt;&lt;br&gt;hypothetical protein&lt;br&gt;Location: 939834 - 933640&lt;br&gt;&lt;br&gt;&lt;b&gt;BlastP hit with ctg3_34&lt;/b&gt;&lt;br&gt;Percentage identity: 32&lt;br&gt;Percentage coverage: 74&lt;br&gt;BLAST bit score: 437&lt;br&gt;E-value: 3.19e-123" locus_tag="K9E40_RS03745" class="clusterblast-orf" id="dummy-1_h1_4_6"  />
</g>
<g id="a1_007"  >
<polygon points="242,90 268,90 273,85 268,80 242,80 242,90 " style="fill:#b115d8; stroke-width:1; stroke:black; " description="&lt;b&gt;K9E40_RS03740&lt;/b&gt;&lt;br&gt;SpaH/EbpB family LPXTG-anchored major pilin&lt;br&gt;Location: 933345 - 931726&lt;br&gt;&lt;br&gt;&lt;b&gt;BlastP hit with ctg3_35&lt;/b&gt;&lt;br&gt;Percentage identity: 53&lt;br&gt;Percentage coverage: 101&lt;br&gt;BLAST bit score: 496&lt;br&gt;E-value: 3.63e-169" locus_tag="K9E40_RS03740" class="clusterblast-orf" id="dummy-1_h1_4_7"  />
</g>
<g id="a1_008"  >
<polygon points="279,90 296,90 301,85 296,80 279,80 279,90 " style="fill:#d86315; stroke-width:1; stroke:black; " description="&lt;b&gt;K9E40_RS03735&lt;/b&gt;&lt;br&gt;class C sortase&lt;br&gt;Location: 931408 - 930278&lt;br&gt;&lt;br&gt;&lt;b&gt;BlastP hit with ctg3_36&lt;/b&gt;&lt;br&gt;Percentage identity: 87&lt;br&gt;Percentage coverage: 99&lt;br&gt;BLAST bit score: 660&lt;br&gt;E-value: 3.3e-239" locus_tag="K9E40_RS03735" class="clusterblast-orf" id="dummy-1_h1_4_8"  />
</g>
<g id="a1_009"  >
<polygon points="305,90 315,90 320,85 315,80 305,80 305,90 " style="fill:#1563d8; stroke-width:1; stroke:black; " description="&lt;b&gt;K9E40_RS03730&lt;/b&gt;&lt;br&gt;(p)ppGpp synthetase&lt;br&gt;Location: 930040 - 929234&lt;br&gt;&lt;br&gt;&lt;b&gt;BlastP hit with ctg3_38&lt;/b&gt;&lt;br&gt;Percentage identity: 95&lt;br&gt;Percentage coverage: 100&lt;br&gt;BLAST bit score: 497&lt;br&gt;E-value: 1.23e-178" locus_tag="K9E40_RS03730" class="clusterblast-orf" id="dummy-1_h1_4_9"  />
</g>
<g id="a1_0010"  >
<polygon points="328,90 347,90 352,85 347,80 328,80 328,90 " style="fill:#15d815; stroke-width:1; stroke:black; " description="&lt;b&gt;K9E40_RS03725&lt;/b&gt;&lt;br&gt;hypothetical protein&lt;br&gt;Location: 928836 - 927559&lt;br&gt;&lt;br&gt;&lt;b&gt;BlastP hit with ctg3_37&lt;/b&gt;&lt;br&gt;Percentage identity: 86&lt;br&gt;Percentage coverage: 84&lt;br&gt;BLAST bit score: 758&lt;br&gt;E-value: 1.04e-274" locus_tag="K9E40_RS03725" class="clusterblast-orf" id="dummy-1_h1_4_10"  />
</g>
<g id="a1_0011"  >
<polygon points="358,85 363,80 373,80 373,90 363,90 358,85 " style="fill:#d815d8; stroke-width:1; stroke:black; " description="&lt;b&gt;K9E40_RS03715&lt;/b&gt;&lt;br&gt;Bax inhibitor-1/YccA family protein&lt;br&gt;Location: 927241 - 926480&lt;br&gt;&lt;br&gt;&lt;b&gt;BlastP hit with ctg3_39&lt;/b&gt;&lt;br&gt;Percentage identity: 97&lt;br&gt;Percentage coverage: 100&lt;br&gt;BLAST bit score: 437&lt;br&gt;E-value: 1.44e-155" locus_tag="K9E40_RS03715" class="clusterblast-orf" id="dummy-1_h1_4_11"  />
</g>
<g id="a1_0012"  >
<polygon points="376,85 381,80 401,80 401,90 381,90 376,85 " style="fill:#153cd8; stroke-width:1; stroke:black; " description="&lt;b&gt;K9E40_RS03710&lt;/b&gt;&lt;br&gt;hydroxymethylglutaryl-CoA synthase&lt;br&gt;Location: 926297 - 924990&lt;br&gt;&lt;br&gt;&lt;b&gt;BlastP hit with ctg3_42&lt;/b&gt;&lt;br&gt;Percentage identity: 83&lt;br&gt;Percentage coverage: 100&lt;br&gt;BLAST bit score: 747&lt;br&gt;E-value: 4.28e-271" locus_tag="K9E40_RS03710" class="clusterblast-orf" id="dummy-1_h1_4_12"  />
</g>
<g id="a1_0013"  >
<polygon points="404,85 409,80 429,80 429,90 409,90 404,85 " style="fill:#d815b1; stroke-width:1; stroke:black; " description="&lt;b&gt;K9E40_RS03705&lt;/b&gt;&lt;br&gt;hydroxymethylglutaryl-CoA reductase, degradative&lt;br&gt;Location: 924847 - 923522&lt;br&gt;&lt;br&gt;&lt;b&gt;BlastP hit with ctg3_43&lt;/b&gt;&lt;br&gt;Percentage identity: 87&lt;br&gt;Percentage coverage: 100&lt;br&gt;BLAST bit score: 733&lt;br&gt;E-value: 1.1e-265" locus_tag="K9E40_RS03705" class="clusterblast-orf" id="dummy-1_h1_4_13"  />
</g>
<g id="a1_0014"  >
<polygon points="433,85 438,80 456,80 456,90 438,90 433,85 " style="fill:#d8b115; stroke-width:1; stroke:black; " description="&lt;b&gt;K9E40_RS03700&lt;/b&gt;&lt;br&gt;acetyl-CoA C-acyltransferase&lt;br&gt;Location: 923314 - 922064&lt;br&gt;&lt;br&gt;&lt;b&gt;BlastP hit with ctg3_44&lt;/b&gt;&lt;br&gt;Percentage identity: 92&lt;br&gt;Percentage coverage: 103&lt;br&gt;BLAST bit score: 719&lt;br&gt;E-value: 1.26e-261" locus_tag="K9E40_RS03700" class="clusterblast-orf" id="dummy-1_h1_4_14"  />
</g>
<g id="a1_0015"  >
<polygon points="461,85 466,80 472,80 472,90 466,90 461,85 " style="fill:#15d863; stroke-width:1; stroke:black; " description="&lt;b&gt;K9E40_RS03695&lt;/b&gt;&lt;br&gt;xanthine phosphoribosyltransferase&lt;br&gt;Location: 921841 - 921260&lt;br&gt;&lt;br&gt;&lt;b&gt;BlastP hit with ctg3_46&lt;/b&gt;&lt;br&gt;Percentage identity: 97&lt;br&gt;Percentage coverage: 100&lt;br&gt;BLAST bit score: 372&lt;br&gt;E-value: 8.58e-132" locus_tag="K9E40_RS03695" class="clusterblast-orf" id="dummy-1_h1_4_15"  />
</g>
<g id="a1_0016"  >
<polygon points="477,90 527,90 532,85 527,80 477,80 477,90 " style="fill:#1515d8; stroke-width:1; stroke:black; " description="&lt;b&gt;K9E40_RS03690&lt;/b&gt;&lt;br&gt;UvrD-helicase domain-containing protein&lt;br&gt;Location: 920968 - 918098&lt;br&gt;&lt;br&gt;&lt;b&gt;BlastP hit with ctg3_47&lt;/b&gt;&lt;br&gt;Percentage identity: 88&lt;br&gt;Percentage coverage: 100&lt;br&gt;BLAST bit score: 1546&lt;br&gt;E-value: 0.0" locus_tag="K9E40_RS03690" class="clusterblast-orf" id="dummy-1_h1_4_16"  />
</g>
<g id="a1_0017"  >
<polygon points="539,90 542,90 547,85 542,80 539,80 539,90 " style="fill:#d8158a; stroke-width:1; stroke:black; " description="&lt;b&gt;K9E40_RS03685&lt;/b&gt;&lt;br&gt;DUF4418 family protein&lt;br&gt;Location: 917719 - 917294&lt;br&gt;&lt;br&gt;&lt;b&gt;BlastP hit with ctg3_48&lt;/b&gt;&lt;br&gt;Percentage identity: 95&lt;br&gt;Percentage coverage: 100&lt;br&gt;BLAST bit score: 249&lt;br&gt;E-value: 8.39e-85" locus_tag="K9E40_RS03685" class="clusterblast-orf" id="dummy-1_h1_4_17"  />
</g>
<g id="a1_0018"  >
<polygon points="547,90 565,90 570,85 565,80 547,80 547,90 " style="fill:#d8d815; stroke-width:1; stroke:black; " description="&lt;b&gt;K9E40_RS03680&lt;/b&gt;&lt;br&gt;FtsX-like permease family protein&lt;br&gt;Location: 917272 - 916061&lt;br&gt;&lt;br&gt;&lt;b&gt;BlastP hit with ctg3_49&lt;/b&gt;&lt;br&gt;Percentage identity: 93&lt;br&gt;Percentage coverage: 100&lt;br&gt;BLAST bit score: 707&lt;br&gt;E-value: 3.25e-257" locus_tag="K9E40_RS03680" class="clusterblast-orf" id="dummy-1_h1_4_18"  />
</g>
<g id="a1_0019"  >
<polygon points="570,90 580,90 585,85 580,80 570,80 570,90 " style="fill:#15d88a; stroke-width:1; stroke:black; " description="&lt;b&gt;K9E40_RS03675&lt;/b&gt;&lt;br&gt;ABC transporter ATP-binding protein&lt;br&gt;Location: 916059 - 915274&lt;br&gt;&lt;br&gt;&lt;b&gt;BlastP hit with ctg3_50&lt;/b&gt;&lt;br&gt;Percentage identity: 86&lt;br&gt;Percentage coverage: 98&lt;br&gt;BLAST bit score: 420&lt;br&gt;E-value: 2.92e-148" locus_tag="K9E40_RS03675" class="clusterblast-orf" id="dummy-1_h1_4_19"  />
</g>
<g id="a1_0020"  >
<polygon points="589,90 596,90 601,85 596,80 589,80 589,90 " style="fill:#3c15d8; stroke-width:1; stroke:black; " description="&lt;b&gt;K9E40_RS03670&lt;/b&gt;&lt;br&gt;30S ribosomal protein S4&lt;br&gt;Location: 915059 - 914433&lt;br&gt;&lt;br&gt;&lt;b&gt;BlastP hit with ctg3_51&lt;/b&gt;&lt;br&gt;Percentage identity: 100&lt;br&gt;Percentage coverage: 100&lt;br&gt;BLAST bit score: 399&lt;br&gt;E-value: 8.13e-142" locus_tag="K9E40_RS03670" class="clusterblast-orf" id="dummy-1_h1_4_20"  />
</g>
<g id="a1_0021"  >
<polygon points="614,90 647,90 652,85 647,80 614,80 614,90 " style="fill:#d81563; stroke-width:1; stroke:black; " description="&lt;b&gt;K9E40_RS03665&lt;/b&gt;&lt;br&gt;galactose-1-phosphate uridylyltransferase&lt;br&gt;Location: 913735 - 911756&lt;br&gt;&lt;br&gt;&lt;b&gt;BlastP hit with ctg3_52&lt;/b&gt;&lt;br&gt;Percentage identity: 84&lt;br&gt;Percentage coverage: 104&lt;br&gt;BLAST bit score: 1020&lt;br&gt;E-value: 0.0" locus_tag="K9E40_RS03665" class="clusterblast-orf" id="dummy-1_h1_4_21"  />
</g>
<g id="a1_0022"  >
<polygon points="654,90 662,90 667,85 662,80 654,80 654,90 " style="fill:#b1d815; stroke-width:1; stroke:black; " description="&lt;b&gt;K9E40_RS03660&lt;/b&gt;&lt;br&gt;histidine phosphatase family protein&lt;br&gt;Location: 911626 - 910952&lt;br&gt;&lt;br&gt;&lt;b&gt;BlastP hit with ctg3_53&lt;/b&gt;&lt;br&gt;Percentage identity: 92&lt;br&gt;Percentage coverage: 100&lt;br&gt;BLAST bit score: 437&lt;br&gt;E-value: 1.57e-156" locus_tag="K9E40_RS03660" class="clusterblast-orf" id="dummy-1_h1_4_22"  />
</g>
<g id="a1_0023"  >
<polygon points="670,90 674,90 679,85 674,80 670,80 670,90 " style="fill:#15d8b1; stroke-width:1; stroke:black; " description="&lt;b&gt;K9E40_RS03655&lt;/b&gt;&lt;br&gt;DUF948 domain-containing protein&lt;br&gt;Location: 910790 - 910356&lt;br&gt;&lt;br&gt;&lt;b&gt;BlastP hit with ctg3_54&lt;/b&gt;&lt;br&gt;Percentage identity: 92&lt;br&gt;Percentage coverage: 100&lt;br&gt;BLAST bit score: 242&lt;br&gt;E-value: 7.32e-82" locus_tag="K9E40_RS03655" class="clusterblast-orf" id="dummy-1_h1_4_23"  />
</g>
<g id="a1_0024"  >
<polygon points="679,90 683,85 679,80 679,90 " style="fill:#6315d8; stroke-width:1; stroke:black; " description="&lt;b&gt;K9E40_RS03650&lt;/b&gt;&lt;br&gt;hypothetical protein&lt;br&gt;Location: 910356 - 910117&lt;br&gt;&lt;br&gt;&lt;b&gt;BlastP hit with ctg3_55&lt;/b&gt;&lt;br&gt;Percentage identity: 77&lt;br&gt;Percentage coverage: 85&lt;br&gt;BLAST bit score: 129&lt;br&gt;E-value: 7.65e-39" locus_tag="K9E40_RS03650" class="clusterblast-orf" id="dummy-1_h1_4_24"  />
</g>
<g id="a1_0025"  >
<polygon points="687,90 733,90 738,85 733,80 687,80 687,90 " style="fill:#d8153c; stroke-width:1; stroke:black; " description="&lt;b&gt;K9E40_RS03645&lt;/b&gt;&lt;br&gt;alanine--tRNA ligase&lt;br&gt;Location: 909929 - 907245&lt;br&gt;&lt;br&gt;&lt;b&gt;BlastP hit with ctg3_56&lt;/b&gt;&lt;br&gt;Percentage identity: 97&lt;br&gt;Percentage coverage: 100&lt;br&gt;BLAST bit score: 1691&lt;br&gt;E-value: 0.0" locus_tag="K9E40_RS03645" class="clusterblast-orf" id="dummy-1_h1_4_25"  />
</g>
<g id="a1_0026"  >
<polygon points="739,90 743,90 748,85 743,80 739,80 739,90 " style="fill:#8ad815; stroke-width:1; stroke:black; " description="&lt;b&gt;K9E40_RS03640&lt;/b&gt;&lt;br&gt;Holliday junction resolvase RuvX&lt;br&gt;Location: 907186 - 906716&lt;br&gt;&lt;br&gt;&lt;b&gt;BlastP hit with ctg3_57&lt;/b&gt;&lt;br&gt;Percentage identity: 86&lt;br&gt;Percentage coverage: 86&lt;br&gt;BLAST bit score: 286&lt;br&gt;E-value: 1.38e-98" locus_tag="K9E40_RS03640" class="clusterblast-orf" id="dummy-1_h1_4_26"  />
</g>
<g id="a1_0027"  >
<polygon points="750,90 766,90 771,85 766,80 750,80 750,90 " style="fill:#15d8d8; stroke-width:1; stroke:black; " description="&lt;b&gt;K9E40_RS03635&lt;/b&gt;&lt;br&gt;endolytic transglycosylase MltG&lt;br&gt;Location: 906617 - 905460&lt;br&gt;&lt;br&gt;&lt;b&gt;BlastP hit with ctg3_58&lt;/b&gt;&lt;br&gt;Percentage identity: 87&lt;br&gt;Percentage coverage: 100&lt;br&gt;BLAST bit score: 652&lt;br&gt;E-value: 7e-236" locus_tag="K9E40_RS03635" class="clusterblast-orf" id="dummy-1_h1_4_27"  />
</g>
</svg>
