<svg xmlns="http://www.w3.org/2000/svg" xmlns:xlink="http://www.w3.org/1999/xlink" version="1.1" x="0" y="0" height="230" width="800" viewBox="0 0 800 230" preserveAspectRatio="none"  >
<g label="Query sequence" class="clusterblast-cluster"  >
<text x="5" y="20" class="clusterblast-acc"  >
Query sequence</text>
<line x1="10" y1="35" x2="778.0" y2="35" style="stroke-width:1; stroke:grey; "  />
<polygon points="275,35 279,30 279,40 275,35 " style="fill:#d81515; stroke-width:1; stroke:black; " description="&lt;b&gt;ctg47_1&lt;/b&gt;&lt;br&gt;ctg47 1&lt;br&gt;Location: 2 - 221" locus_tag="ctg47_1" class="clusterblast-orf" id="dummy-1_q0_0_all"  />
<polygon points="280,35 285,30 307,30 307,40 285,40 280,35 " style="fill:#63d815; stroke-width:1; stroke:black; " description="&lt;b&gt;ctg47_2&lt;/b&gt;&lt;br&gt;ctg47 2&lt;br&gt;Location: 225 - 1602" locus_tag="ctg47_2" class="clusterblast-orf" id="dummy-1_q1_0_all"  />
<polygon points="309,35 314,30 322,30 322,40 314,40 309,35 " style="fill:#15b1d8; stroke-width:1; stroke:black; " description="&lt;b&gt;ctg47_3&lt;/b&gt;&lt;br&gt;ctg47 3&lt;br&gt;Location: 1731 - 2382" locus_tag="ctg47_3" class="clusterblast-orf" id="dummy-1_q2_0_all"  />
<polygon points="325,35 330,30 331,30 331,40 330,40 325,35 " style="fill:#b115d8; stroke-width:1; stroke:black; " description="&lt;b&gt;ctg47_4&lt;/b&gt;&lt;br&gt;ctg47 4&lt;br&gt;Location: 2539 - 2863" locus_tag="ctg47_4" class="clusterblast-orf" id="dummy-1_q3_0_all"  />
<polygon points="332,35 335,30 335,40 332,35 " style="fill:#b115d8; stroke-width:1; stroke:black; " description="&lt;b&gt;ctg47_5&lt;/b&gt;&lt;br&gt;ctg47 5&lt;br&gt;Location: 2914 - 3043" locus_tag="ctg47_5" class="clusterblast-orf" id="dummy-1_q4_0_all"  />
<polygon points="337,40 342,40 347,35 342,30 337,30 337,40 " style="fill:#d86315; stroke-width:1; stroke:black; " description="&lt;b&gt;ctg47_6&lt;/b&gt;&lt;br&gt;ctg47 6&lt;br&gt;Location: 3134 - 3683" locus_tag="ctg47_6" class="clusterblast-orf" id="dummy-1_q5_0_all"  />
<polygon points="349,35 354,30 360,30 360,40 354,40 349,35 " style="fill:#15d815; stroke-width:1; stroke:black; " description="&lt;b&gt;ctg47_7&lt;/b&gt;&lt;br&gt;ctg47 7&lt;br&gt;Location: 3744 - 4341" locus_tag="ctg47_7" class="clusterblast-orf" id="dummy-1_q6_0_all"  />
<polygon points="360,35 365,30 384,30 384,40 365,40 360,35 " style="fill:#1563d8; stroke-width:1; stroke:black; " description="&lt;b&gt;ctg47_8&lt;/b&gt;&lt;br&gt;ctg47 8&lt;br&gt;Location: 4351 - 5578" locus_tag="ctg47_8" class="clusterblast-orf" id="dummy-1_q7_0_all"  />
<polygon points="385,35 388,30 388,40 385,35 " style="fill:#d815b1; stroke-width:1; stroke:black; " description="&lt;b&gt;ctg47_9&lt;/b&gt;&lt;br&gt;ctg47 9&lt;br&gt;Location: 5607 - 5778" locus_tag="ctg47_9" class="clusterblast-orf" id="dummy-1_q8_0_all"  />
<polygon points="389,35 394,30 398,30 398,40 394,40 389,35 " style="fill:#d8b115; stroke-width:1; stroke:black; " description="&lt;b&gt;ctg47_10&lt;/b&gt;&lt;br&gt;ctg47 10&lt;br&gt;Location: 5795 - 6290" locus_tag="ctg47_10" class="clusterblast-orf" id="dummy-1_q9_0_all"  />
<polygon points="400,35 405,30 416,30 416,40 405,40 400,35 " style="fill:#15d863; stroke-width:1; stroke:black; " description="&lt;b&gt;ctg47_11&lt;/b&gt;&lt;br&gt;ctg47 11&lt;br&gt;Location: 6369 - 7209" locus_tag="ctg47_11" class="clusterblast-orf" id="dummy-1_q10_0_all"  />
<polygon points="418,40 437,40 442,35 437,30 418,30 418,40 " style="fill:#1515d8; stroke-width:1; stroke:black; " description="&lt;b&gt;ctg47_12&lt;/b&gt;&lt;br&gt;ctg47 12&lt;br&gt;Location: 7311 - 8535" locus_tag="ctg47_12" class="clusterblast-orf" id="dummy-1_q11_0_all"  />
<polygon points="442,40 463,40 468,35 463,30 442,30 442,40 " style="fill:#d81563; stroke-width:1; stroke:black; " description="&lt;b&gt;ctg47_13&lt;/b&gt;&lt;br&gt;ctg47 13&lt;br&gt;Location: 8536 - 9820" locus_tag="ctg47_13" class="clusterblast-orf" id="dummy-1_q12_0_all"  />
<polygon points="469,40 473,40 478,35 473,30 469,30 469,40 " style="fill:#b1d815; stroke-width:1; stroke:black; " description="&lt;b&gt;ctg47_14&lt;/b&gt;&lt;br&gt;ctg47 14&lt;br&gt;Location: 9911 - 10361" locus_tag="ctg47_14" class="clusterblast-orf" id="dummy-1_q13_0_all"  />
<polygon points="478,40 486,40 491,35 486,30 478,30 478,40 " style="fill:#15d8b1; stroke-width:1; stroke:black; " description="&lt;b&gt;ctg47_15&lt;/b&gt;&lt;br&gt;ctg47 15&lt;br&gt;Location: 10353 - 11010" locus_tag="ctg47_15" class="clusterblast-orf" id="dummy-1_q14_0_all"  />
<polygon points="493,40 499,40 504,35 499,30 493,30 493,40 " style="fill:#6315d8; stroke-width:1; stroke:black; " description="&lt;b&gt;ctg47_16&lt;/b&gt;&lt;br&gt;ctg47 16&lt;br&gt;Location: 11096 - 11687" locus_tag="ctg47_16" class="clusterblast-orf" id="dummy-1_q15_0_all"  />
</g>
<g label="NZ_LT545678" description="NZ_LT545678 (1423738-1465016): Streptococcus agalactiae isolate SA111 chromos... (31% of genes show similarity), T3PKS" class="clusterblast-cluster"  >
<text x="5" y="70" class="clusterblast-acc"  >
<a xlink:href="https://antismash-db.secondarymetabolites.org/area?record=NZ_LT545678&amp;start=1423738&amp;end=1465016" target="_blank">NZ_LT545678 (1423738-1465016)</a>: Streptococcus agalactiae isolate SA111 chromos... (31% of genes show similarity), T3PKS</text>
<line x1="10" y1="85" x2="778.0" y2="85" style="stroke-width:1; stroke:grey; "  />
</g>
<g id="a1_000"  >
<polygon points="0,85 5,80 6,80 6,90 5,90 0,85 " style="fill:white; stroke-width:1; stroke:black; " description="&lt;b&gt;BJR96_RS07205&lt;/b&gt;&lt;br&gt;PrgI family protein&lt;br&gt;Location: 1423822 - 1424175" locus_tag="BJR96_RS07205" class="clusterblast-orf" id="dummy-1_h1_9_0"  />
</g>
<g id="a1_001"  >
<polygon points="8,85 13,80 24,80 24,90 13,90 8,85 " style="fill:white; stroke-width:1; stroke:black; " description="&lt;b&gt;BJR96_RS07210&lt;/b&gt;&lt;br&gt;type IV secretion system protein&lt;br&gt;Location: 1424237 - 1425091" locus_tag="BJR96_RS07210" class="clusterblast-orf" id="dummy-1_h1_9_1"  />
</g>
<g id="a1_002"  >
<polygon points="25,85 29,80 29,90 25,85 " style="fill:white; stroke-width:1; stroke:black; " description="&lt;b&gt;BJR96_RS07215&lt;/b&gt;&lt;br&gt;hypothetical protein&lt;br&gt;Location: 1425108 - 1425350" locus_tag="BJR96_RS07215" class="clusterblast-orf" id="dummy-1_h1_9_2"  />
</g>
<g id="a1_003"  >
<polygon points="30,85 35,80 65,80 65,90 35,90 30,85 " style="fill:white; stroke-width:1; stroke:black; " description="&lt;b&gt;BJR96_RS07220&lt;/b&gt;&lt;br&gt;type IV secretory system conjugative DNA transfer family protein&lt;br&gt;Location: 1425368 - 1427188" locus_tag="BJR96_RS07220" class="clusterblast-orf" id="dummy-1_h1_9_3"  />
</g>
<g id="a1_004"  >
<polygon points="65,85 70,80 75,80 75,90 70,90 65,85 " style="fill:white; stroke-width:1; stroke:black; " description="&lt;b&gt;BJR96_RS07225&lt;/b&gt;&lt;br&gt;hypothetical protein&lt;br&gt;Location: 1427188 - 1427676" locus_tag="BJR96_RS07225" class="clusterblast-orf" id="dummy-1_h1_9_4"  />
</g>
<g id="a1_005"  >
<polygon points="77,85 82,80 88,80 88,90 82,90 77,85 " style="fill:white; stroke-width:1; stroke:black; " description="&lt;b&gt;BJR96_RS07230&lt;/b&gt;&lt;br&gt;type II CAAX endopeptidase family protein&lt;br&gt;Location: 1427753 - 1428334" locus_tag="BJR96_RS07230" class="clusterblast-orf" id="dummy-1_h1_9_5"  />
</g>
<g id="a1_006"  >
<polygon points="88,85 93,80 93,80 93,90 93,90 88,85 " style="fill:white; stroke-width:1; stroke:black; " description="&lt;b&gt;BJR96_RS07235&lt;/b&gt;&lt;br&gt;hypothetical protein&lt;br&gt;Location: 1428337 - 1428570" locus_tag="BJR96_RS07235" class="clusterblast-orf" id="dummy-1_h1_9_6"  />
</g>
<g id="a1_007"  >
<polygon points="93,85 98,80 100,80 100,90 98,90 93,85 " style="fill:white; stroke-width:1; stroke:black; " description="&lt;b&gt;BJR96_RS07240&lt;/b&gt;&lt;br&gt;hypothetical protein&lt;br&gt;Location: 1428580 - 1428963" locus_tag="BJR96_RS07240" class="clusterblast-orf" id="dummy-1_h1_9_7"  />
</g>
<g id="a1_008"  >
<polygon points="100,85 105,80 109,80 109,90 105,90 100,85 " style="fill:white; stroke-width:1; stroke:black; " description="&lt;b&gt;BJR96_RS07245&lt;/b&gt;&lt;br&gt;hypothetical protein&lt;br&gt;Location: 1428973 - 1429401" locus_tag="BJR96_RS07245" class="clusterblast-orf" id="dummy-1_h1_9_8"  />
</g>
<g id="a1_009"  >
<polygon points="109,85 114,80 135,80 135,90 114,90 109,85 " style="fill:white; stroke-width:1; stroke:black; " description="&lt;b&gt;BJR96_RS07250&lt;/b&gt;&lt;br&gt;DNA (cytosine-5-)-methyltransferase&lt;br&gt;Location: 1429385 - 1430740" locus_tag="BJR96_RS07250" class="clusterblast-orf" id="dummy-1_h1_9_9"  />
</g>
<g id="a1_0010"  >
<polygon points="136,85 139,80 139,90 136,85 " style="fill:white; stroke-width:1; stroke:black; " description="&lt;b&gt;BJR96_RS12485&lt;/b&gt;&lt;br&gt;hypothetical protein&lt;br&gt;Location: 1430801 - 1430935" locus_tag="BJR96_RS12485" class="clusterblast-orf" id="dummy-1_h1_9_10"  />
</g>
<g id="a1_0011"  >
<polygon points="139,85 144,80 155,80 155,90 144,90 139,85 " style="fill:white; stroke-width:1; stroke:black; " description="&lt;b&gt;BJR96_RS07255&lt;/b&gt;&lt;br&gt;replication initiator protein A&lt;br&gt;Location: 1430937 - 1431761" locus_tag="BJR96_RS07255" class="clusterblast-orf" id="dummy-1_h1_9_11"  />
</g>
<g id="a1_0012"  >
<polygon points="155,85 158,80 158,90 155,85 " style="fill:white; stroke-width:1; stroke:black; " description="&lt;b&gt;BJR96_RS11610&lt;/b&gt;&lt;br&gt;hypothetical protein&lt;br&gt;Location: 1431758 - 1431931" locus_tag="BJR96_RS11610" class="clusterblast-orf" id="dummy-1_h1_9_12"  />
</g>
<g id="a1_0013"  >
<polygon points="164,85 169,80 171,80 171,90 169,90 164,85 " style="fill:white; stroke-width:1; stroke:black; " description="&lt;b&gt;BJR96_RS07260&lt;/b&gt;&lt;br&gt;50S ribosomal protein L7/L12&lt;br&gt;Location: 1432192 - 1432557" locus_tag="BJR96_RS07260" class="clusterblast-orf" id="dummy-1_h1_9_13"  />
</g>
<g id="a1_0014"  >
<polygon points="172,85 177,80 182,80 182,90 177,90 172,85 " style="fill:white; stroke-width:1; stroke:black; " description="&lt;b&gt;BJR96_RS07265&lt;/b&gt;&lt;br&gt;50S ribosomal protein L10&lt;br&gt;Location: 1432621 - 1433121" locus_tag="BJR96_RS07265" class="clusterblast-orf" id="dummy-1_h1_9_14"  />
</g>
<g id="a1_0015"  >
<polygon points="190,90 227,90 232,85 227,80 190,80 190,90 " style="fill:white; stroke-width:1; stroke:black; " description="&lt;b&gt;BJR96_RS07270&lt;/b&gt;&lt;br&gt;ATP-dependent Clp protease ATP-binding subunit&lt;br&gt;Location: 1433554 - 1435662" locus_tag="BJR96_RS07270" class="clusterblast-orf" id="dummy-1_h1_9_15"  />
</g>
<g id="a1_0016"  >
<polygon points="233,85 238,80 252,80 252,90 238,90 233,85 " style="fill:#d81515; stroke-width:1; stroke:black; " description="&lt;b&gt;BJR96_RS07275&lt;/b&gt;&lt;br&gt;homocysteine S-methyltransferase&lt;br&gt;Location: 1435756 - 1436700&lt;br&gt;&lt;br&gt;&lt;b&gt;BlastP hit with ctg47_1&lt;/b&gt;&lt;br&gt;Percentage identity: 99&lt;br&gt;Percentage coverage: 100&lt;br&gt;BLAST bit score: 145&lt;br&gt;E-value: 1.05e-42" locus_tag="BJR96_RS07275" class="clusterblast-orf" id="dummy-1_h1_9_16"  />
</g>
<g id="a1_0017"  >
<polygon points="252,85 257,80 279,80 279,90 257,90 252,85 " style="fill:#63d815; stroke-width:1; stroke:black; " description="&lt;b&gt;BJR96_RS07280&lt;/b&gt;&lt;br&gt;amino acid permease&lt;br&gt;Location: 1436705 - 1438081&lt;br&gt;&lt;br&gt;&lt;b&gt;BlastP hit with ctg47_2&lt;/b&gt;&lt;br&gt;Percentage identity: 99&lt;br&gt;Percentage coverage: 100&lt;br&gt;BLAST bit score: 858&lt;br&gt;E-value: 4.37e-315" locus_tag="BJR96_RS07280" class="clusterblast-orf" id="dummy-1_h1_9_17"  />
</g>
<g id="a1_0018"  >
<polygon points="282,85 287,80 294,80 294,90 287,90 282,85 " style="fill:#15b1d8; stroke-width:1; stroke:black; " description="&lt;b&gt;BJR96_RS12315&lt;/b&gt;&lt;br&gt;HXXEE domain-containing protein&lt;br&gt;Location: 1438211 - 1438861&lt;br&gt;&lt;br&gt;&lt;b&gt;BlastP hit with ctg47_3&lt;/b&gt;&lt;br&gt;Percentage identity: 95&lt;br&gt;Percentage coverage: 100&lt;br&gt;BLAST bit score: 425&lt;br&gt;E-value: 6.43e-152" locus_tag="BJR96_RS12315" class="clusterblast-orf" id="dummy-1_h1_9_18"  />
</g>
<g id="a1_0019"  >
<polygon points="299,85 304,80 307,80 307,90 304,90 299,85 " style="fill:#b115d8; stroke-width:1; stroke:black; " description="&lt;b&gt;BJR96_RS12320&lt;/b&gt;&lt;br&gt;HXXEE domain-containing protein&lt;br&gt;Location: 1439084 - 1439524&lt;br&gt;&lt;br&gt;&lt;b&gt;BlastP hit with ctg47_4&lt;/b&gt;&lt;br&gt;Percentage identity: 98&lt;br&gt;Percentage coverage: 81&lt;br&gt;BLAST bit score: 172&lt;br&gt;E-value: 1.38e-54&lt;br&gt;&lt;br&gt;&lt;b&gt;BlastP hit with ctg47_5&lt;/b&gt;&lt;br&gt;Percentage identity: 91&lt;br&gt;Percentage coverage: 100&lt;br&gt;BLAST bit score: 79&lt;br&gt;E-value: 7.33e-19" locus_tag="BJR96_RS12320" class="clusterblast-orf" id="dummy-1_h1_9_19"  />
</g>
<g id="a1_0020"  >
<polygon points="309,90 316,90 321,85 316,80 309,80 309,90 " style="fill:#d86315; stroke-width:1; stroke:black; " description="&lt;b&gt;BJR96_RS07295&lt;/b&gt;&lt;br&gt;TetR/AcrR family transcriptional regulator&lt;br&gt;Location: 1439616 - 1440245&lt;br&gt;&lt;br&gt;&lt;b&gt;BlastP hit with ctg47_6&lt;/b&gt;&lt;br&gt;Percentage identity: 96&lt;br&gt;Percentage coverage: 100&lt;br&gt;BLAST bit score: 348&lt;br&gt;E-value: 1.06e-122" locus_tag="BJR96_RS07295" class="clusterblast-orf" id="dummy-1_h1_9_20"  />
</g>
<g id="a1_0021"  >
<polygon points="321,85 326,80 333,80 333,90 326,90 321,85 " style="fill:#15d815; stroke-width:1; stroke:black; " description="&lt;b&gt;BJR96_RS07300&lt;/b&gt;&lt;br&gt;ribosome biogenesis GTP-binding protein YihA/YsxC&lt;br&gt;Location: 1440226 - 1440822&lt;br&gt;&lt;br&gt;&lt;b&gt;BlastP hit with ctg47_7&lt;/b&gt;&lt;br&gt;Percentage identity: 100&lt;br&gt;Percentage coverage: 100&lt;br&gt;BLAST bit score: 397&lt;br&gt;E-value: 3.11e-141" locus_tag="BJR96_RS07300" class="clusterblast-orf" id="dummy-1_h1_9_21"  />
</g>
<g id="a1_0022"  >
<polygon points="333,85 338,80 357,80 357,90 338,90 333,85 " style="fill:#1563d8; stroke-width:1; stroke:black; " description="&lt;b&gt;BJR96_RS07305&lt;/b&gt;&lt;br&gt;ATP-dependent Clp protease ATP-binding subunit ClpX&lt;br&gt;Location: 1440833 - 1442059&lt;br&gt;&lt;br&gt;&lt;b&gt;BlastP hit with ctg47_8&lt;/b&gt;&lt;br&gt;Percentage identity: 100&lt;br&gt;Percentage coverage: 100&lt;br&gt;BLAST bit score: 780&lt;br&gt;E-value: 1.08e-285" locus_tag="BJR96_RS07305" class="clusterblast-orf" id="dummy-1_h1_9_22"  />
</g>
<g id="a1_0023"  >
<polygon points="361,85 366,80 371,80 371,90 366,90 361,85 " style="fill:#d8b115; stroke-width:1; stroke:black; " description="&lt;b&gt;BJR96_RS07315&lt;/b&gt;&lt;br&gt;dihydrofolate reductase&lt;br&gt;Location: 1442277 - 1442771&lt;br&gt;&lt;br&gt;&lt;b&gt;BlastP hit with ctg47_10&lt;/b&gt;&lt;br&gt;Percentage identity: 100&lt;br&gt;Percentage coverage: 100&lt;br&gt;BLAST bit score: 340&lt;br&gt;E-value: 6.08e-120" locus_tag="BJR96_RS07315" class="clusterblast-orf" id="dummy-1_h1_9_23"  />
</g>
<g id="a1_0024"  >
<polygon points="373,85 378,80 389,80 389,90 378,90 373,85 " style="fill:#15d863; stroke-width:1; stroke:black; " description="&lt;b&gt;BJR96_RS07320&lt;/b&gt;&lt;br&gt;thymidylate synthase&lt;br&gt;Location: 1442851 - 1443690&lt;br&gt;&lt;br&gt;&lt;b&gt;BlastP hit with ctg47_11&lt;/b&gt;&lt;br&gt;Percentage identity: 100&lt;br&gt;Percentage coverage: 100&lt;br&gt;BLAST bit score: 578&lt;br&gt;E-value: 3.5e-210" locus_tag="BJR96_RS07320" class="clusterblast-orf" id="dummy-1_h1_9_24"  />
</g>
<g id="a1_0025"  >
<polygon points="390,90 410,90 415,85 410,80 390,80 390,90 " style="fill:#1515d8; stroke-width:1; stroke:black; " description="&lt;b&gt;BJR96_RS07325&lt;/b&gt;&lt;br&gt;hydroxymethylglutaryl-CoA synthase&lt;br&gt;Location: 1443739 - 1445016&lt;br&gt;&lt;br&gt;&lt;b&gt;BlastP hit with ctg47_12&lt;/b&gt;&lt;br&gt;Percentage identity: 100&lt;br&gt;Percentage coverage: 100&lt;br&gt;BLAST bit score: 796&lt;br&gt;E-value: 5.52e-292" locus_tag="BJR96_RS07325" class="clusterblast-orf" id="dummy-1_h1_9_25"  />
</g>
<g id="a1_0026"  >
<polygon points="415,90 435,90 440,85 435,80 415,80 415,90 " style="fill:#d81563; stroke-width:1; stroke:black; " description="&lt;b&gt;BJR96_RS07330&lt;/b&gt;&lt;br&gt;hydroxymethylglutaryl-CoA reductase, degradative&lt;br&gt;Location: 1445018 - 1446301&lt;br&gt;&lt;br&gt;&lt;b&gt;BlastP hit with ctg47_13&lt;/b&gt;&lt;br&gt;Percentage identity: 100&lt;br&gt;Percentage coverage: 100&lt;br&gt;BLAST bit score: 802&lt;br&gt;E-value: 6.9e-294" locus_tag="BJR96_RS07330" class="clusterblast-orf" id="dummy-1_h1_9_26"  />
</g>
<g id="a1_0027"  >
<polygon points="442,90 446,90 451,85 446,80 442,80 442,90 " style="fill:#b1d815; stroke-width:1; stroke:black; " description="&lt;b&gt;BJR96_RS07335&lt;/b&gt;&lt;br&gt;DUF1836 domain-containing protein&lt;br&gt;Location: 1446393 - 1446841&lt;br&gt;&lt;br&gt;&lt;b&gt;BlastP hit with ctg47_14&lt;/b&gt;&lt;br&gt;Percentage identity: 100&lt;br&gt;Percentage coverage: 41&lt;br&gt;BLAST bit score: 127&lt;br&gt;E-value: 1.97e-37" locus_tag="BJR96_RS07335" class="clusterblast-orf" id="dummy-1_h1_9_27"  />
</g>
<g id="a1_0028"  >
<polygon points="451,90 458,90 463,85 458,80 451,80 451,90 " style="fill:#15d8b1; stroke-width:1; stroke:black; " description="&lt;b&gt;BJR96_RS07340&lt;/b&gt;&lt;br&gt;hemolysin III family protein&lt;br&gt;Location: 1446834 - 1447490&lt;br&gt;&lt;br&gt;&lt;b&gt;BlastP hit with ctg47_15&lt;/b&gt;&lt;br&gt;Percentage identity: 100&lt;br&gt;Percentage coverage: 100&lt;br&gt;BLAST bit score: 417&lt;br&gt;E-value: 8.4e-149" locus_tag="BJR96_RS07340" class="clusterblast-orf" id="dummy-1_h1_9_28"  />
</g>
<g id="a1_0029"  >
<polygon points="465,90 478,90 483,85 478,80 465,80 465,90 " style="fill:#6315d8; stroke-width:1; stroke:black; " description="&lt;b&gt;BJR96_RS07345&lt;/b&gt;&lt;br&gt;diacylglycerol kinase family lipid kinase&lt;br&gt;Location: 1447577 - 1448491&lt;br&gt;&lt;br&gt;&lt;b&gt;BlastP hit with ctg47_16&lt;/b&gt;&lt;br&gt;Percentage identity: 99&lt;br&gt;Percentage coverage: 100&lt;br&gt;BLAST bit score: 379&lt;br&gt;E-value: 1.85e-132" locus_tag="BJR96_RS07345" class="clusterblast-orf" id="dummy-1_h1_9_29"  />
</g>
<g id="a1_0030"  >
<polygon points="485,90 497,90 502,85 497,80 485,80 485,90 " style="fill:white; stroke-width:1; stroke:black; " description="&lt;b&gt;BJR96_RS07350&lt;/b&gt;&lt;br&gt;glutathione S-transferase C-terminal domain-containing protein&lt;br&gt;Location: 1448592 - 1449446" locus_tag="BJR96_RS07350" class="clusterblast-orf" id="dummy-1_h1_9_30"  />
</g>
<g id="a1_0031"  >
<polygon points="503,85 507,80 507,90 503,85 " style="fill:white; stroke-width:1; stroke:black; " description="&lt;b&gt;BJR96_RS07355&lt;/b&gt;&lt;br&gt;DUF4649 family protein&lt;br&gt;Location: 1449492 - 1449710" locus_tag="BJR96_RS07355" class="clusterblast-orf" id="dummy-1_h1_9_31"  />
</g>
<g id="a1_0032"  >
<polygon points="508,85 513,80 528,80 528,90 513,90 508,85 " style="fill:white; stroke-width:1; stroke:black; " description="&lt;b&gt;BJR96_RS07360&lt;/b&gt;&lt;br&gt;type 2 isopentenyl-diphosphate Delta-isomerase&lt;br&gt;Location: 1449778 - 1450773" locus_tag="BJR96_RS07360" class="clusterblast-orf" id="dummy-1_h1_9_32"  />
</g>
<g id="a1_0033"  >
<polygon points="528,85 533,80 547,80 547,90 533,90 528,85 " style="fill:white; stroke-width:1; stroke:black; " description="&lt;b&gt;BJR96_RS07365&lt;/b&gt;&lt;br&gt;phosphomevalonate kinase&lt;br&gt;Location: 1450770 - 1451762" locus_tag="BJR96_RS07365" class="clusterblast-orf" id="dummy-1_h1_9_33"  />
</g>
<g id="a1_0034"  >
<polygon points="547,85 552,80 566,80 566,90 552,90 547,85 " style="fill:white; stroke-width:1; stroke:black; " description="&lt;b&gt;BJR96_RS07370&lt;/b&gt;&lt;br&gt;diphosphomevalonate decarboxylase&lt;br&gt;Location: 1451755 - 1452699" locus_tag="BJR96_RS07370" class="clusterblast-orf" id="dummy-1_h1_9_34"  />
</g>
<g id="a1_0035"  >
<polygon points="565,85 570,80 582,80 582,90 570,90 565,85 " style="fill:white; stroke-width:1; stroke:black; " description="&lt;b&gt;BJR96_RS07375&lt;/b&gt;&lt;br&gt;mevalonate kinase&lt;br&gt;Location: 1452681 - 1453559" locus_tag="BJR96_RS07375" class="clusterblast-orf" id="dummy-1_h1_9_35"  />
</g>
<g id="a1_0036"  >
<polygon points="585,85 590,80 609,80 609,90 590,90 585,85 " style="fill:white; stroke-width:1; stroke:black; " description="&lt;b&gt;BJR96_RS07380&lt;/b&gt;&lt;br&gt;HAMP domain-containing sensor histidine kinase&lt;br&gt;Location: 1453675 - 1454904" locus_tag="BJR96_RS07380" class="clusterblast-orf" id="dummy-1_h1_9_36"  />
</g>
<g id="a1_0037"  >
<polygon points="609,85 614,80 622,80 622,90 614,90 609,85 " style="fill:white; stroke-width:1; stroke:black; " description="&lt;b&gt;BJR96_RS07385&lt;/b&gt;&lt;br&gt;response regulator transcription factor&lt;br&gt;Location: 1454897 - 1455589" locus_tag="BJR96_RS07385" class="clusterblast-orf" id="dummy-1_h1_9_37"  />
</g>
<g id="a1_0038"  >
<polygon points="622,85 627,80 635,80 635,90 627,90 622,85 " style="fill:white; stroke-width:1; stroke:black; " description="&lt;b&gt;BJR96_RS07390&lt;/b&gt;&lt;br&gt;GTP pyrophosphokinase family protein&lt;br&gt;Location: 1455591 - 1456217" locus_tag="BJR96_RS07390" class="clusterblast-orf" id="dummy-1_h1_9_38"  />
</g>
<g id="a1_0039"  >
<polygon points="637,85 641,80 641,90 637,85 " style="fill:white; stroke-width:1; stroke:black; " description="&lt;b&gt;BJR96_RS07395&lt;/b&gt;&lt;br&gt;hypothetical protein&lt;br&gt;Location: 1456366 - 1456572" locus_tag="BJR96_RS07395" class="clusterblast-orf" id="dummy-1_h1_9_39"  />
</g>
<g id="a1_0040"  >
<polygon points="654,85 659,80 701,80 701,90 659,90 654,85 " style="fill:white; stroke-width:1; stroke:black; " description="&lt;b&gt;BJR96_RS07400&lt;/b&gt;&lt;br&gt;YSIRK signal domain/LPXTG anchor domain surface protein&lt;br&gt;Location: 1457222 - 1459630" locus_tag="BJR96_RS07400" class="clusterblast-orf" id="dummy-1_h1_9_40"  />
</g>
<g id="a1_0041"  >
<polygon points="716,85 721,80 725,80 725,90 721,90 716,85 " style="fill:white; stroke-width:1; stroke:black; " description="&lt;b&gt;BJR96_RS07405&lt;/b&gt;&lt;br&gt;MarR family transcriptional regulator&lt;br&gt;Location: 1460384 - 1460824" locus_tag="BJR96_RS07405" class="clusterblast-orf" id="dummy-1_h1_9_41"  />
</g>
<g id="a1_0042"  >
<polygon points="730,90 766,90 771,85 766,80 730,80 730,90 " style="fill:white; stroke-width:1; stroke:black; " description="&lt;b&gt;BJR96_RS07410&lt;/b&gt;&lt;br&gt;bifunctional metallophosphatase/5'-nucleotidase&lt;br&gt;Location: 1461093 - 1463165" locus_tag="BJR96_RS07410" class="clusterblast-orf" id="dummy-1_h1_9_42"  />
</g>
<g id="a1_0043"  >
<polygon points="771,85 776,80 780,80 780,90 776,90 771,85 " style="fill:white; stroke-width:1; stroke:black; " description="&lt;b&gt;BJR96_RS07415&lt;/b&gt;&lt;br&gt;peptide deformylase&lt;br&gt;Location: 1463202 - 1463612" locus_tag="BJR96_RS07415" class="clusterblast-orf" id="dummy-1_h1_9_43"  />
</g>
</svg>
