<svg xmlns="http://www.w3.org/2000/svg" xmlns:xlink="http://www.w3.org/1999/xlink" version="1.1" x="0" y="0" height="230" width="800" viewBox="0 0 800 230" preserveAspectRatio="none"  >
<g label="Query sequence" class="clusterblast-cluster"  >
<text x="5" y="20" class="clusterblast-acc"  >
Query sequence</text>
<line x1="10" y1="35" x2="778.0" y2="35" style="stroke-width:1; stroke:grey; "  />
<polygon points="277,35 281,30 281,40 277,35 " style="fill:#d81515; stroke-width:1; stroke:black; " description="&lt;b&gt;ctg47_1&lt;/b&gt;&lt;br&gt;ctg47 1&lt;br&gt;Location: 2 - 221" locus_tag="ctg47_1" class="clusterblast-orf" id="dummy-1_q0_0_all"  />
<polygon points="281,35 286,30 308,30 308,40 286,40 281,35 " style="fill:#63d815; stroke-width:1; stroke:black; " description="&lt;b&gt;ctg47_2&lt;/b&gt;&lt;br&gt;ctg47 2&lt;br&gt;Location: 225 - 1602" locus_tag="ctg47_2" class="clusterblast-orf" id="dummy-1_q1_0_all"  />
<polygon points="310,35 315,30 323,30 323,40 315,40 310,35 " style="fill:#15b1d8; stroke-width:1; stroke:black; " description="&lt;b&gt;ctg47_3&lt;/b&gt;&lt;br&gt;ctg47 3&lt;br&gt;Location: 1731 - 2382" locus_tag="ctg47_3" class="clusterblast-orf" id="dummy-1_q2_0_all"  />
<polygon points="326,35 331,30 332,30 332,40 331,40 326,35 " style="fill:#b115d8; stroke-width:1; stroke:black; " description="&lt;b&gt;ctg47_4&lt;/b&gt;&lt;br&gt;ctg47 4&lt;br&gt;Location: 2539 - 2863" locus_tag="ctg47_4" class="clusterblast-orf" id="dummy-1_q3_0_all"  />
<polygon points="333,35 335,30 335,40 333,35 " style="fill:#b115d8; stroke-width:1; stroke:black; " description="&lt;b&gt;ctg47_5&lt;/b&gt;&lt;br&gt;ctg47 5&lt;br&gt;Location: 2914 - 3043" locus_tag="ctg47_5" class="clusterblast-orf" id="dummy-1_q4_0_all"  />
<polygon points="337,40 343,40 348,35 343,30 337,30 337,40 " style="fill:#d86315; stroke-width:1; stroke:black; " description="&lt;b&gt;ctg47_6&lt;/b&gt;&lt;br&gt;ctg47 6&lt;br&gt;Location: 3134 - 3683" locus_tag="ctg47_6" class="clusterblast-orf" id="dummy-1_q5_0_all"  />
<polygon points="349,35 354,30 361,30 361,40 354,40 349,35 " style="fill:#15d815; stroke-width:1; stroke:black; " description="&lt;b&gt;ctg47_7&lt;/b&gt;&lt;br&gt;ctg47 7&lt;br&gt;Location: 3744 - 4341" locus_tag="ctg47_7" class="clusterblast-orf" id="dummy-1_q6_0_all"  />
<polygon points="361,35 366,30 385,30 385,40 366,40 361,35 " style="fill:#1563d8; stroke-width:1; stroke:black; " description="&lt;b&gt;ctg47_8&lt;/b&gt;&lt;br&gt;ctg47 8&lt;br&gt;Location: 4351 - 5578" locus_tag="ctg47_8" class="clusterblast-orf" id="dummy-1_q7_0_all"  />
<polygon points="385,35 388,30 388,40 385,35 " style="fill:#d815b1; stroke-width:1; stroke:black; " description="&lt;b&gt;ctg47_9&lt;/b&gt;&lt;br&gt;ctg47 9&lt;br&gt;Location: 5607 - 5778" locus_tag="ctg47_9" class="clusterblast-orf" id="dummy-1_q8_0_all"  />
<polygon points="389,35 394,30 398,30 398,40 394,40 389,35 " style="fill:#d8b115; stroke-width:1; stroke:black; " description="&lt;b&gt;ctg47_10&lt;/b&gt;&lt;br&gt;ctg47 10&lt;br&gt;Location: 5795 - 6290" locus_tag="ctg47_10" class="clusterblast-orf" id="dummy-1_q9_0_all"  />
<polygon points="400,35 405,30 416,30 416,40 405,40 400,35 " style="fill:#15d863; stroke-width:1; stroke:black; " description="&lt;b&gt;ctg47_11&lt;/b&gt;&lt;br&gt;ctg47 11&lt;br&gt;Location: 6369 - 7209" locus_tag="ctg47_11" class="clusterblast-orf" id="dummy-1_q10_0_all"  />
<polygon points="418,40 437,40 442,35 437,30 418,30 418,40 " style="fill:#1515d8; stroke-width:1; stroke:black; " description="&lt;b&gt;ctg47_12&lt;/b&gt;&lt;br&gt;ctg47 12&lt;br&gt;Location: 7311 - 8535" locus_tag="ctg47_12" class="clusterblast-orf" id="dummy-1_q11_0_all"  />
<polygon points="442,40 462,40 467,35 462,30 442,30 442,40 " style="fill:#d81563; stroke-width:1; stroke:black; " description="&lt;b&gt;ctg47_13&lt;/b&gt;&lt;br&gt;ctg47 13&lt;br&gt;Location: 8536 - 9820" locus_tag="ctg47_13" class="clusterblast-orf" id="dummy-1_q12_0_all"  />
<polygon points="468,40 472,40 477,35 472,30 468,30 468,40 " style="fill:#b1d815; stroke-width:1; stroke:black; " description="&lt;b&gt;ctg47_14&lt;/b&gt;&lt;br&gt;ctg47 14&lt;br&gt;Location: 9911 - 10361" locus_tag="ctg47_14" class="clusterblast-orf" id="dummy-1_q13_0_all"  />
<polygon points="477,40 485,40 490,35 485,30 477,30 477,40 " style="fill:#15d8b1; stroke-width:1; stroke:black; " description="&lt;b&gt;ctg47_15&lt;/b&gt;&lt;br&gt;ctg47 15&lt;br&gt;Location: 10353 - 11010" locus_tag="ctg47_15" class="clusterblast-orf" id="dummy-1_q14_0_all"  />
<polygon points="491,40 498,40 503,35 498,30 491,30 491,40 " style="fill:#6315d8; stroke-width:1; stroke:black; " description="&lt;b&gt;ctg47_16&lt;/b&gt;&lt;br&gt;ctg47 16&lt;br&gt;Location: 11096 - 11687" locus_tag="ctg47_16" class="clusterblast-orf" id="dummy-1_q15_0_all"  />
</g>
<g label="NZ_CP010319" description="NZ_CP010319 (1236025-1277303): Streptococcus agalactiae strain GBS85147 chrom... (32% of genes show similarity), T3PKS" class="clusterblast-cluster"  >
<text x="5" y="70" class="clusterblast-acc"  >
<a xlink:href="https://antismash-db.secondarymetabolites.org/area?record=NZ_CP010319&amp;start=1236025&amp;end=1277303" target="_blank">NZ_CP010319 (1236025-1277303)</a>: Streptococcus agalactiae strain GBS85147 chrom... (32% of genes show similarity), T3PKS</text>
<line x1="10" y1="85" x2="778.0" y2="85" style="stroke-width:1; stroke:grey; "  />
</g>
<g id="a1_000"  >
<polygon points="0,85 5,80 16,80 16,90 5,90 0,85 " style="fill:white; stroke-width:1; stroke:black; " description="&lt;b&gt;GBS85147_RS06215&lt;/b&gt;&lt;br&gt;type IV secretion system protein&lt;br&gt;Location: 1236562 - 1237416" locus_tag="GBS85147_RS06215" class="clusterblast-orf" id="dummy-1_h1_6_0"  />
</g>
<g id="a1_001"  >
<polygon points="16,85 21,80 21,80 21,90 21,90 16,85 " style="fill:white; stroke-width:1; stroke:black; " description="&lt;b&gt;GBS85147_RS06220&lt;/b&gt;&lt;br&gt;hypothetical protein&lt;br&gt;Location: 1237433 - 1237675" locus_tag="GBS85147_RS06220" class="clusterblast-orf" id="dummy-1_h1_6_1"  />
</g>
<g id="a1_002"  >
<polygon points="21,85 26,80 57,80 57,90 26,90 21,85 " style="fill:white; stroke-width:1; stroke:black; " description="&lt;b&gt;GBS85147_RS06225&lt;/b&gt;&lt;br&gt;type IV secretory system conjugative DNA transfer family protein&lt;br&gt;Location: 1237693 - 1239513" locus_tag="GBS85147_RS06225" class="clusterblast-orf" id="dummy-1_h1_6_2"  />
</g>
<g id="a1_003"  >
<polygon points="57,85 62,80 66,80 66,90 62,90 57,85 " style="fill:white; stroke-width:1; stroke:black; " description="&lt;b&gt;GBS85147_RS06230&lt;/b&gt;&lt;br&gt;hypothetical protein&lt;br&gt;Location: 1239513 - 1240001" locus_tag="GBS85147_RS06230" class="clusterblast-orf" id="dummy-1_h1_6_3"  />
</g>
<g id="a1_004"  >
<polygon points="68,85 73,80 79,80 79,90 73,90 68,85 " style="fill:white; stroke-width:1; stroke:black; " description="&lt;b&gt;GBS85147_RS06235&lt;/b&gt;&lt;br&gt;CPBP family intramembrane metalloprotease&lt;br&gt;Location: 1240078 - 1240659" locus_tag="GBS85147_RS06235" class="clusterblast-orf" id="dummy-1_h1_6_4"  />
</g>
<g id="a1_005"  >
<polygon points="79,85 83,80 83,90 79,85 " style="fill:white; stroke-width:1; stroke:black; " description="&lt;b&gt;GBS85147_RS06240&lt;/b&gt;&lt;br&gt;hypothetical protein&lt;br&gt;Location: 1240662 - 1240895" locus_tag="GBS85147_RS06240" class="clusterblast-orf" id="dummy-1_h1_6_5"  />
</g>
<g id="a1_006"  >
<polygon points="84,85 89,80 91,80 91,90 89,90 84,85 " style="fill:white; stroke-width:1; stroke:black; " description="&lt;b&gt;GBS85147_RS06245&lt;/b&gt;&lt;br&gt;hypothetical protein&lt;br&gt;Location: 1240905 - 1241288" locus_tag="GBS85147_RS06245" class="clusterblast-orf" id="dummy-1_h1_6_6"  />
</g>
<g id="a1_007"  >
<polygon points="91,85 96,80 99,80 99,90 96,90 91,85 " style="fill:white; stroke-width:1; stroke:black; " description="&lt;b&gt;GBS85147_RS06250&lt;/b&gt;&lt;br&gt;hypothetical protein&lt;br&gt;Location: 1241298 - 1241726" locus_tag="GBS85147_RS06250" class="clusterblast-orf" id="dummy-1_h1_6_7"  />
</g>
<g id="a1_008"  >
<polygon points="99,85 104,80 125,80 125,90 104,90 99,85 " style="fill:white; stroke-width:1; stroke:black; " description="&lt;b&gt;GBS85147_RS06255&lt;/b&gt;&lt;br&gt;DNA (cytosine-5-)-methyltransferase&lt;br&gt;Location: 1241710 - 1243065" locus_tag="GBS85147_RS06255" class="clusterblast-orf" id="dummy-1_h1_6_8"  />
</g>
<g id="a1_009"  >
<polygon points="128,85 133,80 144,80 144,90 133,90 128,85 " style="fill:white; stroke-width:1; stroke:black; " description="&lt;b&gt;GBS85147_RS06260&lt;/b&gt;&lt;br&gt;replication initiator protein A&lt;br&gt;Location: 1243223 - 1244047" locus_tag="GBS85147_RS06260" class="clusterblast-orf" id="dummy-1_h1_6_9"  />
</g>
<g id="a1_0010"  >
<polygon points="144,85 148,80 148,90 144,85 " style="fill:white; stroke-width:1; stroke:black; " description="&lt;b&gt;GBS85147_RS10145&lt;/b&gt;&lt;br&gt;hypothetical protein&lt;br&gt;Location: 1244044 - 1244217" locus_tag="GBS85147_RS10145" class="clusterblast-orf" id="dummy-1_h1_6_10"  />
</g>
<g id="a1_0011"  >
<polygon points="153,85 158,80 160,80 160,90 158,90 153,85 " style="fill:white; stroke-width:1; stroke:black; " description="&lt;b&gt;GBS85147_RS06265&lt;/b&gt;&lt;br&gt;50S ribosomal protein L7/L12&lt;br&gt;Location: 1244478 - 1244844" locus_tag="GBS85147_RS06265" class="clusterblast-orf" id="dummy-1_h1_6_11"  />
</g>
<g id="a1_0012"  >
<polygon points="161,85 166,80 171,80 171,90 166,90 161,85 " style="fill:white; stroke-width:1; stroke:black; " description="&lt;b&gt;GBS85147_RS06270&lt;/b&gt;&lt;br&gt;50S ribosomal protein L10&lt;br&gt;Location: 1244908 - 1245408" locus_tag="GBS85147_RS06270" class="clusterblast-orf" id="dummy-1_h1_6_12"  />
</g>
<g id="a1_0013"  >
<polygon points="179,90 215,90 220,85 215,80 179,80 179,90 " style="fill:white; stroke-width:1; stroke:black; " description="&lt;b&gt;GBS85147_RS06275&lt;/b&gt;&lt;br&gt;ATP-dependent Clp protease ATP-binding subunit&lt;br&gt;Location: 1245842 - 1247950" locus_tag="GBS85147_RS06275" class="clusterblast-orf" id="dummy-1_h1_6_13"  />
</g>
<g id="a1_0014"  >
<polygon points="222,85 227,80 240,80 240,90 227,90 222,85 " style="fill:#d81515; stroke-width:1; stroke:black; " description="&lt;b&gt;GBS85147_RS06280&lt;/b&gt;&lt;br&gt;homocysteine S-methyltransferase&lt;br&gt;Location: 1248044 - 1248988&lt;br&gt;&lt;br&gt;&lt;b&gt;BlastP hit with ctg47_1&lt;/b&gt;&lt;br&gt;Percentage identity: 99&lt;br&gt;Percentage coverage: 100&lt;br&gt;BLAST bit score: 145&lt;br&gt;E-value: 1.05e-42" locus_tag="GBS85147_RS06280" class="clusterblast-orf" id="dummy-1_h1_6_14"  />
</g>
<g id="a1_0015"  >
<polygon points="240,85 245,80 267,80 267,90 245,90 240,85 " style="fill:#63d815; stroke-width:1; stroke:black; " description="&lt;b&gt;GBS85147_RS06285&lt;/b&gt;&lt;br&gt;amino acid permease&lt;br&gt;Location: 1248993 - 1250369&lt;br&gt;&lt;br&gt;&lt;b&gt;BlastP hit with ctg47_2&lt;/b&gt;&lt;br&gt;Percentage identity: 99&lt;br&gt;Percentage coverage: 100&lt;br&gt;BLAST bit score: 860&lt;br&gt;E-value: 5.38e-316" locus_tag="GBS85147_RS06285" class="clusterblast-orf" id="dummy-1_h1_6_15"  />
</g>
<g id="a1_0016"  >
<polygon points="269,85 274,80 282,80 282,90 274,90 269,85 " style="fill:#15b1d8; stroke-width:1; stroke:black; " description="&lt;b&gt;GBS85147_RS06290&lt;/b&gt;&lt;br&gt;HXXEE domain-containing protein&lt;br&gt;Location: 1250499 - 1251149&lt;br&gt;&lt;br&gt;&lt;b&gt;BlastP hit with ctg47_3&lt;/b&gt;&lt;br&gt;Percentage identity: 98&lt;br&gt;Percentage coverage: 100&lt;br&gt;BLAST bit score: 432&lt;br&gt;E-value: 8.15e-155" locus_tag="GBS85147_RS06290" class="clusterblast-orf" id="dummy-1_h1_6_16"  />
</g>
<g id="a1_0017"  >
<polygon points="282,85 287,80 295,80 295,90 287,90 282,85 " style="fill:#b115d8; stroke-width:1; stroke:black; " description="&lt;b&gt;GBS85147_RS06295&lt;/b&gt;&lt;br&gt;HXXEE domain-containing protein&lt;br&gt;Location: 1251161 - 1251811&lt;br&gt;&lt;br&gt;&lt;b&gt;BlastP hit with ctg47_4&lt;/b&gt;&lt;br&gt;Percentage identity: 98&lt;br&gt;Percentage coverage: 99&lt;br&gt;BLAST bit score: 212&lt;br&gt;E-value: 1.86e-69&lt;br&gt;&lt;br&gt;&lt;b&gt;BlastP hit with ctg47_5&lt;/b&gt;&lt;br&gt;Percentage identity: 100&lt;br&gt;Percentage coverage: 100&lt;br&gt;BLAST bit score: 85&lt;br&gt;E-value: 9.26e-21" locus_tag="GBS85147_RS06295" class="clusterblast-orf" id="dummy-1_h1_6_17"  />
</g>
<g id="a1_0018"  >
<polygon points="296,90 304,90 309,85 304,80 296,80 296,90 " style="fill:#d86315; stroke-width:1; stroke:black; " description="&lt;b&gt;GBS85147_RS06300&lt;/b&gt;&lt;br&gt;TetR/AcrR family transcriptional regulator&lt;br&gt;Location: 1251903 - 1252532&lt;br&gt;&lt;br&gt;&lt;b&gt;BlastP hit with ctg47_6&lt;/b&gt;&lt;br&gt;Percentage identity: 98&lt;br&gt;Percentage coverage: 100&lt;br&gt;BLAST bit score: 355&lt;br&gt;E-value: 2.7e-125" locus_tag="GBS85147_RS06300" class="clusterblast-orf" id="dummy-1_h1_6_18"  />
</g>
<g id="a1_0019"  >
<polygon points="308,85 313,80 320,80 320,90 313,90 308,85 " style="fill:#15d815; stroke-width:1; stroke:black; " description="&lt;b&gt;GBS85147_RS06305&lt;/b&gt;&lt;br&gt;ribosome biogenesis GTP-binding protein YihA/YsxC&lt;br&gt;Location: 1252513 - 1253109&lt;br&gt;&lt;br&gt;&lt;b&gt;BlastP hit with ctg47_7&lt;/b&gt;&lt;br&gt;Percentage identity: 100&lt;br&gt;Percentage coverage: 100&lt;br&gt;BLAST bit score: 397&lt;br&gt;E-value: 3.11e-141" locus_tag="GBS85147_RS06305" class="clusterblast-orf" id="dummy-1_h1_6_19"  />
</g>
<g id="a1_0020"  >
<polygon points="320,85 325,80 344,80 344,90 325,90 320,85 " style="fill:#1563d8; stroke-width:1; stroke:black; " description="&lt;b&gt;GBS85147_RS06310&lt;/b&gt;&lt;br&gt;ATP-dependent Clp protease ATP-binding subunit ClpX&lt;br&gt;Location: 1253120 - 1254346&lt;br&gt;&lt;br&gt;&lt;b&gt;BlastP hit with ctg47_8&lt;/b&gt;&lt;br&gt;Percentage identity: 100&lt;br&gt;Percentage coverage: 100&lt;br&gt;BLAST bit score: 780&lt;br&gt;E-value: 1.08e-285" locus_tag="GBS85147_RS06310" class="clusterblast-orf" id="dummy-1_h1_6_20"  />
</g>
<g id="a1_0021"  >
<polygon points="348,85 353,80 357,80 357,90 353,90 348,85 " style="fill:#d8b115; stroke-width:1; stroke:black; " description="&lt;b&gt;GBS85147_RS06320&lt;/b&gt;&lt;br&gt;dihydrofolate reductase&lt;br&gt;Location: 1254564 - 1255058&lt;br&gt;&lt;br&gt;&lt;b&gt;BlastP hit with ctg47_10&lt;/b&gt;&lt;br&gt;Percentage identity: 100&lt;br&gt;Percentage coverage: 100&lt;br&gt;BLAST bit score: 340&lt;br&gt;E-value: 6.08e-120" locus_tag="GBS85147_RS06320" class="clusterblast-orf" id="dummy-1_h1_6_21"  />
</g>
<g id="a1_0022"  >
<polygon points="359,85 364,80 375,80 375,90 364,90 359,85 " style="fill:#15d863; stroke-width:1; stroke:black; " description="&lt;b&gt;GBS85147_RS06325&lt;/b&gt;&lt;br&gt;thymidylate synthase&lt;br&gt;Location: 1255138 - 1255977&lt;br&gt;&lt;br&gt;&lt;b&gt;BlastP hit with ctg47_11&lt;/b&gt;&lt;br&gt;Percentage identity: 100&lt;br&gt;Percentage coverage: 100&lt;br&gt;BLAST bit score: 578&lt;br&gt;E-value: 3.5e-210" locus_tag="GBS85147_RS06325" class="clusterblast-orf" id="dummy-1_h1_6_22"  />
</g>
<g id="a1_0023"  >
<polygon points="376,90 396,90 401,85 396,80 376,80 376,90 " style="fill:#1515d8; stroke-width:1; stroke:black; " description="&lt;b&gt;GBS85147_RS06330&lt;/b&gt;&lt;br&gt;hydroxymethylglutaryl-CoA synthase&lt;br&gt;Location: 1256026 - 1257303&lt;br&gt;&lt;br&gt;&lt;b&gt;BlastP hit with ctg47_12&lt;/b&gt;&lt;br&gt;Percentage identity: 99&lt;br&gt;Percentage coverage: 100&lt;br&gt;BLAST bit score: 792&lt;br&gt;E-value: 1.85e-290" locus_tag="GBS85147_RS06330" class="clusterblast-orf" id="dummy-1_h1_6_23"  />
</g>
<g id="a1_0024"  >
<polygon points="401,90 421,90 426,85 421,80 401,80 401,90 " style="fill:#d81563; stroke-width:1; stroke:black; " description="&lt;b&gt;GBS85147_RS06335&lt;/b&gt;&lt;br&gt;hydroxymethylglutaryl-CoA reductase, degradative&lt;br&gt;Location: 1257305 - 1258588&lt;br&gt;&lt;br&gt;&lt;b&gt;BlastP hit with ctg47_13&lt;/b&gt;&lt;br&gt;Percentage identity: 99&lt;br&gt;Percentage coverage: 100&lt;br&gt;BLAST bit score: 795&lt;br&gt;E-value: 2.69e-291" locus_tag="GBS85147_RS06335" class="clusterblast-orf" id="dummy-1_h1_6_24"  />
</g>
<g id="a1_0025"  >
<polygon points="428,90 431,90 436,85 431,80 428,80 428,90 " style="fill:#b1d815; stroke-width:1; stroke:black; " description="&lt;b&gt;GBS85147_RS06340&lt;/b&gt;&lt;br&gt;DUF1836 domain-containing protein&lt;br&gt;Location: 1258680 - 1259129&lt;br&gt;&lt;br&gt;&lt;b&gt;BlastP hit with ctg47_14&lt;/b&gt;&lt;br&gt;Percentage identity: 100&lt;br&gt;Percentage coverage: 100&lt;br&gt;BLAST bit score: 298&lt;br&gt;E-value: 1.17e-103" locus_tag="GBS85147_RS06340" class="clusterblast-orf" id="dummy-1_h1_6_25"  />
</g>
<g id="a1_0026"  >
<polygon points="436,90 444,90 449,85 444,80 436,80 436,90 " style="fill:#15d8b1; stroke-width:1; stroke:black; " description="&lt;b&gt;GBS85147_RS06345&lt;/b&gt;&lt;br&gt;hemolysin III family protein&lt;br&gt;Location: 1259122 - 1259778&lt;br&gt;&lt;br&gt;&lt;b&gt;BlastP hit with ctg47_15&lt;/b&gt;&lt;br&gt;Percentage identity: 100&lt;br&gt;Percentage coverage: 100&lt;br&gt;BLAST bit score: 417&lt;br&gt;E-value: 8.4e-149" locus_tag="GBS85147_RS06345" class="clusterblast-orf" id="dummy-1_h1_6_26"  />
</g>
<g id="a1_0027"  >
<polygon points="450,90 463,90 468,85 463,80 450,80 450,90 " style="fill:#6315d8; stroke-width:1; stroke:black; " description="&lt;b&gt;GBS85147_RS06350&lt;/b&gt;&lt;br&gt;diacylglycerol kinase family lipid kinase&lt;br&gt;Location: 1259865 - 1260779&lt;br&gt;&lt;br&gt;&lt;b&gt;BlastP hit with ctg47_16&lt;/b&gt;&lt;br&gt;Percentage identity: 99&lt;br&gt;Percentage coverage: 100&lt;br&gt;BLAST bit score: 375&lt;br&gt;E-value: 4.34e-131" locus_tag="GBS85147_RS06350" class="clusterblast-orf" id="dummy-1_h1_6_27"  />
</g>
<g id="a1_0028"  >
<polygon points="470,90 482,90 487,85 482,80 470,80 470,90 " style="fill:white; stroke-width:1; stroke:black; " description="&lt;b&gt;GBS85147_RS06355&lt;/b&gt;&lt;br&gt;glutathione S-transferase C-terminal domain-containing protein&lt;br&gt;Location: 1260880 - 1261734" locus_tag="GBS85147_RS06355" class="clusterblast-orf" id="dummy-1_h1_6_28"  />
</g>
<g id="a1_0029"  >
<polygon points="488,85 492,80 492,90 488,85 " style="fill:white; stroke-width:1; stroke:black; " description="&lt;b&gt;GBS85147_RS06360&lt;/b&gt;&lt;br&gt;DUF4649 family protein&lt;br&gt;Location: 1261780 - 1261998" locus_tag="GBS85147_RS06360" class="clusterblast-orf" id="dummy-1_h1_6_29"  />
</g>
<g id="a1_0030"  >
<polygon points="493,85 498,80 512,80 512,90 498,90 493,85 " style="fill:white; stroke-width:1; stroke:black; " description="&lt;b&gt;GBS85147_RS06365&lt;/b&gt;&lt;br&gt;type 2 isopentenyl-diphosphate Delta-isomerase&lt;br&gt;Location: 1262066 - 1263061" locus_tag="GBS85147_RS06365" class="clusterblast-orf" id="dummy-1_h1_6_30"  />
</g>
<g id="a1_0031"  >
<polygon points="512,85 517,80 531,80 531,90 517,90 512,85 " style="fill:white; stroke-width:1; stroke:black; " description="&lt;b&gt;GBS85147_RS06370&lt;/b&gt;&lt;br&gt;phosphomevalonate kinase&lt;br&gt;Location: 1263058 - 1264050" locus_tag="GBS85147_RS06370" class="clusterblast-orf" id="dummy-1_h1_6_31"  />
</g>
<g id="a1_0032"  >
<polygon points="531,85 536,80 550,80 550,90 536,90 531,85 " style="fill:white; stroke-width:1; stroke:black; " description="&lt;b&gt;GBS85147_RS06375&lt;/b&gt;&lt;br&gt;diphosphomevalonate decarboxylase&lt;br&gt;Location: 1264043 - 1264987" locus_tag="GBS85147_RS06375" class="clusterblast-orf" id="dummy-1_h1_6_32"  />
</g>
<g id="a1_0033"  >
<polygon points="549,85 554,80 566,80 566,90 554,90 549,85 " style="fill:white; stroke-width:1; stroke:black; " description="&lt;b&gt;GBS85147_RS06380&lt;/b&gt;&lt;br&gt;mevalonate kinase&lt;br&gt;Location: 1264969 - 1265847" locus_tag="GBS85147_RS06380" class="clusterblast-orf" id="dummy-1_h1_6_33"  />
</g>
<g id="a1_0034"  >
<polygon points="568,85 573,80 592,80 592,90 573,90 568,85 " style="fill:white; stroke-width:1; stroke:black; " description="&lt;b&gt;GBS85147_RS06385&lt;/b&gt;&lt;br&gt;HAMP domain-containing histidine kinase&lt;br&gt;Location: 1265963 - 1267192" locus_tag="GBS85147_RS06385" class="clusterblast-orf" id="dummy-1_h1_6_34"  />
</g>
<g id="a1_0035"  >
<polygon points="592,85 597,80 606,80 606,90 597,90 592,85 " style="fill:white; stroke-width:1; stroke:black; " description="&lt;b&gt;GBS85147_RS06390&lt;/b&gt;&lt;br&gt;response regulator transcription factor&lt;br&gt;Location: 1267192 - 1267878" locus_tag="GBS85147_RS06390" class="clusterblast-orf" id="dummy-1_h1_6_35"  />
</g>
<g id="a1_0036"  >
<polygon points="606,85 611,80 618,80 618,90 611,90 606,85 " style="fill:white; stroke-width:1; stroke:black; " description="&lt;b&gt;GBS85147_RS06395&lt;/b&gt;&lt;br&gt;GTP pyrophosphokinase&lt;br&gt;Location: 1267880 - 1268506" locus_tag="GBS85147_RS06395" class="clusterblast-orf" id="dummy-1_h1_6_36"  />
</g>
<g id="a1_0037"  >
<polygon points="620,85 625,80 654,80 654,90 625,90 620,85 " style="fill:white; stroke-width:1; stroke:black; " description="&lt;b&gt;GBS85147_RS06400&lt;/b&gt;&lt;br&gt;ABC transporter ATP-binding protein/permease&lt;br&gt;Location: 1268614 - 1270368" locus_tag="GBS85147_RS06400" class="clusterblast-orf" id="dummy-1_h1_6_37"  />
</g>
<g id="a1_0038"  >
<polygon points="654,85 659,80 689,80 689,90 659,90 654,85 " style="fill:white; stroke-width:1; stroke:black; " description="&lt;b&gt;GBS85147_RS06405&lt;/b&gt;&lt;br&gt;ABC transporter ATP-binding protein/permease&lt;br&gt;Location: 1270358 - 1272175" locus_tag="GBS85147_RS06405" class="clusterblast-orf" id="dummy-1_h1_6_38"  />
</g>
<g id="a1_0039"  >
<polygon points="690,85 695,80 698,80 698,90 695,90 690,85 " style="fill:white; stroke-width:1; stroke:black; " description="&lt;b&gt;GBS85147_RS06410&lt;/b&gt;&lt;br&gt;MarR family transcriptional regulator&lt;br&gt;Location: 1272222 - 1272662" locus_tag="GBS85147_RS06410" class="clusterblast-orf" id="dummy-1_h1_6_39"  />
</g>
<g id="a1_0040"  >
<polygon points="703,90 738,90 743,85 738,80 703,80 703,90 " style="fill:white; stroke-width:1; stroke:black; " description="&lt;b&gt;GBS85147_RS06415&lt;/b&gt;&lt;br&gt;bifunctional metallophosphatase/5'-nucleotidase&lt;br&gt;Location: 1272930 - 1275002" locus_tag="GBS85147_RS06415" class="clusterblast-orf" id="dummy-1_h1_6_40"  />
</g>
<g id="a1_0041"  >
<polygon points="744,85 749,80 752,80 752,90 749,90 744,85 " style="fill:white; stroke-width:1; stroke:black; " description="&lt;b&gt;GBS85147_RS06420&lt;/b&gt;&lt;br&gt;peptide deformylase&lt;br&gt;Location: 1275039 - 1275449" locus_tag="GBS85147_RS06420" class="clusterblast-orf" id="dummy-1_h1_6_41"  />
</g>
<g id="a1_0042"  >
<polygon points="753,85 758,80 780,80 780,90 758,90 753,85 " style="fill:white; stroke-width:1; stroke:black; " description="&lt;b&gt;GBS85147_RS06425&lt;/b&gt;&lt;br&gt;NADP-specific glutamate dehydrogenase&lt;br&gt;Location: 1275519 - 1276868" locus_tag="GBS85147_RS06425" class="clusterblast-orf" id="dummy-1_h1_6_42"  />
</g>
</svg>
