<svg xmlns="http://www.w3.org/2000/svg" xmlns:xlink="http://www.w3.org/1999/xlink" version="1.1" x="0" y="0" height="230" width="800" viewBox="0 0 800 230" preserveAspectRatio="none"  >
<g label="Query sequence" class="clusterblast-cluster"  >
<text x="5" y="20" class="clusterblast-acc"  >
Query sequence</text>
<line x1="10" y1="35" x2="778.0" y2="35" style="stroke-width:1; stroke:grey; "  />
<polygon points="2,40 25,40 30,35 25,30 2,30 2,40 " style="fill:#d81515; stroke-width:1; stroke:black; " description="&lt;b&gt;ctg2_8&lt;/b&gt;&lt;br&gt;ctg2 8&lt;br&gt;Location: 6052 - 7498" locus_tag="ctg2_8" class="clusterblast-orf" id="dummy-1_q0_0_all"  />
<polygon points="31,35 36,30 43,30 43,40 36,40 31,35 " style="fill:#5cd815; stroke-width:1; stroke:black; " description="&lt;b&gt;ctg2_9&lt;/b&gt;&lt;br&gt;ctg2 9&lt;br&gt;Location: 7554 - 8226" locus_tag="ctg2_9" class="clusterblast-orf" id="dummy-1_q1_0_all"  />
<polygon points="45,35 50,30 51,30 51,40 50,40 45,35 " style="fill:#15c7d8; stroke-width:1; stroke:black; " description="&lt;b&gt;ctg2_10&lt;/b&gt;&lt;br&gt;ctg2 10&lt;br&gt;Location: 8322 - 8643" locus_tag="ctg2_10" class="clusterblast-orf" id="dummy-1_q2_0_all"  />
<polygon points="56,35 61,30 61,30 61,40 61,40 56,35 " style="fill:#8015d8; stroke-width:1; stroke:black; " description="&lt;b&gt;ctg2_11&lt;/b&gt;&lt;br&gt;ctg2 11&lt;br&gt;Location: 8880 - 9147" locus_tag="ctg2_11" class="clusterblast-orf" id="dummy-1_q3_0_all"  />
<polygon points="62,35 67,30 71,30 71,40 67,40 62,35 " style="fill:#8015d8; stroke-width:1; stroke:black; " description="&lt;b&gt;ctg2_12&lt;/b&gt;&lt;br&gt;ctg2 12&lt;br&gt;Location: 9231 - 9675" locus_tag="ctg2_12" class="clusterblast-orf" id="dummy-1_q4_0_all"  />
<polygon points="71,35 76,30 96,30 96,40 76,40 71,35 " style="fill:#15c7d8; stroke-width:1; stroke:black; " description="&lt;b&gt;ctg2_13&lt;/b&gt;&lt;br&gt;ctg2 13&lt;br&gt;Location: 9684 - 11004" locus_tag="ctg2_13" class="clusterblast-orf" id="dummy-1_q5_0_all"  />
<polygon points="97,35 102,30 117,30 117,40 102,40 97,35 " style="fill:#d83915; stroke-width:1; stroke:black; " description="&lt;b&gt;ctg2_14&lt;/b&gt;&lt;br&gt;ctg2 14&lt;br&gt;Location: 11037 - 12099" locus_tag="ctg2_14" class="clusterblast-orf" id="dummy-1_q6_0_all"  />
<polygon points="117,35 122,30 137,30 137,40 122,40 117,35 " style="fill:#d83915; stroke-width:1; stroke:black; " description="&lt;b&gt;ctg2_15&lt;/b&gt;&lt;br&gt;ctg2 15&lt;br&gt;Location: 12133 - 13153" locus_tag="ctg2_15" class="clusterblast-orf" id="dummy-1_q7_0_all"  />
<polygon points="137,35 142,30 157,30 157,40 142,40 137,35 " style="fill:#d83915; stroke-width:1; stroke:black; " description="&lt;b&gt;ctg2_16&lt;/b&gt;&lt;br&gt;ctg2 16&lt;br&gt;Location: 13187 - 14219" locus_tag="ctg2_16" class="clusterblast-orf" id="dummy-1_q8_0_all"  />
<polygon points="160,35 165,30 175,30 175,40 165,40 160,35 " style="fill:#39d815; stroke-width:1; stroke:black; " description="&lt;b&gt;ctg2_17&lt;/b&gt;&lt;br&gt;ctg2 17&lt;br&gt;Location: 14357 - 15176" locus_tag="ctg2_17" class="clusterblast-orf" id="dummy-1_q9_0_all"  />
<polygon points="175,35 180,30 196,30 196,40 180,40 175,35 " style="fill:#15a3d8; stroke-width:1; stroke:black; " description="&lt;b&gt;ctg2_18&lt;/b&gt;&lt;br&gt;ctg2 18&lt;br&gt;Location: 15196 - 16282" locus_tag="ctg2_18" class="clusterblast-orf" id="dummy-1_q10_0_all"  />
<polygon points="199,35 204,30 261,30 261,40 204,40 199,35 " style="fill:#a315d8; stroke-width:1; stroke:black; " description="&lt;b&gt;ctg2_19&lt;/b&gt;&lt;br&gt;ctg2 19&lt;br&gt;Location: 16465 - 19711" locus_tag="ctg2_19" class="clusterblast-orf" id="dummy-1_q11_0_all"  />
<polygon points="262,35 267,30 312,30 312,40 267,40 262,35 " style="fill:#d85c15; stroke-width:1; stroke:black; " description="&lt;b&gt;ctg2_20&lt;/b&gt;&lt;br&gt;ctg2 20&lt;br&gt;Location: 19756 - 22414" locus_tag="ctg2_20" class="clusterblast-orf" id="dummy-1_q12_0_all"  />
<polygon points="313,35 318,30 323,30 323,40 318,40 313,35 " style="fill:#15d815; stroke-width:1; stroke:black; " description="&lt;b&gt;ctg2_21&lt;/b&gt;&lt;br&gt;ctg2 21&lt;br&gt;Location: 22465 - 22981" locus_tag="ctg2_21" class="clusterblast-orf" id="dummy-1_q13_0_all"  />
<polygon points="324,35 329,30 330,30 330,40 329,40 324,35 " style="fill:#1580d8; stroke-width:1; stroke:black; " description="&lt;b&gt;ctg2_22&lt;/b&gt;&lt;br&gt;ctg2 22&lt;br&gt;Location: 23014 - 23356" locus_tag="ctg2_22" class="clusterblast-orf" id="dummy-1_q14_0_all"  />
<polygon points="337,35 342,30 347,30 347,40 342,40 337,35 " style="fill:#c715d8; stroke-width:1; stroke:black; " description="&lt;b&gt;ctg2_23&lt;/b&gt;&lt;br&gt;ctg2 23&lt;br&gt;Location: 23699 - 24275" locus_tag="ctg2_23" class="clusterblast-orf" id="dummy-1_q15_0_all"  />
<polygon points="347,35 352,30 370,30 370,40 352,40 347,35 " style="fill:#d88015; stroke-width:1; stroke:black; " description="&lt;b&gt;ctg2_24&lt;/b&gt;&lt;br&gt;ctg2 24&lt;br&gt;Location: 24243 - 25455" locus_tag="ctg2_24" class="clusterblast-orf" id="dummy-1_q16_0_all"  />
<polygon points="370,35 375,30 411,30 411,40 375,40 370,35 " style="fill:#15d839; stroke-width:1; stroke:black; " description="&lt;b&gt;ctg2_25&lt;/b&gt;&lt;br&gt;ctg2 25&lt;br&gt;Location: 25459 - 27655" locus_tag="ctg2_25" class="clusterblast-orf" id="dummy-1_q17_0_all"  />
<polygon points="411,35 416,30 429,30 429,40 416,40 411,35 " style="fill:#155cd8; stroke-width:1; stroke:black; " description="&lt;b&gt;ctg2_26&lt;/b&gt;&lt;br&gt;ctg2 26&lt;br&gt;Location: 27651 - 28605" locus_tag="ctg2_26" class="clusterblast-orf" id="dummy-1_q18_0_all"  />
<polygon points="429,35 434,30 467,30 467,40 434,40 429,35 " style="fill:#d815c7; stroke-width:1; stroke:black; " description="&lt;b&gt;ctg2_27&lt;/b&gt;&lt;br&gt;ctg2 27&lt;br&gt;Location: 28601 - 30605" locus_tag="ctg2_27" class="clusterblast-orf" id="dummy-1_q19_0_all"  />
<polygon points="467,35 472,30 484,30 484,40 472,40 467,35 " style="fill:#d8a315; stroke-width:1; stroke:black; " description="&lt;b&gt;ctg2_28&lt;/b&gt;&lt;br&gt;ctg2 28&lt;br&gt;Location: 30601 - 31480" locus_tag="ctg2_28" class="clusterblast-orf" id="dummy-1_q20_0_all"  />
<polygon points="484,35 489,30 501,30 501,40 489,40 484,35 " style="fill:#15d85c; stroke-width:1; stroke:black; " description="&lt;b&gt;ctg2_29&lt;/b&gt;&lt;br&gt;ctg2 29&lt;br&gt;Location: 31472 - 32402" locus_tag="ctg2_29" class="clusterblast-orf" id="dummy-1_q21_0_all"  />
<polygon points="501,35 506,30 510,30 510,40 506,40 501,35 " style="fill:#1539d8; stroke-width:1; stroke:black; " description="&lt;b&gt;ctg2_30&lt;/b&gt;&lt;br&gt;ctg2 30&lt;br&gt;Location: 32391 - 32868" locus_tag="ctg2_30" class="clusterblast-orf" id="dummy-1_q22_0_all"  />
<polygon points="510,35 515,30 516,30 516,40 515,40 510,35 " style="fill:#d815a3; stroke-width:1; stroke:black; " description="&lt;b&gt;ctg2_31&lt;/b&gt;&lt;br&gt;ctg2 31&lt;br&gt;Location: 32851 - 33157" locus_tag="ctg2_31" class="clusterblast-orf" id="dummy-1_q23_0_all"  />
<polygon points="516,35 521,30 529,30 529,40 521,40 516,35 " style="fill:#d8c715; stroke-width:1; stroke:black; " description="&lt;b&gt;ctg2_32&lt;/b&gt;&lt;br&gt;ctg2 32&lt;br&gt;Location: 33149 - 33872" locus_tag="ctg2_32" class="clusterblast-orf" id="dummy-1_q24_0_all"  />
<polygon points="529,35 534,30 545,30 545,40 534,40 529,35 " style="fill:#15d880; stroke-width:1; stroke:black; " description="&lt;b&gt;ctg2_33&lt;/b&gt;&lt;br&gt;ctg2 33&lt;br&gt;Location: 33868 - 34717" locus_tag="ctg2_33" class="clusterblast-orf" id="dummy-1_q25_0_all"  />
<polygon points="545,35 550,30 551,30 551,40 550,40 545,35 " style="fill:#1515d8; stroke-width:1; stroke:black; " description="&lt;b&gt;ctg2_34&lt;/b&gt;&lt;br&gt;ctg2 34&lt;br&gt;Location: 34716 - 35022" locus_tag="ctg2_34" class="clusterblast-orf" id="dummy-1_q26_0_all"  />
<polygon points="563,35 568,30 578,30 578,40 568,40 563,35 " style="fill:#d81580; stroke-width:1; stroke:black; " description="&lt;b&gt;ctg2_35&lt;/b&gt;&lt;br&gt;ctg2 35&lt;br&gt;Location: 35646 - 36432" locus_tag="ctg2_35" class="clusterblast-orf" id="dummy-1_q27_0_all"  />
<polygon points="578,35 583,30 593,30 593,40 583,40 578,35 " style="fill:#c7d815; stroke-width:1; stroke:black; " description="&lt;b&gt;ctg2_36&lt;/b&gt;&lt;br&gt;ctg2 36&lt;br&gt;Location: 36433 - 37252" locus_tag="ctg2_36" class="clusterblast-orf" id="dummy-1_q28_0_all"  />
<polygon points="593,35 598,30 612,30 612,40 598,40 593,35 " style="fill:#15d8a3; stroke-width:1; stroke:black; " description="&lt;b&gt;ctg2_37&lt;/b&gt;&lt;br&gt;ctg2 37&lt;br&gt;Location: 37254 - 38247" locus_tag="ctg2_37" class="clusterblast-orf" id="dummy-1_q29_0_all"  />
<polygon points="616,35 621,30 638,30 638,40 621,40 616,35 " style="fill:#3915d8; stroke-width:1; stroke:black; " description="&lt;b&gt;ctg2_38&lt;/b&gt;&lt;br&gt;ctg2 38&lt;br&gt;Location: 38446 - 39598" locus_tag="ctg2_38" class="clusterblast-orf" id="dummy-1_q30_0_all"  />
<polygon points="639,35 644,30 644,30 644,40 644,40 639,35 " style="fill:#d8155c; stroke-width:1; stroke:black; " description="&lt;b&gt;ctg2_39&lt;/b&gt;&lt;br&gt;ctg2 39&lt;br&gt;Location: 39658 - 39928" locus_tag="ctg2_39" class="clusterblast-orf" id="dummy-1_q31_0_all"  />
<polygon points="669,35 673,30 673,40 669,35 " style="fill:#a3d815; stroke-width:1; stroke:black; " description="&lt;b&gt;ctg2_40&lt;/b&gt;&lt;br&gt;ctg2 40&lt;br&gt;Location: 41272 - 41449" locus_tag="ctg2_40" class="clusterblast-orf" id="dummy-1_q32_0_all"  />
<polygon points="687,35 690,30 690,40 687,35 " style="fill:#15d8c7; stroke-width:1; stroke:black; " description="&lt;b&gt;ctg2_41&lt;/b&gt;&lt;br&gt;ctg2 41&lt;br&gt;Location: 42174 - 42333" locus_tag="ctg2_41" class="clusterblast-orf" id="dummy-1_q33_0_all"  />
<polygon points="694,35 699,30 706,30 706,40 699,40 694,35 " style="fill:#5c15d8; stroke-width:1; stroke:black; " description="&lt;b&gt;ctg2_42&lt;/b&gt;&lt;br&gt;ctg2 42&lt;br&gt;Location: 42546 - 43185" locus_tag="ctg2_42" class="clusterblast-orf" id="dummy-1_q34_0_all"  />
<polygon points="710,35 715,30 721,30 721,40 715,40 710,35 " style="fill:#d81539; stroke-width:1; stroke:black; " description="&lt;b&gt;ctg2_43&lt;/b&gt;&lt;br&gt;ctg2 43&lt;br&gt;Location: 43400 - 43970" locus_tag="ctg2_43" class="clusterblast-orf" id="dummy-1_q35_0_all"  />
<polygon points="726,35 731,30 777,30 777,40 731,40 726,35 " style="fill:#80d815; stroke-width:1; stroke:black; " description="&lt;b&gt;ctg2_44&lt;/b&gt;&lt;br&gt;ctg2 44&lt;br&gt;Location: 44244 - 46956" locus_tag="ctg2_44" class="clusterblast-orf" id="dummy-1_q36_0_all"  />
</g>
<g label="NZ_CQBY01000001" description="NZ_CQBY01000001 (20027-62223): Streptococcus agalactiae strain DE-NI-010, who... (82% of genes show similarity), arylpolyene" class="clusterblast-cluster"  >
<text x="5" y="70" class="clusterblast-acc"  >
<a xlink:href="https://antismash-db.secondarymetabolites.org/area?record=NZ_CQBY01000001&amp;start=20027&amp;end=62223" target="_blank">NZ_CQBY01000001 (20027-62223)</a>: Streptococcus agalactiae strain DE-NI-010, who... (82% of genes show similarity), arylpolyene</text>
<line x1="10" y1="85" x2="778.0" y2="85" style="stroke-width:1; stroke:grey; "  />
</g>
<g id="a1_000"  >
<polygon points="0,90 22,90 27,85 22,80 0,80 0,90 " style="fill:#d81515; stroke-width:1; stroke:black; " description="&lt;b&gt;AE447_RS00295&lt;/b&gt;&lt;br&gt;FAD/NAD(P)-binding protein&lt;br&gt;Location: 61629 - 60184&lt;br&gt;&lt;br&gt;&lt;b&gt;BlastP hit with ctg2_8&lt;/b&gt;&lt;br&gt;Percentage identity: 100&lt;br&gt;Percentage coverage: 100&lt;br&gt;BLAST bit score: 966&lt;br&gt;E-value: 0.0" locus_tag="AE447_RS00295" class="clusterblast-orf" id="dummy-1_h1_7_0"  />
</g>
<g id="a1_001"  >
<polygon points="28,85 33,80 41,80 41,90 33,90 28,85 " style="fill:#5cd815; stroke-width:1; stroke:black; " description="&lt;b&gt;AE447_RS00290&lt;/b&gt;&lt;br&gt;ABC transporter ATP-binding protein&lt;br&gt;Location: 60127 - 59456&lt;br&gt;&lt;br&gt;&lt;b&gt;BlastP hit with ctg2_9&lt;/b&gt;&lt;br&gt;Percentage identity: 100&lt;br&gt;Percentage coverage: 100&lt;br&gt;BLAST bit score: 431&lt;br&gt;E-value: 8.07e-154" locus_tag="AE447_RS00290" class="clusterblast-orf" id="dummy-1_h1_7_1"  />
</g>
<g id="a1_002"  >
<polygon points="43,85 48,80 49,80 49,90 48,90 43,85 " style="fill:#15c7d8; stroke-width:1; stroke:black; " description="&lt;b&gt;AE447_RS11195&lt;/b&gt;&lt;br&gt;hypothetical protein&lt;br&gt;Location: 59359 - 59039&lt;br&gt;&lt;br&gt;&lt;b&gt;BlastP hit with ctg2_10&lt;/b&gt;&lt;br&gt;Percentage identity: 100&lt;br&gt;Percentage coverage: 100&lt;br&gt;BLAST bit score: 194&lt;br&gt;E-value: 5.15e-64" locus_tag="AE447_RS11195" class="clusterblast-orf" id="dummy-1_h1_7_2"  />
</g>
<g id="a1_003"  >
<polygon points="49,85 51,80 51,90 49,85 " style="fill:white; stroke-width:1; stroke:black; " description="&lt;b&gt;AE447_RS11190&lt;/b&gt;&lt;br&gt;hypothetical protein&lt;br&gt;Location: 59030 - 58902" locus_tag="AE447_RS11190" class="clusterblast-orf" id="dummy-1_h1_7_3"  />
</g>
<g id="a1_004"  >
<polygon points="53,85 58,80 58,80 58,90 58,90 53,85 " style="fill:#8015d8; stroke-width:1; stroke:black; " description="&lt;b&gt;AE447_RS11185&lt;/b&gt;&lt;br&gt;hypothetical protein&lt;br&gt;Location: 58801 - 58535&lt;br&gt;&lt;br&gt;&lt;b&gt;BlastP hit with ctg2_11&lt;/b&gt;&lt;br&gt;Percentage identity: 100&lt;br&gt;Percentage coverage: 100&lt;br&gt;BLAST bit score: 177&lt;br&gt;E-value: 7.19e-58" locus_tag="AE447_RS11185" class="clusterblast-orf" id="dummy-1_h1_7_4"  />
</g>
<g id="a1_005"  >
<polygon points="60,85 65,80 68,80 68,90 65,90 60,85 " style="fill:#8015d8; stroke-width:1; stroke:black; " description="&lt;b&gt;AE447_RS11180&lt;/b&gt;&lt;br&gt;hypothetical protein&lt;br&gt;Location: 58450 - 58007&lt;br&gt;&lt;br&gt;&lt;b&gt;BlastP hit with ctg2_12&lt;/b&gt;&lt;br&gt;Percentage identity: 100&lt;br&gt;Percentage coverage: 100&lt;br&gt;BLAST bit score: 280&lt;br&gt;E-value: 7.35e-97" locus_tag="AE447_RS11180" class="clusterblast-orf" id="dummy-1_h1_7_5"  />
</g>
<g id="a1_006"  >
<polygon points="68,85 73,80 92,80 92,90 73,90 68,85 " style="fill:#15c7d8; stroke-width:1; stroke:black; " description="&lt;b&gt;AE447_RS00265&lt;/b&gt;&lt;br&gt;ABC transporter permease&lt;br&gt;Location: 57997 - 56768&lt;br&gt;&lt;br&gt;&lt;b&gt;BlastP hit with ctg2_13&lt;/b&gt;&lt;br&gt;Percentage identity: 100&lt;br&gt;Percentage coverage: 93&lt;br&gt;BLAST bit score: 747&lt;br&gt;E-value: 2.44e-272" locus_tag="AE447_RS00265" class="clusterblast-orf" id="dummy-1_h1_7_6"  />
</g>
<g id="a1_007"  >
<polygon points="94,85 99,80 114,80 114,90 99,90 94,85 " style="fill:#d83915; stroke-width:1; stroke:black; " description="&lt;b&gt;AE447_RS00260&lt;/b&gt;&lt;br&gt;alpha/beta hydrolase&lt;br&gt;Location: 56644 - 55583&lt;br&gt;&lt;br&gt;&lt;b&gt;BlastP hit with ctg2_14&lt;/b&gt;&lt;br&gt;Percentage identity: 100&lt;br&gt;Percentage coverage: 100&lt;br&gt;BLAST bit score: 678&lt;br&gt;E-value: 1.81e-247&lt;br&gt;&lt;br&gt;&lt;b&gt;BlastP hit with ctg2_15&lt;/b&gt;&lt;br&gt;Percentage identity: 45&lt;br&gt;Percentage coverage: 105&lt;br&gt;BLAST bit score: 285&lt;br&gt;E-value: 2.15e-92&lt;br&gt;&lt;br&gt;&lt;b&gt;BlastP hit with ctg2_16&lt;/b&gt;&lt;br&gt;Percentage identity: 40&lt;br&gt;Percentage coverage: 103&lt;br&gt;BLAST bit score: 255&lt;br&gt;E-value: 6.93e-81" locus_tag="AE447_RS00260" class="clusterblast-orf" id="dummy-1_h1_7_7"  />
</g>
<g id="a1_008"  >
<polygon points="115,85 120,80 134,80 134,90 120,90 115,85 " style="fill:#d83915; stroke-width:1; stroke:black; " description="&lt;b&gt;AE447_RS00255&lt;/b&gt;&lt;br&gt;alpha/beta hydrolase&lt;br&gt;Location: 55548 - 54529&lt;br&gt;&lt;br&gt;&lt;b&gt;BlastP hit with ctg2_14&lt;/b&gt;&lt;br&gt;Percentage identity: 45&lt;br&gt;Percentage coverage: 101&lt;br&gt;BLAST bit score: 291&lt;br&gt;E-value: 6.08e-95&lt;br&gt;&lt;br&gt;&lt;b&gt;BlastP hit with ctg2_15&lt;/b&gt;&lt;br&gt;Percentage identity: 100&lt;br&gt;Percentage coverage: 100&lt;br&gt;BLAST bit score: 660&lt;br&gt;E-value: 6.24e-241&lt;br&gt;&lt;br&gt;&lt;b&gt;BlastP hit with ctg2_16&lt;/b&gt;&lt;br&gt;Percentage identity: 67&lt;br&gt;Percentage coverage: 100&lt;br&gt;BLAST bit score: 442&lt;br&gt;E-value: 2.24e-154" locus_tag="AE447_RS00255" class="clusterblast-orf" id="dummy-1_h1_7_8"  />
</g>
<g id="a1_009"  >
<polygon points="135,85 140,80 154,80 154,90 140,90 135,85 " style="fill:#d83915; stroke-width:1; stroke:black; " description="&lt;b&gt;AE447_RS00250&lt;/b&gt;&lt;br&gt;alpha/beta hydrolase&lt;br&gt;Location: 54494 - 53463&lt;br&gt;&lt;br&gt;&lt;b&gt;BlastP hit with ctg2_14&lt;/b&gt;&lt;br&gt;Percentage identity: 40&lt;br&gt;Percentage coverage: 101&lt;br&gt;BLAST bit score: 263&lt;br&gt;E-value: 6.98e-84&lt;br&gt;&lt;br&gt;&lt;b&gt;BlastP hit with ctg2_15&lt;/b&gt;&lt;br&gt;Percentage identity: 67&lt;br&gt;Percentage coverage: 101&lt;br&gt;BLAST bit score: 439&lt;br&gt;E-value: 3.64e-153&lt;br&gt;&lt;br&gt;&lt;b&gt;BlastP hit with ctg2_16&lt;/b&gt;&lt;br&gt;Percentage identity: 99&lt;br&gt;Percentage coverage: 100&lt;br&gt;BLAST bit score: 673&lt;br&gt;E-value: 7.95e-246" locus_tag="AE447_RS00250" class="clusterblast-orf" id="dummy-1_h1_7_9"  />
</g>
<g id="a1_0010"  >
<polygon points="155,85 158,80 158,90 155,85 " style="fill:white; stroke-width:1; stroke:black; " description="&lt;b&gt;AE447_RS11455&lt;/b&gt;&lt;br&gt;hypothetical protein&lt;br&gt;Location: 53431 - 53249" locus_tag="AE447_RS11455" class="clusterblast-orf" id="dummy-1_h1_7_10"  />
</g>
<g id="a1_0011"  >
<polygon points="157,85 162,80 172,80 172,90 162,90 157,85 " style="fill:#39d815; stroke-width:1; stroke:black; " description="&lt;b&gt;AE447_RS00245&lt;/b&gt;&lt;br&gt;M13 family metallopeptidase&lt;br&gt;Location: 53324 - 52506&lt;br&gt;&lt;br&gt;&lt;b&gt;BlastP hit with ctg2_17&lt;/b&gt;&lt;br&gt;Percentage identity: 100&lt;br&gt;Percentage coverage: 100&lt;br&gt;BLAST bit score: 551&lt;br&gt;E-value: 9.57e-200" locus_tag="AE447_RS00245" class="clusterblast-orf" id="dummy-1_h1_7_11"  />
</g>
<g id="a1_0012"  >
<polygon points="173,85 178,80 193,80 193,90 178,90 173,85 " style="fill:#15a3d8; stroke-width:1; stroke:black; " description="&lt;b&gt;AE447_RS00240&lt;/b&gt;&lt;br&gt;peptidase M13&lt;br&gt;Location: 52485 - 51400&lt;br&gt;&lt;br&gt;&lt;b&gt;BlastP hit with ctg2_18&lt;/b&gt;&lt;br&gt;Percentage identity: 100&lt;br&gt;Percentage coverage: 100&lt;br&gt;BLAST bit score: 678&lt;br&gt;E-value: 4.78e-247" locus_tag="AE447_RS00240" class="clusterblast-orf" id="dummy-1_h1_7_12"  />
</g>
<g id="a1_0013"  >
<polygon points="197,85 202,80 258,80 258,90 202,90 197,85 " style="fill:#a315d8; stroke-width:1; stroke:black; " description="&lt;b&gt;AE447_RS00235&lt;/b&gt;&lt;br&gt;hypothetical protein&lt;br&gt;Location: 51216 - 47971&lt;br&gt;&lt;br&gt;&lt;b&gt;BlastP hit with ctg2_19&lt;/b&gt;&lt;br&gt;Percentage identity: 99&lt;br&gt;Percentage coverage: 100&lt;br&gt;BLAST bit score: 2031&lt;br&gt;E-value: 0.0" locus_tag="AE447_RS00235" class="clusterblast-orf" id="dummy-1_h1_7_13"  />
</g>
<g id="a1_0014"  >
<polygon points="259,85 264,80 309,80 309,90 264,90 259,85 " style="fill:#d85c15; stroke-width:1; stroke:black; " description="&lt;b&gt;AE447_RS00230&lt;/b&gt;&lt;br&gt;S8 family serine peptidase&lt;br&gt;Location: 47925 - 45268&lt;br&gt;&lt;br&gt;&lt;b&gt;BlastP hit with ctg2_20&lt;/b&gt;&lt;br&gt;Percentage identity: 100&lt;br&gt;Percentage coverage: 100&lt;br&gt;BLAST bit score: 1715&lt;br&gt;E-value: 0.0" locus_tag="AE447_RS00230" class="clusterblast-orf" id="dummy-1_h1_7_14"  />
</g>
<g id="a1_0015"  >
<polygon points="310,85 315,80 320,80 320,90 315,90 310,85 " style="fill:#15d815; stroke-width:1; stroke:black; " description="&lt;b&gt;AE447_RS00225&lt;/b&gt;&lt;br&gt;hypothetical protein&lt;br&gt;Location: 45216 - 44701&lt;br&gt;&lt;br&gt;&lt;b&gt;BlastP hit with ctg2_21&lt;/b&gt;&lt;br&gt;Percentage identity: 100&lt;br&gt;Percentage coverage: 100&lt;br&gt;BLAST bit score: 311&lt;br&gt;E-value: 4.02e-108" locus_tag="AE447_RS00225" class="clusterblast-orf" id="dummy-1_h1_7_15"  />
</g>
<g id="a1_0016"  >
<polygon points="321,85 326,80 327,80 327,90 326,90 321,85 " style="fill:#1580d8; stroke-width:1; stroke:black; " description="&lt;b&gt;AE447_RS00220&lt;/b&gt;&lt;br&gt;hypothetical protein&lt;br&gt;Location: 44667 - 44326&lt;br&gt;&lt;br&gt;&lt;b&gt;BlastP hit with ctg2_22&lt;/b&gt;&lt;br&gt;Percentage identity: 100&lt;br&gt;Percentage coverage: 100&lt;br&gt;BLAST bit score: 233&lt;br&gt;E-value: 3.36e-79" locus_tag="AE447_RS00220" class="clusterblast-orf" id="dummy-1_h1_7_16"  />
</g>
<g id="a1_0017"  >
<polygon points="334,85 339,80 345,80 345,90 339,90 334,85 " style="fill:#c715d8; stroke-width:1; stroke:black; " description="&lt;b&gt;AE447_RS00215&lt;/b&gt;&lt;br&gt;hypothetical protein&lt;br&gt;Location: 43983 - 43408&lt;br&gt;&lt;br&gt;&lt;b&gt;BlastP hit with ctg2_23&lt;/b&gt;&lt;br&gt;Percentage identity: 100&lt;br&gt;Percentage coverage: 100&lt;br&gt;BLAST bit score: 382&lt;br&gt;E-value: 7.99e-136" locus_tag="AE447_RS00215" class="clusterblast-orf" id="dummy-1_h1_7_17"  />
</g>
<g id="a1_0018"  >
<polygon points="344,85 349,80 367,80 367,90 349,90 344,85 " style="fill:#d88015; stroke-width:1; stroke:black; " description="&lt;b&gt;AE447_RS00210&lt;/b&gt;&lt;br&gt;hypothetical protein&lt;br&gt;Location: 43439 - 42228&lt;br&gt;&lt;br&gt;&lt;b&gt;BlastP hit with ctg2_24&lt;/b&gt;&lt;br&gt;Percentage identity: 100&lt;br&gt;Percentage coverage: 100&lt;br&gt;BLAST bit score: 805&lt;br&gt;E-value: 6.37e-296" locus_tag="AE447_RS00210" class="clusterblast-orf" id="dummy-1_h1_7_18"  />
</g>
<g id="a1_0019"  >
<polygon points="367,85 372,80 409,80 409,90 372,90 367,85 " style="fill:#15d839; stroke-width:1; stroke:black; " description="&lt;b&gt;AE447_RS00205&lt;/b&gt;&lt;br&gt;beta-ketoacyl-[acyl-carrier-protein] synthase family protein&lt;br&gt;Location: 42223 - 40028&lt;br&gt;&lt;br&gt;&lt;b&gt;BlastP hit with ctg2_25&lt;/b&gt;&lt;br&gt;Percentage identity: 100&lt;br&gt;Percentage coverage: 100&lt;br&gt;BLAST bit score: 1434&lt;br&gt;E-value: 0.0" locus_tag="AE447_RS00205" class="clusterblast-orf" id="dummy-1_h1_7_19"  />
</g>
<g id="a1_0020"  >
<polygon points="409,85 414,80 427,80 427,90 414,90 409,85 " style="fill:#155cd8; stroke-width:1; stroke:black; " description="&lt;b&gt;AE447_RS00200&lt;/b&gt;&lt;br&gt;aminomethyltransferase family protein&lt;br&gt;Location: 40031 - 39078&lt;br&gt;&lt;br&gt;&lt;b&gt;BlastP hit with ctg2_26&lt;/b&gt;&lt;br&gt;Percentage identity: 100&lt;br&gt;Percentage coverage: 100&lt;br&gt;BLAST bit score: 645&lt;br&gt;E-value: 2e-235" locus_tag="AE447_RS00200" class="clusterblast-orf" id="dummy-1_h1_7_20"  />
</g>
<g id="a1_0021"  >
<polygon points="427,85 432,80 465,80 465,90 432,90 427,85 " style="fill:#d815c7; stroke-width:1; stroke:black; " description="&lt;b&gt;AE447_RS00195&lt;/b&gt;&lt;br&gt;hypothetical protein&lt;br&gt;Location: 39081 - 37078&lt;br&gt;&lt;br&gt;&lt;b&gt;BlastP hit with ctg2_27&lt;/b&gt;&lt;br&gt;Percentage identity: 100&lt;br&gt;Percentage coverage: 100&lt;br&gt;BLAST bit score: 1331&lt;br&gt;E-value: 0.0" locus_tag="AE447_RS00195" class="clusterblast-orf" id="dummy-1_h1_7_21"  />
</g>
<g id="a1_0022"  >
<polygon points="465,85 470,80 481,80 481,90 470,90 465,85 " style="fill:#d8a315; stroke-width:1; stroke:black; " description="&lt;b&gt;AE447_RS00190&lt;/b&gt;&lt;br&gt;ABC transporter permease&lt;br&gt;Location: 37081 - 36203&lt;br&gt;&lt;br&gt;&lt;b&gt;BlastP hit with ctg2_28&lt;/b&gt;&lt;br&gt;Percentage identity: 100&lt;br&gt;Percentage coverage: 100&lt;br&gt;BLAST bit score: 527&lt;br&gt;E-value: 8.92e-190" locus_tag="AE447_RS00190" class="clusterblast-orf" id="dummy-1_h1_7_22"  />
</g>
<g id="a1_0023"  >
<polygon points="481,85 486,80 499,80 499,90 486,90 481,85 " style="fill:#15d85c; stroke-width:1; stroke:black; " description="&lt;b&gt;AE447_RS00185&lt;/b&gt;&lt;br&gt;ABC transporter ATP-binding protein&lt;br&gt;Location: 36210 - 35281&lt;br&gt;&lt;br&gt;&lt;b&gt;BlastP hit with ctg2_29&lt;/b&gt;&lt;br&gt;Percentage identity: 100&lt;br&gt;Percentage coverage: 100&lt;br&gt;BLAST bit score: 601&lt;br&gt;E-value: 1.81e-218" locus_tag="AE447_RS00185" class="clusterblast-orf" id="dummy-1_h1_7_23"  />
</g>
<g id="a1_0024"  >
<polygon points="498,85 503,80 507,80 507,90 503,90 498,85 " style="fill:#1539d8; stroke-width:1; stroke:black; " description="&lt;b&gt;AE447_RS00180&lt;/b&gt;&lt;br&gt;3-hydroxyacyl-ACP dehydratase FabZ&lt;br&gt;Location: 35291 - 34815&lt;br&gt;&lt;br&gt;&lt;b&gt;BlastP hit with ctg2_30&lt;/b&gt;&lt;br&gt;Percentage identity: 100&lt;br&gt;Percentage coverage: 100&lt;br&gt;BLAST bit score: 308&lt;br&gt;E-value: 1.76e-107" locus_tag="AE447_RS00180" class="clusterblast-orf" id="dummy-1_h1_7_24"  />
</g>
<g id="a1_0025"  >
<polygon points="507,85 512,80 513,80 513,90 512,90 507,85 " style="fill:#d815a3; stroke-width:1; stroke:black; " description="&lt;b&gt;AE447_RS00175&lt;/b&gt;&lt;br&gt;phosphopantetheine-binding protein&lt;br&gt;Location: 34831 - 34526&lt;br&gt;&lt;br&gt;&lt;b&gt;BlastP hit with ctg2_31&lt;/b&gt;&lt;br&gt;Percentage identity: 100&lt;br&gt;Percentage coverage: 100&lt;br&gt;BLAST bit score: 191&lt;br&gt;E-value: 5.94e-63" locus_tag="AE447_RS00175" class="clusterblast-orf" id="dummy-1_h1_7_25"  />
</g>
<g id="a1_0026"  >
<polygon points="513,85 518,80 526,80 526,90 518,90 513,85 " style="fill:#d8c715; stroke-width:1; stroke:black; " description="&lt;b&gt;AE447_RS00170&lt;/b&gt;&lt;br&gt;3-oxoacyl-ACP reductase FabG&lt;br&gt;Location: 34533 - 33811&lt;br&gt;&lt;br&gt;&lt;b&gt;BlastP hit with ctg2_32&lt;/b&gt;&lt;br&gt;Percentage identity: 100&lt;br&gt;Percentage coverage: 100&lt;br&gt;BLAST bit score: 462&lt;br&gt;E-value: 9.39e-166" locus_tag="AE447_RS00170" class="clusterblast-orf" id="dummy-1_h1_7_26"  />
</g>
<g id="a1_0027"  >
<polygon points="526,85 531,80 543,80 543,90 531,90 526,85 " style="fill:#15d880; stroke-width:1; stroke:black; " description="&lt;b&gt;AE447_RS00165&lt;/b&gt;&lt;br&gt;hypothetical protein&lt;br&gt;Location: 33814 - 32966&lt;br&gt;&lt;br&gt;&lt;b&gt;BlastP hit with ctg2_33&lt;/b&gt;&lt;br&gt;Percentage identity: 100&lt;br&gt;Percentage coverage: 100&lt;br&gt;BLAST bit score: 561&lt;br&gt;E-value: 1.59e-203" locus_tag="AE447_RS00165" class="clusterblast-orf" id="dummy-1_h1_7_27"  />
</g>
<g id="a1_0028"  >
<polygon points="543,85 548,80 548,80 548,90 548,90 543,85 " style="fill:#1515d8; stroke-width:1; stroke:black; " description="&lt;b&gt;AE447_RS00160&lt;/b&gt;&lt;br&gt;hypothetical protein&lt;br&gt;Location: 32966 - 32661&lt;br&gt;&lt;br&gt;&lt;b&gt;BlastP hit with ctg2_34&lt;/b&gt;&lt;br&gt;Percentage identity: 100&lt;br&gt;Percentage coverage: 100&lt;br&gt;BLAST bit score: 207&lt;br&gt;E-value: 3.3e-69" locus_tag="AE447_RS00160" class="clusterblast-orf" id="dummy-1_h1_7_28"  />
</g>
<g id="a1_0029"  >
<polygon points="560,85 565,80 575,80 575,90 565,90 560,85 " style="fill:#d81580; stroke-width:1; stroke:black; " description="&lt;b&gt;AE447_RS00155&lt;/b&gt;&lt;br&gt;ABC transporter permease&lt;br&gt;Location: 32036 - 31251&lt;br&gt;&lt;br&gt;&lt;b&gt;BlastP hit with ctg2_35&lt;/b&gt;&lt;br&gt;Percentage identity: 100&lt;br&gt;Percentage coverage: 100&lt;br&gt;BLAST bit score: 509&lt;br&gt;E-value: 8.4e-184" locus_tag="AE447_RS00155" class="clusterblast-orf" id="dummy-1_h1_7_29"  />
</g>
<g id="a1_0030"  >
<polygon points="575,85 580,80 591,80 591,90 580,90 575,85 " style="fill:#c7d815; stroke-width:1; stroke:black; " description="&lt;b&gt;AE447_RS00150&lt;/b&gt;&lt;br&gt;ABC-2 family transporter protein&lt;br&gt;Location: 31249 - 30431&lt;br&gt;&lt;br&gt;&lt;b&gt;BlastP hit with ctg2_36&lt;/b&gt;&lt;br&gt;Percentage identity: 100&lt;br&gt;Percentage coverage: 100&lt;br&gt;BLAST bit score: 508&lt;br&gt;E-value: 1.13e-182" locus_tag="AE447_RS00150" class="clusterblast-orf" id="dummy-1_h1_7_30"  />
</g>
<g id="a1_0031"  >
<polygon points="591,85 596,80 609,80 609,90 596,90 591,85 " style="fill:#15d8a3; stroke-width:1; stroke:black; " description="&lt;b&gt;AE447_RS00145&lt;/b&gt;&lt;br&gt;ATP-binding cassette domain-containing protein&lt;br&gt;Location: 30428 - 29436&lt;br&gt;&lt;br&gt;&lt;b&gt;BlastP hit with ctg2_37&lt;/b&gt;&lt;br&gt;Percentage identity: 100&lt;br&gt;Percentage coverage: 100&lt;br&gt;BLAST bit score: 652&lt;br&gt;E-value: 9.93e-238" locus_tag="AE447_RS00145" class="clusterblast-orf" id="dummy-1_h1_7_31"  />
</g>
<g id="a1_0032"  >
<polygon points="613,85 618,80 635,80 635,90 618,90 613,85 " style="fill:#3915d8; stroke-width:1; stroke:black; " description="&lt;b&gt;AE447_RS00140&lt;/b&gt;&lt;br&gt;serine hydrolase&lt;br&gt;Location: 29236 - 28085&lt;br&gt;&lt;br&gt;&lt;b&gt;BlastP hit with ctg2_38&lt;/b&gt;&lt;br&gt;Percentage identity: 100&lt;br&gt;Percentage coverage: 100&lt;br&gt;BLAST bit score: 747&lt;br&gt;E-value: 1.39e-273" locus_tag="AE447_RS00140" class="clusterblast-orf" id="dummy-1_h1_7_32"  />
</g>
<g id="a1_0033"  >
<polygon points="636,85 640,80 640,90 636,85 " style="fill:#d8155c; stroke-width:1; stroke:black; " description="&lt;b&gt;AE447_RS00135&lt;/b&gt;&lt;br&gt;hypothetical protein&lt;br&gt;Location: 28024 - 27830&lt;br&gt;&lt;br&gt;&lt;b&gt;BlastP hit with ctg2_39&lt;/b&gt;&lt;br&gt;Percentage identity: 98&lt;br&gt;Percentage coverage: 72&lt;br&gt;BLAST bit score: 129&lt;br&gt;E-value: 6.33e-39" locus_tag="AE447_RS00135" class="clusterblast-orf" id="dummy-1_h1_7_33"  />
</g>
<g id="a1_0034"  >
<polygon points="640,90 641,90 646,85 641,80 640,80 640,90 " style="fill:white; stroke-width:1; stroke:black; " description="&lt;b&gt;AE447_RS11450&lt;/b&gt;&lt;br&gt;transposase&lt;br&gt;Location: 27818 - 27491" locus_tag="AE447_RS11450" class="clusterblast-orf" id="dummy-1_h1_7_34"  />
</g>
<g id="a1_0035"  >
<polygon points="667,85 670,80 670,90 667,85 " style="fill:#a3d815; stroke-width:1; stroke:black; " description="&lt;b&gt;AE447_RS11350&lt;/b&gt;&lt;br&gt;hypothetical protein&lt;br&gt;Location: 26410 - 26234&lt;br&gt;&lt;br&gt;&lt;b&gt;BlastP hit with ctg2_40&lt;/b&gt;&lt;br&gt;Percentage identity: 100&lt;br&gt;Percentage coverage: 100&lt;br&gt;BLAST bit score: 114&lt;br&gt;E-value: 6.6e-34" locus_tag="AE447_RS11350" class="clusterblast-orf" id="dummy-1_h1_7_35"  />
</g>
<g id="a1_0036"  >
<polygon points="677,85 682,80 686,80 686,90 682,90 677,85 " style="fill:#15d8c7; stroke-width:1; stroke:black; " description="&lt;b&gt;AE447_RS11445&lt;/b&gt;&lt;br&gt;CHAP domain-containing protein&lt;br&gt;Location: 25847 - 25374&lt;br&gt;&lt;br&gt;&lt;b&gt;BlastP hit with ctg2_41&lt;/b&gt;&lt;br&gt;Percentage identity: 98&lt;br&gt;Percentage coverage: 85&lt;br&gt;BLAST bit score: 100&lt;br&gt;E-value: 1.64e-28" locus_tag="AE447_RS11445" class="clusterblast-orf" id="dummy-1_h1_7_36"  />
</g>
<g id="a1_0037"  >
<polygon points="691,85 696,80 717,80 717,90 696,90 691,85 " style="fill:white; stroke-width:1; stroke:black; " description="&lt;b&gt;AE447_RS00120&lt;/b&gt;&lt;br&gt;23S rRNA (uracil(1939)-C(5))-methyltransferase RlmD&lt;br&gt;Location: 25136 - 23775" locus_tag="AE447_RS00120" class="clusterblast-orf" id="dummy-1_h1_7_37"  />
</g>
<g id="a1_0038"  >
<polygon points="719,85 724,80 745,80 745,90 724,90 719,85 " style="fill:white; stroke-width:1; stroke:black; " description="&lt;b&gt;AE447_RS00115&lt;/b&gt;&lt;br&gt;LCP family protein&lt;br&gt;Location: 23674 - 22301" locus_tag="AE447_RS00115" class="clusterblast-orf" id="dummy-1_h1_7_38"  />
</g>
<g id="a1_0039"  >
<polygon points="746,85 751,80 755,80 755,90 751,90 746,85 " style="fill:white; stroke-width:1; stroke:black; " description="&lt;b&gt;AE447_RS00110&lt;/b&gt;&lt;br&gt;shikimate kinase&lt;br&gt;Location: 22244 - 21732" locus_tag="AE447_RS00110" class="clusterblast-orf" id="dummy-1_h1_7_39"  />
</g>
<g id="a1_0040"  >
<polygon points="755,85 760,80 780,80 780,90 760,90 755,85 " style="fill:white; stroke-width:1; stroke:black; " description="&lt;b&gt;AE447_RS00105&lt;/b&gt;&lt;br&gt;3-phosphoshikimate 1-carboxyvinyltransferase&lt;br&gt;Location: 21739 - 20456" locus_tag="AE447_RS00105" class="clusterblast-orf" id="dummy-1_h1_7_40"  />
</g>
</svg>
