<svg xmlns="http://www.w3.org/2000/svg" xmlns:xlink="http://www.w3.org/1999/xlink" version="1.1" x="0" y="0" height="230" width="800" viewBox="0 0 800 230" preserveAspectRatio="none"  >
<g label="Query sequence" class="clusterblast-cluster"  >
<text x="5" y="20" class="clusterblast-acc"  >
Query sequence</text>
<line x1="10" y1="35" x2="778.0" y2="35" style="stroke-width:1; stroke:grey; "  />
<polygon points="277,35 281,30 281,40 277,35 " style="fill:#d81515; stroke-width:1; stroke:black; " description="&lt;b&gt;ctg47_1&lt;/b&gt;&lt;br&gt;ctg47 1&lt;br&gt;Location: 2 - 221" locus_tag="ctg47_1" class="clusterblast-orf" id="dummy-1_q0_0_all"  />
<polygon points="281,35 286,30 308,30 308,40 286,40 281,35 " style="fill:#63d815; stroke-width:1; stroke:black; " description="&lt;b&gt;ctg47_2&lt;/b&gt;&lt;br&gt;ctg47 2&lt;br&gt;Location: 225 - 1602" locus_tag="ctg47_2" class="clusterblast-orf" id="dummy-1_q1_0_all"  />
<polygon points="310,35 315,30 323,30 323,40 315,40 310,35 " style="fill:#15b1d8; stroke-width:1; stroke:black; " description="&lt;b&gt;ctg47_3&lt;/b&gt;&lt;br&gt;ctg47 3&lt;br&gt;Location: 1731 - 2382" locus_tag="ctg47_3" class="clusterblast-orf" id="dummy-1_q2_0_all"  />
<polygon points="326,35 331,30 332,30 332,40 331,40 326,35 " style="fill:#b115d8; stroke-width:1; stroke:black; " description="&lt;b&gt;ctg47_4&lt;/b&gt;&lt;br&gt;ctg47 4&lt;br&gt;Location: 2539 - 2863" locus_tag="ctg47_4" class="clusterblast-orf" id="dummy-1_q3_0_all"  />
<polygon points="333,35 336,30 336,40 333,35 " style="fill:#b115d8; stroke-width:1; stroke:black; " description="&lt;b&gt;ctg47_5&lt;/b&gt;&lt;br&gt;ctg47 5&lt;br&gt;Location: 2914 - 3043" locus_tag="ctg47_5" class="clusterblast-orf" id="dummy-1_q4_0_all"  />
<polygon points="337,40 343,40 348,35 343,30 337,30 337,40 " style="fill:#d86315; stroke-width:1; stroke:black; " description="&lt;b&gt;ctg47_6&lt;/b&gt;&lt;br&gt;ctg47 6&lt;br&gt;Location: 3134 - 3683" locus_tag="ctg47_6" class="clusterblast-orf" id="dummy-1_q5_0_all"  />
<polygon points="349,35 354,30 361,30 361,40 354,40 349,35 " style="fill:#15d815; stroke-width:1; stroke:black; " description="&lt;b&gt;ctg47_7&lt;/b&gt;&lt;br&gt;ctg47 7&lt;br&gt;Location: 3744 - 4341" locus_tag="ctg47_7" class="clusterblast-orf" id="dummy-1_q6_0_all"  />
<polygon points="361,35 366,30 385,30 385,40 366,40 361,35 " style="fill:#1563d8; stroke-width:1; stroke:black; " description="&lt;b&gt;ctg47_8&lt;/b&gt;&lt;br&gt;ctg47 8&lt;br&gt;Location: 4351 - 5578" locus_tag="ctg47_8" class="clusterblast-orf" id="dummy-1_q7_0_all"  />
<polygon points="385,35 388,30 388,40 385,35 " style="fill:#d815b1; stroke-width:1; stroke:black; " description="&lt;b&gt;ctg47_9&lt;/b&gt;&lt;br&gt;ctg47 9&lt;br&gt;Location: 5607 - 5778" locus_tag="ctg47_9" class="clusterblast-orf" id="dummy-1_q8_0_all"  />
<polygon points="389,35 394,30 398,30 398,40 394,40 389,35 " style="fill:#d8b115; stroke-width:1; stroke:black; " description="&lt;b&gt;ctg47_10&lt;/b&gt;&lt;br&gt;ctg47 10&lt;br&gt;Location: 5795 - 6290" locus_tag="ctg47_10" class="clusterblast-orf" id="dummy-1_q9_0_all"  />
<polygon points="400,35 405,30 416,30 416,40 405,40 400,35 " style="fill:#15d863; stroke-width:1; stroke:black; " description="&lt;b&gt;ctg47_11&lt;/b&gt;&lt;br&gt;ctg47 11&lt;br&gt;Location: 6369 - 7209" locus_tag="ctg47_11" class="clusterblast-orf" id="dummy-1_q10_0_all"  />
<polygon points="418,40 437,40 442,35 437,30 418,30 418,40 " style="fill:#1515d8; stroke-width:1; stroke:black; " description="&lt;b&gt;ctg47_12&lt;/b&gt;&lt;br&gt;ctg47 12&lt;br&gt;Location: 7311 - 8535" locus_tag="ctg47_12" class="clusterblast-orf" id="dummy-1_q11_0_all"  />
<polygon points="442,40 462,40 467,35 462,30 442,30 442,40 " style="fill:#d81563; stroke-width:1; stroke:black; " description="&lt;b&gt;ctg47_13&lt;/b&gt;&lt;br&gt;ctg47 13&lt;br&gt;Location: 8536 - 9820" locus_tag="ctg47_13" class="clusterblast-orf" id="dummy-1_q12_0_all"  />
<polygon points="468,40 472,40 477,35 472,30 468,30 468,40 " style="fill:#b1d815; stroke-width:1; stroke:black; " description="&lt;b&gt;ctg47_14&lt;/b&gt;&lt;br&gt;ctg47 14&lt;br&gt;Location: 9911 - 10361" locus_tag="ctg47_14" class="clusterblast-orf" id="dummy-1_q13_0_all"  />
<polygon points="477,40 485,40 490,35 485,30 477,30 477,40 " style="fill:#15d8b1; stroke-width:1; stroke:black; " description="&lt;b&gt;ctg47_15&lt;/b&gt;&lt;br&gt;ctg47 15&lt;br&gt;Location: 10353 - 11010" locus_tag="ctg47_15" class="clusterblast-orf" id="dummy-1_q14_0_all"  />
<polygon points="491,40 498,40 503,35 498,30 491,30 491,40 " style="fill:#6315d8; stroke-width:1; stroke:black; " description="&lt;b&gt;ctg47_16&lt;/b&gt;&lt;br&gt;ctg47 16&lt;br&gt;Location: 11096 - 11687" locus_tag="ctg47_16" class="clusterblast-orf" id="dummy-1_q15_0_all"  />
</g>
<g label="NZ_LR134265" description="NZ_LR134265 (1031357-1072635): Streptococcus agalactiae strain NCTC8184 chrom... (34% of genes show similarity), T3PKS" class="clusterblast-cluster"  >
<text x="5" y="70" class="clusterblast-acc"  >
<a xlink:href="https://antismash-db.secondarymetabolites.org/area?record=NZ_LR134265&amp;start=1031357&amp;end=1072635" target="_blank">NZ_LR134265 (1031357-1072635)</a>: Streptococcus agalactiae strain NCTC8184 chrom... (34% of genes show similarity), T3PKS</text>
<line x1="10" y1="85" x2="778.0" y2="85" style="stroke-width:1; stroke:grey; "  />
</g>
<g id="a1_000"  >
<polygon points="0,85 5,80 16,80 16,90 5,90 0,85 " style="fill:white; stroke-width:1; stroke:black; " description="&lt;b&gt;EL071_RS05670&lt;/b&gt;&lt;br&gt;type IV secretion system protein&lt;br&gt;Location: 1072125 - 1071271" locus_tag="EL071_RS05670" class="clusterblast-orf" id="dummy-1_h1_1_0"  />
</g>
<g id="a1_001"  >
<polygon points="16,85 21,80 21,80 21,90 21,90 16,85 " style="fill:white; stroke-width:1; stroke:black; " description="&lt;b&gt;EL071_RS05665&lt;/b&gt;&lt;br&gt;hypothetical protein&lt;br&gt;Location: 1071254 - 1071012" locus_tag="EL071_RS05665" class="clusterblast-orf" id="dummy-1_h1_1_1"  />
</g>
<g id="a1_002"  >
<polygon points="21,85 26,80 57,80 57,90 26,90 21,85 " style="fill:white; stroke-width:1; stroke:black; " description="&lt;b&gt;EL071_RS05660&lt;/b&gt;&lt;br&gt;type IV secretory system conjugative DNA transfer family protein&lt;br&gt;Location: 1070994 - 1069174" locus_tag="EL071_RS05660" class="clusterblast-orf" id="dummy-1_h1_1_2"  />
</g>
<g id="a1_003"  >
<polygon points="57,85 62,80 66,80 66,90 62,90 57,85 " style="fill:white; stroke-width:1; stroke:black; " description="&lt;b&gt;EL071_RS05655&lt;/b&gt;&lt;br&gt;hypothetical protein&lt;br&gt;Location: 1069174 - 1068686" locus_tag="EL071_RS05655" class="clusterblast-orf" id="dummy-1_h1_1_3"  />
</g>
<g id="a1_004"  >
<polygon points="68,85 73,80 79,80 79,90 73,90 68,85 " style="fill:white; stroke-width:1; stroke:black; " description="&lt;b&gt;EL071_RS05650&lt;/b&gt;&lt;br&gt;CPBP family intramembrane metalloprotease&lt;br&gt;Location: 1068609 - 1068028" locus_tag="EL071_RS05650" class="clusterblast-orf" id="dummy-1_h1_1_4"  />
</g>
<g id="a1_005"  >
<polygon points="79,85 83,80 83,90 79,85 " style="fill:white; stroke-width:1; stroke:black; " description="&lt;b&gt;EL071_RS05645&lt;/b&gt;&lt;br&gt;hypothetical protein&lt;br&gt;Location: 1068025 - 1067792" locus_tag="EL071_RS05645" class="clusterblast-orf" id="dummy-1_h1_1_5"  />
</g>
<g id="a1_006"  >
<polygon points="84,85 89,80 91,80 91,90 89,90 84,85 " style="fill:white; stroke-width:1; stroke:black; " description="&lt;b&gt;EL071_RS05640&lt;/b&gt;&lt;br&gt;hypothetical protein&lt;br&gt;Location: 1067782 - 1067399" locus_tag="EL071_RS05640" class="clusterblast-orf" id="dummy-1_h1_1_6"  />
</g>
<g id="a1_007"  >
<polygon points="91,85 96,80 99,80 99,90 96,90 91,85 " style="fill:white; stroke-width:1; stroke:black; " description="&lt;b&gt;EL071_RS05635&lt;/b&gt;&lt;br&gt;hypothetical protein&lt;br&gt;Location: 1067389 - 1066961" locus_tag="EL071_RS05635" class="clusterblast-orf" id="dummy-1_h1_1_7"  />
</g>
<g id="a1_008"  >
<polygon points="99,85 104,80 125,80 125,90 104,90 99,85 " style="fill:white; stroke-width:1; stroke:black; " description="&lt;b&gt;EL071_RS05630&lt;/b&gt;&lt;br&gt;DNA (cytosine-5-)-methyltransferase&lt;br&gt;Location: 1066977 - 1065622" locus_tag="EL071_RS05630" class="clusterblast-orf" id="dummy-1_h1_1_8"  />
</g>
<g id="a1_009"  >
<polygon points="128,85 133,80 144,80 144,90 133,90 128,85 " style="fill:white; stroke-width:1; stroke:black; " description="&lt;b&gt;EL071_RS05625&lt;/b&gt;&lt;br&gt;replication initiator protein A&lt;br&gt;Location: 1065465 - 1064641" locus_tag="EL071_RS05625" class="clusterblast-orf" id="dummy-1_h1_1_9"  />
</g>
<g id="a1_0010"  >
<polygon points="144,85 148,80 148,90 144,85 " style="fill:white; stroke-width:1; stroke:black; " description="&lt;b&gt;EL071_RS05620&lt;/b&gt;&lt;br&gt;hypothetical protein&lt;br&gt;Location: 1064644 - 1064471" locus_tag="EL071_RS05620" class="clusterblast-orf" id="dummy-1_h1_1_10"  />
</g>
<g id="a1_0011"  >
<polygon points="153,85 158,80 160,80 160,90 158,90 153,85 " style="fill:white; stroke-width:1; stroke:black; " description="&lt;b&gt;EL071_RS05615&lt;/b&gt;&lt;br&gt;50S ribosomal protein L7/L12&lt;br&gt;Location: 1064210 - 1063845" locus_tag="EL071_RS05615" class="clusterblast-orf" id="dummy-1_h1_1_11"  />
</g>
<g id="a1_0012"  >
<polygon points="161,85 166,80 171,80 171,90 166,90 161,85 " style="fill:white; stroke-width:1; stroke:black; " description="&lt;b&gt;EL071_RS05610&lt;/b&gt;&lt;br&gt;50S ribosomal protein L10&lt;br&gt;Location: 1063781 - 1063281" locus_tag="EL071_RS05610" class="clusterblast-orf" id="dummy-1_h1_1_12"  />
</g>
<g id="a1_0013"  >
<polygon points="179,90 215,90 220,85 215,80 179,80 179,90 " style="fill:white; stroke-width:1; stroke:black; " description="&lt;b&gt;EL071_RS05605&lt;/b&gt;&lt;br&gt;ATP-dependent Clp protease ATP-binding subunit&lt;br&gt;Location: 1062848 - 1060740" locus_tag="EL071_RS05605" class="clusterblast-orf" id="dummy-1_h1_1_13"  />
</g>
<g id="a1_0014"  >
<polygon points="222,85 227,80 240,80 240,90 227,90 222,85 " style="fill:#d81515; stroke-width:1; stroke:black; " description="&lt;b&gt;EL071_RS05595&lt;/b&gt;&lt;br&gt;homocysteine S-methyltransferase&lt;br&gt;Location: 1060647 - 1059703&lt;br&gt;&lt;br&gt;&lt;b&gt;BlastP hit with ctg47_1&lt;/b&gt;&lt;br&gt;Percentage identity: 99&lt;br&gt;Percentage coverage: 100&lt;br&gt;BLAST bit score: 144&lt;br&gt;E-value: 2.95e-42" locus_tag="EL071_RS05595" class="clusterblast-orf" id="dummy-1_h1_1_14"  />
</g>
<g id="a1_0015"  >
<polygon points="240,85 245,80 266,80 266,90 245,90 240,85 " style="fill:#63d815; stroke-width:1; stroke:black; " description="&lt;b&gt;EL071_RS05590&lt;/b&gt;&lt;br&gt;amino acid permease&lt;br&gt;Location: 1059698 - 1058322&lt;br&gt;&lt;br&gt;&lt;b&gt;BlastP hit with ctg47_2&lt;/b&gt;&lt;br&gt;Percentage identity: 99&lt;br&gt;Percentage coverage: 100&lt;br&gt;BLAST bit score: 860&lt;br&gt;E-value: 5.38e-316" locus_tag="EL071_RS05590" class="clusterblast-orf" id="dummy-1_h1_1_15"  />
</g>
<g id="a1_0016"  >
<polygon points="269,85 274,80 282,80 282,90 274,90 269,85 " style="fill:#15b1d8; stroke-width:1; stroke:black; " description="&lt;b&gt;EL071_RS05585&lt;/b&gt;&lt;br&gt;HXXEE domain-containing protein&lt;br&gt;Location: 1058192 - 1057511&lt;br&gt;&lt;br&gt;&lt;b&gt;BlastP hit with ctg47_3&lt;/b&gt;&lt;br&gt;Percentage identity: 100&lt;br&gt;Percentage coverage: 56&lt;br&gt;BLAST bit score: 246&lt;br&gt;E-value: 1.28e-82" locus_tag="EL071_RS05585" class="clusterblast-orf" id="dummy-1_h1_1_16"  />
</g>
<g id="a1_0017"  >
<polygon points="285,85 290,80 295,80 295,90 290,90 285,85 " style="fill:#b115d8; stroke-width:1; stroke:black; " description="&lt;b&gt;EL071_RS05580&lt;/b&gt;&lt;br&gt;HXXEE domain-containing protein&lt;br&gt;Location: 1057353 - 1056850&lt;br&gt;&lt;br&gt;&lt;b&gt;BlastP hit with ctg47_4&lt;/b&gt;&lt;br&gt;Percentage identity: 100&lt;br&gt;Percentage coverage: 100&lt;br&gt;BLAST bit score: 219&lt;br&gt;E-value: 3.4e-73&lt;br&gt;&lt;br&gt;&lt;b&gt;BlastP hit with ctg47_5&lt;/b&gt;&lt;br&gt;Percentage identity: 100&lt;br&gt;Percentage coverage: 100&lt;br&gt;BLAST bit score: 85&lt;br&gt;E-value: 3.22e-21" locus_tag="EL071_RS05580" class="clusterblast-orf" id="dummy-1_h1_1_17"  />
</g>
<g id="a1_0018"  >
<polygon points="297,90 304,90 309,85 304,80 297,80 297,90 " style="fill:#d86315; stroke-width:1; stroke:black; " description="&lt;b&gt;EL071_RS05570&lt;/b&gt;&lt;br&gt;TetR/AcrR family transcriptional regulator&lt;br&gt;Location: 1056758 - 1056129&lt;br&gt;&lt;br&gt;&lt;b&gt;BlastP hit with ctg47_6&lt;/b&gt;&lt;br&gt;Percentage identity: 99&lt;br&gt;Percentage coverage: 100&lt;br&gt;BLAST bit score: 359&lt;br&gt;E-value: 8.06e-127" locus_tag="EL071_RS05570" class="clusterblast-orf" id="dummy-1_h1_1_18"  />
</g>
<g id="a1_0019"  >
<polygon points="309,85 314,80 320,80 320,90 314,90 309,85 " style="fill:#15d815; stroke-width:1; stroke:black; " description="&lt;b&gt;EL071_RS05565&lt;/b&gt;&lt;br&gt;ribosome biogenesis GTP-binding protein YihA/YsxC&lt;br&gt;Location: 1056148 - 1055552&lt;br&gt;&lt;br&gt;&lt;b&gt;BlastP hit with ctg47_7&lt;/b&gt;&lt;br&gt;Percentage identity: 100&lt;br&gt;Percentage coverage: 100&lt;br&gt;BLAST bit score: 397&lt;br&gt;E-value: 3.11e-141" locus_tag="EL071_RS05565" class="clusterblast-orf" id="dummy-1_h1_1_19"  />
</g>
<g id="a1_0020"  >
<polygon points="320,85 325,80 344,80 344,90 325,90 320,85 " style="fill:#1563d8; stroke-width:1; stroke:black; " description="&lt;b&gt;EL071_RS05560&lt;/b&gt;&lt;br&gt;ATP-dependent Clp protease ATP-binding subunit ClpX&lt;br&gt;Location: 1055541 - 1054315&lt;br&gt;&lt;br&gt;&lt;b&gt;BlastP hit with ctg47_8&lt;/b&gt;&lt;br&gt;Percentage identity: 100&lt;br&gt;Percentage coverage: 100&lt;br&gt;BLAST bit score: 780&lt;br&gt;E-value: 1.08e-285" locus_tag="EL071_RS05560" class="clusterblast-orf" id="dummy-1_h1_1_20"  />
</g>
<g id="a1_0021"  >
<polygon points="345,85 348,80 348,90 345,85 " style="fill:#d815b1; stroke-width:1; stroke:black; " description="&lt;b&gt;EL071_RS05555&lt;/b&gt;&lt;br&gt;hypothetical protein&lt;br&gt;Location: 1054285 - 1054115&lt;br&gt;&lt;br&gt;&lt;b&gt;BlastP hit with ctg47_9&lt;/b&gt;&lt;br&gt;Percentage identity: 98&lt;br&gt;Percentage coverage: 100&lt;br&gt;BLAST bit score: 89&lt;br&gt;E-value: 1.39e-23" locus_tag="EL071_RS05555" class="clusterblast-orf" id="dummy-1_h1_1_21"  />
</g>
<g id="a1_0022"  >
<polygon points="348,85 353,80 358,80 358,90 353,90 348,85 " style="fill:#d8b115; stroke-width:1; stroke:black; " description="&lt;b&gt;EL071_RS05550&lt;/b&gt;&lt;br&gt;dihydrofolate reductase&lt;br&gt;Location: 1054097 - 1053603&lt;br&gt;&lt;br&gt;&lt;b&gt;BlastP hit with ctg47_10&lt;/b&gt;&lt;br&gt;Percentage identity: 100&lt;br&gt;Percentage coverage: 100&lt;br&gt;BLAST bit score: 340&lt;br&gt;E-value: 6.08e-120" locus_tag="EL071_RS05550" class="clusterblast-orf" id="dummy-1_h1_1_22"  />
</g>
<g id="a1_0023"  >
<polygon points="359,85 364,80 376,80 376,90 364,90 359,85 " style="fill:#15d863; stroke-width:1; stroke:black; " description="&lt;b&gt;EL071_RS05545&lt;/b&gt;&lt;br&gt;thymidylate synthase&lt;br&gt;Location: 1053523 - 1052684&lt;br&gt;&lt;br&gt;&lt;b&gt;BlastP hit with ctg47_11&lt;/b&gt;&lt;br&gt;Percentage identity: 100&lt;br&gt;Percentage coverage: 100&lt;br&gt;BLAST bit score: 578&lt;br&gt;E-value: 3.5e-210" locus_tag="EL071_RS05545" class="clusterblast-orf" id="dummy-1_h1_1_23"  />
</g>
<g id="a1_0024"  >
<polygon points="376,90 396,90 401,85 396,80 376,80 376,90 " style="fill:#1515d8; stroke-width:1; stroke:black; " description="&lt;b&gt;EL071_RS05540&lt;/b&gt;&lt;br&gt;hydroxymethylglutaryl-CoA synthase&lt;br&gt;Location: 1052635 - 1051358&lt;br&gt;&lt;br&gt;&lt;b&gt;BlastP hit with ctg47_12&lt;/b&gt;&lt;br&gt;Percentage identity: 100&lt;br&gt;Percentage coverage: 100&lt;br&gt;BLAST bit score: 796&lt;br&gt;E-value: 7.84e-292" locus_tag="EL071_RS05540" class="clusterblast-orf" id="dummy-1_h1_1_24"  />
</g>
<g id="a1_0025"  >
<polygon points="401,90 421,90 426,85 421,80 401,80 401,90 " style="fill:#d81563; stroke-width:1; stroke:black; " description="&lt;b&gt;EL071_RS05535&lt;/b&gt;&lt;br&gt;hydroxymethylglutaryl-CoA reductase, degradative&lt;br&gt;Location: 1051356 - 1050073&lt;br&gt;&lt;br&gt;&lt;b&gt;BlastP hit with ctg47_13&lt;/b&gt;&lt;br&gt;Percentage identity: 100&lt;br&gt;Percentage coverage: 100&lt;br&gt;BLAST bit score: 805&lt;br&gt;E-value: 5.91e-295" locus_tag="EL071_RS05535" class="clusterblast-orf" id="dummy-1_h1_1_25"  />
</g>
<g id="a1_0026"  >
<polygon points="428,90 431,90 436,85 431,80 428,80 428,90 " style="fill:#b1d815; stroke-width:1; stroke:black; " description="&lt;b&gt;EL071_RS05530&lt;/b&gt;&lt;br&gt;DUF1836 domain-containing protein&lt;br&gt;Location: 1049981 - 1049533&lt;br&gt;&lt;br&gt;&lt;b&gt;BlastP hit with ctg47_14&lt;/b&gt;&lt;br&gt;Percentage identity: 100&lt;br&gt;Percentage coverage: 41&lt;br&gt;BLAST bit score: 127&lt;br&gt;E-value: 1.97e-37" locus_tag="EL071_RS05530" class="clusterblast-orf" id="dummy-1_h1_1_26"  />
</g>
<g id="a1_0027"  >
<polygon points="436,90 444,90 449,85 444,80 436,80 436,90 " style="fill:#15d8b1; stroke-width:1; stroke:black; " description="&lt;b&gt;EL071_RS05525&lt;/b&gt;&lt;br&gt;hemolysin III family protein&lt;br&gt;Location: 1049540 - 1048884&lt;br&gt;&lt;br&gt;&lt;b&gt;BlastP hit with ctg47_15&lt;/b&gt;&lt;br&gt;Percentage identity: 100&lt;br&gt;Percentage coverage: 100&lt;br&gt;BLAST bit score: 417&lt;br&gt;E-value: 8.4e-149" locus_tag="EL071_RS05525" class="clusterblast-orf" id="dummy-1_h1_1_27"  />
</g>
<g id="a1_0028"  >
<polygon points="451,90 463,90 468,85 463,80 451,80 451,90 " style="fill:#6315d8; stroke-width:1; stroke:black; " description="&lt;b&gt;EL071_RS05520&lt;/b&gt;&lt;br&gt;diacylglycerol kinase family lipid kinase&lt;br&gt;Location: 1048797 - 1047883&lt;br&gt;&lt;br&gt;&lt;b&gt;BlastP hit with ctg47_16&lt;/b&gt;&lt;br&gt;Percentage identity: 99&lt;br&gt;Percentage coverage: 100&lt;br&gt;BLAST bit score: 379&lt;br&gt;E-value: 1.85e-132" locus_tag="EL071_RS05520" class="clusterblast-orf" id="dummy-1_h1_1_28"  />
</g>
<g id="a1_0029"  >
<polygon points="470,90 482,90 487,85 482,80 470,80 470,90 " style="fill:white; stroke-width:1; stroke:black; " description="&lt;b&gt;EL071_RS05515&lt;/b&gt;&lt;br&gt;glutathione S-transferase family protein&lt;br&gt;Location: 1047782 - 1046928" locus_tag="EL071_RS05515" class="clusterblast-orf" id="dummy-1_h1_1_29"  />
</g>
<g id="a1_0030"  >
<polygon points="488,85 492,80 492,90 488,85 " style="fill:white; stroke-width:1; stroke:black; " description="&lt;b&gt;EL071_RS05510&lt;/b&gt;&lt;br&gt;DUF4649 family protein&lt;br&gt;Location: 1046882 - 1046670" locus_tag="EL071_RS05510" class="clusterblast-orf" id="dummy-1_h1_1_30"  />
</g>
<g id="a1_0031"  >
<polygon points="493,85 498,80 512,80 512,90 498,90 493,85 " style="fill:white; stroke-width:1; stroke:black; " description="&lt;b&gt;EL071_RS05505&lt;/b&gt;&lt;br&gt;type 2 isopentenyl-diphosphate Delta-isomerase&lt;br&gt;Location: 1046602 - 1045607" locus_tag="EL071_RS05505" class="clusterblast-orf" id="dummy-1_h1_1_31"  />
</g>
<g id="a1_0032"  >
<polygon points="512,85 517,80 532,80 532,90 517,90 512,85 " style="fill:white; stroke-width:1; stroke:black; " description="&lt;b&gt;EL071_RS05500&lt;/b&gt;&lt;br&gt;phosphomevalonate kinase&lt;br&gt;Location: 1045610 - 1044618" locus_tag="EL071_RS05500" class="clusterblast-orf" id="dummy-1_h1_1_32"  />
</g>
<g id="a1_0033"  >
<polygon points="531,85 536,80 550,80 550,90 536,90 531,85 " style="fill:white; stroke-width:1; stroke:black; " description="&lt;b&gt;EL071_RS05495&lt;/b&gt;&lt;br&gt;diphosphomevalonate decarboxylase&lt;br&gt;Location: 1044625 - 1043681" locus_tag="EL071_RS05495" class="clusterblast-orf" id="dummy-1_h1_1_33"  />
</g>
<g id="a1_0034"  >
<polygon points="549,85 554,80 566,80 566,90 554,90 549,85 " style="fill:white; stroke-width:1; stroke:black; " description="&lt;b&gt;EL071_RS05490&lt;/b&gt;&lt;br&gt;mevalonate kinase&lt;br&gt;Location: 1043699 - 1042821" locus_tag="EL071_RS05490" class="clusterblast-orf" id="dummy-1_h1_1_34"  />
</g>
<g id="a1_0035"  >
<polygon points="569,85 574,80 592,80 592,90 574,90 569,85 " style="fill:white; stroke-width:1; stroke:black; " description="&lt;b&gt;EL071_RS05485&lt;/b&gt;&lt;br&gt;HAMP domain-containing histidine kinase&lt;br&gt;Location: 1042705 - 1041476" locus_tag="EL071_RS05485" class="clusterblast-orf" id="dummy-1_h1_1_35"  />
</g>
<g id="a1_0036"  >
<polygon points="592,85 597,80 606,80 606,90 597,90 592,85 " style="fill:white; stroke-width:1; stroke:black; " description="&lt;b&gt;EL071_RS05480&lt;/b&gt;&lt;br&gt;response regulator transcription factor&lt;br&gt;Location: 1041476 - 1040790" locus_tag="EL071_RS05480" class="clusterblast-orf" id="dummy-1_h1_1_36"  />
</g>
<g id="a1_0037"  >
<polygon points="606,85 611,80 618,80 618,90 611,90 606,85 " style="fill:white; stroke-width:1; stroke:black; " description="&lt;b&gt;EL071_RS05475&lt;/b&gt;&lt;br&gt;GTP pyrophosphokinase family protein&lt;br&gt;Location: 1040788 - 1040162" locus_tag="EL071_RS05475" class="clusterblast-orf" id="dummy-1_h1_1_37"  />
</g>
<g id="a1_0038"  >
<polygon points="620,85 625,80 654,80 654,90 625,90 620,85 " style="fill:white; stroke-width:1; stroke:black; " description="&lt;b&gt;EL071_RS05470&lt;/b&gt;&lt;br&gt;ABC transporter ATP-binding protein/permease&lt;br&gt;Location: 1040054 - 1038300" locus_tag="EL071_RS05470" class="clusterblast-orf" id="dummy-1_h1_1_38"  />
</g>
<g id="a1_0039"  >
<polygon points="654,85 659,80 689,80 689,90 659,90 654,85 " style="fill:white; stroke-width:1; stroke:black; " description="&lt;b&gt;EL071_RS05465&lt;/b&gt;&lt;br&gt;ABC transporter ATP-binding protein/permease&lt;br&gt;Location: 1038310 - 1036494" locus_tag="EL071_RS05465" class="clusterblast-orf" id="dummy-1_h1_1_39"  />
</g>
<g id="a1_0040"  >
<polygon points="690,85 695,80 698,80 698,90 695,90 690,85 " style="fill:white; stroke-width:1; stroke:black; " description="&lt;b&gt;EL071_RS05460&lt;/b&gt;&lt;br&gt;MarR family transcriptional regulator&lt;br&gt;Location: 1036447 - 1036007" locus_tag="EL071_RS05460" class="clusterblast-orf" id="dummy-1_h1_1_40"  />
</g>
<g id="a1_0041"  >
<polygon points="703,90 738,90 743,85 738,80 703,80 703,90 " style="fill:white; stroke-width:1; stroke:black; " description="&lt;b&gt;EL071_RS05455&lt;/b&gt;&lt;br&gt;bifunctional metallophosphatase/5'-nucleotidase&lt;br&gt;Location: 1035738 - 1033666" locus_tag="EL071_RS05455" class="clusterblast-orf" id="dummy-1_h1_1_41"  />
</g>
<g id="a1_0042"  >
<polygon points="744,85 749,80 752,80 752,90 749,90 744,85 " style="fill:white; stroke-width:1; stroke:black; " description="&lt;b&gt;EL071_RS05450&lt;/b&gt;&lt;br&gt;peptide deformylase&lt;br&gt;Location: 1033629 - 1033219" locus_tag="EL071_RS05450" class="clusterblast-orf" id="dummy-1_h1_1_42"  />
</g>
<g id="a1_0043"  >
<polygon points="753,85 758,80 780,80 780,90 758,90 753,85 " style="fill:white; stroke-width:1; stroke:black; " description="&lt;b&gt;EL071_RS05445&lt;/b&gt;&lt;br&gt;NADP-specific glutamate dehydrogenase&lt;br&gt;Location: 1033149 - 1031800" locus_tag="EL071_RS05445" class="clusterblast-orf" id="dummy-1_h1_1_43"  />
</g>
</svg>
