<svg xmlns="http://www.w3.org/2000/svg" xmlns:xlink="http://www.w3.org/1999/xlink" version="1.1" x="0" y="0" height="230" width="800" viewBox="0 0 800 230" preserveAspectRatio="none"  >
<g label="Query sequence" class="clusterblast-cluster"  >
<text x="5" y="20" class="clusterblast-acc"  >
Query sequence</text>
<line x1="10" y1="35" x2="778.0" y2="35" style="stroke-width:1; stroke:grey; "  />
<polygon points="205,35 209,30 209,40 205,35 " style="fill:white; stroke-width:1; stroke:black; " description="&lt;b&gt;ctg15_1&lt;/b&gt;&lt;br&gt;ctg15 1&lt;br&gt;Location: 294 - 414" locus_tag="ctg15_1" class="clusterblast-orf" id="dummy-1_q0_0_all"  />
<polygon points="211,35 216,30 220,30 220,40 216,40 211,35 " style="fill:#d81515; stroke-width:1; stroke:black; " description="&lt;b&gt;ctg15_2&lt;/b&gt;&lt;br&gt;ctg15 2&lt;br&gt;Location: 473 - 734" locus_tag="ctg15_2" class="clusterblast-orf" id="dummy-1_q1_0_all"  />
<polygon points="223,35 228,30 232,30 232,40 228,40 223,35 " style="fill:#15d815; stroke-width:1; stroke:black; " description="&lt;b&gt;ctg15_3&lt;/b&gt;&lt;br&gt;ctg15 3&lt;br&gt;Location: 801 - 1068" locus_tag="ctg15_3" class="clusterblast-orf" id="dummy-1_q2_0_all"  />
<polygon points="271,35 276,30 302,30 302,40 276,40 271,35 " style="fill:#1597d8; stroke-width:1; stroke:black; " description="&lt;b&gt;ctg15_4&lt;/b&gt;&lt;br&gt;ctg15 4&lt;br&gt;Location: 2192 - 3056" locus_tag="ctg15_4" class="clusterblast-orf" id="dummy-1_q3_0_all"  />
<polygon points="313,35 318,30 339,30 339,40 318,40 313,35 " style="fill:#9715d8; stroke-width:1; stroke:black; " description="&lt;b&gt;ctg15_5&lt;/b&gt;&lt;br&gt;ctg15 5&lt;br&gt;Location: 3369 - 4116" locus_tag="ctg15_5" class="clusterblast-orf" id="dummy-1_q4_0_all"  />
<polygon points="339,35 344,30 365,30 365,40 344,40 339,35 " style="fill:#d89715; stroke-width:1; stroke:black; " description="&lt;b&gt;ctg15_6&lt;/b&gt;&lt;br&gt;ctg15 6&lt;br&gt;Location: 4108 - 4849" locus_tag="ctg15_6" class="clusterblast-orf" id="dummy-1_q5_0_all"  />
<polygon points="365,35 370,30 397,30 397,40 370,40 365,35 " style="fill:#15d897; stroke-width:1; stroke:black; " description="&lt;b&gt;ctg15_7&lt;/b&gt;&lt;br&gt;ctg15 7&lt;br&gt;Location: 4855 - 5761" locus_tag="ctg15_7" class="clusterblast-orf" id="dummy-1_q6_0_all"  />
<polygon points="397,35 402,30 470,30 470,40 402,40 397,35 " style="fill:#1515d8; stroke-width:1; stroke:black; " description="&lt;b&gt;ctg15_8&lt;/b&gt;&lt;br&gt;ctg15 8&lt;br&gt;Location: 5753 - 7850" locus_tag="ctg15_8" class="clusterblast-orf" id="dummy-1_q7_0_all"  />
<polygon points="472,35 477,30 567,30 567,40 477,40 472,35 " style="fill:#d81597; stroke-width:1; stroke:black; " description="&lt;b&gt;ctg15_9&lt;/b&gt;&lt;br&gt;ctg15 9&lt;br&gt;Location: 7905 - 10614" locus_tag="ctg15_9" class="clusterblast-orf" id="dummy-1_q8_0_all"  />
<polygon points="569,35 574,30 575,30 575,40 574,40 569,35 " style="fill:#97d815; stroke-width:1; stroke:black; " description="&lt;b&gt;ctg15_10&lt;/b&gt;&lt;br&gt;ctg15 10&lt;br&gt;Location: 10667 - 10829" locus_tag="ctg15_10" class="clusterblast-orf" id="dummy-1_q9_0_all"  />
</g>
<g label="NZ_CP044492" description="NZ_CP044492 (98905-121611): Streptococcus mutans strain T8 chromosome, comple... (31% of genes show similarity), lanthipeptide-class-ii" class="clusterblast-cluster"  >
<text x="5" y="70" class="clusterblast-acc"  >
<a xlink:href="https://antismash-db.secondarymetabolites.org/area?record=NZ_CP044492&amp;start=98905&amp;end=121611" target="_blank">NZ_CP044492 (98905-121611)</a>: Streptococcus mutans strain T8 chromosome, comple... (31% of genes show similarity), lanthipeptide-class-ii</text>
<line x1="10" y1="85" x2="778.0" y2="85" style="stroke-width:1; stroke:grey; "  />
</g>
<g id="a1_000"  >
<polygon points="0,90 24,90 29,85 24,80 0,80 0,90 " style="fill:white; stroke-width:1; stroke:black; " description="&lt;b&gt;FSA31_RS00655&lt;/b&gt;&lt;br&gt;S-formylglutathione hydrolase&lt;br&gt;Location: 121151 - 120309" locus_tag="FSA31_RS00655" class="clusterblast-orf" id="dummy-1_h1_5_0"  />
</g>
<g id="a1_001"  >
<polygon points="49,90 92,90 97,85 92,80 49,80 49,90 " style="fill:white; stroke-width:1; stroke:black; " description="&lt;b&gt;FSA31_RS00650&lt;/b&gt;&lt;br&gt;hypothetical protein&lt;br&gt;Location: 119736 - 118381" locus_tag="FSA31_RS00650" class="clusterblast-orf" id="dummy-1_h1_5_1"  />
</g>
<g id="a1_002"  >
<polygon points="100,90 100,90 105,85 100,80 100,80 100,90 " style="fill:white; stroke-width:1; stroke:black; " description="&lt;b&gt;FSA31_RS00645&lt;/b&gt;&lt;br&gt;MurR/RpiR family transcriptional regulator&lt;br&gt;Location: 118292 - 118150" locus_tag="FSA31_RS00645" class="clusterblast-orf" id="dummy-1_h1_5_2"  />
</g>
<g id="a1_003"  >
<polygon points="116,85 121,80 147,80 147,90 121,90 116,85 " style="fill:white; stroke-width:1; stroke:black; " description="&lt;b&gt;FSA31_RS00635&lt;/b&gt;&lt;br&gt;fructose-bisphosphate aldolase&lt;br&gt;Location: 117827 - 116946" locus_tag="FSA31_RS00635" class="clusterblast-orf" id="dummy-1_h1_5_3"  />
</g>
<g id="a1_004"  >
<polygon points="155,85 160,80 161,80 161,90 160,90 155,85 " style="fill:white; stroke-width:1; stroke:black; " description="&lt;b&gt;FSA31_RS10005&lt;/b&gt;&lt;br&gt;lipase&lt;br&gt;Location: 116715 - 116566" locus_tag="FSA31_RS10005" class="clusterblast-orf" id="dummy-1_h1_5_4"  />
</g>
<g id="a1_005"  >
<polygon points="161,90 163,90 168,85 163,80 161,80 161,90 " style="fill:white; stroke-width:1; stroke:black; " description="&lt;b&gt;FSA31_RS10000&lt;/b&gt;&lt;br&gt;IS982 family transposase&lt;br&gt;Location: 116557 - 116351" locus_tag="FSA31_RS10000" class="clusterblast-orf" id="dummy-1_h1_5_5"  />
</g>
<g id="a1_006"  >
<polygon points="175,85 180,80 201,80 201,90 180,90 175,85 " style="fill:#9715d8; stroke-width:1; stroke:black; " description="&lt;b&gt;FSA31_RS00630&lt;/b&gt;&lt;br&gt;ABC transporter permease&lt;br&gt;Location: 116152 - 115406&lt;br&gt;&lt;br&gt;&lt;b&gt;BlastP hit with ctg15_5&lt;/b&gt;&lt;br&gt;Percentage identity: 78&lt;br&gt;Percentage coverage: 100&lt;br&gt;BLAST bit score: 384&lt;br&gt;E-value: 2.1e-134" locus_tag="FSA31_RS00630" class="clusterblast-orf" id="dummy-1_h1_5_6"  />
</g>
<g id="a1_007"  >
<polygon points="201,85 206,80 227,80 227,90 206,90 201,85 " style="fill:#d89715; stroke-width:1; stroke:black; " description="&lt;b&gt;FSA31_RS00625&lt;/b&gt;&lt;br&gt;ABC transporter permease&lt;br&gt;Location: 115413 - 114673&lt;br&gt;&lt;br&gt;&lt;b&gt;BlastP hit with ctg15_6&lt;/b&gt;&lt;br&gt;Percentage identity: 81&lt;br&gt;Percentage coverage: 100&lt;br&gt;BLAST bit score: 380&lt;br&gt;E-value: 6.01e-133" locus_tag="FSA31_RS00625" class="clusterblast-orf" id="dummy-1_h1_5_7"  />
</g>
<g id="a1_008"  >
<polygon points="227,85 232,80 259,80 259,90 232,90 227,85 " style="fill:#15d897; stroke-width:1; stroke:black; " description="&lt;b&gt;FSA31_RS00620&lt;/b&gt;&lt;br&gt;ATP-binding cassette domain-containing protein&lt;br&gt;Location: 114666 - 113758&lt;br&gt;&lt;br&gt;&lt;b&gt;BlastP hit with ctg15_7&lt;/b&gt;&lt;br&gt;Percentage identity: 86&lt;br&gt;Percentage coverage: 100&lt;br&gt;BLAST bit score: 506&lt;br&gt;E-value: 3.11e-181" locus_tag="FSA31_RS00620" class="clusterblast-orf" id="dummy-1_h1_5_8"  />
</g>
<g id="a1_009"  >
<polygon points="259,85 264,80 333,80 333,90 264,90 259,85 " style="fill:#1515d8; stroke-width:1; stroke:black; " description="&lt;b&gt;FSA31_RS00615&lt;/b&gt;&lt;br&gt;cysteine peptidase family C39 domain-containing protein&lt;br&gt;Location: 113783 - 111666&lt;br&gt;&lt;br&gt;&lt;b&gt;BlastP hit with ctg15_8&lt;/b&gt;&lt;br&gt;Percentage identity: 76&lt;br&gt;Percentage coverage: 100&lt;br&gt;BLAST bit score: 1026&lt;br&gt;E-value: 0.0" locus_tag="FSA31_RS00615" class="clusterblast-orf" id="dummy-1_h1_5_9"  />
</g>
<g id="a1_0010"  >
<polygon points="335,85 340,80 430,80 430,90 340,90 335,85 " style="fill:#d81597; stroke-width:1; stroke:black; " description="&lt;b&gt;FSA31_RS00610&lt;/b&gt;&lt;br&gt;type 2 lanthipeptide synthetase LanM family protein&lt;br&gt;Location: 111611 - 108906&lt;br&gt;&lt;br&gt;&lt;b&gt;BlastP hit with ctg15_9&lt;/b&gt;&lt;br&gt;Percentage identity: 78&lt;br&gt;Percentage coverage: 100&lt;br&gt;BLAST bit score: 1419&lt;br&gt;E-value: 0.0" locus_tag="FSA31_RS00610" class="clusterblast-orf" id="dummy-1_h1_5_10"  />
</g>
<g id="a1_0011"  >
<polygon points="432,85 437,80 438,80 438,90 437,90 432,85 " style="fill:#97d815; stroke-width:1; stroke:black; " description="&lt;b&gt;FSA31_RS00605&lt;/b&gt;&lt;br&gt;lacticin 481 family lantibiotic&lt;br&gt;Location: 108837 - 108676&lt;br&gt;&lt;br&gt;&lt;b&gt;BlastP hit with ctg15_10&lt;/b&gt;&lt;br&gt;Percentage identity: 85&lt;br&gt;Percentage coverage: 100&lt;br&gt;BLAST bit score: 101&lt;br&gt;E-value: 7.32e-29" locus_tag="FSA31_RS00605" class="clusterblast-orf" id="dummy-1_h1_5_11"  />
</g>
<g id="a1_0012"  >
<polygon points="450,85 455,80 481,80 481,90 455,90 450,85 " style="fill:#1597d8; stroke-width:1; stroke:black; " description="&lt;b&gt;FSA31_RS00600&lt;/b&gt;&lt;br&gt;XRE/MutR family transcriptional regulator&lt;br&gt;Location: 108327 - 107464&lt;br&gt;&lt;br&gt;&lt;b&gt;BlastP hit with ctg15_4&lt;/b&gt;&lt;br&gt;Percentage identity: 77&lt;br&gt;Percentage coverage: 99&lt;br&gt;BLAST bit score: 437&lt;br&gt;E-value: 3.81e-154" locus_tag="FSA31_RS00600" class="clusterblast-orf" id="dummy-1_h1_5_12"  />
</g>
<g id="a1_0013"  >
<polygon points="485,85 490,80 514,80 514,90 490,90 485,85 " style="fill:white; stroke-width:1; stroke:black; " description="&lt;b&gt;FSA31_RS00595&lt;/b&gt;&lt;br&gt;IS982 family transposase&lt;br&gt;Location: 107344 - 106528" locus_tag="FSA31_RS00595" class="clusterblast-orf" id="dummy-1_h1_5_13"  />
</g>
<g id="a1_0014"  >
<polygon points="521,90 521,90 526,85 521,80 521,80 521,90 " style="fill:white; stroke-width:1; stroke:black; " description="&lt;b&gt;FSA31_RS00590&lt;/b&gt;&lt;br&gt;helix-turn-helix domain-containing protein&lt;br&gt;Location: 106323 - 106173" locus_tag="FSA31_RS00590" class="clusterblast-orf" id="dummy-1_h1_5_14"  />
</g>
<g id="a1_0015"  >
<polygon points="569,85 574,80 625,80 625,90 574,90 569,85 " style="fill:white; stroke-width:1; stroke:black; " description="&lt;b&gt;FSA31_RS00580&lt;/b&gt;&lt;br&gt;CTP synthase&lt;br&gt;Location: 104962 - 103352" locus_tag="FSA31_RS00580" class="clusterblast-orf" id="dummy-1_h1_5_15"  />
</g>
<g id="a1_0016"  >
<polygon points="630,85 635,80 650,80 650,90 635,90 630,85 " style="fill:white; stroke-width:1; stroke:black; " description="&lt;b&gt;FSA31_RS00575&lt;/b&gt;&lt;br&gt;DNA-directed RNA polymerase subunit delta&lt;br&gt;Location: 103218 - 102634" locus_tag="FSA31_RS00575" class="clusterblast-orf" id="dummy-1_h1_5_16"  />
</g>
<g id="a1_0017"  >
<polygon points="667,85 672,80 711,80 711,90 672,90 667,85 " style="fill:white; stroke-width:1; stroke:black; " description="&lt;b&gt;FSA31_RS00570&lt;/b&gt;&lt;br&gt;site-specific integrase&lt;br&gt;Location: 102161 - 100906" locus_tag="FSA31_RS00570" class="clusterblast-orf" id="dummy-1_h1_5_17"  />
</g>
<g id="a1_0018"  >
<polygon points="714,85 719,80 723,80 723,90 719,90 714,85 " style="fill:white; stroke-width:1; stroke:black; " description="&lt;b&gt;FSA31_RS00565&lt;/b&gt;&lt;br&gt;MerR family transcriptional regulator&lt;br&gt;Location: 100818 - 100572" locus_tag="FSA31_RS00565" class="clusterblast-orf" id="dummy-1_h1_5_18"  />
</g>
<g id="a1_0019"  >
<polygon points="722,85 727,80 744,80 744,90 727,90 722,85 " style="fill:white; stroke-width:1; stroke:black; " description="&lt;b&gt;FSA31_RS00560&lt;/b&gt;&lt;br&gt;replication protein&lt;br&gt;Location: 100585 - 99986" locus_tag="FSA31_RS00560" class="clusterblast-orf" id="dummy-1_h1_5_19"  />
</g>
<g id="a1_0020"  >
<polygon points="749,85 754,80 768,80 768,90 754,90 749,85 " style="fill:white; stroke-width:1; stroke:black; " description="&lt;b&gt;FSA31_RS00555&lt;/b&gt;&lt;br&gt;hypothetical protein&lt;br&gt;Location: 99826 - 99278" locus_tag="FSA31_RS00555" class="clusterblast-orf" id="dummy-1_h1_5_20"  />
</g>
<g id="a1_0021"  >
<polygon points="771,85 776,80 780,80 780,90 776,90 771,85 " style="fill:white; stroke-width:1; stroke:black; " description="&lt;b&gt;FSA31_RS00550&lt;/b&gt;&lt;br&gt;hypothetical protein&lt;br&gt;Location: 99210 - 98962" locus_tag="FSA31_RS00550" class="clusterblast-orf" id="dummy-1_h1_5_21"  />
</g>
</svg>
