<svg xmlns="http://www.w3.org/2000/svg" xmlns:xlink="http://www.w3.org/1999/xlink" version="1.1" x="0" y="0" height="230" width="800" viewBox="0 0 800 230" preserveAspectRatio="none"  >
<g label="Query sequence" class="clusterblast-cluster"  >
<text x="5" y="20" class="clusterblast-acc"  >
Query sequence</text>
<line x1="10" y1="35" x2="778.0" y2="35" style="stroke-width:1; stroke:grey; "  />
<polygon points="232,35 237,30 270,30 270,40 237,40 232,35 " style="fill:#d81515; stroke-width:1; stroke:black; " description="&lt;b&gt;ctg82_1&lt;/b&gt;&lt;br&gt;ctg82 1&lt;br&gt;Location: 520 - 1279" locus_tag="ctg82_1" class="clusterblast-orf" id="dummy-1_q0_0_all"  />
<polygon points="270,35 275,30 335,30 335,40 275,40 270,35 " style="fill:#15d815; stroke-width:1; stroke:black; " description="&lt;b&gt;ctg82_2&lt;/b&gt;&lt;br&gt;ctg82 2&lt;br&gt;Location: 1280 - 2594" locus_tag="ctg82_2" class="clusterblast-orf" id="dummy-1_q1_0_all"  />
<polygon points="340,35 345,30 447,30 447,40 345,40 340,35 " style="fill:#1515d8; stroke-width:1; stroke:black; " description="&lt;b&gt;ctg82_3&lt;/b&gt;&lt;br&gt;ctg82 3&lt;br&gt;Location: 2682 - 4854" locus_tag="ctg82_3" class="clusterblast-orf" id="dummy-1_q2_0_all"  />
<polygon points="489,40 512,40 517,35 512,30 489,30 489,40 " style="fill:white; stroke-width:1; stroke:black; " description="&lt;b&gt;ctg82_4&lt;/b&gt;&lt;br&gt;ctg82 4&lt;br&gt;Location: 5685 - 6258" locus_tag="ctg82_4" class="clusterblast-orf" id="dummy-1_q3_0_all"  />
<polygon points="521,40 543,40 548,35 543,30 521,30 521,40 " style="fill:white; stroke-width:1; stroke:black; " description="&lt;b&gt;ctg82_5&lt;/b&gt;&lt;br&gt;ctg82 5&lt;br&gt;Location: 6338 - 6875" locus_tag="ctg82_5" class="clusterblast-orf" id="dummy-1_q4_0_all"  />
</g>
<g label="NZ_NGLI01000002" description="NZ_NGLI01000002 (555810-572363): Enterococcus sp. 3G1 DIV0629 scaffold00002, ... (16% of genes show similarity), RiPP-like" class="clusterblast-cluster"  >
<text x="5" y="70" class="clusterblast-acc"  >
<a xlink:href="https://antismash-db.secondarymetabolites.org/area?record=NZ_NGLI01000002&amp;start=555810&amp;end=572363" target="_blank">NZ_NGLI01000002 (555810-572363)</a>: Enterococcus sp. 3G1 DIV0629 scaffold00002, ... (16% of genes show similarity), RiPP-like</text>
<line x1="10" y1="85" x2="778.0" y2="85" style="stroke-width:1; stroke:grey; "  />
</g>
<g id="a1_000"  >
<polygon points="0,85 5,80 23,80 23,90 5,90 0,85 " style="fill:white; stroke-width:1; stroke:black; " description="&lt;b&gt;A5816_RS11530&lt;/b&gt;&lt;br&gt;PTS sugar transporter subunit IIB&lt;br&gt;Location: 571577 - 571104" locus_tag="A5816_RS11530" class="clusterblast-orf" id="dummy-1_h1_2_0"  />
</g>
<g id="a1_001"  >
<polygon points="24,85 29,80 64,80 64,90 29,90 24,85 " style="fill:white; stroke-width:1; stroke:black; " description="&lt;b&gt;A5816_RS11525&lt;/b&gt;&lt;br&gt;PTS system mannose/fructose/sorbose family transporter subunit IID&lt;br&gt;Location: 571092 - 570274" locus_tag="A5816_RS11525" class="clusterblast-orf" id="dummy-1_h1_2_1"  />
</g>
<g id="a1_002"  >
<polygon points="64,85 69,80 104,80 104,90 69,90 64,85 " style="fill:white; stroke-width:1; stroke:black; " description="&lt;b&gt;A5816_RS11520&lt;/b&gt;&lt;br&gt;PTS sugar transporter subunit IIC&lt;br&gt;Location: 570281 - 569475" locus_tag="A5816_RS11520" class="clusterblast-orf" id="dummy-1_h1_2_2"  />
</g>
<g id="a1_003"  >
<polygon points="136,85 141,80 162,80 162,90 141,90 136,85 " style="fill:white; stroke-width:1; stroke:black; " description="&lt;b&gt;A5816_RS11510&lt;/b&gt;&lt;br&gt;PedC/BrcD family bacteriocin maturation disulfide isomerase&lt;br&gt;Location: 568823 - 568305" locus_tag="A5816_RS11510" class="clusterblast-orf" id="dummy-1_h1_2_3"  />
</g>
<g id="a1_004"  >
<polygon points="163,85 168,80 169,80 169,90 168,90 163,85 " style="fill:white; stroke-width:1; stroke:black; " description="&lt;b&gt;A5816_RS11505&lt;/b&gt;&lt;br&gt;bacteriocin&lt;br&gt;Location: 568288 - 568151" locus_tag="A5816_RS11505" class="clusterblast-orf" id="dummy-1_h1_2_4"  />
</g>
<g id="a1_005"  >
<polygon points="208,85 213,80 217,80 217,90 213,90 208,85 " style="fill:white; stroke-width:1; stroke:black; " description="&lt;b&gt;A5816_RS11495&lt;/b&gt;&lt;br&gt;Blp family class II bacteriocin&lt;br&gt;Location: 567363 - 567181" locus_tag="A5816_RS11495" class="clusterblast-orf" id="dummy-1_h1_2_5"  />
</g>
<g id="a1_006"  >
<polygon points="218,85 223,80 230,80 230,90 223,90 218,85 " style="fill:white; stroke-width:1; stroke:black; " description="&lt;b&gt;A5816_RS11490&lt;/b&gt;&lt;br&gt;Blp family class II bacteriocin&lt;br&gt;Location: 567168 - 566935" locus_tag="A5816_RS11490" class="clusterblast-orf" id="dummy-1_h1_2_6"  />
</g>
<g id="a1_007"  >
<polygon points="298,85 303,80 336,80 336,90 303,90 298,85 " style="fill:#d81515; stroke-width:1; stroke:black; " description="&lt;b&gt;A5816_RS11485&lt;/b&gt;&lt;br&gt;LytTR family DNA-binding domain-containing protein&lt;br&gt;Location: 565557 - 564799&lt;br&gt;&lt;br&gt;&lt;b&gt;BlastP hit with ctg82_1&lt;/b&gt;&lt;br&gt;Percentage identity: 93&lt;br&gt;Percentage coverage: 99&lt;br&gt;BLAST bit score: 460&lt;br&gt;E-value: 1.94e-164" locus_tag="A5816_RS11485" class="clusterblast-orf" id="dummy-1_h1_2_7"  />
</g>
<g id="a1_008"  >
<polygon points="336,85 341,80 383,80 383,90 341,90 336,85 " style="fill:#15d815; stroke-width:1; stroke:black; " description="&lt;b&gt;A5816_RS11480&lt;/b&gt;&lt;br&gt;GHKL domain-containing protein&lt;br&gt;Location: 564797 - 563847&lt;br&gt;&lt;br&gt;&lt;b&gt;BlastP hit with ctg82_2&lt;/b&gt;&lt;br&gt;Percentage identity: 88&lt;br&gt;Percentage coverage: 72&lt;br&gt;BLAST bit score: 527&lt;br&gt;E-value: 6.04e-187" locus_tag="A5816_RS11480" class="clusterblast-orf" id="dummy-1_h1_2_8"  />
</g>
<g id="a1_009"  >
<polygon points="405,85 410,80 513,80 513,90 410,90 405,85 " style="fill:#1515d8; stroke-width:1; stroke:black; " description="&lt;b&gt;A5816_RS11475&lt;/b&gt;&lt;br&gt;peptide cleavage/export ABC transporter&lt;br&gt;Location: 563392 - 561221&lt;br&gt;&lt;br&gt;&lt;b&gt;BlastP hit with ctg82_3&lt;/b&gt;&lt;br&gt;Percentage identity: 91&lt;br&gt;Percentage coverage: 100&lt;br&gt;BLAST bit score: 1263&lt;br&gt;E-value: 0.0" locus_tag="A5816_RS11475" class="clusterblast-orf" id="dummy-1_h1_2_9"  />
</g>
<g id="a1_0010"  >
<polygon points="527,90 528,90 533,85 528,80 527,80 527,90 " style="fill:white; stroke-width:1; stroke:black; " description="&lt;b&gt;A5816_RS11470&lt;/b&gt;&lt;br&gt;hypothetical protein&lt;br&gt;Location: 560945 - 560811" locus_tag="A5816_RS11470" class="clusterblast-orf" id="dummy-1_h1_2_10"  />
</g>
<g id="a1_0011"  >
<polygon points="537,90 539,90 544,85 539,80 537,80 537,90 " style="fill:white; stroke-width:1; stroke:black; " description="&lt;b&gt;A5816_RS11465&lt;/b&gt;&lt;br&gt;class IIb bacteriocin, lactobin A/cerein 7B family&lt;br&gt;Location: 560735 - 560592" locus_tag="A5816_RS11465" class="clusterblast-orf" id="dummy-1_h1_2_11"  />
</g>
<g id="a1_0012"  >
<polygon points="545,90 557,90 562,85 557,80 545,80 545,90 " style="fill:white; stroke-width:1; stroke:black; " description="&lt;b&gt;A5816_RS11460&lt;/b&gt;&lt;br&gt;hypothetical protein&lt;br&gt;Location: 560570 - 560232" locus_tag="A5816_RS11460" class="clusterblast-orf" id="dummy-1_h1_2_12"  />
</g>
<g id="a1_0013"  >
<polygon points="593,90 604,90 609,85 604,80 593,80 593,90 " style="fill:white; stroke-width:1; stroke:black; " description="&lt;b&gt;A5816_RS11455&lt;/b&gt;&lt;br&gt;tyrosine-type recombinase/integrase&lt;br&gt;Location: 559600 - 559279" locus_tag="A5816_RS11455" class="clusterblast-orf" id="dummy-1_h1_2_13"  />
</g>
<g id="a1_0014"  >
<polygon points="612,85 617,80 632,80 632,90 617,90 612,85 " style="fill:white; stroke-width:1; stroke:black; " description="&lt;b&gt;A5816_RS11450&lt;/b&gt;&lt;br&gt;30S ribosomal protein S9&lt;br&gt;Location: 559219 - 558827" locus_tag="A5816_RS11450" class="clusterblast-orf" id="dummy-1_h1_2_14"  />
</g>
<g id="a1_0015"  >
<polygon points="632,85 637,80 654,80 654,90 637,90 632,85 " style="fill:white; stroke-width:1; stroke:black; " description="&lt;b&gt;A5816_RS11445&lt;/b&gt;&lt;br&gt;50S ribosomal protein L13&lt;br&gt;Location: 558811 - 558368" locus_tag="A5816_RS11445" class="clusterblast-orf" id="dummy-1_h1_2_15"  />
</g>
<g id="a1_0016"  >
<polygon points="674,85 679,80 697,80 697,90 679,90 674,85 " style="fill:white; stroke-width:1; stroke:black; " description="&lt;b&gt;A5816_RS11440&lt;/b&gt;&lt;br&gt;DNA starvation/stationary phase protection protein&lt;br&gt;Location: 557970 - 557503" locus_tag="A5816_RS11440" class="clusterblast-orf" id="dummy-1_h1_2_16"  />
</g>
<g id="a1_0017"  >
<polygon points="703,85 708,80 780,80 780,90 708,90 703,85 " style="fill:white; stroke-width:1; stroke:black; " description="&lt;b&gt;A5816_RS11435&lt;/b&gt;&lt;br&gt;gluconokinase&lt;br&gt;Location: 557383 - 555845" locus_tag="A5816_RS11435" class="clusterblast-orf" id="dummy-1_h1_2_17"  />
</g>
</svg>
