<svg xmlns="http://www.w3.org/2000/svg" xmlns:xlink="http://www.w3.org/1999/xlink" version="1.1" x="0" y="0" height="350" width="800" viewBox="0 0 800 350" preserveAspectRatio="none"  >
<g label="Query sequence" class="clusterblast-cluster"  >
<text x="5" y="20" class="clusterblast-acc"  >
Query sequence</text>
<line x1="10" y1="35" x2="778.0" y2="35" style="stroke-width:1; stroke:grey; "  />
<polygon points="274,40 279,40 284,35 279,30 274,30 274,40 " style="fill:#d81515; stroke-width:1; stroke:black; " description="&lt;b&gt;ctg59_1&lt;/b&gt;&lt;br&gt;ctg59 1&lt;br&gt;Location: 603 - 801" locus_tag="ctg59_1" class="clusterblast-orf" id="general-1_q0_0_all"  />
<polygon points="284,40 288,40 293,35 288,30 284,30 284,40 " style="fill:#15d815; stroke-width:1; stroke:black; " description="&lt;b&gt;ctg59_2&lt;/b&gt;&lt;br&gt;ctg59 2&lt;br&gt;Location: 813 - 996" locus_tag="ctg59_2" class="clusterblast-orf" id="general-1_q1_0_all"  />
<polygon points="329,40 331,40 336,35 331,30 329,30 329,40 " style="fill:#1515d8; stroke-width:1; stroke:black; " description="&lt;b&gt;ctg59_3&lt;/b&gt;&lt;br&gt;ctg59 3&lt;br&gt;Location: 1736 - 1877" locus_tag="ctg59_3" class="clusterblast-orf" id="general-1_q2_0_all"  />
<polygon points="381,40 413,40 418,35 413,30 381,30 381,40 " style="fill:white; stroke-width:1; stroke:black; " description="&lt;b&gt;ctg59_4&lt;/b&gt;&lt;br&gt;ctg59 4&lt;br&gt;Location: 2811 - 3564" locus_tag="ctg59_4" class="clusterblast-orf" id="general-1_q3_0_all"  />
<polygon points="421,40 449,40 454,35 449,30 421,30 421,40 " style="fill:#d815d8; stroke-width:1; stroke:black; " description="&lt;b&gt;ctg59_5&lt;/b&gt;&lt;br&gt;ctg59 5&lt;br&gt;Location: 3628 - 4309" locus_tag="ctg59_5" class="clusterblast-orf" id="general-1_q4_0_all"  />
<polygon points="454,40 492,40 497,35 492,30 454,30 454,40 " style="fill:#d8d815; stroke-width:1; stroke:black; " description="&lt;b&gt;ctg59_6&lt;/b&gt;&lt;br&gt;ctg59 6&lt;br&gt;Location: 4317 - 5208" locus_tag="ctg59_6" class="clusterblast-orf" id="general-1_q5_0_all"  />
<polygon points="497,40 501,40 506,35 501,30 497,30 497,40 " style="fill:#15d8d8; stroke-width:1; stroke:black; " description="&lt;b&gt;ctg59_7&lt;/b&gt;&lt;br&gt;ctg59 7&lt;br&gt;Location: 5209 - 5377" locus_tag="ctg59_7" class="clusterblast-orf" id="general-1_q6_0_all"  />
</g>
<g label="NZ_NGLI01000002" description="NZ_NGLI01000002 (555810-572363): Enterococcus sp. 3G1 DIV0629 scaffold00002, ... (11% of genes show similarity), RiPP-like" class="clusterblast-cluster"  >
<text x="5" y="70" class="clusterblast-acc"  >
<a xlink:href="https://antismash-db.secondarymetabolites.org/area?record=NZ_NGLI01000002&amp;start=555810&amp;end=572363" target="_blank">NZ_NGLI01000002 (555810-572363)</a>: Enterococcus sp. 3G1 DIV0629 scaffold00002, ... (11% of genes show similarity), RiPP-like</text>
<line x1="10" y1="85" x2="778.0" y2="85" style="stroke-width:1; stroke:grey; "  />
</g>
<g id="a1_000"  >
<polygon points="8,90 78,90 83,85 78,80 8,80 8,90 " style="fill:white; stroke-width:1; stroke:black; " description="&lt;b&gt;A5816_RS11435&lt;/b&gt;&lt;br&gt;gluconokinase&lt;br&gt;Location: 555845 - 557383" locus_tag="A5816_RS11435" class="clusterblast-orf" id="general-1_all_1_1_0"  />
</g>
<g id="a1_001"  >
<polygon points="89,90 106,90 111,85 106,80 89,80 89,90 " style="fill:white; stroke-width:1; stroke:black; " description="&lt;b&gt;A5816_RS11440&lt;/b&gt;&lt;br&gt;DNA starvation/stationary phase protection protein&lt;br&gt;Location: 557503 - 557970" locus_tag="A5816_RS11440" class="clusterblast-orf" id="general-1_all_1_1_1"  />
</g>
<g id="a1_002"  >
<polygon points="131,90 147,90 152,85 147,80 131,80 131,90 " style="fill:white; stroke-width:1; stroke:black; " description="&lt;b&gt;A5816_RS11445&lt;/b&gt;&lt;br&gt;50S ribosomal protein L13&lt;br&gt;Location: 558368 - 558811" locus_tag="A5816_RS11445" class="clusterblast-orf" id="general-1_all_1_1_2"  />
</g>
<g id="a1_003"  >
<polygon points="153,90 167,90 172,85 167,80 153,80 153,90 " style="fill:white; stroke-width:1; stroke:black; " description="&lt;b&gt;A5816_RS11450&lt;/b&gt;&lt;br&gt;30S ribosomal protein S9&lt;br&gt;Location: 558827 - 559219" locus_tag="A5816_RS11450" class="clusterblast-orf" id="general-1_all_1_1_3"  />
</g>
<g id="a1_004"  >
<polygon points="175,85 180,80 190,80 190,90 180,90 175,85 " style="fill:white; stroke-width:1; stroke:black; " description="&lt;b&gt;A5816_RS11455&lt;/b&gt;&lt;br&gt;tyrosine-type recombinase/integrase&lt;br&gt;Location: 559279 - 559600" locus_tag="A5816_RS11455" class="clusterblast-orf" id="general-1_all_1_1_4"  />
</g>
<g id="a1_005"  >
<polygon points="221,85 226,80 237,80 237,90 226,90 221,85 " style="fill:white; stroke-width:1; stroke:black; " description="&lt;b&gt;A5816_RS11460&lt;/b&gt;&lt;br&gt;hypothetical protein&lt;br&gt;Location: 560232 - 560570" locus_tag="A5816_RS11460" class="clusterblast-orf" id="general-1_all_1_1_5"  />
</g>
<g id="a1_006"  >
<polygon points="238,85 243,80 245,80 245,90 243,90 238,85 " style="fill:white; stroke-width:1; stroke:black; " description="&lt;b&gt;A5816_RS11465&lt;/b&gt;&lt;br&gt;class IIb bacteriocin, lactobin A/cerein 7B family&lt;br&gt;Location: 560592 - 560735" locus_tag="A5816_RS11465" class="clusterblast-orf" id="general-1_all_1_1_6"  />
</g>
<g id="a1_007"  >
<polygon points="249,85 254,80 255,80 255,90 254,90 249,85 " style="fill:white; stroke-width:1; stroke:black; " description="&lt;b&gt;A5816_RS11470&lt;/b&gt;&lt;br&gt;hypothetical protein&lt;br&gt;Location: 560811 - 560945" locus_tag="A5816_RS11470" class="clusterblast-orf" id="general-1_all_1_1_7"  />
</g>
<g id="a1_008"  >
<polygon points="269,90 369,90 374,85 369,80 269,80 269,90 " style="fill:white; stroke-width:1; stroke:black; " description="&lt;b&gt;A5816_RS11475&lt;/b&gt;&lt;br&gt;peptide cleavage/export ABC transporter&lt;br&gt;Location: 561221 - 563392" locus_tag="A5816_RS11475" class="clusterblast-orf" id="general-1_all_1_1_8"  />
</g>
<g id="a1_009"  >
<polygon points="396,90 437,90 442,85 437,80 396,80 396,90 " style="fill:white; stroke-width:1; stroke:black; " description="&lt;b&gt;A5816_RS11480&lt;/b&gt;&lt;br&gt;GHKL domain-containing protein&lt;br&gt;Location: 563847 - 564797" locus_tag="A5816_RS11480" class="clusterblast-orf" id="general-1_all_1_1_9"  />
</g>
<g id="a1_0010"  >
<polygon points="442,90 474,90 479,85 474,80 442,80 442,90 " style="fill:white; stroke-width:1; stroke:black; " description="&lt;b&gt;A5816_RS11485&lt;/b&gt;&lt;br&gt;LytTR family DNA-binding domain-containing protein&lt;br&gt;Location: 564799 - 565557" locus_tag="A5816_RS11485" class="clusterblast-orf" id="general-1_all_1_1_10"  />
</g>
<g id="a1_0011"  >
<polygon points="546,90 552,90 557,85 552,80 546,80 546,90 " style="fill:white; stroke-width:1; stroke:black; " description="&lt;b&gt;A5816_RS11490&lt;/b&gt;&lt;br&gt;Blp family class II bacteriocin&lt;br&gt;Location: 566935 - 567168" locus_tag="A5816_RS11490" class="clusterblast-orf" id="general-1_all_1_1_11"  />
</g>
<g id="a1_0012"  >
<polygon points="558,90 561,90 566,85 561,80 558,80 558,90 " style="fill:#15d815; stroke-width:1; stroke:black; " description="&lt;b&gt;A5816_RS11495&lt;/b&gt;&lt;br&gt;Blp family class II bacteriocin&lt;br&gt;Location: 567181 - 567363&lt;br&gt;&lt;br&gt;&lt;b&gt;BlastP hit with ctg59_2&lt;/b&gt;&lt;br&gt;Percentage identity: 85&lt;br&gt;Percentage coverage: 100&lt;br&gt;BLAST bit score: 81&lt;br&gt;E-value: 2.91e-20" locus_tag="A5816_RS11495" class="clusterblast-orf" id="general-1_all_1_1_12"  />
</g>
<g id="a1_0013"  >
<polygon points="605,90 606,90 611,85 606,80 605,80 605,90 " style="fill:#1515d8; stroke-width:1; stroke:black; " description="&lt;b&gt;A5816_RS11505&lt;/b&gt;&lt;br&gt;bacteriocin&lt;br&gt;Location: 568151 - 568288&lt;br&gt;&lt;br&gt;&lt;b&gt;BlastP hit with ctg59_3&lt;/b&gt;&lt;br&gt;Percentage identity: 85&lt;br&gt;Percentage coverage: 100&lt;br&gt;BLAST bit score: 78&lt;br&gt;E-value: 9.32e-20" locus_tag="A5816_RS11505" class="clusterblast-orf" id="general-1_all_1_1_13"  />
</g>
<g id="a1_0014"  >
<polygon points="612,90 632,90 637,85 632,80 612,80 612,90 " style="fill:white; stroke-width:1; stroke:black; " description="&lt;b&gt;A5816_RS11510&lt;/b&gt;&lt;br&gt;PedC/BrcD family bacteriocin maturation disulfide isomerase&lt;br&gt;Location: 568305 - 568823" locus_tag="A5816_RS11510" class="clusterblast-orf" id="general-1_all_1_1_14"  />
</g>
<g id="a1_0015"  >
<polygon points="669,90 703,90 708,85 703,80 669,80 669,90 " style="fill:white; stroke-width:1; stroke:black; " description="&lt;b&gt;A5816_RS11520&lt;/b&gt;&lt;br&gt;PTS sugar transporter subunit IIC&lt;br&gt;Location: 569475 - 570281" locus_tag="A5816_RS11520" class="clusterblast-orf" id="general-1_all_1_1_15"  />
</g>
<g id="a1_0016"  >
<polygon points="707,90 742,90 747,85 742,80 707,80 707,90 " style="fill:white; stroke-width:1; stroke:black; " description="&lt;b&gt;A5816_RS11525&lt;/b&gt;&lt;br&gt;PTS system mannose/fructose/sorbose family transporter subunit IID&lt;br&gt;Location: 570274 - 571092" locus_tag="A5816_RS11525" class="clusterblast-orf" id="general-1_all_1_1_16"  />
</g>
<g id="a1_0017"  >
<polygon points="748,90 766,90 771,85 766,80 748,80 748,90 " style="fill:white; stroke-width:1; stroke:black; " description="&lt;b&gt;A5816_RS11530&lt;/b&gt;&lt;br&gt;PTS sugar transporter subunit IIB&lt;br&gt;Location: 571104 - 571577" locus_tag="A5816_RS11530" class="clusterblast-orf" id="general-1_all_1_1_17"  />
</g>
<g label="NZ_CP078505" description="NZ_CP078505 (3139533-3154876): Enterococcus gallinarum strain fecal iso1 chro... (13% of genes show similarity), RiPP-like" class="clusterblast-cluster"  >
<text x="5" y="120" class="clusterblast-acc"  >
<a xlink:href="https://antismash-db.secondarymetabolites.org/area?record=NZ_CP078505&amp;start=3139533&amp;end=3154876" target="_blank">NZ_CP078505 (3139533-3154876)</a>: Enterococcus gallinarum strain fecal iso1 chro... (13% of genes show similarity), RiPP-like</text>
<line x1="10" y1="135" x2="778.0" y2="135" style="stroke-width:1; stroke:grey; "  />
</g>
<g id="a1_000"  >
<polygon points="35,140 88,140 93,135 88,130 35,130 35,140 " style="fill:white; stroke-width:1; stroke:black; " description="&lt;b&gt;KW861_RS14685&lt;/b&gt;&lt;br&gt;SIR2 family protein&lt;br&gt;Location: 3154264 - 3153068" locus_tag="KW861_RS14685" class="clusterblast-orf" id="general-1_all_1_2_0"  />
</g>
<g id="a1_001"  >
<polygon points="93,140 182,140 187,135 182,130 93,130 93,140 " style="fill:white; stroke-width:1; stroke:black; " description="&lt;b&gt;KW861_RS14680&lt;/b&gt;&lt;br&gt;DUF87 domain-containing protein&lt;br&gt;Location: 3153067 - 3151145" locus_tag="KW861_RS14680" class="clusterblast-orf" id="general-1_all_1_2_1"  />
</g>
<g id="a1_002"  >
<polygon points="203,135 208,130 208,130 208,140 208,140 203,135 " style="fill:white; stroke-width:1; stroke:black; " description="&lt;b&gt;KW861_RS14675&lt;/b&gt;&lt;br&gt;type I toxin-antitoxin system Fst family toxin&lt;br&gt;Location: 3150802 - 3150710" locus_tag="KW861_RS14675" class="clusterblast-orf" id="general-1_all_1_2_2"  />
</g>
<g id="a1_003"  >
<polygon points="248,140 348,140 353,135 348,130 248,130 248,140 " style="fill:white; stroke-width:1; stroke:black; " description="&lt;b&gt;KW861_RS14670&lt;/b&gt;&lt;br&gt;peptide cleavage/export ABC transporter&lt;br&gt;Location: 3149876 - 3147705" locus_tag="KW861_RS14670" class="clusterblast-orf" id="general-1_all_1_2_3"  />
</g>
<g id="a1_004"  >
<polygon points="358,140 416,140 421,135 416,130 358,130 358,140 " style="fill:white; stroke-width:1; stroke:black; " description="&lt;b&gt;KW861_RS14665&lt;/b&gt;&lt;br&gt;GHKL domain-containing protein&lt;br&gt;Location: 3147613 - 3146297" locus_tag="KW861_RS14665" class="clusterblast-orf" id="general-1_all_1_2_4"  />
</g>
<g id="a1_005"  >
<polygon points="422,140 452,140 457,135 452,130 422,130 422,140 " style="fill:white; stroke-width:1; stroke:black; " description="&lt;b&gt;KW861_RS14660&lt;/b&gt;&lt;br&gt;LytTR family DNA-binding domain-containing protein&lt;br&gt;Location: 3146291 - 3145554" locus_tag="KW861_RS14660" class="clusterblast-orf" id="general-1_all_1_2_5"  />
</g>
<g id="a1_006"  >
<polygon points="467,140 469,140 474,135 469,130 467,130 467,140 " style="fill:white; stroke-width:1; stroke:black; " description="&lt;b&gt;KW861_RS14655&lt;/b&gt;&lt;br&gt;hypothetical protein&lt;br&gt;Location: 3145346 - 3145209" locus_tag="KW861_RS14655" class="clusterblast-orf" id="general-1_all_1_2_6"  />
</g>
<g id="a1_007"  >
<polygon points="486,140 492,140 497,135 492,130 486,130 486,140 " style="fill:#d81515; stroke-width:1; stroke:black; " description="&lt;b&gt;KW861_RS14650&lt;/b&gt;&lt;br&gt;Blp family class II bacteriocin&lt;br&gt;Location: 3144962 - 3144729&lt;br&gt;&lt;br&gt;&lt;b&gt;BlastP hit with ctg59_1&lt;/b&gt;&lt;br&gt;Percentage identity: 92&lt;br&gt;Percentage coverage: 95&lt;br&gt;BLAST bit score: 49&lt;br&gt;E-value: 1.64e-07" locus_tag="KW861_RS14650" class="clusterblast-orf" id="general-1_all_1_2_7"  />
</g>
<g id="a1_008"  >
<polygon points="498,140 502,140 507,135 502,130 498,130 498,140 " style="fill:#15d815; stroke-width:1; stroke:black; " description="&lt;b&gt;KW861_RS14645&lt;/b&gt;&lt;br&gt;Blp family class II bacteriocin&lt;br&gt;Location: 3144716 - 3144534&lt;br&gt;&lt;br&gt;&lt;b&gt;BlastP hit with ctg59_2&lt;/b&gt;&lt;br&gt;Percentage identity: 83&lt;br&gt;Percentage coverage: 100&lt;br&gt;BLAST bit score: 80&lt;br&gt;E-value: 5.87e-20" locus_tag="KW861_RS14645" class="clusterblast-orf" id="general-1_all_1_2_8"  />
</g>
<g id="a1_009"  >
<polygon points="524,140 543,140 548,135 543,130 524,130 524,140 " style="fill:white; stroke-width:1; stroke:black; " description="&lt;b&gt;KW861_RS14640&lt;/b&gt;&lt;br&gt;PedC/BrcD family bacteriocin maturation disulfide isomerase&lt;br&gt;Location: 3144189 - 3143680" locus_tag="KW861_RS14640" class="clusterblast-orf" id="general-1_all_1_2_9"  />
</g>
<g id="a1_0010"  >
<polygon points="560,135 565,130 581,130 581,140 565,140 560,135 " style="fill:white; stroke-width:1; stroke:black; " description="&lt;b&gt;KW861_RS14635&lt;/b&gt;&lt;br&gt;helix-turn-helix domain-containing protein&lt;br&gt;Location: 3143439 - 3143005" locus_tag="KW861_RS14635" class="clusterblast-orf" id="general-1_all_1_2_10"  />
</g>
<g id="a1_0011"  >
<polygon points="588,140 606,140 611,135 606,130 588,130 588,140 " style="fill:white; stroke-width:1; stroke:black; " description="&lt;b&gt;KW861_RS14630&lt;/b&gt;&lt;br&gt;hypothetical protein&lt;br&gt;Location: 3142861 - 3142391" locus_tag="KW861_RS14630" class="clusterblast-orf" id="general-1_all_1_2_11"  />
</g>
<g id="a1_0012"  >
<polygon points="620,140 668,140 673,135 668,130 620,130 620,140 " style="fill:white; stroke-width:1; stroke:black; " description="&lt;b&gt;KW861_RS14625&lt;/b&gt;&lt;br&gt;replication initiation factor domain-containing protein&lt;br&gt;Location: 3142192 - 3141098" locus_tag="KW861_RS14625" class="clusterblast-orf" id="general-1_all_1_2_12"  />
</g>
<g id="a1_0013"  >
<polygon points="676,140 682,140 687,135 682,130 676,130 676,140 " style="fill:white; stroke-width:1; stroke:black; " description="&lt;b&gt;KW861_RS14620&lt;/b&gt;&lt;br&gt;DUF3173 domain-containing protein&lt;br&gt;Location: 3141033 - 3140815" locus_tag="KW861_RS14620" class="clusterblast-orf" id="general-1_all_1_2_13"  />
</g>
<g id="a1_0014"  >
<polygon points="686,140 739,140 744,135 739,130 686,130 686,140 " style="fill:white; stroke-width:1; stroke:black; " description="&lt;b&gt;KW861_RS14615&lt;/b&gt;&lt;br&gt;site-specific integrase&lt;br&gt;Location: 3140831 - 3139647" locus_tag="KW861_RS14615" class="clusterblast-orf" id="general-1_all_1_2_14"  />
</g>
<g label="NZ_KZ846093" description="NZ_KZ846093 (59374-74717): Enterococcus faecium strain 131EA1 aekeh-supercont... (14% of genes show similarity), RiPP-like" class="clusterblast-cluster"  >
<text x="5" y="170" class="clusterblast-acc"  >
<a xlink:href="https://antismash-db.secondarymetabolites.org/area?record=NZ_KZ846093&amp;start=59374&amp;end=74717" target="_blank">NZ_KZ846093 (59374-74717)</a>: Enterococcus faecium strain 131EA1 aekeh-supercont... (14% of genes show similarity), RiPP-like</text>
<line x1="10" y1="185" x2="778.0" y2="185" style="stroke-width:1; stroke:grey; "  />
</g>
<g id="a1_000"  >
<polygon points="35,190 45,190 50,185 45,180 35,180 35,190 " style="fill:white; stroke-width:1; stroke:black; " description="&lt;b&gt;EB12_RS07165&lt;/b&gt;&lt;br&gt;PTS lactose/cellobiose transporter subunit IIA&lt;br&gt;Location: 59837 - 60154" locus_tag="EB12_RS07165" class="clusterblast-orf" id="general-1_all_1_3_0"  />
</g>
<g id="a1_001"  >
<polygon points="51,190 127,190 132,185 127,180 51,180 51,190 " style="fill:white; stroke-width:1; stroke:black; " description="&lt;b&gt;EB12_RS07170&lt;/b&gt;&lt;br&gt;PTS lactose transporter subunit IIBC&lt;br&gt;Location: 60167 - 61840" locus_tag="EB12_RS07170" class="clusterblast-orf" id="general-1_all_1_3_1"  />
</g>
<g id="a1_002"  >
<polygon points="132,190 206,190 211,185 206,180 132,180 132,190 " style="fill:white; stroke-width:1; stroke:black; " description="&lt;b&gt;EB12_RS07175&lt;/b&gt;&lt;br&gt;glycosyl hydrolase 53 family protein&lt;br&gt;Location: 61854 - 63485" locus_tag="EB12_RS07175" class="clusterblast-orf" id="general-1_all_1_3_2"  />
</g>
<g id="a1_003"  >
<polygon points="254,190 355,190 360,185 355,180 254,180 254,190 " style="fill:white; stroke-width:1; stroke:black; " description="&lt;b&gt;EB12_RS07180&lt;/b&gt;&lt;br&gt;peptide cleavage/export ABC transporter&lt;br&gt;Location: 64375 - 66546" locus_tag="EB12_RS07180" class="clusterblast-orf" id="general-1_all_1_3_3"  />
</g>
<g id="a1_004"  >
<polygon points="364,190 423,190 428,185 423,180 364,180 364,190 " style="fill:white; stroke-width:1; stroke:black; " description="&lt;b&gt;EB12_RS07185&lt;/b&gt;&lt;br&gt;GHKL domain-containing protein&lt;br&gt;Location: 66638 - 67954" locus_tag="EB12_RS07185" class="clusterblast-orf" id="general-1_all_1_3_4"  />
</g>
<g id="a1_005"  >
<polygon points="428,190 459,190 464,185 459,180 428,180 428,190 " style="fill:white; stroke-width:1; stroke:black; " description="&lt;b&gt;EB12_RS07190&lt;/b&gt;&lt;br&gt;LytTR family DNA-binding domain-containing protein&lt;br&gt;Location: 67960 - 68697" locus_tag="EB12_RS07190" class="clusterblast-orf" id="general-1_all_1_3_5"  />
</g>
<g id="a1_006"  >
<polygon points="474,190 476,190 481,185 476,180 474,180 474,190 " style="fill:white; stroke-width:1; stroke:black; " description="&lt;b&gt;EB12_RS15615&lt;/b&gt;&lt;br&gt;hypothetical protein&lt;br&gt;Location: 68905 - 69042" locus_tag="EB12_RS15615" class="clusterblast-orf" id="general-1_all_1_3_6"  />
</g>
<g id="a1_007"  >
<polygon points="493,190 499,190 504,185 499,180 493,180 493,190 " style="fill:#d81515; stroke-width:1; stroke:black; " description="&lt;b&gt;EB12_RS07195&lt;/b&gt;&lt;br&gt;Blp family class II bacteriocin&lt;br&gt;Location: 69289 - 69522&lt;br&gt;&lt;br&gt;&lt;b&gt;BlastP hit with ctg59_1&lt;/b&gt;&lt;br&gt;Percentage identity: 92&lt;br&gt;Percentage coverage: 95&lt;br&gt;BLAST bit score: 49&lt;br&gt;E-value: 1.64e-07" locus_tag="EB12_RS07195" class="clusterblast-orf" id="general-1_all_1_3_7"  />
</g>
<g id="a1_008"  >
<polygon points="504,190 508,190 513,185 508,180 504,180 504,190 " style="fill:#15d815; stroke-width:1; stroke:black; " description="&lt;b&gt;EB12_RS07200&lt;/b&gt;&lt;br&gt;Blp family class II bacteriocin&lt;br&gt;Location: 69535 - 69717&lt;br&gt;&lt;br&gt;&lt;b&gt;BlastP hit with ctg59_2&lt;/b&gt;&lt;br&gt;Percentage identity: 83&lt;br&gt;Percentage coverage: 100&lt;br&gt;BLAST bit score: 80&lt;br&gt;E-value: 5.87e-20" locus_tag="EB12_RS07200" class="clusterblast-orf" id="general-1_all_1_3_8"  />
</g>
<g id="a1_009"  >
<polygon points="535,190 587,190 592,185 587,180 535,180 535,190 " style="fill:white; stroke-width:1; stroke:black; " description="&lt;b&gt;EB12_RS07205&lt;/b&gt;&lt;br&gt;IS256-like element IS256 family transposase&lt;br&gt;Location: 70165 - 71337" locus_tag="EB12_RS07205" class="clusterblast-orf" id="general-1_all_1_3_9"  />
</g>
<g id="a1_0010"  >
<polygon points="594,190 614,190 619,185 614,180 594,180 594,190 " style="fill:white; stroke-width:1; stroke:black; " description="&lt;b&gt;EB12_RS07210&lt;/b&gt;&lt;br&gt;PedC/BrcD family bacteriocin maturation disulfide isomerase&lt;br&gt;Location: 71382 - 71903" locus_tag="EB12_RS07210" class="clusterblast-orf" id="general-1_all_1_3_10"  />
</g>
<g id="a1_0011"  >
<polygon points="631,185 636,180 652,180 652,190 636,190 631,185 " style="fill:white; stroke-width:1; stroke:black; " description="&lt;b&gt;EB12_RS07215&lt;/b&gt;&lt;br&gt;helix-turn-helix domain-containing protein&lt;br&gt;Location: 72144 - 72578" locus_tag="EB12_RS07215" class="clusterblast-orf" id="general-1_all_1_3_11"  />
</g>
<g id="a1_0012"  >
<polygon points="659,190 677,190 682,185 677,180 659,180 659,190 " style="fill:white; stroke-width:1; stroke:black; " description="&lt;b&gt;EB12_RS07220&lt;/b&gt;&lt;br&gt;hypothetical protein&lt;br&gt;Location: 72722 - 73192" locus_tag="EB12_RS07220" class="clusterblast-orf" id="general-1_all_1_3_12"  />
</g>
<g id="a1_0013"  >
<polygon points="691,190 739,190 744,185 739,180 691,180 691,190 " style="fill:white; stroke-width:1; stroke:black; " description="&lt;b&gt;EB12_RS07225&lt;/b&gt;&lt;br&gt;replication initiation factor domain-containing protein&lt;br&gt;Location: 73391 - 74485" locus_tag="EB12_RS07225" class="clusterblast-orf" id="general-1_all_1_3_13"  />
</g>
<g label="NZ_KZ846230" description="NZ_KZ846230 (55734-72409): Enterococcus faecium strain 235EA1 aekdA-supercont... (13% of genes show similarity), RiPP-like" class="clusterblast-cluster"  >
<text x="5" y="220" class="clusterblast-acc"  >
<a xlink:href="https://antismash-db.secondarymetabolites.org/area?record=NZ_KZ846230&amp;start=55734&amp;end=72409" target="_blank">NZ_KZ846230 (55734-72409)</a>: Enterococcus faecium strain 235EA1 aekdA-supercont... (13% of genes show similarity), RiPP-like</text>
<line x1="10" y1="235" x2="778.0" y2="235" style="stroke-width:1; stroke:grey; "  />
</g>
<g id="a1_000"  >
<polygon points="0,240 10,240 15,235 10,230 0,230 0,240 " style="fill:white; stroke-width:1; stroke:black; " description="&lt;b&gt;EB33_RS09775&lt;/b&gt;&lt;br&gt;PTS lactose/cellobiose transporter subunit IIA&lt;br&gt;Location: 56197 - 56514" locus_tag="EB33_RS09775" class="clusterblast-orf" id="general-1_all_1_4_0"  />
</g>
<g id="a1_001"  >
<polygon points="15,240 92,240 97,235 92,230 15,230 15,240 " style="fill:white; stroke-width:1; stroke:black; " description="&lt;b&gt;EB33_RS09780&lt;/b&gt;&lt;br&gt;PTS lactose transporter subunit IIBC&lt;br&gt;Location: 56527 - 58200" locus_tag="EB33_RS09780" class="clusterblast-orf" id="general-1_all_1_4_1"  />
</g>
<g id="a1_002"  >
<polygon points="97,240 171,240 176,235 171,230 97,230 97,240 " style="fill:white; stroke-width:1; stroke:black; " description="&lt;b&gt;EB33_RS09785&lt;/b&gt;&lt;br&gt;glycosyl hydrolase 53 family protein&lt;br&gt;Location: 58214 - 59845" locus_tag="EB33_RS09785" class="clusterblast-orf" id="general-1_all_1_4_2"  />
</g>
<g id="a1_003"  >
<polygon points="219,240 320,240 325,235 320,230 219,230 219,240 " style="fill:white; stroke-width:1; stroke:black; " description="&lt;b&gt;EB33_RS09790&lt;/b&gt;&lt;br&gt;peptide cleavage/export ABC transporter&lt;br&gt;Location: 60735 - 62906" locus_tag="EB33_RS09790" class="clusterblast-orf" id="general-1_all_1_4_3"  />
</g>
<g id="a1_004"  >
<polygon points="329,240 388,240 393,235 388,230 329,230 329,240 " style="fill:white; stroke-width:1; stroke:black; " description="&lt;b&gt;EB33_RS09795&lt;/b&gt;&lt;br&gt;GHKL domain-containing protein&lt;br&gt;Location: 62998 - 64314" locus_tag="EB33_RS09795" class="clusterblast-orf" id="general-1_all_1_4_4"  />
</g>
<g id="a1_005"  >
<polygon points="393,240 424,240 429,235 424,230 393,230 393,240 " style="fill:white; stroke-width:1; stroke:black; " description="&lt;b&gt;EB33_RS09800&lt;/b&gt;&lt;br&gt;LytTR family DNA-binding domain-containing protein&lt;br&gt;Location: 64320 - 65057" locus_tag="EB33_RS09800" class="clusterblast-orf" id="general-1_all_1_4_5"  />
</g>
<g id="a1_006"  >
<polygon points="442,235 447,230 499,230 499,240 447,240 442,235 " style="fill:white; stroke-width:1; stroke:black; " description="&lt;b&gt;EB33_RS09805&lt;/b&gt;&lt;br&gt;IS256-like element IS1542 family transposase&lt;br&gt;Location: 65334 - 66506" locus_tag="EB33_RS09805" class="clusterblast-orf" id="general-1_all_1_4_6"  />
</g>
<g id="a1_007"  >
<polygon points="522,240 528,240 533,235 528,230 522,230 522,240 " style="fill:#d81515; stroke-width:1; stroke:black; " description="&lt;b&gt;EB33_RS09810&lt;/b&gt;&lt;br&gt;Blp family class II bacteriocin&lt;br&gt;Location: 66981 - 67214&lt;br&gt;&lt;br&gt;&lt;b&gt;BlastP hit with ctg59_1&lt;/b&gt;&lt;br&gt;Percentage identity: 92&lt;br&gt;Percentage coverage: 95&lt;br&gt;BLAST bit score: 49&lt;br&gt;E-value: 1.64e-07" locus_tag="EB33_RS09810" class="clusterblast-orf" id="general-1_all_1_4_7"  />
</g>
<g id="a1_008"  >
<polygon points="534,240 538,240 543,235 538,230 534,230 534,240 " style="fill:#15d815; stroke-width:1; stroke:black; " description="&lt;b&gt;EB33_RS09815&lt;/b&gt;&lt;br&gt;Blp family class II bacteriocin&lt;br&gt;Location: 67227 - 67409&lt;br&gt;&lt;br&gt;&lt;b&gt;BlastP hit with ctg59_2&lt;/b&gt;&lt;br&gt;Percentage identity: 83&lt;br&gt;Percentage coverage: 100&lt;br&gt;BLAST bit score: 80&lt;br&gt;E-value: 5.87e-20" locus_tag="EB33_RS09815" class="clusterblast-orf" id="general-1_all_1_4_8"  />
</g>
<g id="a1_009"  >
<polygon points="559,240 579,240 584,235 579,230 559,230 559,240 " style="fill:white; stroke-width:1; stroke:black; " description="&lt;b&gt;EB33_RS09820&lt;/b&gt;&lt;br&gt;PedC/BrcD family bacteriocin maturation disulfide isomerase&lt;br&gt;Location: 67754 - 68263" locus_tag="EB33_RS09820" class="clusterblast-orf" id="general-1_all_1_4_9"  />
</g>
<g id="a1_0010"  >
<polygon points="596,235 601,230 617,230 617,240 601,240 596,235 " style="fill:white; stroke-width:1; stroke:black; " description="&lt;b&gt;EB33_RS09825&lt;/b&gt;&lt;br&gt;helix-turn-helix domain-containing protein&lt;br&gt;Location: 68504 - 68938" locus_tag="EB33_RS09825" class="clusterblast-orf" id="general-1_all_1_4_10"  />
</g>
<g id="a1_0011"  >
<polygon points="624,240 642,240 647,235 642,230 624,230 624,240 " style="fill:white; stroke-width:1; stroke:black; " description="&lt;b&gt;EB33_RS09830&lt;/b&gt;&lt;br&gt;hypothetical protein&lt;br&gt;Location: 69082 - 69552" locus_tag="EB33_RS09830" class="clusterblast-orf" id="general-1_all_1_4_11"  />
</g>
<g id="a1_0012"  >
<polygon points="656,240 704,240 709,235 704,230 656,230 656,240 " style="fill:white; stroke-width:1; stroke:black; " description="&lt;b&gt;EB33_RS09835&lt;/b&gt;&lt;br&gt;replication initiation factor domain-containing protein&lt;br&gt;Location: 69751 - 70845" locus_tag="EB33_RS09835" class="clusterblast-orf" id="general-1_all_1_4_12"  />
</g>
<g id="a1_0013"  >
<polygon points="712,240 718,240 723,235 718,230 712,230 712,240 " style="fill:white; stroke-width:1; stroke:black; " description="&lt;b&gt;EB33_RS09840&lt;/b&gt;&lt;br&gt;DUF3173 domain-containing protein&lt;br&gt;Location: 70910 - 71128" locus_tag="EB33_RS09840" class="clusterblast-orf" id="general-1_all_1_4_13"  />
</g>
<g id="a1_0014"  >
<polygon points="722,240 775,240 780,235 775,230 722,230 722,240 " style="fill:white; stroke-width:1; stroke:black; " description="&lt;b&gt;EB33_RS09845&lt;/b&gt;&lt;br&gt;site-specific integrase&lt;br&gt;Location: 71112 - 72296" locus_tag="EB33_RS09845" class="clusterblast-orf" id="general-1_all_1_4_14"  />
</g>
<g label="NZ_KB946108" description="NZ_KB946108 (78814-95380): Enterococcus faecium EnGen0263 strain UAA1280 acvJ... (10% of genes show similarity), RiPP-like" class="clusterblast-cluster"  >
<text x="5" y="270" class="clusterblast-acc"  >
<a xlink:href="https://antismash-db.secondarymetabolites.org/area?record=NZ_KB946108&amp;start=78814&amp;end=95380" target="_blank">NZ_KB946108 (78814-95380)</a>: Enterococcus faecium EnGen0263 strain UAA1280 acvJ... (10% of genes show similarity), RiPP-like</text>
<line x1="10" y1="285" x2="778.0" y2="285" style="stroke-width:1; stroke:grey; "  />
</g>
<g id="a1_000"  >
<polygon points="45,290 63,290 68,285 63,280 45,280 45,290 " style="fill:white; stroke-width:1; stroke:black; " description="&lt;b&gt;UA3_RS14245&lt;/b&gt;&lt;br&gt;DNA starvation/stationary phase protection protein&lt;br&gt;Location: 80385 - 80852" locus_tag="UA3_RS14245" class="clusterblast-orf" id="general-1_all_1_5_0"  />
</g>
<g id="a1_001"  >
<polygon points="93,290 110,290 115,285 110,280 93,280 93,290 " style="fill:white; stroke-width:1; stroke:black; " description="&lt;b&gt;UA3_RS14250&lt;/b&gt;&lt;br&gt;50S ribosomal protein L13&lt;br&gt;Location: 81372 - 81815" locus_tag="UA3_RS14250" class="clusterblast-orf" id="general-1_all_1_5_1"  />
</g>
<g id="a1_002"  >
<polygon points="115,290 129,290 134,285 129,280 115,280 115,290 " style="fill:white; stroke-width:1; stroke:black; " description="&lt;b&gt;UA3_RS14255&lt;/b&gt;&lt;br&gt;30S ribosomal protein S9&lt;br&gt;Location: 81831 - 82223" locus_tag="UA3_RS14255" class="clusterblast-orf" id="general-1_all_1_5_2"  />
</g>
<g id="a1_003"  >
<polygon points="137,285 142,280 153,280 153,290 142,290 137,285 " style="fill:white; stroke-width:1; stroke:black; " description="&lt;b&gt;UA3_RS15980&lt;/b&gt;&lt;br&gt;tyrosine-type recombinase/integrase&lt;br&gt;Location: 82283 - 82604" locus_tag="UA3_RS15980" class="clusterblast-orf" id="general-1_all_1_5_3"  />
</g>
<g id="a1_004"  >
<polygon points="183,285 188,280 200,280 200,290 188,290 183,285 " style="fill:white; stroke-width:1; stroke:black; " description="&lt;b&gt;UA3_RS14260&lt;/b&gt;&lt;br&gt;hypothetical protein&lt;br&gt;Location: 83236 - 83574" locus_tag="UA3_RS14260" class="clusterblast-orf" id="general-1_all_1_5_4"  />
</g>
<g id="a1_005"  >
<polygon points="201,285 206,280 208,280 208,290 206,290 201,285 " style="fill:white; stroke-width:1; stroke:black; " description="&lt;b&gt;UA3_RS15985&lt;/b&gt;&lt;br&gt;class IIb bacteriocin, lactobin A/cerein 7B family&lt;br&gt;Location: 83596 - 83739" locus_tag="UA3_RS15985" class="clusterblast-orf" id="general-1_all_1_5_5"  />
</g>
<g id="a1_006"  >
<polygon points="211,285 216,280 218,280 218,290 216,290 211,285 " style="fill:white; stroke-width:1; stroke:black; " description="&lt;b&gt;UA3_RS16685&lt;/b&gt;&lt;br&gt;hypothetical protein&lt;br&gt;Location: 83815 - 83949" locus_tag="UA3_RS16685" class="clusterblast-orf" id="general-1_all_1_5_6"  />
</g>
<g id="a1_007"  >
<polygon points="231,290 332,290 337,285 332,280 231,280 231,290 " style="fill:white; stroke-width:1; stroke:black; " description="&lt;b&gt;UA3_RS14265&lt;/b&gt;&lt;br&gt;peptide cleavage/export ABC transporter&lt;br&gt;Location: 84225 - 86396" locus_tag="UA3_RS14265" class="clusterblast-orf" id="general-1_all_1_5_7"  />
</g>
<g id="a1_008"  >
<polygon points="341,290 400,290 405,285 400,280 341,280 341,290 " style="fill:white; stroke-width:1; stroke:black; " description="&lt;b&gt;UA3_RS14270&lt;/b&gt;&lt;br&gt;GHKL domain-containing protein&lt;br&gt;Location: 86489 - 87802" locus_tag="UA3_RS14270" class="clusterblast-orf" id="general-1_all_1_5_8"  />
</g>
<g id="a1_009"  >
<polygon points="405,290 436,290 441,285 436,280 405,280 405,290 " style="fill:white; stroke-width:1; stroke:black; " description="&lt;b&gt;UA3_RS14275&lt;/b&gt;&lt;br&gt;LytTR family DNA-binding domain-containing protein&lt;br&gt;Location: 87804 - 88562" locus_tag="UA3_RS14275" class="clusterblast-orf" id="general-1_all_1_5_9"  />
</g>
<g id="a1_0010"  >
<polygon points="509,290 515,290 520,285 515,280 509,280 509,290 " style="fill:white; stroke-width:1; stroke:black; " description="&lt;b&gt;UA3_RS14280&lt;/b&gt;&lt;br&gt;Blp family class II bacteriocin&lt;br&gt;Location: 89952 - 90185" locus_tag="UA3_RS14280" class="clusterblast-orf" id="general-1_all_1_5_10"  />
</g>
<g id="a1_0011"  >
<polygon points="521,290 525,290 530,285 525,280 521,280 521,290 " style="fill:#15d815; stroke-width:1; stroke:black; " description="&lt;b&gt;UA3_RS14285&lt;/b&gt;&lt;br&gt;Blp family class II bacteriocin&lt;br&gt;Location: 90198 - 90380&lt;br&gt;&lt;br&gt;&lt;b&gt;BlastP hit with ctg59_2&lt;/b&gt;&lt;br&gt;Percentage identity: 85&lt;br&gt;Percentage coverage: 100&lt;br&gt;BLAST bit score: 81&lt;br&gt;E-value: 2.91e-20" locus_tag="UA3_RS14285" class="clusterblast-orf" id="general-1_all_1_5_11"  />
</g>
<g id="a1_0012"  >
<polygon points="529,290 532,290 537,285 532,280 529,280 529,290 " style="fill:white; stroke-width:1; stroke:black; " description="&lt;b&gt;UA3_RS16605&lt;/b&gt;&lt;br&gt;hypothetical protein&lt;br&gt;Location: 90374 - 90532" locus_tag="UA3_RS16605" class="clusterblast-orf" id="general-1_all_1_5_12"  />
</g>
<g id="a1_0013"  >
<polygon points="547,285 552,280 555,280 555,290 552,290 547,285 " style="fill:white; stroke-width:1; stroke:black; " description="&lt;b&gt;UA3_RS16610&lt;/b&gt;&lt;br&gt;hypothetical protein&lt;br&gt;Location: 90744 - 90908" locus_tag="UA3_RS16610" class="clusterblast-orf" id="general-1_all_1_5_13"  />
</g>
<g id="a1_0014"  >
<polygon points="568,290 569,290 574,285 569,280 568,280 568,290 " style="fill:#1515d8; stroke-width:1; stroke:black; " description="&lt;b&gt;UA3_RS15995&lt;/b&gt;&lt;br&gt;bacteriocin&lt;br&gt;Location: 91168 - 91305&lt;br&gt;&lt;br&gt;&lt;b&gt;BlastP hit with ctg59_3&lt;/b&gt;&lt;br&gt;Percentage identity: 85&lt;br&gt;Percentage coverage: 100&lt;br&gt;BLAST bit score: 78&lt;br&gt;E-value: 9.32e-20" locus_tag="UA3_RS15995" class="clusterblast-orf" id="general-1_all_1_5_14"  />
</g>
<g id="a1_0015"  >
<polygon points="575,290 595,290 600,285 595,280 575,280 575,290 " style="fill:white; stroke-width:1; stroke:black; " description="&lt;b&gt;UA3_RS15175&lt;/b&gt;&lt;br&gt;PedC/BrcD family bacteriocin maturation disulfide isomerase&lt;br&gt;Location: 91322 - 91840" locus_tag="UA3_RS15175" class="clusterblast-orf" id="general-1_all_1_5_15"  />
</g>
<g id="a1_0016"  >
<polygon points="609,290 617,290 622,285 617,280 609,280 609,290 " style="fill:white; stroke-width:1; stroke:black; " description="&lt;b&gt;UA3_RS16615&lt;/b&gt;&lt;br&gt;hypothetical protein&lt;br&gt;Location: 92029 - 92289" locus_tag="UA3_RS16615" class="clusterblast-orf" id="general-1_all_1_5_16"  />
</g>
<g id="a1_0017"  >
<polygon points="632,290 666,290 671,285 666,280 632,280 632,290 " style="fill:white; stroke-width:1; stroke:black; " description="&lt;b&gt;UA3_RS14300&lt;/b&gt;&lt;br&gt;PTS sugar transporter subunit IIC&lt;br&gt;Location: 92492 - 93298" locus_tag="UA3_RS14300" class="clusterblast-orf" id="general-1_all_1_5_17"  />
</g>
<g id="a1_0018"  >
<polygon points="670,290 705,290 710,285 705,280 670,280 670,290 " style="fill:white; stroke-width:1; stroke:black; " description="&lt;b&gt;UA3_RS14305&lt;/b&gt;&lt;br&gt;PTS system mannose/fructose/sorbose family transporter subunit IID&lt;br&gt;Location: 93273 - 94109" locus_tag="UA3_RS14305" class="clusterblast-orf" id="general-1_all_1_5_18"  />
</g>
<g id="a1_0019"  >
<polygon points="711,290 729,290 734,285 729,280 711,280 711,290 " style="fill:white; stroke-width:1; stroke:black; " description="&lt;b&gt;UA3_RS14310&lt;/b&gt;&lt;br&gt;PTS sugar transporter subunit IIB&lt;br&gt;Location: 94121 - 94594" locus_tag="UA3_RS14310" class="clusterblast-orf" id="general-1_all_1_5_19"  />
</g>
<g label="NZ_CP072983" description="NZ_CP072983 (327303-342619): Lactobacillus intestinalis strain DSM 6629 chrom... (17% of genes show similarity), RiPP-like" class="clusterblast-cluster"  >
<text x="5" y="320" class="clusterblast-acc"  >
<a xlink:href="https://antismash-db.secondarymetabolites.org/area?record=NZ_CP072983&amp;start=327303&amp;end=342619" target="_blank">NZ_CP072983 (327303-342619)</a>: Lactobacillus intestinalis strain DSM 6629 chrom... (17% of genes show similarity), RiPP-like</text>
<line x1="10" y1="335" x2="778.0" y2="335" style="stroke-width:1; stroke:grey; "  />
</g>
<g id="a1_000"  >
<polygon points="41,340 69,340 74,335 69,330 41,330 41,340 " style="fill:#d815d8; stroke-width:1; stroke:black; " description="&lt;b&gt;KBW87_RS01645&lt;/b&gt;&lt;br&gt;histidine phosphatase family protein&lt;br&gt;Location: 327742 - 328422&lt;br&gt;&lt;br&gt;&lt;b&gt;BlastP hit with ctg59_5&lt;/b&gt;&lt;br&gt;Percentage identity: 80&lt;br&gt;Percentage coverage: 99&lt;br&gt;BLAST bit score: 374&lt;br&gt;E-value: 3.66e-131" locus_tag="KBW87_RS01645" class="clusterblast-orf" id="general-1_all_1_6_0"  />
</g>
<g id="a1_001"  >
<polygon points="77,340 116,340 121,335 116,330 77,330 77,340 " style="fill:#d8d815; stroke-width:1; stroke:black; " description="&lt;b&gt;KBW87_RS01650&lt;/b&gt;&lt;br&gt;cation diffusion facilitator family transporter&lt;br&gt;Location: 328486 - 329382&lt;br&gt;&lt;br&gt;&lt;b&gt;BlastP hit with ctg59_6&lt;/b&gt;&lt;br&gt;Percentage identity: 65&lt;br&gt;Percentage coverage: 98&lt;br&gt;BLAST bit score: 389&lt;br&gt;E-value: 4.14e-135" locus_tag="KBW87_RS01650" class="clusterblast-orf" id="general-1_all_1_6_1"  />
</g>
<g id="a1_002"  >
<polygon points="121,340 125,340 130,335 125,330 121,330 121,340 " style="fill:#15d8d8; stroke-width:1; stroke:black; " description="&lt;b&gt;KBW87_RS01655&lt;/b&gt;&lt;br&gt;hypothetical protein&lt;br&gt;Location: 329392 - 329577&lt;br&gt;&lt;br&gt;&lt;b&gt;BlastP hit with ctg59_7&lt;/b&gt;&lt;br&gt;Percentage identity: 52&lt;br&gt;Percentage coverage: 95&lt;br&gt;BLAST bit score: 57&lt;br&gt;E-value: 3.43e-11" locus_tag="KBW87_RS01655" class="clusterblast-orf" id="general-1_all_1_6_2"  />
</g>
<g id="a1_003"  >
<polygon points="130,340 158,340 163,335 158,330 130,330 130,340 " style="fill:white; stroke-width:1; stroke:black; " description="&lt;b&gt;KBW87_RS01660&lt;/b&gt;&lt;br&gt;2,3-diphosphoglycerate-dependent phosphoglycerate mutase&lt;br&gt;Location: 329579 - 330256" locus_tag="KBW87_RS01660" class="clusterblast-orf" id="general-1_all_1_6_3"  />
</g>
<g id="a1_004"  >
<polygon points="170,340 210,340 215,335 210,330 170,330 170,340 " style="fill:white; stroke-width:1; stroke:black; " description="&lt;b&gt;KBW87_RS01665&lt;/b&gt;&lt;br&gt;AAA family ATPase&lt;br&gt;Location: 330391 - 331326" locus_tag="KBW87_RS01665" class="clusterblast-orf" id="general-1_all_1_6_4"  />
</g>
<g id="a1_005"  >
<polygon points="250,340 256,340 261,335 256,330 250,330 250,340 " style="fill:white; stroke-width:1; stroke:black; " description="&lt;b&gt;KBW87_RS01670&lt;/b&gt;&lt;br&gt;hypothetical protein&lt;br&gt;Location: 332058 - 332270" locus_tag="KBW87_RS01670" class="clusterblast-orf" id="general-1_all_1_6_5"  />
</g>
<g id="a1_006"  >
<polygon points="262,340 267,340 272,335 267,330 262,330 262,340 " style="fill:white; stroke-width:1; stroke:black; " description="&lt;b&gt;KBW87_RS01675&lt;/b&gt;&lt;br&gt;Blp family class II bacteriocin&lt;br&gt;Location: 332304 - 332507" locus_tag="KBW87_RS01675" class="clusterblast-orf" id="general-1_all_1_6_6"  />
</g>
<g id="a1_007"  >
<polygon points="292,340 294,340 299,335 294,330 292,330 292,340 " style="fill:white; stroke-width:1; stroke:black; " description="&lt;b&gt;KBW87_RS01680&lt;/b&gt;&lt;br&gt;bacteriocin&lt;br&gt;Location: 332927 - 333070" locus_tag="KBW87_RS01680" class="clusterblast-orf" id="general-1_all_1_6_7"  />
</g>
<g id="a1_008"  >
<polygon points="300,340 359,340 364,335 359,330 300,330 300,340 " style="fill:white; stroke-width:1; stroke:black; " description="&lt;b&gt;KBW87_RS01685&lt;/b&gt;&lt;br&gt;GHKL domain-containing protein&lt;br&gt;Location: 333084 - 334406" locus_tag="KBW87_RS01685" class="clusterblast-orf" id="general-1_all_1_6_8"  />
</g>
<g id="a1_009"  >
<polygon points="364,340 398,340 403,335 398,330 364,330 364,340 " style="fill:white; stroke-width:1; stroke:black; " description="&lt;b&gt;KBW87_RS01690&lt;/b&gt;&lt;br&gt;LytTR family DNA-binding domain-containing protein&lt;br&gt;Location: 334399 - 335202" locus_tag="KBW87_RS01690" class="clusterblast-orf" id="general-1_all_1_6_9"  />
</g>
<g id="a1_0010"  >
<polygon points="409,340 423,340 428,335 423,330 409,330 409,340 " style="fill:white; stroke-width:1; stroke:black; " description="&lt;b&gt;KBW87_RS01695&lt;/b&gt;&lt;br&gt;hypothetical protein&lt;br&gt;Location: 335323 - 335727" locus_tag="KBW87_RS01695" class="clusterblast-orf" id="general-1_all_1_6_10"  />
</g>
<g id="a1_0011"  >
<polygon points="429,340 515,340 520,335 515,330 429,330 429,340 " style="fill:white; stroke-width:1; stroke:black; " description="&lt;b&gt;KBW87_RS01700&lt;/b&gt;&lt;br&gt;peptide cleavage/export ABC transporter&lt;br&gt;Location: 335745 - 337619" locus_tag="KBW87_RS01700" class="clusterblast-orf" id="general-1_all_1_6_11"  />
</g>
<g id="a1_0012"  >
<polygon points="520,340 544,340 549,335 544,330 520,330 520,340 " style="fill:white; stroke-width:1; stroke:black; " description="&lt;b&gt;KBW87_RS01705&lt;/b&gt;&lt;br&gt;hypothetical protein&lt;br&gt;Location: 337630 - 338214" locus_tag="KBW87_RS01705" class="clusterblast-orf" id="general-1_all_1_6_12"  />
</g>
<g id="a1_0013"  >
<polygon points="556,335 561,330 621,330 621,340 561,340 556,335 " style="fill:white; stroke-width:1; stroke:black; " description="&lt;b&gt;KBW87_RS01710&lt;/b&gt;&lt;br&gt;aminopeptidase C&lt;br&gt;Location: 338359 - 339705" locus_tag="KBW87_RS01710" class="clusterblast-orf" id="general-1_all_1_6_13"  />
</g>
<g id="a1_0014"  >
<polygon points="623,335 628,330 638,330 638,340 628,340 623,335 " style="fill:white; stroke-width:1; stroke:black; " description="&lt;b&gt;KBW87_RS01715&lt;/b&gt;&lt;br&gt;hypothetical protein&lt;br&gt;Location: 339759 - 340055" locus_tag="KBW87_RS01715" class="clusterblast-orf" id="general-1_all_1_6_14"  />
</g>
<g id="a1_0015"  >
<polygon points="644,340 666,340 671,335 666,330 644,330 644,340 " style="fill:white; stroke-width:1; stroke:black; " description="&lt;b&gt;KBW87_RS01720&lt;/b&gt;&lt;br&gt;dUTP diphosphatase&lt;br&gt;Location: 340191 - 340742" locus_tag="KBW87_RS01720" class="clusterblast-orf" id="general-1_all_1_6_15"  />
</g>
<g id="a1_0016"  >
<polygon points="671,340 733,340 738,335 733,330 671,330 671,340 " style="fill:white; stroke-width:1; stroke:black; " description="&lt;b&gt;KBW87_RS01725&lt;/b&gt;&lt;br&gt;DNA repair protein RadA&lt;br&gt;Location: 340742 - 342118" locus_tag="KBW87_RS01725" class="clusterblast-orf" id="general-1_all_1_6_16"  />
</g>
</svg>
