<svg xmlns="http://www.w3.org/2000/svg" xmlns:xlink="http://www.w3.org/1999/xlink" version="1.1" x="0" y="0" height="230" width="800" viewBox="0 0 800 230" preserveAspectRatio="none"  >
<g label="Query sequence" class="clusterblast-cluster"  >
<text x="5" y="20" class="clusterblast-acc"  >
Query sequence</text>
<line x1="10" y1="35" x2="778.0" y2="35" style="stroke-width:1; stroke:grey; "  />
<polygon points="261,40 266,40 271,35 266,30 261,30 261,40 " style="fill:#d81515; stroke-width:1; stroke:black; " description="&lt;b&gt;ctg59_1&lt;/b&gt;&lt;br&gt;ctg59 1&lt;br&gt;Location: 603 - 801" locus_tag="ctg59_1" class="clusterblast-orf" id="dummy-1_q0_0_all"  />
<polygon points="272,40 277,40 282,35 277,30 272,30 272,40 " style="fill:#15d815; stroke-width:1; stroke:black; " description="&lt;b&gt;ctg59_2&lt;/b&gt;&lt;br&gt;ctg59 2&lt;br&gt;Location: 813 - 996" locus_tag="ctg59_2" class="clusterblast-orf" id="dummy-1_q1_0_all"  />
<polygon points="322,40 325,40 330,35 325,30 322,30 322,40 " style="fill:#1515d8; stroke-width:1; stroke:black; " description="&lt;b&gt;ctg59_3&lt;/b&gt;&lt;br&gt;ctg59 3&lt;br&gt;Location: 1736 - 1877" locus_tag="ctg59_3" class="clusterblast-orf" id="dummy-1_q2_0_all"  />
<polygon points="380,40 416,40 421,35 416,30 380,30 380,40 " style="fill:white; stroke-width:1; stroke:black; " description="&lt;b&gt;ctg59_4&lt;/b&gt;&lt;br&gt;ctg59 4&lt;br&gt;Location: 2811 - 3564" locus_tag="ctg59_4" class="clusterblast-orf" id="dummy-1_q3_0_all"  />
<polygon points="425,40 457,40 462,35 457,30 425,30 425,40 " style="fill:#d815d8; stroke-width:1; stroke:black; " description="&lt;b&gt;ctg59_5&lt;/b&gt;&lt;br&gt;ctg59 5&lt;br&gt;Location: 3628 - 4309" locus_tag="ctg59_5" class="clusterblast-orf" id="dummy-1_q4_0_all"  />
<polygon points="462,40 505,40 510,35 505,30 462,30 462,40 " style="fill:#d8d815; stroke-width:1; stroke:black; " description="&lt;b&gt;ctg59_6&lt;/b&gt;&lt;br&gt;ctg59 6&lt;br&gt;Location: 4317 - 5208" locus_tag="ctg59_6" class="clusterblast-orf" id="dummy-1_q5_0_all"  />
<polygon points="510,40 515,40 520,35 515,30 510,30 510,40 " style="fill:#15d8d8; stroke-width:1; stroke:black; " description="&lt;b&gt;ctg59_7&lt;/b&gt;&lt;br&gt;ctg59 7&lt;br&gt;Location: 5209 - 5377" locus_tag="ctg59_7" class="clusterblast-orf" id="dummy-1_q6_0_all"  />
</g>
<g label="NZ_CP072983" description="NZ_CP072983 (327303-342619): Lactobacillus intestinalis strain DSM 6629 chrom... (17% of genes show similarity), RiPP-like" class="clusterblast-cluster"  >
<text x="5" y="70" class="clusterblast-acc"  >
<a xlink:href="https://antismash-db.secondarymetabolites.org/area?record=NZ_CP072983&amp;start=327303&amp;end=342619" target="_blank">NZ_CP072983 (327303-342619)</a>: Lactobacillus intestinalis strain DSM 6629 chrom... (17% of genes show similarity), RiPP-like</text>
<line x1="10" y1="85" x2="778.0" y2="85" style="stroke-width:1; stroke:grey; "  />
</g>
<g id="a1_000"  >
<polygon points="0,90 31,90 36,85 31,80 0,80 0,90 " style="fill:#d815d8; stroke-width:1; stroke:black; " description="&lt;b&gt;KBW87_RS01645&lt;/b&gt;&lt;br&gt;histidine phosphatase family protein&lt;br&gt;Location: 327742 - 328422&lt;br&gt;&lt;br&gt;&lt;b&gt;BlastP hit with ctg59_5&lt;/b&gt;&lt;br&gt;Percentage identity: 80&lt;br&gt;Percentage coverage: 99&lt;br&gt;BLAST bit score: 374&lt;br&gt;E-value: 3.66e-131" locus_tag="KBW87_RS01645" class="clusterblast-orf" id="dummy-1_h1_6_0"  />
</g>
<g id="a1_001"  >
<polygon points="40,90 83,90 88,85 83,80 40,80 40,90 " style="fill:#d8d815; stroke-width:1; stroke:black; " description="&lt;b&gt;KBW87_RS01650&lt;/b&gt;&lt;br&gt;cation diffusion facilitator family transporter&lt;br&gt;Location: 328486 - 329382&lt;br&gt;&lt;br&gt;&lt;b&gt;BlastP hit with ctg59_6&lt;/b&gt;&lt;br&gt;Percentage identity: 65&lt;br&gt;Percentage coverage: 98&lt;br&gt;BLAST bit score: 389&lt;br&gt;E-value: 4.14e-135" locus_tag="KBW87_RS01650" class="clusterblast-orf" id="dummy-1_h1_6_1"  />
</g>
<g id="a1_002"  >
<polygon points="89,90 94,90 99,85 94,80 89,80 89,90 " style="fill:#15d8d8; stroke-width:1; stroke:black; " description="&lt;b&gt;KBW87_RS01655&lt;/b&gt;&lt;br&gt;hypothetical protein&lt;br&gt;Location: 329392 - 329577&lt;br&gt;&lt;br&gt;&lt;b&gt;BlastP hit with ctg59_7&lt;/b&gt;&lt;br&gt;Percentage identity: 52&lt;br&gt;Percentage coverage: 95&lt;br&gt;BLAST bit score: 57&lt;br&gt;E-value: 3.43e-11" locus_tag="KBW87_RS01655" class="clusterblast-orf" id="dummy-1_h1_6_2"  />
</g>
<g id="a1_003"  >
<polygon points="99,90 131,90 136,85 131,80 99,80 99,90 " style="fill:white; stroke-width:1; stroke:black; " description="&lt;b&gt;KBW87_RS01660&lt;/b&gt;&lt;br&gt;2,3-diphosphoglycerate-dependent phosphoglycerate mutase&lt;br&gt;Location: 329579 - 330256" locus_tag="KBW87_RS01660" class="clusterblast-orf" id="dummy-1_h1_6_3"  />
</g>
<g id="a1_004"  >
<polygon points="143,90 189,90 194,85 189,80 143,80 143,90 " style="fill:white; stroke-width:1; stroke:black; " description="&lt;b&gt;KBW87_RS01665&lt;/b&gt;&lt;br&gt;AAA family ATPase&lt;br&gt;Location: 330391 - 331326" locus_tag="KBW87_RS01665" class="clusterblast-orf" id="dummy-1_h1_6_4"  />
</g>
<g id="a1_005"  >
<polygon points="234,90 240,90 245,85 240,80 234,80 234,90 " style="fill:white; stroke-width:1; stroke:black; " description="&lt;b&gt;KBW87_RS01670&lt;/b&gt;&lt;br&gt;hypothetical protein&lt;br&gt;Location: 332058 - 332270" locus_tag="KBW87_RS01670" class="clusterblast-orf" id="dummy-1_h1_6_5"  />
</g>
<g id="a1_006"  >
<polygon points="247,90 253,90 258,85 253,80 247,80 247,90 " style="fill:white; stroke-width:1; stroke:black; " description="&lt;b&gt;KBW87_RS01675&lt;/b&gt;&lt;br&gt;Blp family class II bacteriocin&lt;br&gt;Location: 332304 - 332507" locus_tag="KBW87_RS01675" class="clusterblast-orf" id="dummy-1_h1_6_6"  />
</g>
<g id="a1_007"  >
<polygon points="281,90 284,90 289,85 284,80 281,80 281,90 " style="fill:white; stroke-width:1; stroke:black; " description="&lt;b&gt;KBW87_RS01680&lt;/b&gt;&lt;br&gt;bacteriocin&lt;br&gt;Location: 332927 - 333070" locus_tag="KBW87_RS01680" class="clusterblast-orf" id="dummy-1_h1_6_7"  />
</g>
<g id="a1_008"  >
<polygon points="289,90 356,90 361,85 356,80 289,80 289,90 " style="fill:white; stroke-width:1; stroke:black; " description="&lt;b&gt;KBW87_RS01685&lt;/b&gt;&lt;br&gt;GHKL domain-containing protein&lt;br&gt;Location: 333084 - 334406" locus_tag="KBW87_RS01685" class="clusterblast-orf" id="dummy-1_h1_6_8"  />
</g>
<g id="a1_009"  >
<polygon points="361,90 399,90 404,85 399,80 361,80 361,90 " style="fill:white; stroke-width:1; stroke:black; " description="&lt;b&gt;KBW87_RS01690&lt;/b&gt;&lt;br&gt;LytTR family DNA-binding domain-containing protein&lt;br&gt;Location: 334399 - 335202" locus_tag="KBW87_RS01690" class="clusterblast-orf" id="dummy-1_h1_6_9"  />
</g>
<g id="a1_0010"  >
<polygon points="411,90 428,90 433,85 428,80 411,80 411,90 " style="fill:white; stroke-width:1; stroke:black; " description="&lt;b&gt;KBW87_RS01695&lt;/b&gt;&lt;br&gt;hypothetical protein&lt;br&gt;Location: 335323 - 335727" locus_tag="KBW87_RS01695" class="clusterblast-orf" id="dummy-1_h1_6_10"  />
</g>
<g id="a1_0011"  >
<polygon points="434,90 530,90 535,85 530,80 434,80 434,90 " style="fill:white; stroke-width:1; stroke:black; " description="&lt;b&gt;KBW87_RS01700&lt;/b&gt;&lt;br&gt;peptide cleavage/export ABC transporter&lt;br&gt;Location: 335745 - 337619" locus_tag="KBW87_RS01700" class="clusterblast-orf" id="dummy-1_h1_6_11"  />
</g>
<g id="a1_0012"  >
<polygon points="536,90 563,90 568,85 563,80 536,80 536,90 " style="fill:white; stroke-width:1; stroke:black; " description="&lt;b&gt;KBW87_RS01705&lt;/b&gt;&lt;br&gt;hypothetical protein&lt;br&gt;Location: 337630 - 338214" locus_tag="KBW87_RS01705" class="clusterblast-orf" id="dummy-1_h1_6_12"  />
</g>
<g id="a1_0013"  >
<polygon points="576,85 581,80 649,80 649,90 581,90 576,85 " style="fill:white; stroke-width:1; stroke:black; " description="&lt;b&gt;KBW87_RS01710&lt;/b&gt;&lt;br&gt;aminopeptidase C&lt;br&gt;Location: 338359 - 339705" locus_tag="KBW87_RS01710" class="clusterblast-orf" id="dummy-1_h1_6_13"  />
</g>
<g id="a1_0014"  >
<polygon points="652,85 657,80 668,80 668,90 657,90 652,85 " style="fill:white; stroke-width:1; stroke:black; " description="&lt;b&gt;KBW87_RS01715&lt;/b&gt;&lt;br&gt;hypothetical protein&lt;br&gt;Location: 339759 - 340055" locus_tag="KBW87_RS01715" class="clusterblast-orf" id="dummy-1_h1_6_14"  />
</g>
<g id="a1_0015"  >
<polygon points="675,90 700,90 705,85 700,80 675,80 675,90 " style="fill:white; stroke-width:1; stroke:black; " description="&lt;b&gt;KBW87_RS01720&lt;/b&gt;&lt;br&gt;dUTP diphosphatase&lt;br&gt;Location: 340191 - 340742" locus_tag="KBW87_RS01720" class="clusterblast-orf" id="dummy-1_h1_6_15"  />
</g>
<g id="a1_0016"  >
<polygon points="705,90 775,90 780,85 775,80 705,80 705,90 " style="fill:white; stroke-width:1; stroke:black; " description="&lt;b&gt;KBW87_RS01725&lt;/b&gt;&lt;br&gt;DNA repair protein RadA&lt;br&gt;Location: 340742 - 342118" locus_tag="KBW87_RS01725" class="clusterblast-orf" id="dummy-1_h1_6_16"  />
</g>
</svg>
