<svg xmlns="http://www.w3.org/2000/svg" xmlns:xlink="http://www.w3.org/1999/xlink" version="1.1" x="0" y="0" height="230" width="800" viewBox="0 0 800 230" preserveAspectRatio="none"  >
<g label="Query sequence" class="clusterblast-cluster"  >
<text x="5" y="20" class="clusterblast-acc"  >
Query sequence</text>
<line x1="10" y1="35" x2="778.0" y2="35" style="stroke-width:1; stroke:grey; "  />
<polygon points="169,35 174,30 222,30 222,40 174,40 169,35 " style="fill:#d81515; stroke-width:1; stroke:black; " description="&lt;b&gt;ctg82_1&lt;/b&gt;&lt;br&gt;ctg82 1&lt;br&gt;Location: 520 - 1279" locus_tag="ctg82_1" class="clusterblast-orf" id="dummy-1_q0_0_all"  />
<polygon points="222,35 227,30 313,30 313,40 227,40 222,35 " style="fill:#15d815; stroke-width:1; stroke:black; " description="&lt;b&gt;ctg82_2&lt;/b&gt;&lt;br&gt;ctg82 2&lt;br&gt;Location: 1280 - 2594" locus_tag="ctg82_2" class="clusterblast-orf" id="dummy-1_q1_0_all"  />
<polygon points="319,35 324,30 471,30 471,40 324,40 319,35 " style="fill:#1515d8; stroke-width:1; stroke:black; " description="&lt;b&gt;ctg82_3&lt;/b&gt;&lt;br&gt;ctg82 3&lt;br&gt;Location: 2682 - 4854" locus_tag="ctg82_3" class="clusterblast-orf" id="dummy-1_q2_0_all"  />
<polygon points="529,40 564,40 569,35 564,30 529,30 529,40 " style="fill:white; stroke-width:1; stroke:black; " description="&lt;b&gt;ctg82_4&lt;/b&gt;&lt;br&gt;ctg82 4&lt;br&gt;Location: 5685 - 6258" locus_tag="ctg82_4" class="clusterblast-orf" id="dummy-1_q3_0_all"  />
<polygon points="574,40 607,40 612,35 607,30 574,30 574,40 " style="fill:white; stroke-width:1; stroke:black; " description="&lt;b&gt;ctg82_5&lt;/b&gt;&lt;br&gt;ctg82 5&lt;br&gt;Location: 6338 - 6875" locus_tag="ctg82_5" class="clusterblast-orf" id="dummy-1_q4_0_all"  />
</g>
<g label="NZ_LR607372" description="NZ_LR607372 (1332690-1344853): Enterococcus durans strain 4928STDY7387704 chr... (33% of genes show similarity), RiPP-like" class="clusterblast-cluster"  >
<text x="5" y="70" class="clusterblast-acc"  >
<a xlink:href="https://antismash-db.secondarymetabolites.org/area?record=NZ_LR607372&amp;start=1332690&amp;end=1344853" target="_blank">NZ_LR607372 (1332690-1344853)</a>: Enterococcus durans strain 4928STDY7387704 chr... (33% of genes show similarity), RiPP-like</text>
<line x1="10" y1="85" x2="778.0" y2="85" style="stroke-width:1; stroke:grey; "  />
</g>
<g id="a1_000"  >
<polygon points="0,90 135,90 140,85 135,80 0,80 0,90 " style="fill:white; stroke-width:1; stroke:black; " description="&lt;b&gt;FN740_RS05190&lt;/b&gt;&lt;br&gt;methionine--tRNA ligase&lt;br&gt;Location: 1332976 - 1334985" locus_tag="FN740_RS05190" class="clusterblast-orf" id="dummy-1_h1_10_0"  />
</g>
<g id="a1_001"  >
<polygon points="154,85 159,80 165,80 165,90 159,90 154,85 " style="fill:white; stroke-width:1; stroke:black; " description="&lt;b&gt;FN740_RS05195&lt;/b&gt;&lt;br&gt;hypothetical protein&lt;br&gt;Location: 1335197 - 1335352" locus_tag="FN740_RS05195" class="clusterblast-orf" id="dummy-1_h1_10_1"  />
</g>
<g id="a1_002"  >
<polygon points="179,85 184,80 230,80 230,90 184,90 179,85 " style="fill:#d81515; stroke-width:1; stroke:black; " description="&lt;b&gt;FN740_RS05200&lt;/b&gt;&lt;br&gt;LytTR family DNA-binding domain-containing protein&lt;br&gt;Location: 1335552 - 1336289&lt;br&gt;&lt;br&gt;&lt;b&gt;BlastP hit with ctg82_1&lt;/b&gt;&lt;br&gt;Percentage identity: 68&lt;br&gt;Percentage coverage: 97&lt;br&gt;BLAST bit score: 345&lt;br&gt;E-value: 3.68e-119" locus_tag="FN740_RS05200" class="clusterblast-orf" id="dummy-1_h1_10_2"  />
</g>
<g id="a1_003"  >
<polygon points="229,85 234,80 323,80 323,90 234,90 229,85 " style="fill:#15d815; stroke-width:1; stroke:black; " description="&lt;b&gt;FN740_RS05205&lt;/b&gt;&lt;br&gt;GHKL domain-containing protein&lt;br&gt;Location: 1336264 - 1337619&lt;br&gt;&lt;br&gt;&lt;b&gt;BlastP hit with ctg82_2&lt;/b&gt;&lt;br&gt;Percentage identity: 51&lt;br&gt;Percentage coverage: 101&lt;br&gt;BLAST bit score: 398&lt;br&gt;E-value: 6.29e-134" locus_tag="FN740_RS05205" class="clusterblast-orf" id="dummy-1_h1_10_3"  />
</g>
<g id="a1_004"  >
<polygon points="328,85 333,80 479,80 479,90 333,90 328,85 " style="fill:#1515d8; stroke-width:1; stroke:black; " description="&lt;b&gt;FN740_RS05210&lt;/b&gt;&lt;br&gt;peptide cleavage/export ABC transporter&lt;br&gt;Location: 1337691 - 1339853&lt;br&gt;&lt;br&gt;&lt;b&gt;BlastP hit with ctg82_3&lt;/b&gt;&lt;br&gt;Percentage identity: 66&lt;br&gt;Percentage coverage: 100&lt;br&gt;BLAST bit score: 910&lt;br&gt;E-value: 0.0" locus_tag="FN740_RS05210" class="clusterblast-orf" id="dummy-1_h1_10_4"  />
</g>
<g id="a1_005"  >
<polygon points="507,85 512,80 548,80 548,90 512,90 507,85 " style="fill:white; stroke-width:1; stroke:black; " description="&lt;b&gt;FN740_RS05215&lt;/b&gt;&lt;br&gt;hypothetical protein&lt;br&gt;Location: 1340254 - 1340838" locus_tag="FN740_RS05215" class="clusterblast-orf" id="dummy-1_h1_10_5"  />
</g>
<g id="a1_006"  >
<polygon points="560,90 646,90 651,85 646,80 560,80 560,90 " style="fill:white; stroke-width:1; stroke:black; " description="&lt;b&gt;FN740_RS05220&lt;/b&gt;&lt;br&gt;amino acid permease&lt;br&gt;Location: 1341010 - 1342323" locus_tag="FN740_RS05220" class="clusterblast-orf" id="dummy-1_h1_10_6"  />
</g>
<g id="a1_007"  >
<polygon points="686,90 736,90 741,85 736,80 686,80 686,90 " style="fill:white; stroke-width:1; stroke:black; " description="&lt;b&gt;FN740_RS05225&lt;/b&gt;&lt;br&gt;TatD family hydrolase&lt;br&gt;Location: 1342831 - 1343607" locus_tag="FN740_RS05225" class="clusterblast-orf" id="dummy-1_h1_10_7"  />
</g>
<g id="a1_008"  >
<polygon points="740,90 775,90 780,85 775,80 740,80 740,90 " style="fill:white; stroke-width:1; stroke:black; " description="&lt;b&gt;FN740_RS05230&lt;/b&gt;&lt;br&gt;ribonuclease M5&lt;br&gt;Location: 1343600 - 1344166" locus_tag="FN740_RS05230" class="clusterblast-orf" id="dummy-1_h1_10_8"  />
</g>
</svg>
